<?xml version="1.0" standalone="no"?>
<!DOCTYPE svg PUBLIC "-//W3C//DTD SVG 1.1//EN" "http://www.w3.org/Graphics/SVG/1.1/DTD/svg11.dtd" >
<svg xmlns="http://www.w3.org/2000/svg" xmlns:xlink="http://www.w3.org/1999/xlink" version="1.1">
<metadata></metadata>
<defs>
<font id="valerybold" horiz-adv-x="530" >
<font-face units-per-em="2048" ascent="1536" descent="-512" />
<missing-glyph horiz-adv-x="409" />
<glyph horiz-adv-x="0" />
<glyph horiz-adv-x="682" />
<glyph horiz-adv-x="0" />
<glyph horiz-adv-x="0" />
<glyph unicode="&#xd;" horiz-adv-x="409" />
<glyph unicode=" "  horiz-adv-x="409" />
<glyph unicode="&#x09;" horiz-adv-x="409" />
<glyph unicode="&#xa0;" horiz-adv-x="409" />
<glyph unicode="!" horiz-adv-x="198" d="M-20 37q0 27 19 46t48 19q27 0 46.5 -19t19.5 -46q0 -29 -19 -48.5t-47 -19.5q-29 0 -48 19.5t-19 48.5zM6 166v960q0 14 12.5 27.5t28.5 13.5q17 0 28 -13t11 -28v-960q0 -18 -10.5 -29.5t-28.5 -11.5q-17 0 -29 12t-12 29z" />
<glyph unicode="&#x22;" horiz-adv-x="301" d="M-16 1126q0 19 11 30t28 11h67q19 0 19 -20v-113q0 -41 -39 -41q-18 0 -29.5 11.5t-11.5 29.5v45q-2 -2 -7 1t-8 7l-6 5h2q-26 19 -26 34zM88 1130q2 16 12 26.5t27 10.5h68q20 0 20 -20v-113q0 -19 -11 -30t-30 -11t-30 11t-11 30v45q-2 0 -6 4h2l-23 15l-2 2h2 q-18 11 -18 30z" />
<glyph unicode="#" horiz-adv-x="532" d="M-14 16l53 326h-12q-18 0 -29.5 11.5t-11.5 29.5q0 17 11 27t30 10h22l53 295h-75q-18 0 -29.5 11.5t-11.5 25.5q0 19 11 30t30 11h88l55 340q6 34 47 34q16 -3 25.5 -19t9.5 -30l-57 -325h104q9 56 29.5 170t29.5 170q3 16 17 25t31 9q11 -5 20.5 -20.5t9.5 -28.5 l-53 -325h12q19 0 30 -11t11 -30q0 -14 -11.5 -25.5t-29.5 -11.5h-26l-50 -295h76q19 0 30 -10t11 -27q0 -18 -11.5 -29.5t-29.5 -11.5h-88l-55 -340q-2 -14 -15 -23.5t-34 -9.5q-13 1 -23 16t-10 31l55 326h-102q-9 -56 -30 -170t-30 -170q-4 -33 -45 -33q-13 1 -22.5 16 t-9.5 31zM135 420h103q6 38 23.5 138t25.5 157h-107z" />
<glyph unicode="$" d="M-16 289v94q0 14 11.5 25.5t29.5 11.5q13 0 24.5 -11.5t11.5 -25.5v-94q0 -52 29.5 -91t77.5 -51v496q-47 16 -84 37q-100 64 -100 168q0 80 53.5 142.5t130.5 80.5v55q0 14 12.5 27.5t28.5 13.5q18 0 29.5 -13t11.5 -28v-55q80 -17 133 -79.5t53 -143.5 q0 -18 -11.5 -29.5t-29.5 -11.5q-14 0 -25.5 12t-11.5 29q0 47 -31.5 87t-76.5 52v-278q88 -9 145 -9q15 0 28 -11.5t13 -29.5v-370q0 -82 -53 -145.5t-133 -80.5v-53q0 -19 -11 -30t-30 -11q-18 0 -29.5 11.5t-11.5 29.5v53q-73 26 -128.5 90t-55.5 136zM61 848 q0 -84 107 -119v260q-49 -9 -78 -47t-29 -94zM217.5 135.5q1.5 7.5 9.5 7.5h9q14 7 14 -8v-12q0 -7 -6 -10t-11 2l-10 10q-7 3 -5.5 10.5zM250 147q48 12 78 51t30 91v334q-88 4 -108 6v-482z" />
<glyph unicode="%" d="M-14 23l374 1118v-2q5 15 20 23.5t30 2.5t21.5 -21t2.5 -32l-123 -364l-250 -752q-6 -27 -34 -27h-15q-17 6 -24 21t-2 33zM-14 942v92q0 54 39 93.5t94 39.5q54 0 93.5 -39.5t39.5 -93.5v-92q0 -56 -39 -95.5t-94 -39.5q-56 0 -94.5 39t-38.5 96zM63 942q0 -23 16.5 -40 t39.5 -17q22 0 36.5 17t14.5 40v92q0 22 -14.5 37.5t-36.5 15.5q-23 0 -39.5 -15.5t-16.5 -37.5v-92zM170 102v93q0 57 38.5 95t94.5 38q57 0 95 -38t38 -95v-93q0 -56 -38 -94.5t-95 -38.5q-55 0 -94 38.5t-39 94.5zM252 102q0 -23 15 -37t36 -14q23 0 39 14t16 37v93 q0 22 -16.5 38.5t-38.5 16.5q-20 0 -35.5 -16.5t-15.5 -38.5v-93z" />
<glyph unicode="&#x26;" horiz-adv-x="845" d="M-6 203v372q0 126 100 185q-100 76 -100 190q0 95 66 161.5t161 66.5q94 0 161 -66.5t67 -161.5q0 -18 -10.5 -29.5t-28.5 -11.5t-29.5 11.5t-11.5 29.5q0 58 -45 102t-103 44q-60 0 -102.5 -43.5t-42.5 -102.5q0 -60 37.5 -100.5t99.5 -48.5h8q16 0 27.5 -10t11.5 -31 q0 -13 -12.5 -25t-26.5 -12h-10q-58 -1 -96.5 -45t-38.5 -103v-372q0 -61 42.5 -104.5t102.5 -43.5q58 0 103 44t45 104v334h-97q-22 0 -36.5 -15t-14.5 -35q0 -23 14 -38t37 -15q17 0 27 -11.5t10 -23.5q0 -43 -37 -43q-54 0 -91.5 37t-37.5 94q0 54 38 91.5t95 37.5h281 q41 0 73 30.5t32 74.5q0 41 -32.5 72.5t-72.5 31.5q-46 0 -77 -31t-31 -73q0 -41 -39 -41q-19 0 -30 11t-11 30q0 74 56 128t132 54q73 0 126.5 -54t53.5 -128q0 -76 -53 -130t-127 -54h-108v-334q0 -98 -67 -165t-161 -67q-95 0 -161 67t-66 165z" />
<glyph unicode="'" horiz-adv-x="192" d="M-18 1126q0 18 11.5 29.5t29.5 11.5h63q20 0 20 -20v-113q0 -18 -10.5 -29.5t-25.5 -11.5q-18 0 -29.5 11.5t-11.5 29.5v45q-2 -2 -7 1t-8 7l-6 5h2q-28 20 -28 34z" />
<glyph unicode="(" horiz-adv-x="335" d="M-16 567q0 220 49 394q54 182 143 282q13 13 29.5 15t25.5 -9q13 -10 14.5 -27t-7.5 -26q-78 -100 -127.5 -272.5t-49.5 -356.5q0 -195 47.5 -362.5t129.5 -261.5q12 -12 12 -28.5t-12 -25.5q-20 -12 -29 -12q-23 0 -33 10q-82 92 -143 291q-49 168 -49 389z" />
<glyph unicode=")" horiz-adv-x="337" d="M-19 -82.5q2 13.5 13 25.5q82 94 129 261.5t47 362.5t-47 364.5t-129 264.5v-2q-9 12 -6.5 30t12.5 33q8 7 21.5 6.5t19.5 -6.5q101 -113 156 -296q51 -175 51 -394q0 -217 -51 -389q-58 -195 -144 -291q-10 -10 -30 -10q-10 0 -37 19q-7 8 -5 21.5z" />
<glyph unicode="*" horiz-adv-x="307" d="M-18 1079q0 13 8 25q6 12 24.5 16t30.5 -4l16 -10v20q0 14 12.5 27.5t28.5 13.5q14 0 25.5 -13.5t11.5 -27.5v-20l17 10q29 14 57 -10q9 -10 6 -26.5t-18 -26.5l-29 -19l29 -20q15 -9 16.5 -27t-10.5 -37q-6 -6 -27 -6q-20 0 -26 8q-2 2 -6 4t-9 5v-19q0 -18 -11 -29.5 t-26 -11.5q-18 0 -29.5 11.5t-11.5 29.5v23l-10 -7h4l-6 -6q-8 -8 -26 -8q-26 0 -29 6q-19 41 2 62l33 22l-11 6h2l-30 21q-8 5 -8 18z" />
<glyph unicode="+" d="M-16 485q0 39 41 39h143v148q0 14 12.5 27.5t28.5 13.5q18 0 29.5 -13t11.5 -28v-148h145q41 0 41 -39q0 -18 -11.5 -29.5t-29.5 -11.5h-145v-147q0 -15 -11.5 -26t-29.5 -11q-17 0 -29 11t-12 26v147h-143q-18 0 -29.5 11.5t-11.5 29.5z" />
<glyph unicode="," horiz-adv-x="192" d="M-18 66q0 17 11.5 27.5t29.5 10.5h63q20 0 20 -20v-113q0 -17 -10.5 -27t-25.5 -10q-18 0 -29.5 10t-11.5 27v49q-11 7 -19 11q-28 21 -28 35z" />
<glyph unicode="-" d="M-16 485q0 39 41 39h370q41 0 41 -39q0 -18 -11.5 -29.5t-29.5 -11.5h-370q-18 0 -29.5 11.5t-11.5 29.5z" />
<glyph unicode="." horiz-adv-x="198" d="M-20 37q0 27 19 46t48 19q27 0 46.5 -19t19.5 -46q0 -29 -19 -48.5t-47 -19.5q-29 0 -48 19.5t-19 48.5z" />
<glyph unicode="/" d="M-14 23l374 1118v-2q5 15 20 23.5t30 2.5t21.5 -21t2.5 -32l-123 -364l-250 -752q-6 -27 -34 -27h-15q-17 6 -24 21t-2 33z" />
<glyph unicode="0" d="M-16 205v745q0 95 65.5 161.5t159.5 66.5q95 0 161 -66.5t66 -161.5v-745q0 -94 -66 -159.5t-161 -65.5q-94 0 -159.5 65.5t-65.5 159.5zM61 205q0 -58 44.5 -102t103.5 -44q57 0 100.5 42.5t48.5 99.5l-297 583v-579zM61 954l297 -583v579q0 60 -44.5 104t-104.5 44 q-56 0 -99.5 -43t-48.5 -101z" />
<glyph unicode="1" horiz-adv-x="241" d="M-18 14q1 5 2.5 8.5t3 5t6 5t6.5 4.5h-2l10 8l6 3t7.5 4.5t7.5 6.5v981h-6q-19 0 -30 11t-11 30q0 13 11.5 25t29.5 12q6 0 6 12q2 15 13.5 26t29.5 11q13 0 25 -13.5t12 -27.5q0 -2 -3 -8v-1061q13 -6 23 -12q4 -4 6 -4q1 0 4 -1.5t3.5 -2t3 -2t3.5 -2.5l2.5 -2.5 t2 -3.5t1 -4.5t1 -5.5t0.5 -7q0 -18 -11.5 -29.5t-29.5 -11.5h-92q-19 0 -32 14t-9 31z" />
<glyph unicode="2" d="M-16 848v92q0 95 65.5 161t159.5 66q88 0 166 -71q61 -74 61 -156q0 -72 -186 -518l-162 -367l-2 -4h309q16 0 27.5 -13t11.5 -28q0 -19 -11 -30t-28 -11h-370q-16 0 -33 17q-13 26 -4 47q9 9 182 422q188 439 188 485q0 55 -44 101t-105 46q-59 0 -103.5 -43.5 t-44.5 -103.5v-92q0 -17 -11 -29t-25 -12q-18 0 -29.5 11.5t-11.5 29.5z" />
<glyph unicode="3" horiz-adv-x="528" d="M-16 10q0 15 11.5 28t29.5 13q136 0 233.5 97.5t97.5 234.5q0 132 -92 229t-223 103h-16q-18 0 -29.5 11.5t-11.5 27.5q0 15 11.5 28t29.5 13q16 0 22 -2q116 14 205 96.5t102 197.5h-329q-41 0 -41 39q0 15 11.5 28t29.5 13h370q16 0 27.5 -13t11.5 -28 q0 -119 -63.5 -220t-167.5 -154q104 -50 167.5 -150t63.5 -219q0 -172 -119.5 -293t-289.5 -121q-19 0 -30 11t-11 30z" />
<glyph unicode="4" d="M-16 752v374q0 15 11.5 28t29.5 13q13 0 24.5 -13.5t11.5 -27.5v-331q126 14 211.5 108t85.5 223q0 14 12 27.5t25 13.5q18 0 29.5 -13t11.5 -28v-1116q0 -19 -11 -30t-30 -11q-14 0 -25.5 11.5t-11.5 29.5v875q-59 -81 -145.5 -125.5t-187.5 -44.5q-18 0 -29.5 11.5 t-11.5 25.5z" />
<glyph unicode="5" horiz-adv-x="528" d="M-16 10q0 15 11.5 28t29.5 13q136 0 233.5 97.5t97.5 234.5q0 136 -98 235t-233 99q-24 0 -31 10q-10 10 -10 27v372q0 15 11.5 28t29.5 13h370q16 0 27.5 -13t11.5 -28q0 -18 -10.5 -28.5t-28.5 -10.5h-334v-296q158 -17 265.5 -133.5t107.5 -272.5v-2 q0 -171 -119.5 -292.5t-289.5 -121.5q-19 0 -30 11t-11 30z" />
<glyph unicode="6" d="M-16 197v749q0 93 65 157t160 64t161 -66t66 -161v-92q0 -18 -11.5 -29.5t-29.5 -11.5q-14 0 -25.5 12t-11.5 29v92q0 60 -45 103.5t-108 43.5q-57 0 -100.5 -42t-43.5 -99v-694q22 29 89 88q102 80 245 80q19 0 30 -10t11 -27v-188q0 -97 -63 -160q-68 -68 -164 -68 q-61 1 -117 36.5t-84 88.5q-8 5 -8 17q-16 43 -16 88zM80 117q36 -65 129 -68q58 0 104 43h-2q47 47 47 103v143q-84 -13 -161 -76.5t-117 -144.5zM358 350v12q0 7 7 10.5t12 -1.5l10 -11q5 -4 2 -11t-10 -7q-1 0 -4 -1t-6 -1q-11 0 -11 10z" />
<glyph unicode="7" horiz-adv-x="528" d="M-16 567q0 143 89.5 256.5t225.5 147.5l41 116h-315q-41 0 -41 39q0 15 11.5 28t29.5 13h370q3 0 23 -10q6 -3 6 -10l10 -17v-16l-41 -131h2q16 0 27.5 -13t11.5 -28q0 -19 -11 -30t-28 -11h-30l-304 -905v2q-9 -29 -51 -29q-15 6 -22 21.5t-2 32.5l282 851 q-90 -38 -148.5 -122t-58.5 -185q0 -17 -11 -29t-25 -12q-18 0 -29.5 11.5t-11.5 29.5zM414 1133q0 9 10 9t10 -9l2 -7q0 -9 -10 -9t-10 9z" />
<glyph unicode="8" d="M-16 195v372q0 56 26.5 105.5t71.5 79.5q-42 34 -70 85t-28 105q0 95 65.5 160t159.5 65q95 0 161 -65t66 -160v-2q0 -54 -27 -103.5t-71 -82.5q43 -31 70.5 -83t27.5 -104v-372q0 -94 -66 -160t-161 -66q-94 0 -159.5 66t-65.5 160zM61 195q0 -58 44.5 -101t103.5 -43 q60 0 104.5 43t44.5 101v372q0 59 -40.5 102t-96.5 46h-22q-56 -3 -97 -46t-41 -102v-372zM61 942q0 -57 41 -100.5t97 -48.5h22q56 5 96.5 48.5t40.5 100.5q0 58 -44.5 101.5t-104.5 43.5q-59 0 -103.5 -43.5t-44.5 -101.5z" />
<glyph unicode="9" d="M-16 195v94q0 17 11 28t30 11q14 0 25 -11t11 -28v-94q0 -60 45.5 -103t108.5 -43q58 0 100.5 41.5t42.5 99.5v693q-37 -46 -84 -86q-113 -82 -249 -82q-18 0 -29.5 11.5t-11.5 25.5v188q0 99 63 162q71 65 164 65q65 0 118.5 -35t80.5 -92l6 -12h4q16 -43 16 -90v-748 q0 -94 -65.5 -158.5t-161.5 -64.5q-94 0 -159.5 66.5t-65.5 161.5zM35 785.5q3 7.5 10 7.5h6q10 0 10 -11v-10q0 -7 -6.5 -9.5t-9.5 3.5l-8 8q-5 4 -2 11.5zM61 795q83 13 160.5 76.5t118.5 146.5q-38 69 -131 69q-55 0 -100 -45q-48 -48 -48 -102v-145z" />
<glyph unicode=":" horiz-adv-x="198" d="M-20 205q0 29 19 49t48 20q28 0 47 -20t19 -49q0 -26 -19 -45t-47 -19q-29 0 -48 18.5t-19 45.5zM-20 764q0 29 19 48t48 19q28 0 47 -19t19 -48q0 -27 -19.5 -46.5t-46.5 -19.5q-29 0 -48 19.5t-19 46.5z" />
<glyph unicode=";" horiz-adv-x="200" d="M-18 764q0 29 19 48t48 19q28 0 47 -19t19 -48q0 -27 -19.5 -46.5t-46.5 -19.5q-29 0 -48 19.5t-19 46.5zM23 233h47v-45q-2 14 -23 31q-20 10 -24 14z" />
<glyph unicode="&#x3c;" horiz-adv-x="528" d="M-17.5 578.5q0.5 19.5 13.5 29.5h-2l362 365q15 12 37 12t41 -12q8 -7 5 -23t-15 -28l-342 -344l342 -342q12 -12 13 -29.5t-9 -28.5q-20 -10 -33 -10t-33 10l-368 369q-12 12 -11.5 31.5z" />
<glyph unicode="=" d="M-16 391q0 17 11 27t30 10h370q19 0 30 -10t11 -27q0 -19 -11 -30t-30 -11h-370q-19 0 -30 11t-11 30zM-16 578q0 19 11 29.5t30 10.5h370q19 0 30 -10.5t11 -29.5q0 -18 -11.5 -29.5t-29.5 -11.5h-370q-18 0 -29.5 11.5t-11.5 29.5z" />
<glyph unicode="&#x3e;" horiz-adv-x="528" d="M-21 950q-3 16 5 23q17 12 40.5 12t38.5 -12l359 -365h-2q12 -10 13.5 -30.5t-9.5 -30.5l-367 -369q-20 -10 -32 -10q-15 0 -35 10q-10 11 -9 28.5t13 29.5l342 342l-342 344q-12 12 -15 28z" />
<glyph unicode="?" d="M-16 856v84q0 95 65.5 161t159.5 66q95 0 161 -66t66 -161v-459q-3 -73 -58 -135.5t-128 -83.5v-57q0 -17 -11 -27t-30 -10q-18 0 -29.5 10t-11.5 27v92q0 14 12.5 27.5t28.5 13.5q61 0 105 45t44 109v448q0 60 -44.5 103.5t-104.5 43.5q-59 0 -103.5 -43.5t-44.5 -103.5 v-84q0 -18 -11 -29.5t-25 -11.5q-19 0 -30 11t-11 30zM143 37q0 27 18.5 46t47.5 19t48 -19t19 -46q0 -29 -19 -48.5t-48 -19.5t-47.5 19.5t-18.5 48.5z" />
<glyph unicode="@" d="M-16 199v739q0 96 65 162.5t160 66.5q89 0 160 -65q31 -31 49 -74t18 -86v-526q0 -30 -22 -52t-52 -22q-31 0 -53 20t-24 48q-36 -29 -83 -48.5t-89 -19.5q-18 0 -29.5 11.5t-11.5 29.5v264q0 62 43 105t104 43q44 0 83 -25t56 -65v237q0 55 -47 102q-43 43 -102 43 q-60 0 -104 -44.5t-44 -104.5v-739q0 -60 44 -104t104 -44t104 41h-2q47 47 47 105q0 14 12 27.5t25 13.5q18 0 29.5 -13t11.5 -28q0 -95 -67 -162q-72 -66 -160 -66q-95 0 -160 67t-65 163zM121 409.5q0 2.5 1 5t3.5 4t5.5 1.5h8q6 3 10.5 0.5t4.5 -8.5v-9q0 -6 -5.5 -8.5 t-11.5 0.5l-10 8q-3 1 -4.5 2.5t-1.5 4zM154 424q53 15 90 59.5t41 102.5v73q-3 26 -21.5 42t-44.5 16q-27 0 -46 -21t-19 -49v-223z" />
<glyph unicode="A" horiz-adv-x="638" d="M-14 18q7 15 24 23l17 8h-2l20 14l166 1016l-25 21q1 0 -6 18q-5 20 3.5 34.5t27.5 14.5h102q20 0 30.5 -15.5t0.5 -37.5l-12 -20l-17 -15l168 -1016l25 -18q5 -4 13.5 -9t13 -9.5t6.5 -10.5q5 -20 -4 -33.5t-29 -13.5h-92q-15 0 -30.5 12t-16.5 25q0 18 30 45h-2 q7 7 9 4q-14 87 -45 262.5t-46 262.5q-41 24 -94 73l-47 -291l-51 -307q4 -4 10 -8q27 -23 27 -41q-5 -14 -18.5 -25.5t-26.5 -11.5h-92q-22 0 -34 14.5t-3 34.5zM215 760q0 9 10.5 9.5t10.5 -9.5q0 -1 1 -3.5t1 -4.5q0 -4 -5 -6t-10 -0.5t-6 6.5zM238 758q33 -46 63 -72 l-35 229z" />
<glyph unicode="B" horiz-adv-x="579" d="M-14 16q1 5 2.5 8.5t3 5t6 5t6.5 4.5h-2l8 6l23 12v1024q-4 -4 -17 9q-12 7 -21 18.5t-9 19.5q0 17 12 28t29 11h417q15 0 28 -11.5t13 -29.5q0 -119 -63.5 -219t-169.5 -153q106 -52 169.5 -151.5t63.5 -219.5q0 -166 -115.5 -286t-281.5 -128h-61q-19 0 -32 14.5 t-9 32.5zM80 44.5q3 6.5 10 6.5h10q11 0 11 -10v-10q0 -7 -7.5 -10t-11.5 2l-10 10q-5 5 -2 11.5zM111 53q125 15 210 108.5t85 221.5q0 129 -84.5 223.5t-210.5 108.5v-662zM111 795q121 10 202 91t93 201h-295v-292z" />
<glyph unicode="C" horiz-adv-x="583" d="M-14 1120q-4 18 9 32.5t32 14.5h235q95 0 161 -66t66 -161v-92q0 -17 -13 -29t-27 -12q-18 0 -29.5 11.5t-11.5 29.5v92q0 60 -43 103.5t-103 43.5h-151v-890q0 -60 44 -103t105 -43q60 0 104 43t44 103v92q0 39 38 39q15 0 28 -11.5t13 -27.5v-92q0 -95 -66 -161.5 t-161 -66.5t-161 66.5t-66 161.5v882q-1 -3 -7.5 1.5t-13.5 11.5q-23 13 -26 28z" />
<glyph unicode="D" horiz-adv-x="579" d="M-14 16q1 5 2.5 8.5t3 5t6 5t6.5 4.5h-2l8 6l23 12v1024q-4 -4 -17 9q-12 7 -21 18.5t-9 19.5q0 17 12 28t29 11h63q165 -8 280 -127t115 -288v-369q0 -166 -115.5 -286t-281.5 -128h-61q-19 0 -32 14.5t-9 32.5zM111 53q126 11 210.5 105.5t84.5 224.5v369 q0 133 -84 228t-211 107v-1034z" />
<glyph unicode="E" horiz-adv-x="579" d="M-14 12q13 26 30 37l17 8v1022q-2 -2 -7 1t-8 7l-6 5h2q-28 20 -28 34q0 18 11.5 29.5t29.5 11.5h417q14 0 27.5 -13.5t13.5 -27.5q0 -17 -13 -28t-28 -11h-319q-14 -7 -14 -6v-10q157 -19 265.5 -137t108.5 -275q0 -16 -13 -26t-28 -10q-38 0 -38 36q0 131 -84 225.5 t-211 106.5v-934q0 -2 1 -3q3 0 7 -3h325q14 0 27.5 -13.5t13.5 -27.5q0 -18 -13 -29.5t-28 -11.5h-417q-16 0 -28.5 14t-12.5 29z" />
<glyph unicode="F" horiz-adv-x="579" d="M-14 12q13 26 30 37l17 8v1022q-2 -2 -7 1t-8 7l-6 5h2q-28 20 -28 34q0 18 11.5 29.5t29.5 11.5h417q14 0 27.5 -13.5t13.5 -27.5q0 -17 -13 -28t-28 -11h-319q-14 -7 -14 -6v-10q156 -17 265 -136t109 -276q0 -16 -13 -26t-28 -10q-38 0 -38 36q0 131 -84 225.5 t-211 106.5v-934q12 -6 22 -12q4 -4 6 -4q1 0 4 -1.5t3.5 -2t3 -2t3.5 -2.5l2.5 -2.5t2 -3.5t1 -4.5t1 -5.5t0.5 -7q0 -18 -11.5 -29.5t-29.5 -11.5h-92q-16 0 -28.5 14t-12.5 29z" />
<glyph unicode="G" horiz-adv-x="583" d="M-14 1120q-4 18 9 32.5t32 14.5h235q95 0 161 -66t66 -161v-92q0 -17 -13 -29t-27 -12q-19 0 -30 12t-11 31v90q0 60 -43 103.5t-103 43.5h-149v-839q57 80 145.5 127t190.5 47q14 0 27 -12t13 -25v-188q0 -95 -66.5 -161.5t-162.5 -66.5q-91 0 -147 56v-15 q0 -19 -11 -30t-30 -11q-14 0 -25.5 11.5t-11.5 29.5q0 50 16 109q-18 45 -18 78v882q-1 -3 -7.5 1.5t-13.5 11.5q-23 13 -26 28zM131 117q38 -66 129 -66q60 0 104 43t44 103v92v8v43q-84 -13 -162 -78.5t-115 -144.5zM408 350v12q0 7 7 10.5t11 -1.5l10 -11q5 -4 2 -11 t-10 -7l-3 -1q-3 -1 -7 -1q-10 0 -10 10z" />
<glyph unicode="H" horiz-adv-x="626" d="M-14 12q13 26 30 37l17 8v1022q-2 -2 -7 1t-8 7l-6 5h2q-28 20 -28 34q0 18 11.5 29.5t29.5 11.5h92q19 0 30 -12t11 -31q0 -11 -31 -32l-14 -11h2q-6 -3 -6 -2v-286q117 10 197 91t98 199q-1 1 -6 3t-7 4l-6 2h2q-31 18 -31 34q0 18 11.5 29.5t29.5 11.5h93q18 0 29 -12 t11 -31q0 -13 -28 -34q-3 -2 -8 -5t-8 -5t-3 -1v-1022l17 -8q30 -22 30 -39q0 -18 -11 -29.5t-29 -11.5h-93q-18 0 -29.5 11.5t-11.5 29.5q0 16 31 39l17 8v828q-109 -152 -295 -170v-658q12 -6 22 -12q4 -4 6 -4q1 0 4 -1.5t3.5 -2t3 -2t3.5 -2.5l2.5 -2.5t2 -3.5t1 -4.5 t1 -5.5t0.5 -7q0 -18 -11.5 -29.5t-29.5 -11.5h-92q-16 0 -28.5 14t-12.5 29z" />
<glyph unicode="I" horiz-adv-x="241" d="M-18 12q13 26 30 37l17 8v1022q-2 -2 -7 1t-8 7l-6 5h2q-28 20 -28 34q0 18 11.5 29.5t29.5 11.5h92q19 0 30 -12t11 -31q0 -11 -31 -32l-14 -11h2l-5 -3l-2 1v-1022q13 -6 23 -12q4 -4 6 -4q1 0 4 -1.5t3.5 -2t3 -2t3.5 -2.5l2.5 -2.5t2 -3.5t1 -4.5t1 -5.5t0.5 -7 q0 -18 -11.5 -29.5t-29.5 -11.5h-92q-16 0 -28.5 14t-12.5 29z" />
<glyph unicode="J" horiz-adv-x="577" d="M-16 10q0 15 11.5 28t29.5 13q136 0 233.5 97.5t97.5 234.5v698q-7 0 -10 6l4 -2q-1 0 -3 2.5t-3 2.5l-10 4q-6 3 -8 3.5t-6.5 3.5t-6 5t-3 5.5t-1.5 8.5q-4 18 9 32.5t32 14.5h92q19 0 30 -12t11 -31q0 -14 -24 -28l-25 -13v-700q0 -171 -119.5 -292.5t-289.5 -121.5 q-19 0 -30 11t-11 30z" />
<glyph unicode="K" horiz-adv-x="628" d="M-14 12q13 26 30 37l17 8v1022q-2 -2 -7 1t-8 7l-6 5h2q-28 20 -28 34q0 18 11.5 29.5t29.5 11.5h92q19 0 30 -12t11 -31q0 -11 -31 -32l-14 -11h2q-6 -3 -6 -2v-286q106 12 185 94t105 194q-6 6 -12 9l-8 4q-6 3 -8 3.5t-6.5 3.5t-6 5t-3 5.5t-1.5 8.5q-4 18 9 32.5 t32 14.5h92q19 0 30 -12t11 -31q0 -18 -28 -32l-19 -15q-15 -100 -77 -187.5t-152 -137.5q105 -51 168 -150.5t63 -218.5v-326l17 -8q28 -24 30 -35q2 -18 -10 -31.5t-30 -13.5h-93q-18 0 -29.5 11.5t-11.5 29.5q0 11 3.5 17.5t6 7.5t11.5 6l6 4l23 12v326 q0 127 -85.5 221.5t-211.5 108.5v-656q12 -6 22 -12q4 -4 6 -4q1 0 4 -1.5t3.5 -2t3 -2t3.5 -2.5l2.5 -2.5t2 -3.5t1 -4.5t1 -5.5t0.5 -7q0 -18 -11.5 -29.5t-29.5 -11.5h-92q-16 0 -28.5 14t-12.5 29z" />
<glyph unicode="L" horiz-adv-x="579" d="M-14 12q13 26 30 37l17 8v1022q-2 -2 -7 1t-8 7l-6 5h2q-28 20 -28 34q0 18 11.5 29.5t29.5 11.5h92q19 0 30 -12t11 -31q0 -11 -31 -32l-14 -11h2q-6 -3 -6 -2v-1022q0 -2 1 -3q3 0 7 -3h325q14 0 27.5 -13.5t13.5 -27.5q0 -18 -13 -29.5t-28 -11.5h-417q-16 0 -28.5 14 t-12.5 29z" />
<glyph unicode="M" horiz-adv-x="626" d="M-14 12q13 26 30 37l17 8v1022q-2 -2 -7 1t-8 7l-6 5h2q-28 20 -28 34q0 18 11.5 29.5t29.5 11.5h92q18 0 29.5 -14.5t11.5 -36.5q-2 -4 -33 -26l-12 -11q12 -71 50 -130.5t95 -96.5q57 37 94 95.5t49 129.5q-2 1 -14 13q-31 19 -31 36q0 18 11.5 29.5t29.5 11.5h93 q18 0 29 -12t11 -31q0 -13 -28 -34q-3 -2 -8 -5t-8 -5t-3 -1v-1022l17 -8q30 -22 30 -39q0 -18 -11 -29.5t-29 -11.5h-93q-18 0 -29.5 11.5t-11.5 29.5q0 16 31 39l17 8v828q-55 -67 -125 -115q-16 -8 -21 -8q-13 0 -24 8h2q-74 44 -127 113v-826q12 -6 22 -12q4 -4 6 -4 q1 0 4 -1.5t3.5 -2t3 -2t3.5 -2.5l2.5 -2.5t2 -3.5t1 -4.5t1 -5.5t0.5 -7q0 -18 -11.5 -29.5t-29.5 -11.5h-92q-16 0 -28.5 14t-12.5 29z" />
<glyph unicode="N" horiz-adv-x="626" d="M-14 12q13 26 30 37l17 8v1022q-2 -2 -7 1t-8 7l-6 5h2q-28 20 -28 34q0 18 11.5 29.5t29.5 11.5h92q18 0 29.5 -14.5t11.5 -36.5q-2 -4 -33 -26l-12 -11q21 -116 100 -195t191 -89v284q-1 0 -17 13l-4 2l-10 6h2q-19 15 -19 26q0 18 11.5 29.5t29.5 11.5h93q18 0 29 -12 t11 -31q0 -13 -28 -34q-3 -2 -8 -5t-8 -5t-3 -1v-1022l17 -8q30 -22 30 -39q0 -18 -11 -29.5t-29 -11.5h-93q-18 0 -29.5 11.5t-11.5 29.5q0 16 31 39l17 8v658q-87 10 -164.5 56t-130.5 116v-830q12 -6 22 -12q4 -4 6 -4q1 0 4 -1.5t3.5 -2t3 -2t3.5 -2.5l2.5 -2.5t2 -3.5 t1 -4.5t1 -5.5t0.5 -7q0 -18 -11.5 -29.5t-29.5 -11.5h-92q-16 0 -28.5 14t-12.5 29z" />
<glyph unicode="O" d="M-16 197v745q0 94 65.5 159.5t159.5 65.5q95 0 161 -65.5t66 -159.5v-745q0 -95 -66 -161.5t-161 -66.5q-94 0 -159.5 66.5t-65.5 161.5zM61 197q0 -59 44.5 -102.5t103.5 -43.5q60 0 104.5 43t44.5 103v745q0 58 -44.5 101.5t-104.5 43.5q-59 0 -103.5 -43.5 t-44.5 -101.5v-745z" />
<glyph unicode="P" horiz-adv-x="579" d="M-14 12q13 26 30 37l17 8v1022q-2 -2 -7 1t-8 7l-6 5h2q-28 20 -28 34q0 18 11.5 29.5t29.5 11.5h417q14 0 27.5 -13.5t13.5 -27.5q0 -156 -108.5 -272t-265.5 -135v-662q12 -6 22 -12q4 -4 6 -4q1 0 4 -1.5t3.5 -2t3 -2t3.5 -2.5l2.5 -2.5t2 -3.5t1 -4.5t1 -5.5t0.5 -7 q0 -18 -11.5 -29.5t-29.5 -11.5h-92q-16 0 -28.5 14t-12.5 29zM80 785.5q3 7.5 10 7.5h10q11 0 11 -11v-10q0 -7 -7.5 -10t-11.5 2l-10 10q-5 4 -2 11.5zM111 793q119 12 201 93.5t94 200.5h-281q-14 -7 -14 -6v-288z" />
<glyph unicode="Q" d="M-16 197v745q0 94 65.5 159.5t159.5 65.5q95 0 161 -65.5t66 -159.5v-745q0 -54 -12 -84q12 -42 12 -103q0 -18 -13 -29.5t-28 -11.5t-26 11.5t-11 29.5v13q-71 -54 -149 -54q-94 0 -159.5 66.5t-65.5 161.5zM39 408q0 9 9 9t9 -9l4 -5q0 -7 -6.5 -10t-9.5 2zM61 197 q0 -59 44.5 -102.5t103.5 -43.5q93 0 131 66q-39 89 -114 152.5t-165 72.5v-145zM61 418q85 -9 164.5 -54.5t132.5 -113.5v692q0 58 -44.5 101.5t-104.5 43.5q-59 0 -103.5 -43.5t-44.5 -101.5v-524zM358 180v37q0 7 7 9.5t12 -3.5l18 -33q4 -16 -8 -16l-18 -2q-11 0 -11 8z " />
<glyph unicode="R" horiz-adv-x="579" d="M-14 12q13 26 30 37l17 8v1022q-2 -2 -7 1t-8 7l-6 5h2q-28 20 -28 34q0 18 11.5 29.5t29.5 11.5h417q14 0 27.5 -13.5t13.5 -27.5q0 -121 -61 -218t-166 -152l82 -344l84 -353l25 -14l34 -31v4q6 -21 -3.5 -35t-30.5 -14h-93q-15 0 -30.5 12t-16.5 25q0 8 4.5 16.5 t9.5 13t17 15.5h-2q6 6 8 4q-30 125 -87 355t-79 319q-28 -11 -69 -14v-658q12 -6 22 -12q4 -4 6 -4q1 0 4 -1.5t3.5 -2t3 -2t3.5 -2.5l2.5 -2.5t2 -3.5t1 -4.5t1 -5.5t0.5 -7q0 -18 -11.5 -29.5t-29.5 -11.5h-92q-16 0 -28.5 14t-12.5 29zM80 785.5q3 7.5 10 7.5h10 q11 0 11 -11v-10q0 -7 -7.5 -10t-11.5 2l-10 10q-5 4 -2 11.5zM111 793q119 12 201 93.5t94 200.5h-281q-14 -7 -14 -6v-288z" />
<glyph unicode="S" d="M-16 197v186q0 17 11 27t30 10q14 0 25 -10t11 -27v-186q0 -59 44.5 -102.5t103.5 -43.5q60 0 104.5 43t44.5 103v520q-170 3 -274 55q-100 62 -100 170q0 97 64 161t161 64q95 0 161 -65.5t66 -159.5q0 -19 -11 -30t-30 -11q-14 0 -25.5 11.5t-11.5 29.5 q0 58 -44.5 101.5t-104.5 43.5q-62 0 -105 -41.5t-43 -103.5q0 -18 2 -31t20 -37t50 -39t99.5 -27.5t162.5 -12.5q13 0 27 -13.5t14 -27.5v-557q0 -95 -66 -161.5t-161 -66.5q-94 0 -159.5 66.5t-65.5 161.5z" />
<glyph unicode="T" horiz-adv-x="528" d="M-16 1126q0 15 11.5 28t29.5 13h370q16 0 27.5 -13t11.5 -28q0 -18 -10.5 -28.5t-28.5 -10.5h-135l-10 -6v-1024l16 -8q13 -9 27 -37q0 -15 -10.5 -29t-26.5 -14h-92q-17 0 -29 12t-12 29q0 11 3 17.5t5.5 8t11.5 5.5q3 0 7 4l6 4t5 3.5t3.5 3t2.5 1.5h1v1024q-4 0 -4 2 q-4 0 -6 4h-133q-41 0 -41 39z" />
<glyph unicode="U" horiz-adv-x="630" d="M-14 1128q0 17 12 28t29 11h92q15 0 28 -12.5t13 -30.5q0 -13 -25 -28l-24 -13v-886q0 -60 44.5 -103t104.5 -43t104 43t44 103l2 882q-9 5 -19 13q-31 22 -31 41q11 34 43 34h91q19 0 31.5 -14t9.5 -33q-3 -14 -23 -22h4l-8 -6q-2 -2 -8 -2l-2 -3l-11 -6v-884 q0 -95 -66 -161.5t-161 -66.5t-161 66.5t-66 161.5v884q-4 -4 -17 9q-12 7 -21 18.5t-9 19.5z" />
<glyph unicode="V" horiz-adv-x="638" d="M-23 1141q-3 9 11 17.5t35 8.5h92q13 0 26.5 -12t18.5 -27q0 -26 -17 -30h2l-4 -4l-16 -15q26 -153 70 -432t69 -432q73 472 139 864q-1 1 -5.5 6.5t-6.5 6.5l6 -2q-1 0 -3 2t-3 2q-9 4 -12.5 6t-6.5 9t-3 19q2 15 15.5 27t31.5 12h92q33 0 33 -40v-9q-4 -16 -19 -20 l-12 -4q-20 -12 -27 -19l-170 -1022q5 -5 19 -12l-10 -10q15 0 36 -39q3 -9 -11 -16t-34 -7h-102q-20 0 -28.5 18t-0.5 44l15 16l-2 -8q0 1 2 3t2 3q0 6 2 8l10 8l-166 1014l-9 6l-16 11h3q-29 14 -46 49z" />
<glyph unicode="W" horiz-adv-x="626" d="M-14 16q1 5 2.5 8.5t3 5t6 5t6.5 4.5h-2l8 6l23 12v1024q-7 0 -10 6l4 -2q-1 0 -3.5 2.5t-3.5 2.5l-8 4q-20 10 -26 26q0 16 12.5 31.5t28.5 15.5h92q19 0 30 -12t11 -31q0 -13 -25 -28l-24 -13l2 -827q51 64 123 111q10 6 22.5 5.5t20.5 -5.5q75 -50 127 -119v833 q-2 -2 -23 13l-8 6h2q-19 11 -19 24q0 19 11 31t30 12h93q18 0 29 -12t11 -31q0 -13 -18 -24h2l-10 -8q-2 -2 -8 -2l-2 -3l-11 -6v-1024q11 -4 17 -10q30 -26 30 -39q0 -16 -13 -27.5t-27 -11.5h-93q-19 0 -30 12t-11 31q0 14 27 33h2l16 12q-12 68 -51 131t-94 99 q-58 -38 -96 -98.5t-49 -131.5l14 -8q33 -28 33 -45q-12 -35 -43 -35h-90q-19 0 -32 14.5t-9 32.5z" />
<glyph unicode="X" horiz-adv-x="524" d="M-23 1141q-3 9 11 17.5t35 8.5h90q17 0 29.5 -10t15.5 -24q3 -10 -1 -21t-12 -14h2l-6 -4l-16 -15l82 -336l29 113q40 151 53 223q-2 2 -6 6.5t-6.5 7t-4.5 3.5l-4 2h2q-24 12 -10 37l-2 -2q6 34 43 34h92q17 0 31.5 -8.5t11.5 -17.5q-17 -34 -43 -49q-20 -12 -20 -15 l-125 -510l123 -501l20 -17l19 -14q14 -14 16 -17h2q6 -20 -4.5 -34.5t-30.5 -14.5h-94q-13 0 -26 11.5t-15 25.5q0 21 27 45h-2q6 6 8 4q-17 72 -45.5 185.5t-38.5 154.5l-39 -149q-7 -37 -24 -104.5t-21 -84.5q0 -3 10 -10q27 -23 27 -41q-5 -14 -18.5 -25.5t-26.5 -11.5 h-92q-22 0 -34 14.5t-3 34.5q7 15 24 23l17 8h-4l22 17l121 501q-15 62 -58.5 239.5t-64.5 270.5q-13 9 -23 15h3q-29 14 -46 49z" />
<glyph unicode="Y" horiz-adv-x="524" d="M-23 1141q-3 9 11 17.5t35 8.5h90q17 0 29.5 -10t15.5 -24q3 -10 -1 -21t-12 -14h2l-6 -4l-16 -15l82 -336l29 113q40 151 53 223q-2 2 -6 6.5t-6.5 7t-4.5 3.5l-4 2h2q-24 12 -10 37l-2 -2q6 34 43 34h92q17 0 31.5 -8.5t11.5 -17.5q-17 -34 -43 -49q-20 -12 -20 -15 l-125 -514v-506l16 -8q13 -9 27 -37q0 -15 -10.5 -29t-26.5 -14h-92q-17 0 -29 12t-12 29q0 11 3 17.5t5.5 8t11.5 5.5q2 0 6 4q4 2 9 6t7.5 5.5t2.5 0.5v506q-15 66 -58.5 243t-64.5 271q-13 9 -23 15h3q-29 14 -46 49z" />
<glyph unicode="Z" horiz-adv-x="528" d="M-16 567q0 143 89.5 256.5t225.5 147.5l41 116h-315q-41 0 -41 39q0 15 11.5 28t29.5 13h370q3 0 23 -10q6 -3 6 -10l10 -17v-16l-41 -131h2q16 0 27.5 -13t11.5 -28q0 -19 -11 -30t-28 -11h-30q-27 -78 -74.5 -221.5t-69.5 -208.5l-139 -420h313q16 0 27.5 -13t11.5 -28 q0 -19 -11 -30t-28 -11h-370q-22 0 -29 11q-10 23 -10 45l282 849q-90 -38 -148.5 -122t-58.5 -185q0 -17 -11 -29t-25 -12q-18 0 -29.5 11.5t-11.5 29.5zM414 1133q0 9 10 9t10 -9l2 -7q0 -9 -10 -9t-10 9z" />
<glyph unicode="[" horiz-adv-x="239" d="M-20 -82v1301q0 15 11 28t29 13h93q13 0 27 -14t14 -27q0 -14 -13.5 -25.5t-27.5 -11.5h-52v-1225h52q14 0 27.5 -13t13.5 -26q0 -18 -13 -29.5t-28 -11.5h-93q-19 0 -29.5 11t-10.5 30z" />
<glyph unicode="\" d="M-14 1112q-11 42 28 53h-2q17 6 30.5 -1.5t18.5 -24.5v2q62 -187 187 -559.5t186 -558.5q4 -15 -3 -31.5t-21 -22.5h-15q-10 0 -21 7.5t-14 19.5z" />
<glyph unicode="]" horiz-adv-x="239" d="M-20 -82q0 15 11 27t29 12h56v1225h-56q-18 0 -29 10.5t-11 26.5q0 15 11 28t29 13h93q13 0 27 -14t14 -27v-1301q0 -18 -13 -29.5t-28 -11.5h-93q-19 0 -29.5 11t-10.5 30z" />
<glyph unicode="^" horiz-adv-x="337" d="M-12 868l84 252q11 20 23.5 33.5t21.5 13.5q10 0 21 -8t16 -18l39 -111q46 -141 53 -168v2q6 -18 -1 -33t-20 -22l-5 -1q-5 -1 -9 -1q-10 0 -24 14t-25 35l-45 137l-23 -65q-24 -65 -33 -94q-6 -17 -21 -24t-32 -1q-30 12 -20 59z" />
<glyph unicode="a" horiz-adv-x="579" d="M-12 20q0 5 2 9v448q0 93 64 158t159 65q74 0 141 -51v101q0 60 -42.5 102.5t-102.5 42.5q-59 0 -101 -42.5t-42 -102.5q0 -16 -13 -26.5t-28 -10.5q-37 0 -37 37q0 95 63.5 159t157.5 64q93 0 158 -64t65 -159v-687q0 -3 14 -6q31 -23 31 -34q0 -18 -11.5 -30.5 t-25.5 -12.5h-92q-19 0 -31 14t-8 31v-2q0 10 17 24h-2l10 8l20 8v87q-56 -80 -142 -125t-187 -45q-37 0 -37 40zM68 59q123 13 204.5 106.5t81.5 219.5v119q-12 50 -52 84.5t-89 34.5q-60 0 -102.5 -43t-42.5 -103v-418z" />
<glyph unicode="b" horiz-adv-x="581" d="M-10 25q0 4 1.5 8t3 5.5t6 5t5.5 5.5h-2l8 6l21 8v1008q-2 -2 -13 6l-6 4h2q-26 22 -26 39q0 16 10 26.5t27 10.5h92q18 0 28.5 -11.5t10.5 -29.5q0 -11 -23 -29q-24 -12 -24 -14v-153q70 53 143 53q95 0 159 -64t64 -159v-723q0 -1 1 -3.5t1 -3.5q0 -18 -11.5 -29 t-25.5 -11q-104 0 -189.5 44t-141.5 126v-87q0 -3 14 -6q33 -21 33 -34q0 -19 -10.5 -31t-28.5 -12h-92q-18 0 -29 14.5t-8 30.5zM111 397q2 -6 2 -12q0 -125 81.5 -217t204.5 -109v691q0 60 -42.5 102.5t-102.5 42.5q-49 0 -89 -33.5t-52 -81.5q0 -8 -2 -10v-373z" />
<glyph unicode="c" horiz-adv-x="583" d="M-10 930q-4 18 7 30.5t30 12.5h231q95 0 159 -64t64 -159v-93q0 -13 -11.5 -24.5t-25.5 -11.5q-18 0 -29.5 11t-11.5 25v93q0 60 -42.5 102.5t-102.5 42.5h-147v-692q0 -59 42.5 -102.5t102.5 -43.5t102.5 43.5t42.5 102.5v90q0 19 11 30t30 11q14 0 25.5 -11.5 t11.5 -29.5v-90q0 -93 -64 -158t-159 -65q-92 0 -157.5 65.5t-65.5 157.5v686q-13 4 -21 10q-19 16 -22 31z" />
<glyph unicode="d" horiz-adv-x="579" d="M-12 20v732q0 94 64 157.5t159 63.5q80 0 143 -51v151q-1 0 -2.5 0.5t-3 1.5t-3.5 2.5t-4 2.5t-4.5 2.5t-4.5 2.5l-8 5h4q-19 10 -19 22q-4 17 8 31t31 14h90q27 0 39 -35q0 -17 -26 -39l-19 -14v-1006q0 -3 14 -6q31 -23 31 -34q0 -18 -11.5 -30.5t-25.5 -12.5h-92 q-19 0 -31 14.5t-8 32.5q0 6 1.5 8.5t7.5 6t8 5.5h-2l10 8l20 8v87q-58 -75 -146 -122.5t-183 -47.5q-37 0 -37 40zM66 59q123 17 204.5 109t81.5 217v2q0 1 1 3t1 3l-2 387q-12 48 -52 81.5t-89 33.5q-59 0 -102 -42.5t-43 -100.5v-693z" />
<glyph unicode="e" horiz-adv-x="581" d="M-10 930q-2 17 9 30t28 13l63 -2l350 2q8 0 16.5 -4.5t10.5 -7.5v4q10 -10 10 -29q0 -156 -105.5 -272.5t-260.5 -133.5v-327q0 -59 42.5 -102.5t102.5 -43.5t102.5 43.5t42.5 102.5v90q0 19 11 30t30 11q14 0 25.5 -11.5t11.5 -29.5v-90q0 -93 -64 -158t-159 -65 q-92 0 -157.5 65.5t-65.5 157.5v686q-11 6 -23 12q-12 9 -20 29zM100 606h11v-10zM111 606q112 13 191.5 94.5t94.5 194.5h-141q-24 0 -71 -1t-74 -1v-287z" />
<glyph unicode="f" horiz-adv-x="579" d="M-10 27q4 10 16 22h-2l8 6l21 8v826q-11 4 -19 8q-24 21 -24 39q0 37 37 37h413q14 0 25.5 -11.5t11.5 -25.5q0 -18 -11.5 -29.5t-25.5 -11.5h-311l-4 -2q-14 -7 -14 -6v-6q80 -15 134 -79t54 -147q0 -14 -13.5 -25.5t-27.5 -11.5q-18 0 -27.5 10.5t-9.5 26.5 q0 52 -31 91t-79 53v-736q0 -3 14 -6q33 -21 33 -34q0 -19 -10.5 -31t-28.5 -12h-92q-19 0 -30 14t-7 33z" />
<glyph unicode="g" horiz-adv-x="579" d="M-12 201v92q0 19 10 30t27 11q15 0 28 -11.5t13 -29.5v-92q0 -57 42.5 -100.5t100.5 -43.5q59 0 102 43t43 101v491q-21 -30 -41 -47q-117 -117 -286 -117q-37 0 -37 41v367q0 15 9.5 26t27.5 11h411q17 0 28 -13t9 -30q-2 -14 -24 -33h2l-7 -4l-14 -8v-684 q0 -91 -65.5 -156t-157.5 -65q-93 0 -157 65t-64 156zM37 601q3 7 10 7h10q11 0 11 -10v-10q0 -6 -7 -8.5t-12 0.5l-10 10q-5 4 -2 11zM68 608q116 12 193 90.5t91 196.5h-284v-287z" />
<glyph unicode="h" horiz-adv-x="628" d="M-10 25q0 5 1 8.5t2.5 5t5 4t5.5 4.5l8 8l21 8v1008q-2 -2 -13 6l-6 4h2q-26 26 -26 39q0 15 11.5 26t25.5 11h92q18 0 29.5 -11.5t11.5 -29.5q0 -3 -1.5 -6.5t-4.5 -7t-5.5 -5.5t-7.5 -5.5t-6 -4.5q-24 -12 -24 -14v-151q67 51 143 51q95 0 160 -63.5t65 -157.5v-689 q7 -4 15 -6l4 -2l14 -14q8 -4 10 -8q4 -21 -8 -37t-31 -16h-88q-17 0 -29 12t-12 31q0 3 1.5 6.5t6 7.5t7 6t9.5 7t9 7l12 6v689q0 59 -42.5 101t-102.5 42q-49 0 -88.5 -33.5t-54.5 -85.5v-713q0 -3 14 -6q35 -22 35 -34q0 -19 -11 -31t-30 -12h-92q-14 0 -26 15t-11 30z " />
<glyph unicode="i" horiz-adv-x="241" d="M-14 27q4 10 16 22h-2l8 6l21 8v826q-11 4 -19 8q-24 21 -24 39q0 37 37 37h63q9 0 14.5 -5.5t5.5 -13.5v-891q0 -2 15 -6q33 -21 33 -34q0 -19 -10.5 -31t-28.5 -12h-92q-19 0 -30 14t-7 33z" />
<glyph unicode="j" horiz-adv-x="577" d="M-12 20q0 15 9.5 26t27.5 11q135 0 231 97t96 233v502q-12 4 -20 10q-25 14 -25 31q-4 18 8 30.5t31 12.5h92q37 0 37 -39q0 -19 -24 -35q-5 -4 -10 -7t-8 -4.5t-3 -0.5v-500q0 -169 -119 -288t-286 -119q-37 0 -37 40z" />
<glyph unicode="k" horiz-adv-x="628" d="M-10 25q0 5 1 8.5t2.5 5t5 4t5.5 4.5l8 8l21 8v1008q-2 -2 -13 6l-6 4h2q-26 26 -26 39q0 15 11.5 26t25.5 11h92q18 0 29.5 -11.5t11.5 -29.5q0 -3 -1.5 -6.5t-4.5 -7t-5.5 -5.5t-7.5 -5.5t-6 -4.5q-24 -12 -24 -14v-467q104 12 182 92.5t102 190.5q-9 5 -12 10 q-2 2 -6 2q-1 1 -3 2q-20 15 -22 27q-4 18 8.5 30.5t32.5 12.5h88q19 0 30 -11t11 -28q0 -9 -9 -19.5t-19 -15.5h2q-2 -2 -9.5 -8t-9.5 -8q-18 -100 -78.5 -186t-146.5 -128q106 -51 166.5 -148.5t60.5 -219.5v-138q7 -4 15 -6l4 -2l14 -14q8 -4 10 -8q4 -21 -8 -37t-31 -16 h-88q-19 0 -30 12t-11 31q0 3 1.5 6.5t6 7.5t7 6t9.5 7t9 7l12 6v138q0 125 -83 217.5t-205 107.5v-463q0 -3 14 -6q35 -22 35 -34q0 -19 -11 -31t-30 -12h-92q-14 0 -26 15t-11 30z" />
<glyph unicode="l" horiz-adv-x="241" d="M-14 27q4 10 16 22h-2l8 6l21 8v1008q-2 -2 -13 6l-6 4h2q-26 19 -26 39q0 16 10 26.5t27 10.5h63q20 0 20 -20v-1074q0 -2 15 -6q33 -21 33 -34q0 -19 -10.5 -31t-28.5 -12h-92q-19 0 -30 14t-7 33z" />
<glyph unicode="m" horiz-adv-x="626" d="M-10 25q0 5 1 8.5t2.5 5t5 4t5.5 4.5l8 8l21 8v826q-11 4 -19 8q-24 24 -24 39q0 16 11.5 26.5t25.5 10.5h227q95 0 160 -64t65 -159v-687q9 -4 19 -8l10 -8h-2q18 -14 18 -24v-5q0 -16 -13 -27t-28 -11h-88q-18 0 -29.5 11.5t-11.5 31.5q0 3 1.5 6.5t6 7.5t7 6t9.5 7 t9 7l12 6v687q0 52 -27.5 90.5t-74.5 48.5v-826q8 -2 16 -6q2 -2 11 -9.5t13.5 -13.5t4.5 -11q0 -18 -12 -30.5t-25 -12.5h-92q-19 0 -31.5 14t-9.5 31v-2q0 10 18 24h-2l11 8l20 8v832h-108v-832q0 -3 14 -6q35 -22 35 -34q0 -19 -11 -31t-30 -12h-92q-14 0 -26 15t-11 30z " />
<glyph unicode="n" horiz-adv-x="628" d="M-10 25q0 5 1 8.5t2.5 5t5 4t5.5 4.5l8 8l21 8v826q-11 4 -19 8q-24 24 -24 39q0 16 11.5 26.5t25.5 10.5h65q6 0 12.5 -6t6.5 -13v-32q60 51 143 51q95 0 160 -64t65 -159v-687q7 -4 15 -6l4 -2l14 -14q8 -4 10 -8q4 -21 -8 -37t-31 -16h-88q-17 0 -29 12t-12 31 q0 3 1.5 6.5t6 7.5t7 6t9.5 7t9 7l12 6v687q0 60 -42.5 102.5t-102.5 42.5q-49 0 -89 -33.5t-52 -81.5q0 -8 -2 -10v-707q0 -3 14 -6q35 -22 35 -34q0 -19 -11 -31t-30 -12h-92q-14 0 -26 15t-11 30z" />
<glyph unicode="o" d="M-14 201v549q0 95 64.5 159t158.5 64q93 0 158 -64t65 -159v-549q0 -92 -65.5 -158t-157.5 -66q-93 0 -158 65.5t-65 158.5zM66 201q0 -59 42.5 -101.5t100.5 -42.5q60 0 102.5 42.5t42.5 101.5v549q0 60 -42.5 102.5t-102.5 42.5q-59 0 -101 -42.5t-42 -102.5v-549z" />
<glyph unicode="p" horiz-adv-x="577" d="M-10 27q4 10 16 22h-2l8 6l21 8v820l-21 14h2q-11 9 -24 35q0 16 10.5 28.5t26.5 12.5h411q18 0 27.5 -11t9.5 -26q0 -170 -113 -289l-4 -2q-47 -47 -112.5 -77t-134.5 -38v-467q0 -3 14 -6q33 -21 33 -34q0 -19 -10.5 -31t-28.5 -12h-92q-19 0 -30 14t-7 33zM80.5 601 q2.5 7 9.5 7h10q11 0 11 -10v-10q0 -6 -7.5 -8.5t-11.5 0.5l-10 10q-4 4 -1.5 11zM111 608q114 12 191.5 91.5t92.5 195.5h-284v-287z" />
<glyph unicode="q" horiz-adv-x="577" d="M-12 569v367q0 15 9.5 26t27.5 11h411q19 0 30 -12.5t7 -30.5q-7 -21 -22 -31l-21 -10v-826q8 -4 14 -6l17 -10h-2q10 -10 12 -14q4 -22 -6 -37.5t-29 -15.5h-92q-18 0 -28.5 12t-10.5 31q0 10 17 24h-3l11 8l22 8v629q-19 -27 -39 -47q-117 -117 -288 -117q-37 0 -37 41 zM35 601q3 7 10 7h10q11 0 11 -10v-10q0 -6 -7 -8.5t-12 0.5l-10 10q-5 4 -2 11zM66 608q116 12 193 90.5t91 196.5h-284v-287z" />
<glyph unicode="r" horiz-adv-x="579" d="M-10 27q4 10 16 22h-2l8 6l21 8v826q-11 4 -19 8q-24 21 -24 39q0 37 37 37h63q9 0 15 -5.5t6 -13.5v-32q60 51 143 51q95 0 159 -64t64 -159v-93q0 -13 -11.5 -24.5t-25.5 -11.5q-18 0 -29.5 11t-11.5 25v93q0 60 -42.5 102.5t-102.5 42.5q-49 0 -89 -33.5t-52 -81.5 q0 -8 -2 -10v-707q0 -3 14 -6q33 -21 33 -34q0 -19 -10.5 -31t-28.5 -12h-92q-19 0 -30 14t-7 33z" />
<glyph unicode="s" d="M-14 203v90q0 41 39 41q15 0 28 -11.5t13 -29.5v-90q0 -59 42.5 -102.5t100.5 -43.5q60 0 102.5 43.5t42.5 102.5v325q-174 3 -270 58q-98 61 -98 166q0 97 63 159t160 62q93 0 158 -64t65 -159q0 -15 -11.5 -26t-29.5 -11q-15 0 -26 11t-11 26q0 60 -42.5 102.5 t-102.5 42.5q-62 0 -102.5 -40t-40.5 -103q0 -17 2 -29.5t19 -36.5t48 -39.5t97.5 -28t158.5 -12.5q14 0 27.5 -11.5t13.5 -25.5v-366q0 -92 -65.5 -157.5t-157.5 -65.5q-93 0 -158 65t-65 158z" />
<glyph unicode="t" horiz-adv-x="581" d="M-10 1118q0 17 10 28t27 11h92q14 0 26.5 -12t12.5 -29q0 -9 -9 -18.5t-20 -14.5h2l-20 -18v-98q71 -21 126.5 -83.5t55.5 -131.5q0 -17 -11 -27t-30 -10q-16 0 -26.5 10t-10.5 27q0 44 -30.5 82.5t-73.5 54.5v-686q0 -59 42.5 -102.5t102.5 -43.5t102.5 43.5t42.5 102.5 v90q0 19 11 30t30 11q14 0 25.5 -11.5t11.5 -29.5v-90q0 -93 -64 -158t-159 -65q-92 0 -156.5 65t-66.5 156v872q-11 6 -19 10q-24 21 -24 35z" />
<glyph unicode="u" horiz-adv-x="628" d="M-10 930q-4 18 8.5 30.5t28.5 12.5h92q19 0 30 -11t11 -28q0 -8 -9.5 -19t-19.5 -16q-20 -16 -20 -12v-684q0 -59 42.5 -102.5t102.5 -43.5q49 0 90 36t53 87v703l-18 16h2q-10 5 -19.5 16t-9.5 19q0 17 12 28t29 11h88q20 0 32.5 -12.5t8.5 -30.5q-3 -15 -26 -31 l-19 -10v-826q7 -4 15 -8h-2q32 -18 32 -37q0 -16 -13 -27t-28 -11h-63q-21 0 -21 20v31q-61 -51 -143 -51q-92 0 -157.5 65.5t-65.5 157.5v686q-13 4 -19 10q-18 12 -24 31z" />
<glyph unicode="v" horiz-adv-x="618" d="M-23 958q-1 3 5 6.5t17.5 6t23.5 2.5h92q13 0 26.5 -10.5t18.5 -24.5q0 -24 -17 -33h2l-20 -18l117 -662q82 389 137 662l-14 12l8 -2q-1 0 -3 2t-3 2q-12 5 -17.5 12.5t-5.5 24.5q2 14 16 24.5t31 10.5h88q19 0 28.5 -13.5t6.5 -31.5q-6 -19 -20 -23l-13 -4l-22 -18 q-21 -105 -79.5 -388t-86.5 -432q-1 -1 2 -4.5t9 -8.5t13 -9l11 -21q6 -17 -5 -28.5t-30 -11.5h-103q-21 0 -28.5 17t0.5 42l28 31l-145 811l-14 8h4l-21 14q-18 18 -37 55zM317 41h2q-2 2 -2 0z" />
<glyph unicode="w" horiz-adv-x="628" d="M-12 936q0 16 11.5 26.5t25.5 10.5h92q15 0 28 -11.5t13 -27.5q0 -14 -5 -19.5t-16 -11.5l-6 -4q-8 -5 -15 -8t-7 -2v-688q0 -51 29.5 -89.5t76.5 -50.5v826l-12 4l-6 4h4q-30 19 -33 35q-3 17 9.5 29t31.5 12h92q13 0 25 -11.5t12 -25.5q0 -20 -19 -31l-4 -4 q-8 -5 -15 -8t-7 -2v-830q47 12 76.5 52t29.5 90v686q-10 3 -16 12q-29 22 -29 41q2 14 13 23.5t28 9.5h88q20 0 32.5 -12.5t8.5 -30.5q-3 -13 -22 -25h4l-6 -4l-21 -12v-688q0 -93 -65 -158.5t-160 -65.5q-92 0 -157.5 66t-65.5 158v686l-13 4l-4 4q-26 26 -26 41z" />
<glyph unicode="x" horiz-adv-x="524" d="M-16 14q13 28 34 39l7 4h-5l25 11l121 409q-114 384 -121 408l-12 4h2q-2 1 -6 5t-6 5q-29 14 -39 45q-2 12 8.5 20.5t30.5 8.5h90q33 0 43 -31v2q8 -18 -21 -47h2l-12 -10q13 -45 26 -87.5t29 -94t27 -87.5q20 74 39 136q3 9 19 58.5t22 76.5l-8 8q-33 29 -25 47v-2 q4 13 17.5 22t27.5 9h88q13 0 25 -2.5t18.5 -6t5.5 -6.5q-23 -44 -45 -59l-22 -14l-125 -408l125 -409l26 -17l4 -2h-2q21 -12 23 -14l-8 2l12 -8q6 -20 -6 -34.5t-31 -14.5h-90q-15 0 -28.5 11.5t-14.5 26.5q0 14 3 19t13 12l17 17l-82 274l-37 -125l-43 -149l31 -29v-19 q-5 -16 -16.5 -27t-24.5 -11h-92q-21 0 -31.5 10t-7.5 24z" />
<glyph unicode="y" horiz-adv-x="628" d="M-10 930q-4 18 8.5 30.5t28.5 12.5h92q19 0 30 -11t11 -28q0 -8 -9.5 -19t-19.5 -16q-20 -16 -20 -12v-228q0 -60 42.5 -102.5t102.5 -42.5q52 0 93 33.5t50 83.5v12v240l-18 16h2q-10 5 -19.5 16t-9.5 19q0 17 12 28t29 11h88q20 0 32.5 -12.5t8.5 -30.5q-3 -15 -26 -31 l-19 -10v-686q0 -93 -65 -158t-160 -65q-92 0 -157.5 65.5t-65.5 157.5v90q0 18 11.5 29.5t29.5 11.5q17 0 27 -11t10 -30v-90q0 -59 42.5 -102.5t102.5 -43.5t102.5 43.5t42.5 102.5v284q-54 -51 -143 -51q-92 0 -157.5 65.5t-65.5 157.5v230q-13 4 -19 10q-18 12 -24 31z " />
<glyph unicode="z" horiz-adv-x="528" d="M-14 385q0 140 84.5 248.5t216.5 142.5l45 119h-307q-39 0 -39 41q0 15 10.5 26t28.5 11h368l10 -4q11 0 15 -4l8 -7q4 -4 4 -16v-8q0 -6 -2 -14l-47 -127h8q18 0 29.5 -13t11.5 -28q0 -17 -11 -27t-30 -10q-29 0 -45 -2l-260 -656h305q18 0 29.5 -11.5t11.5 -25.5 q0 -19 -11 -29.5t-30 -10.5h-364q-23 0 -29 12v-2q-15 25 -8 47l254 639q-79 -39 -127.5 -117.5t-48.5 -173.5q0 -16 -13 -27.5t-28 -11.5q-18 0 -28.5 10.5t-10.5 28.5z" />
<glyph unicode="{" horiz-adv-x="335" d="M-16 567q0 41 36 41q21 0 38.5 16t17.5 35v467q0 57 37.5 95.5t95.5 38.5q13 0 25 -13.5t12 -27.5q0 -15 -11.5 -26t-25.5 -11q-23 0 -39 -17t-16 -39v-467q0 -50 -39 -92q39 -42 39 -92v-465q0 -23 16 -38t39 -15q13 0 25 -12.5t12 -26.5q0 -18 -11.5 -29.5t-25.5 -11.5 q-58 0 -95.5 38.5t-37.5 94.5v465q0 22 -16.5 36.5t-39.5 14.5q-17 0 -26.5 11.5t-9.5 29.5z" />
<glyph unicode="|" horiz-adv-x="83" d="M-78 -82v1301q0 15 11 28t28 13q13 0 27 -14t14 -27v-1301q0 -18 -13 -29.5t-28 -11.5q-39 0 -39 41z" />
<glyph unicode="}" horiz-adv-x="335" d="M-16 -82q0 15 10 27t26 12q22 0 39 15t17 38v465q0 50 39 92q-39 54 -39 92v467q0 22 -17 39t-39 17q-17 0 -26.5 10.5t-9.5 26.5q0 15 10 28t26 13q57 0 95.5 -38.5t38.5 -95.5v-467q0 -19 16 -35t39 -16q14 0 25.5 -11.5t11.5 -29.5q0 -17 -11.5 -29t-25.5 -12 q-24 0 -39.5 -14t-15.5 -37v-465q0 -56 -38.5 -94.5t-95.5 -38.5q-36 0 -36 41z" />
<glyph unicode="~" horiz-adv-x="827" d="M76 670q0 26 18 41.5t45 15.5l566 2q6 21 32 21q15 0 28 -11.5t13 -27.5q0 -25 -18.5 -43.5t-44.5 -18.5h-561q-9 -20 -37 -20q-18 0 -29.5 11.5t-11.5 29.5z" />
<glyph unicode="&#xa2;" d="M-16 289v559q0 75 54.5 137.5t129.5 85.5v55q0 14 12.5 27.5t28.5 13.5q18 0 29.5 -13t11.5 -28v-55q81 -18 133.5 -79.5t52.5 -143.5q0 -18 -11.5 -29.5t-29.5 -11.5q-14 0 -25.5 12t-11.5 29q0 47 -31.5 87t-76.5 52v-842q47 12 77.5 52.5t30.5 91.5q0 17 11.5 28 t25.5 11q19 0 30 -11t11 -28q0 -82 -53 -145.5t-133 -80.5v-53q0 -19 -11 -30t-30 -11q-18 0 -29.5 11.5t-11.5 29.5v53q-73 26 -128.5 90t-55.5 136zM61 289q0 -52 29.5 -91t77.5 -51v840q-47 -11 -77 -49.5t-30 -89.5v-559z" />
<glyph unicode="&#xa3;" horiz-adv-x="624" d="M-16 598q0 39 41 39h51v266q0 75 53 128.5t127 53.5q75 0 126.5 -53.5t51.5 -128.5v-43q0 -19 -10 -30t-27 -11q-19 0 -30 11t-11 30v43q0 42 -30 71.5t-70 29.5q-41 0 -69.5 -29t-28.5 -72v-266h145q14 0 26.5 -11t12.5 -28q0 -16 -13 -28.5t-26 -12.5h-145v-332 q29 11 51 11h188q19 0 35.5 16t16.5 37q0 13 12 26t28 13q17 0 29 -13t12 -26q0 -56 -39 -93.5t-94 -37.5h-188q-20 0 -35.5 -17t-15.5 -39q0 -18 -13 -29.5t-28 -11.5q-19 0 -30 11t-11 30v455h-51q-18 0 -29.5 11.5t-11.5 29.5z" />
<glyph unicode="&#xa5;" horiz-adv-x="524" d="M-23 1049q-3 9 11 17.5t35 8.5h90q33 0 47 -31q4 -20 -27 -47q-10 -7 -10 -10l84 -321q64 235 84 321l-10 10q-30 26 -23 47q14 31 43 31h90q19 0 31 -14.5t6 -34.5q-4 -8 -8 -8q-10 -10 -25 -19l-6 -4l4 2l-12 -10l-8 -4l-117 -459h133q14 0 26.5 -11t12.5 -28 q0 -16 -13 -28.5t-26 -12.5h-141v-106h141q13 0 26 -12t13 -29q0 -13 -13.5 -25t-25.5 -12h-141v-110l16 -9q13 -9 27 -37q0 -18 -10 -30.5t-27 -12.5h-94q-16 0 -27.5 11.5t-11.5 29.5q0 11 3 17.5t5.5 8t11.5 5.5q2 0 6 4q18 14 19 13v110h-139q-17 0 -29 11.5t-12 25.5 q0 18 11.5 29.5t29.5 11.5h139v106h-139q-17 0 -29 12t-12 29q0 18 11.5 28.5t29.5 10.5h133q-35 148 -74 285q-26 95 -43 174l-25 14q-23 15 -41 52z" />
<glyph unicode="&#xad;" d="M-16 485q0 39 41 39h370q41 0 41 -39q0 -18 -11.5 -29.5t-29.5 -11.5h-370q-18 0 -29.5 11.5t-11.5 29.5z" />
<glyph unicode="&#xc0;" horiz-adv-x="638" d="M-14 18q7 15 24 23l17 8h-2l20 14l166 1016l-25 21q1 0 -6 18q-5 20 3.5 34.5t27.5 14.5h102q20 0 30.5 -15.5t0.5 -37.5l-12 -20l-17 -15l168 -1016l25 -18q5 -4 13.5 -9t13 -9.5t6.5 -10.5q5 -20 -3.5 -33.5t-29.5 -13.5h-92q-15 0 -30.5 12t-16.5 25q0 18 30 45h-2 q7 7 9 4q-14 87 -45 262.5t-46 262.5q-41 24 -94 73l-47 -291l-51 -307q4 -4 10 -8q27 -23 27 -41q-5 -14 -18.5 -25.5t-26.5 -11.5h-92q-22 0 -34 14.5t-3 34.5zM198 1322q0 16 13 30q16 14 33 13.5t30 -13.5l39 -39q12 -12 11.5 -32t-13.5 -32q-5 -8 -24 -8q-23 0 -31 8 l-45 45q-13 12 -13 28zM215 760l2 -8q1 -5 6 -6.5t10 0.5t5 6q0 2 -1 4.5t-1 3.5q0 9 -10.5 9t-10.5 -9zM238 758q33 -46 63 -72l-35 229z" />
<glyph unicode="&#xc1;" horiz-adv-x="638" d="M-14 18q7 15 24 23l17 8h-2l20 14l166 1016l-25 21q1 0 -6 18q-5 20 3.5 34.5t27.5 14.5h102q20 0 30.5 -15.5t0.5 -37.5l-12 -20l-17 -15l168 -1016l25 -18q5 -4 13.5 -9t13 -9.5t6.5 -10.5q5 -20 -3.5 -33.5t-29.5 -13.5h-92q-15 0 -30.5 12t-16.5 25q0 18 30 45h-2 q7 7 9 4q-14 87 -45 262.5t-46 262.5q-41 24 -94 73l-47 -291l-51 -307q4 -4 10 -8q27 -23 27 -41q-5 -14 -18.5 -25.5t-26.5 -11.5h-92q-22 0 -34 14.5t-3 34.5zM198.5 1281q0.5 20 12.5 32l47 39h-2q12 12 30 11t27 -13v2q12 -14 12 -30t-12 -28v2l-39 -47q-8 -8 -32 -8 q-23 0 -31 8q-13 12 -12.5 32zM215 760l2 -8q1 -5 6 -6.5t10 0.5t5 6q0 2 -1 4.5t-1 3.5q0 9 -10.5 9t-10.5 -9zM238 758q33 -46 63 -72l-35 229z" />
<glyph unicode="&#xc2;" horiz-adv-x="638" d="M-14 18q7 15 24 23l17 8h-2l20 14l166 1016l-25 21q1 0 -6 18q-5 20 3.5 34.5t27.5 14.5h102q20 0 30.5 -15.5t0.5 -37.5l-12 -20l-17 -15l168 -1016l25 -18q5 -4 13.5 -9t13 -9.5t6.5 -10.5q5 -20 -3.5 -33.5t-29.5 -13.5h-92q-15 0 -30.5 12t-16.5 25q0 18 30 45h-2 q7 7 9 4q-14 87 -45 262.5t-46 262.5q-41 24 -94 73l-47 -291l-51 -307q4 -4 10 -8q27 -23 27 -41q-5 -14 -18.5 -25.5t-26.5 -11.5h-92q-22 0 -34 14.5t-3 34.5zM146 1277.5q-3 16.5 6 25.5l53 47q11 11 29 11.5t30 -9.5q12 -14 12 -30t-12 -28l-45 -45q-8 -8 -29 -8 q-20 0 -28 8q-13 12 -16 28.5zM215 760l2 -8q1 -5 6 -6.5t10 0.5t5 6q0 2 -1 4.5t-1 3.5q0 9 -10.5 9t-10.5 -9zM238 758q33 -46 63 -72l-35 229zM252 1322q0 16 14 30q12 12 29 12t29 -12h-2l43 -39q13 -14 13.5 -32.5t-13.5 -31.5h2q-8 -8 -31 -8t-29 8l-41 47v-2 q-14 12 -14 28z" />
<glyph unicode="&#xc3;" horiz-adv-x="638" d="M-14 18q7 15 24 23l17 8h-2l20 14l166 1016l-25 21q1 0 -6 18q-5 20 3.5 34.5t27.5 14.5h102q20 0 30.5 -15.5t0.5 -37.5l-12 -20l-17 -15l168 -1016l25 -18q5 -4 13.5 -9t13 -9.5t6.5 -10.5q5 -20 -3.5 -33.5t-29.5 -13.5h-92q-15 0 -30.5 12t-16.5 25q0 18 30 45h-2 q7 7 9 4q-14 87 -45 262.5t-46 262.5q-41 24 -94 73l-47 -291l-51 -307q4 -4 10 -8q27 -23 27 -41q-5 -14 -18.5 -25.5t-26.5 -11.5h-92q-22 0 -34 14.5t-3 34.5zM131 1282q0 26 17 41.5t42 15.5l129 2q9 21 37 21q19 0 30 -11t11 -28q0 -25 -17.5 -43t-43.5 -18h-131 q-6 -21 -33 -21q-18 0 -29.5 11.5t-11.5 29.5zM215 760l2 -8q1 -5 6 -6.5t10 0.5t5 6q0 2 -1 4.5t-1 3.5q0 9 -10.5 9t-10.5 -9zM238 758q33 -46 63 -72l-35 229z" />
<glyph unicode="&#xc4;" horiz-adv-x="638" d="M-14 18q7 15 24 23l17 8h-2l20 14l166 1016l-25 21q1 0 -6 18q-5 20 3.5 34.5t27.5 14.5h102q20 0 30.5 -15.5t0.5 -37.5l-12 -20l-17 -15l168 -1016l25 -18q5 -4 13.5 -9t13 -9.5t6.5 -10.5q5 -20 -3.5 -33.5t-29.5 -13.5h-92q-15 0 -30.5 12t-16.5 25q0 18 30 45h-2 q7 7 9 4q-14 87 -45 262.5t-46 262.5q-41 24 -94 73l-47 -291l-51 -307q4 -4 10 -8q27 -23 27 -41q-5 -14 -18.5 -25.5t-26.5 -11.5h-92q-22 0 -34 14.5t-3 34.5zM174 1321q0 17 11 29t28 12q18 0 29.5 -11.5t11.5 -29.5q0 -17 -11 -28t-30 -11q-17 0 -28 11t-11 28z M215 760l2 -8q1 -5 6 -6.5t10 0.5t5 6q0 2 -1 4.5t-1 3.5q0 9 -10.5 9t-10.5 -9zM238 758q33 -46 63 -72l-35 229zM274 1321q0 17 12 29t27 12q19 0 31 -12t12 -29t-12 -28t-31 -11q-16 0 -27.5 11t-11.5 28z" />
<glyph unicode="&#xc5;" horiz-adv-x="638" d="M-14 18q7 15 24 23l17 8h-2l20 14l166 1016l-25 21q1 0 -6 18q-5 20 3.5 34.5t27.5 14.5h102q20 0 30.5 -15.5t0.5 -37.5l-12 -20l-17 -15l168 -1016l25 -18q5 -4 13.5 -9t13 -9.5t6.5 -10.5q5 -20 -3.5 -33.5t-29.5 -13.5h-92q-15 0 -30.5 12t-16.5 25q0 18 30 45h-2 q7 7 9 4q-14 87 -45 262.5t-46 262.5q-41 24 -94 73l-47 -291l-51 -307q4 -4 10 -8q27 -23 27 -41q-5 -14 -18.5 -25.5t-26.5 -11.5h-92q-22 0 -34 14.5t-3 34.5zM190 1292q0 29 21.5 49.5t52.5 20.5q32 0 51 -20t19 -50q0 -33 -19 -53t-51 -20q-31 0 -52.5 20.5t-21.5 52.5 zM215 760l2 -8q1 -5 6 -6.5t10 0.5t5 6q0 2 -1 4.5t-1 3.5q0 9 -10.5 9t-10.5 -9zM238 758q33 -46 63 -72l-35 229zM256 1292q0 -8 8 -8z" />
<glyph unicode="&#xc6;" horiz-adv-x="798" d="M-10 16q10 15 22 23l8 4h-4q8 4 29 18l172 1022l2 7q-5 -5 -14 0l-2 2q-10 -11 -13 -7t-10 31v-2q-9 22 0.5 35.5t34.5 13.5h444q14 0 25.5 -11.5t11.5 -29.5q0 -17 -11.5 -28t-25.5 -11h-323l-10 -4v-10q156 -17 263 -135.5t107 -276.5q0 -16 -11 -26t-26 -10 q-41 0 -41 36q0 129 -84.5 222.5t-207.5 107.5v-932q0 -2 1 -3q3 0 7 -3h325q13 0 25 -13.5t12 -27.5q0 -18 -11.5 -29.5t-25.5 -11.5h-421q-17 0 -29 12t-8 31q0 13 18 27h-2l6 6q21 16 21 12v574l-19 18q-2 -14 -12.5 -65t-13.5 -78q-35 -199 -74 -451l25 -20h-3 q13 -7 13 -29q-1 -14 -16 -25.5t-29 -11.5h-92q-20 0 -30 14.5t-3 34.5zM240 752l4 -4v28z" />
<glyph unicode="&#xc7;" horiz-adv-x="583" d="M-14 1120q-4 18 9 32.5t32 14.5h235q95 0 161 -66t66 -161v-92q0 -17 -13 -29t-27 -12q-18 0 -29.5 11.5t-11.5 29.5v92q0 60 -43 103.5t-103 43.5h-151v-890q0 -60 44 -103t105 -43q60 0 104 43t44 103v92q0 39 38 39q15 0 28 -11.5t13 -27.5v-92q0 -75 -55.5 -139 t-132.5 -87v-6h4q39 0 64.5 -24t25.5 -62q0 -35 -26 -59.5t-64 -24.5h-43q-19 0 -30 11t-11 28q0 13 12 26t29 13h43q8 0 8 6q0 8 -8 8h-43q-19 0 -30 11t-11 30v43q-74 26 -130 90.5t-56 135.5v882q-1 -3 -7.5 1.5t-13.5 11.5q-23 13 -26 28z" />
<glyph unicode="&#xc8;" horiz-adv-x="579" d="M-14 12q13 26 30 37l17 8v1022q-2 -2 -7 1t-8 7l-6 5h2q-28 20 -28 34q0 18 11.5 29.5t29.5 11.5h417q14 0 27.5 -13.5t13.5 -27.5q0 -17 -13 -28t-28 -11h-319q-14 -7 -14 -6v-10q157 -19 265.5 -137t108.5 -275q0 -16 -13 -26t-28 -10q-38 0 -38 36q0 131 -84 225.5 t-211 106.5v-934q0 -2 1 -3q3 0 7 -3h325q14 0 27.5 -13.5t13.5 -27.5q0 -18 -13 -29.5t-28 -11.5h-417q-16 0 -28.5 14t-12.5 29zM170 1322q0 16 12 30q12 12 31 12t31 -12h-2l41 -35q8 -16 8.5 -36t-8.5 -36q-4 -4 -9 -4h-18q-23 0 -31 8l-43 45q-12 12 -12 28z" />
<glyph unicode="&#xc9;" horiz-adv-x="579" d="M-14 12q13 26 30 37l17 8v1022q-2 -2 -7 1t-8 7l-6 5h2q-28 20 -28 34q0 18 11.5 29.5t29.5 11.5h417q14 0 27.5 -13.5t13.5 -27.5q0 -17 -13 -28t-28 -11h-319q-14 -7 -14 -6v-10q157 -19 265.5 -137t108.5 -275q0 -16 -13 -26t-28 -10q-38 0 -38 36q0 131 -84 225.5 t-211 106.5v-934q0 -2 1 -3q3 0 7 -3h325q14 0 27.5 -13.5t13.5 -27.5q0 -18 -13 -29.5t-28 -11.5h-417q-16 0 -28.5 14t-12.5 29zM170.5 1281q0.5 20 11.5 32l45 39h-2q13 13 31 14t27 -10q20 -29 -7 -74l-32 -33q-8 -8 -31 -8t-31 8q-12 12 -11.5 32z" />
<glyph unicode="&#xca;" horiz-adv-x="579" d="M-14 12q13 26 30 37l17 8v1022q-2 -2 -7 1t-8 7l-6 5h2q-28 20 -28 34q0 18 11.5 29.5t29.5 11.5h417q14 0 27.5 -13.5t13.5 -27.5q0 -17 -13 -28t-28 -11h-319q-14 -7 -14 -6v-10q157 -19 265.5 -137t108.5 -275q0 -16 -13 -26t-28 -10q-38 0 -38 36q0 131 -84 225.5 t-211 106.5v-934q0 -2 1 -3q3 0 7 -3h325q14 0 27.5 -13.5t13.5 -27.5q0 -18 -13 -29.5t-28 -11.5h-417q-16 0 -28.5 14t-12.5 29zM120.5 1281q0.5 20 12.5 32l41 39q11 12 29 12t30 -12q12 -14 12 -30t-12 -28l-43 -45q-8 -8 -26 -8q-23 0 -31 8q-13 12 -12.5 32zM222 1322 q0 16 14 30q12 12 31 11.5t28 -11.5h-2l43 -39q13 -14 13.5 -32.5t-13.5 -31.5h2q-8 -8 -31 -8q-20 0 -26 10v-2l-45 45q-14 12 -14 28z" />
<glyph unicode="&#xcb;" horiz-adv-x="579" d="M-14 12q13 26 30 37l17 8v1022q-2 -2 -7 1t-8 7l-6 5h2q-28 20 -28 34q0 18 11.5 29.5t29.5 11.5h417q14 0 27.5 -13.5t13.5 -27.5q0 -17 -13 -28t-28 -11h-319q-14 -7 -14 -6v-10q157 -19 265.5 -137t108.5 -275q0 -16 -13 -26t-28 -10q-38 0 -38 36q0 131 -84 225.5 t-211 106.5v-934q0 -2 1 -3q3 0 7 -3h325q14 0 27.5 -13.5t13.5 -27.5q0 -18 -13 -29.5t-28 -11.5h-417q-16 0 -28.5 14t-12.5 29zM143 1321q0 17 12 29t27 12q19 0 31 -12t12 -29t-12 -28t-31 -11q-16 0 -27.5 11t-11.5 28zM246 1321q0 18 11.5 29.5t29.5 11.5q15 0 27 -12 t12 -29t-11.5 -28t-27.5 -11q-19 0 -30 11t-11 28z" />
<glyph unicode="&#xcc;" horiz-adv-x="241" d="M-18 12q13 26 30 37l17 8v1022q-2 -2 -7 1t-8 7l-6 5h2q-28 20 -28 34q0 18 11.5 29.5t29.5 11.5h92q19 0 30 -12t11 -31q0 -11 -31 -32l-14 -11h2l-5 -3l-2 1v-1022q13 -6 23 -12q4 -4 6 -4q1 0 4 -1.5t3.5 -2t3 -2t3.5 -2.5l2.5 -2.5t2 -3.5t1 -4.5t1 -5.5t0.5 -7 q0 -18 -11.5 -29.5t-29.5 -11.5h-92q-16 0 -28.5 14t-12.5 29zM2 1322q0 16 14 30q12 12 31 12t31 -12h-2l37 -35q9 -16 9.5 -36t-9.5 -36q-4 -4 -9 -4h-14q-23 0 -31 8l-43 45q-14 12 -14 28z" />
<glyph unicode="&#xcd;" horiz-adv-x="241" d="M-18 12q13 26 30 37l17 8v1022q-2 -2 -7 1t-8 7l-6 5h2q-28 20 -28 34q0 18 11.5 29.5t29.5 11.5h92q19 0 30 -12t11 -31q0 -11 -31 -32l-14 -11h2l-5 -3l-2 1v-1022q13 -6 23 -12q4 -4 6 -4q1 0 4 -1.5t3.5 -2t3 -2t3.5 -2.5l2.5 -2.5t2 -3.5t1 -4.5t1 -5.5t0.5 -7 q0 -18 -11.5 -29.5t-29.5 -11.5h-92q-16 0 -28.5 14t-12.5 29zM3.5 1281q0.5 20 12.5 32l45 39h-2q14 14 29.5 15t24.5 -11q23 -29 -7 -74l-28 -33q-8 -8 -31 -8t-31 8q-13 12 -12.5 32z" />
<glyph unicode="&#xce;" horiz-adv-x="294" d="M-18 12q13 26 30 37l17 8v1022q-2 -2 -7 1t-8 7l-6 5h2q-28 20 -28 34q0 18 11.5 29.5t29.5 11.5h92q19 0 30 -12t11 -31q0 -11 -31 -32l-14 -11h2l-5 -3l-2 1v-1022q13 -6 23 -12q4 -4 6 -4q1 0 4 -1.5t3.5 -2t3 -2t3.5 -2.5l2.5 -2.5t2 -3.5t1 -4.5t1 -5.5t0.5 -7 q0 -18 -11.5 -29.5t-29.5 -11.5h-92q-16 0 -28.5 14t-12.5 29zM-15.5 1279q-3.5 22 5.5 34l45 39h-2q12 12 30.5 12t30.5 -12q10 -14 10 -30t-10 -28l-43 -45q-8 -8 -31 -8q-20 -1 -20 -2q-12 18 -15.5 40zM82 1322q0 16 14 30v-2q9 12 28.5 12.5t29.5 -10.5h-2l45 -39 q13 -14 13.5 -32.5t-13.5 -31.5h2q-8 -8 -31 -8t-31 8l-41 45q-14 12 -14 28z" />
<glyph unicode="&#xcf;" horiz-adv-x="251" d="M-20 1321q0 17 12 29t31 12t31 -12t12 -29t-12 -28t-31 -11t-31 11t-12 28zM-18 12q13 26 30 37l17 8v1022q-2 -2 -7 1t-8 7l-6 5h2q-28 20 -28 34q0 18 11.5 29.5t29.5 11.5h92q19 0 30 -12t11 -31q0 -11 -31 -32l-14 -11h2l-5 -3l-2 1v-1022q13 -6 23 -12q4 -4 6 -4 q1 0 4 -1.5t3.5 -2t3 -2t3.5 -2.5l2.5 -2.5t2 -3.5t1 -4.5t1 -5.5t0.5 -7q0 -18 -11.5 -29.5t-29.5 -11.5h-92q-16 0 -28.5 14t-12.5 29zM84 1321q0 18 10.5 29.5t28.5 11.5q19 0 31 -12t12 -29t-12 -28t-31 -11q-18 0 -28.5 10.5t-10.5 28.5z" />
<glyph unicode="&#xd0;" horiz-adv-x="628" d="M-16 567q0 18 11.5 29.5t29.5 11.5h53v473q-10 6 -15 11h3q-31 19 -31 36t11.5 28t27.5 11h65q166 -8 281 -127t115 -288v-369q0 -166 -116 -286t-282 -128h-63q-17 0 -28 12t-11 31q0 13 18 27h-2l8 6q4 2 9 6t7.5 5.5t2.5 0.5v469h-53q-17 0 -29 12t-12 29zM160 53 q123 14 208 107.5t85 222.5v369q0 133 -84 228t-209 107v-479h49q19 0 30 -11t11 -30q0 -18 -11.5 -29.5t-29.5 -11.5h-49v-473z" />
<glyph unicode="&#xd1;" horiz-adv-x="626" d="M-14 12q13 26 30 37l17 8v1022q-2 -2 -7 1t-8 7l-6 5h2q-28 20 -28 34q0 18 11.5 29.5t29.5 11.5h92q18 0 29.5 -14.5t11.5 -36.5q-2 -4 -33 -26l-12 -11q21 -116 100 -195t191 -89v284q-1 0 -17 13l-4 2l-10 6h2q-19 15 -19 26q0 18 11.5 29.5t29.5 11.5h93q18 0 29 -12 t11 -31q0 -13 -28 -34q-3 -2 -8 -5t-8 -5t-3 -1v-1022l17 -8q30 -22 30 -39q0 -18 -11 -29.5t-29 -11.5h-93q-18 0 -29.5 11.5t-11.5 29.5q0 16 31 39l17 8v658q-87 10 -164.5 56t-130.5 116v-830q12 -6 22 -12q4 -4 6 -4q1 0 4 -1.5t3.5 -2t3 -2t3.5 -2.5l2.5 -2.5t2 -3.5 t1 -4.5t1 -5.5t0.5 -7q0 -18 -11.5 -29.5t-29.5 -11.5h-92q-16 0 -28.5 14t-12.5 29zM125 1282q0 26 18 41.5t45 15.5l125 2q9 21 37 21q19 0 30 -11t11 -28q0 -25 -17.5 -43t-43.5 -18h-131q-6 -21 -33 -21q-18 0 -29.5 11.5t-11.5 29.5z" />
<glyph unicode="&#xd2;" d="M-16 197v745q0 94 65.5 159.5t159.5 65.5q95 0 161 -65.5t66 -159.5v-745q0 -95 -66 -161.5t-161 -66.5q-94 0 -159.5 66.5t-65.5 161.5zM61 197q0 -59 44.5 -102.5t103.5 -43.5q60 0 104.5 43t44.5 103v745q0 58 -44.5 101.5t-104.5 43.5q-59 0 -103.5 -43.5 t-44.5 -101.5v-745zM156 1321q0 22 12 41q7 8 23 5t28 -15h-2l43 -39q12 -14 12.5 -33t-12.5 -31h2q-8 -8 -31 -8q-22 0 -30 8l-33 35q-12 15 -12 37z" />
<glyph unicode="&#xd3;" d="M-16 197v745q0 94 65.5 159.5t159.5 65.5q95 0 161 -65.5t66 -159.5v-745q0 -95 -66 -161.5t-161 -66.5q-94 0 -159.5 66.5t-65.5 161.5zM61 197q0 -59 44.5 -102.5t103.5 -43.5q60 0 104.5 43t44.5 103v745q0 58 -44.5 101.5t-104.5 43.5q-59 0 -103.5 -43.5 t-44.5 -101.5v-745zM153 1278.5q-3 21.5 7 34.5l43 39h-2q12 12 30.5 12t30.5 -12q12 -14 12 -30t-12 -28l-43 -45q-8 -8 -31 -8q-20 -1 -20 -2q-12 18 -15 39.5z" />
<glyph unicode="&#xd4;" d="M-16 197v745q0 94 65.5 159.5t159.5 65.5q95 0 161 -65.5t66 -159.5v-745q0 -95 -66 -161.5t-161 -66.5q-94 0 -159.5 66.5t-65.5 161.5zM61 197q0 -59 44.5 -102.5t103.5 -43.5q60 0 104.5 43t44.5 103v745q0 58 -44.5 101.5t-104.5 43.5q-59 0 -103.5 -43.5 t-44.5 -101.5v-745zM93.5 1281q0.5 20 12.5 32l48 39q9 10 26 10t29 -10q12 -14 12 -30t-12 -28l-43 -45q-6 -8 -29 -8t-31 8q-13 12 -12.5 32zM198 1322q0 16 13 30q12 12 30.5 12t30.5 -12h-2l37 -35q9 -16 9.5 -36t-9.5 -36q-4 -4 -8 -4h-16q-21 0 -29 8l-43 45 q-13 12 -13 28z" />
<glyph unicode="&#xd5;" d="M-16 197v745q0 94 65.5 159.5t159.5 65.5q95 0 161 -65.5t66 -159.5v-745q0 -95 -66 -161.5t-161 -66.5q-94 0 -159.5 66.5t-65.5 161.5zM61 197q0 -59 44.5 -102.5t103.5 -43.5q60 0 104.5 43t44.5 103v745q0 58 -44.5 101.5t-104.5 43.5q-59 0 -103.5 -43.5 t-44.5 -101.5v-745zM76 1282q0 26 18 41.5t45 15.5l131 2q6 21 33 21q15 0 28 -11.5t13 -27.5q0 -25 -18.5 -43t-44.5 -18h-127q-9 -21 -37 -21q-18 0 -29.5 11.5t-11.5 29.5z" />
<glyph unicode="&#xd6;" d="M-16 197v745q0 94 65.5 159.5t159.5 65.5q95 0 161 -65.5t66 -159.5v-745q0 -95 -66 -161.5t-161 -66.5q-94 0 -159.5 66.5t-65.5 161.5zM61 197q0 -59 44.5 -102.5t103.5 -43.5q60 0 104.5 43t44.5 103v745q0 58 -44.5 101.5t-104.5 43.5q-59 0 -103.5 -43.5 t-44.5 -101.5v-745zM119 1321q0 17 12 29t31 12q15 0 27 -12t12 -29t-11.5 -28t-27.5 -11q-19 0 -31 11t-12 28zM219 1321q0 17 12 29t31 12q15 0 27 -12t12 -29t-11.5 -28t-27.5 -11q-19 0 -31 11t-12 28z" />
<glyph unicode="&#xd8;" d="M-16 197v745q0 94 65.5 159.5t159.5 65.5q81 0 143 -47v2q3 3 8 23q3 11 20 17.5t34 2.5q12 -6 18 -22t2 -29l-26 -70q28 -48 28 -102v-745q0 -95 -66 -161.5t-161 -66.5q-76 0 -143 51q-5 -15 -5 -20q-12 -31 -36 -31q-15 0 -19 4q-12 6 -17.5 21t-2.5 29l26 71 q-28 54 -28 103zM61 260l261 778q-43 49 -113 49q-59 0 -103.5 -43.5t-44.5 -101.5v-682zM98 98q44 -47 111 -47q60 0 104.5 43t44.5 103v680q-48 -138 -120 -359z" />
<glyph unicode="&#xd9;" horiz-adv-x="630" d="M-14 1128q0 17 12 28t29 11h92q15 0 28 -12.5t13 -30.5q0 -13 -25 -28l-24 -13v-886q0 -60 44.5 -103t104.5 -43t104 43t44 103l2 882q-9 5 -19 13q-31 22 -31 41q11 34 43 34h91q19 0 31.5 -14t9.5 -33q-3 -14 -23 -22h4l-8 -6q-2 -2 -8 -2l-2 -3l-11 -6v-884 q0 -95 -66 -161.5t-161 -66.5t-161 66.5t-66 161.5v884q-4 -4 -17 9q-12 7 -21 18.5t-9 19.5zM194 1322q0 16 13 30q12 12 30.5 12t30.5 -12h-2l41 -39q12 -12 12 -32t-12 -32q-5 -8 -24 -8q-23 0 -31 8l-45 45q-13 12 -13 28z" />
<glyph unicode="&#xda;" horiz-adv-x="630" d="M-14 1128q0 17 12 28t29 11h92q15 0 28 -12.5t13 -30.5q0 -13 -25 -28l-24 -13v-886q0 -60 44.5 -103t104.5 -43t104 43t44 103l2 882q-9 5 -19 13q-31 22 -31 41q11 34 43 34h91q19 0 31.5 -14t9.5 -33q-3 -14 -23 -22h4l-8 -6q-2 -2 -8 -2l-2 -3l-11 -6v-884 q0 -95 -66 -161.5t-161 -66.5t-161 66.5t-66 161.5v884q-4 -4 -17 9q-12 7 -21 18.5t-9 19.5zM194.5 1281q0.5 20 12.5 32l47 39h-2q12 12 30 11t27 -13v2q12 -14 12 -30t-12 -28l-41 -45q-8 -8 -30 -8q-23 0 -31 8q-13 12 -12.5 32z" />
<glyph unicode="&#xdb;" horiz-adv-x="630" d="M-14 1128q0 17 12 28t29 11h92q15 0 28 -12.5t13 -30.5q0 -13 -25 -28l-24 -13v-886q0 -60 44.5 -103t104.5 -43t104 43t44 103l2 882q-9 5 -19 13q-31 22 -31 41q11 34 43 34h91q19 0 31.5 -14t9.5 -33q-3 -14 -23 -22h4l-8 -6q-2 -2 -8 -2l-2 -3l-11 -6v-884 q0 -95 -66 -161.5t-161 -66.5t-161 66.5t-66 161.5v884q-4 -4 -17 9q-12 7 -21 18.5t-9 19.5zM145.5 1281q0.5 20 12.5 32l39 39q12 12 31 11.5t30 -11.5q12 -14 12 -30t-12 -28l-43 -45q-8 -8 -27 -8q-22 0 -30 8q-13 12 -12.5 32zM251 1322.5q1 16.5 13 27.5q11 9 27.5 10 t25.5 -8l43 -39q13 -14 13.5 -32.5t-13.5 -31.5h2q-8 -8 -30 -8q-23 0 -29 8l-41 47v-2q-12 12 -11 28.5z" />
<glyph unicode="&#xdc;" horiz-adv-x="630" d="M-14 1128q0 17 12 28t29 11h92q15 0 28 -12.5t13 -30.5q0 -13 -25 -28l-24 -13v-886q0 -60 44.5 -103t104.5 -43t104 43t44 103l2 882q-9 5 -19 13q-31 22 -31 41q11 34 43 34h91q19 0 31.5 -14t9.5 -33q-3 -14 -23 -22h4l-8 -6q-2 -2 -8 -2l-2 -3l-11 -6v-884 q0 -95 -66 -161.5t-161 -66.5t-161 66.5t-66 161.5v884q-4 -4 -17 9q-12 7 -21 18.5t-9 19.5zM170 1321q0 18 10 29.5t27 11.5q19 0 31 -12t12 -29t-12 -28t-31 -11q-17 0 -27 11t-10 28zM270 1321q0 17 12 29t27 12q18 0 29.5 -11.5t11.5 -29.5q0 -17 -11 -28t-30 -11 q-16 0 -27.5 11t-11.5 28z" />
<glyph unicode="&#xdd;" horiz-adv-x="524" d="M-23 1141q-3 9 11 17.5t35 8.5h90q17 0 29.5 -10t15.5 -24q3 -10 -1 -21t-12 -14h2l-6 -4l-16 -15l82 -336l29 113q40 151 53 223q-2 2 -6 6.5t-6.5 7t-4.5 3.5l-4 2h2q-24 12 -10 37l-2 -2q6 34 43 34h92q17 0 31.5 -8.5t11.5 -17.5q-17 -34 -43 -49q-20 -12 -20 -15 l-125 -514v-506l16 -8q13 -9 27 -37q0 -15 -10.5 -29t-26.5 -14h-92q-17 0 -29 12t-12 29q0 11 3 17.5t5.5 8t11.5 5.5q2 0 6 4q4 2 9 6t7.5 5.5t2.5 0.5v506q-15 66 -58.5 243t-64.5 271q-13 9 -23 15h3q-29 14 -46 49zM149 1278.5q-3 21.5 7 34.5l45 39h-2q12 12 30.5 12 t30.5 -12q12 -14 12 -30t-12 -28l-45 -45q-8 -8 -31 -8h-7h-6.5t-5.5 -0.5t-1 -1.5q-12 18 -15 39.5z" />
<glyph unicode="&#xde;" horiz-adv-x="579" d="M-14 12q13 26 30 37l17 8v301q-2 8 -2 37v367q0 29 2 37v280q-2 -2 -7 1t-8 7l-6 5h2q-28 20 -28 34q0 18 11.5 29.5t29.5 11.5h92q19 0 30 -12t11 -31q0 -11 -31 -32l-14 -11h2q-6 -3 -6 -2v-139q58 49 147 49q95 0 161 -66t66 -161v-367q0 -95 -66 -161t-161 -66 q-86 0 -147 49v-160q12 -6 22 -12q4 -4 6 -4q1 0 4 -1.5t3.5 -2t3 -2t3.5 -2.5l2.5 -2.5t2 -3.5t1 -4.5t1 -5.5t0.5 -7q0 -18 -11.5 -29.5t-29.5 -11.5h-92q-16 0 -28.5 14t-12.5 29zM111 369q14 -52 55 -87.5t92 -35.5q61 0 104.5 43.5t43.5 105.5v367q0 62 -43.5 105.5 t-104.5 43.5q-53 0 -94 -35.5t-53 -89.5v-417z" />
<glyph unicode="&#xdf;" horiz-adv-x="579" d="M-10 16q6 16 16 23h-2l8 6q2 2 8 2l7 4l6 2v887q6 88 73.5 149t155.5 58q89 -3 149.5 -64.5t63.5 -148.5q3 -54 -23 -105.5t-69 -87.5q42 -32 68 -80.5t26 -101.5v-364q0 -83 -57.5 -147.5t-138.5 -76.5q-16 2 -32 14.5t-16 26.5q0 35 33 39q57 4 95 46t38 98v364 q0 57 -38.5 99t-94.5 47h-12q-16 0 -26.5 9.5t-10.5 26.5q0 18 11 29.5t26 11.5h12q57 5 95.5 48.5t35.5 103.5q-1 56 -39.5 94t-93.5 41q-62 3 -107.5 -39.5t-45.5 -103.5v-873q10 -6 24 -12q23 -14 23 -29q0 -19 -10.5 -31t-28.5 -12h-92q-19 0 -30 14t-7 33z" />
<glyph unicode="&#xe0;" horiz-adv-x="579" d="M-12 20q0 5 2 9v448q0 93 64 158t159 65q74 0 141 -51v101q0 60 -42.5 102.5t-102.5 42.5q-59 0 -101 -42.5t-42 -102.5q0 -16 -13 -26.5t-28 -10.5q-37 0 -37 37q0 95 63.5 159t157.5 64q93 0 158 -64t65 -159v-687q0 -3 14 -6q31 -23 31 -34q0 -18 -11.5 -30.5 t-25.5 -12.5h-92q-19 0 -31 14t-8 31v-2q0 10 17 24h-2l10 8l20 8v87q-56 -80 -142 -125t-187 -45q-37 0 -37 40zM68 59q123 13 204.5 106.5t81.5 219.5v119q-12 50 -52 84.5t-89 34.5q-60 0 -102.5 -43t-42.5 -103v-418zM169.5 1119q-1.5 18 10.5 30q14 13 32.5 12 t27.5 -14v2l43 -41q12 -12 12 -30.5t-12 -30.5q-12 -9 -31 -9q-16 0 -27 11v-2l-43 45h4q-15 9 -16.5 27z" />
<glyph unicode="&#xe1;" horiz-adv-x="579" d="M-12 20q0 5 2 9v448q0 93 64 158t159 65q74 0 141 -51v101q0 60 -42.5 102.5t-102.5 42.5q-59 0 -101 -42.5t-42 -102.5q0 -16 -13 -26.5t-28 -10.5q-37 0 -37 37q0 95 63.5 159t157.5 64q93 0 158 -64t65 -159v-687q0 -3 14 -6q31 -23 31 -34q0 -18 -11.5 -30.5 t-25.5 -12.5h-92q-19 0 -31 14t-8 31v-2q0 10 17 24h-2l10 8l20 8v87q-56 -80 -142 -125t-187 -45q-37 0 -37 40zM68 59q123 13 204.5 106.5t81.5 219.5v119q-12 50 -52 84.5t-89 34.5q-60 0 -102.5 -43t-42.5 -103v-418zM168 1077.5q0 18.5 12 30.5l45 41v-2q9 12 27.5 13 t30.5 -11q11 -12 10 -30t-12 -27h2l-43 -45v2q-7 -11 -29 -11q-19 0 -31 9q-12 12 -12 30.5z" />
<glyph unicode="&#xe2;" horiz-adv-x="579" d="M-12 20q0 5 2 9v448q0 93 64 158t159 65q74 0 141 -51v101q0 60 -42.5 102.5t-102.5 42.5q-59 0 -101 -42.5t-42 -102.5q0 -16 -13 -26.5t-28 -10.5q-37 0 -37 37q0 95 63.5 159t157.5 64q93 0 158 -64t65 -159v-687q0 -3 14 -6q31 -23 31 -34q0 -18 -11.5 -30.5 t-25.5 -12.5h-92q-19 0 -31 14t-8 31v-2q0 10 17 24h-2l10 8l20 8v87q-56 -80 -142 -125t-187 -45q-37 0 -37 40zM68 59q123 13 204.5 106.5t81.5 219.5v119q-12 50 -52 84.5t-89 34.5q-60 0 -102.5 -43t-42.5 -103v-418zM119 1077.5q0 18.5 12 30.5l43 39q11 9 27 13.5 t22 -1.5q11 -16 14 -38t-4 -29l-45 -45q-12 -9 -30 -9q-15 0 -27 9q-12 12 -12 30.5zM229 1123.5q2 20.5 13 35.5q8 7 22.5 3.5t28.5 -15.5l39 -41v2q12 -12 12 -30.5t-12 -30.5q-12 -9 -27 -9q-19 0 -31 9l-38 47q-9 9 -7 29.5z" />
<glyph unicode="&#xe3;" horiz-adv-x="579" d="M-12 20q0 5 2 9v448q0 93 64 158t159 65q74 0 141 -51v101q0 60 -42.5 102.5t-102.5 42.5q-59 0 -101 -42.5t-42 -102.5q0 -16 -13 -26.5t-28 -10.5q-37 0 -37 37q0 95 63.5 159t157.5 64q93 0 158 -64t65 -159v-687q0 -3 14 -6q31 -23 31 -34q0 -18 -11.5 -30.5 t-25.5 -12.5h-92q-19 0 -31 14t-8 31v-2q0 10 17 24h-2l10 8l20 8v87q-56 -80 -142 -125t-187 -45q-37 0 -37 40zM68 59q123 13 204.5 106.5t81.5 219.5v119q-12 50 -52 84.5t-89 34.5q-60 0 -102.5 -43t-42.5 -103v-418zM100 1077q0 26 17.5 43t42.5 17l129 2q6 20 33 20 q17 0 28.5 -12.5t11.5 -26.5q0 -26 -16.5 -43.5t-40.5 -17.5l-131 -2q-5 -19 -33 -19q-17 0 -29 11t-12 28z" />
<glyph unicode="&#xe4;" horiz-adv-x="579" d="M-12 20q0 5 2 9v448q0 93 64 158t159 65q74 0 141 -51v101q0 60 -42.5 102.5t-102.5 42.5q-59 0 -101 -42.5t-42 -102.5q0 -16 -13 -26.5t-28 -10.5q-37 0 -37 37q0 95 63.5 159t157.5 64q93 0 158 -64t65 -159v-687q0 -3 14 -6q31 -23 31 -34q0 -18 -11.5 -30.5 t-25.5 -12.5h-92q-19 0 -31 14t-8 31v-2q0 10 17 24h-2l10 8l20 8v87q-56 -80 -142 -125t-187 -45q-37 0 -37 40zM68 59q123 13 204.5 106.5t81.5 219.5v119q-12 50 -52 84.5t-89 34.5q-60 0 -102.5 -43t-42.5 -103v-418zM143 1118q0 18 10.5 29.5t28.5 11.5t29.5 -11.5 t11.5 -29.5t-11.5 -29.5t-29.5 -11.5t-28.5 11.5t-10.5 29.5zM240 1118q0 17 12 29t31 12q18 0 28.5 -11.5t10.5 -29.5t-10.5 -29.5t-28.5 -11.5q-19 0 -31 12t-12 29z" />
<glyph unicode="&#xe5;" horiz-adv-x="579" d="M-12 20q0 5 2 9v448q0 93 64 158t159 65q74 0 141 -51v101q0 60 -42.5 102.5t-102.5 42.5q-59 0 -101 -42.5t-42 -102.5q0 -16 -13 -26.5t-28 -10.5q-37 0 -37 37q0 95 63.5 159t157.5 64q93 0 158 -64t65 -159v-687q0 -3 14 -6q31 -23 31 -34q0 -18 -11.5 -30.5 t-25.5 -12.5h-92q-19 0 -31 14t-8 31v-2q0 10 17 24h-2l10 8l20 8v87q-56 -80 -142 -125t-187 -45q-37 0 -37 40zM68 59q123 13 204.5 106.5t81.5 219.5v119q-12 50 -52 84.5t-89 34.5q-60 0 -102.5 -43t-42.5 -103v-418zM160 1087q0 29 21 50.5t52 21.5q29 0 49.5 -21.5 t20.5 -50.5q0 -31 -20.5 -51t-49.5 -20q-31 0 -52 20t-21 51z" />
<glyph unicode="&#xe6;" horiz-adv-x="919" d="M-8 20q0 5 2 9v448q0 93 64 158t159 65q74 0 141 -51v101q0 60 -42.5 102.5t-102.5 42.5q-59 0 -101 -42.5t-42 -102.5q0 -16 -13 -26.5t-28 -10.5q-16 0 -26.5 10t-10.5 27q0 95 63.5 159t157.5 64q123 0 186 -101q37 46 89 73.5t110 27.5h168q22 0 33 -21q4 -4 4 -16 q0 -157 -106.5 -273t-260.5 -133v-327q0 -59 44 -102.5t104 -43.5q58 0 100.5 44.5t42.5 103.5v88q0 13 10.5 26.5t24.5 14.5q15 3 29 -10t14 -31v-90q0 -92 -65.5 -157.5t-159.5 -65.5q-75 0 -134.5 52t-80.5 126q-61 -77 -151 -127.5t-185 -50.5q-16 0 -26.5 11t-10.5 29z M41 50.5q3 6.5 10 6.5h10q11 0 11 -10v-8q0 -5 -5.5 -7.5t-11.5 1.5l-12 6q-5 5 -2 11.5zM72 59q122 19 204 112.5t82 219.5v113q-12 50 -52 84.5t-89 34.5q-60 0 -102.5 -43t-42.5 -103v-418zM436 606q114 12 193 93.5t94 195.5h-105q-76 -1 -127.5 -52t-54.5 -122v-115z " />
<glyph unicode="&#xe7;" horiz-adv-x="583" d="M-10 930q-4 18 7 30.5t30 12.5h231q95 0 159 -64t64 -159v-93q0 -13 -11.5 -24.5t-25.5 -11.5q-18 0 -29.5 11t-11.5 25v93q0 60 -42.5 102.5t-102.5 42.5h-147v-692q0 -59 42.5 -102.5t102.5 -43.5t102.5 43.5t42.5 102.5v90q0 19 11 30t30 11q14 0 25.5 -11.5 t11.5 -29.5v-90q0 -76 -54.5 -139.5t-129.5 -81.5v-15h8q34 0 59 -24.5t25 -59.5q0 -36 -25 -60t-59 -24h-49q-16 0 -26.5 10t-10.5 27q0 14 11.5 27.5t25.5 13.5h49q4 0 4 6q0 4 -4 4h-49q-15 0 -26 11.5t-11 29.5v52q-79 12 -131.5 75.5t-52.5 147.5v686q-13 4 -21 10 q-19 16 -22 31z" />
<glyph unicode="&#xe8;" horiz-adv-x="581" d="M-10 930q-2 17 9 30t28 13l63 -2l350 2q8 0 16.5 -4.5t10.5 -7.5v4q10 -10 10 -29q0 -156 -105.5 -272.5t-260.5 -133.5v-327q0 -59 42.5 -102.5t102.5 -43.5t102.5 43.5t42.5 102.5v90q0 19 11 30t30 11q14 0 25.5 -11.5t11.5 -29.5v-90q0 -93 -64 -158t-159 -65 q-92 0 -157.5 65.5t-65.5 157.5v686q-11 6 -23 12q-12 9 -20 29zM100 606l11 -10v10h-11zM111 606q112 13 191.5 94.5t94.5 194.5h-141q-24 0 -71 -1t-74 -1v-287zM171.5 1121.5q-0.5 17.5 10.5 27.5q14 13 32.5 12t27.5 -14v2l43 -41q12 -12 12 -30.5t-12 -30.5 q-12 -9 -31 -9q-17 0 -29 9l-41 47q-12 10 -12.5 27.5z" />
<glyph unicode="&#xe9;" horiz-adv-x="581" d="M-10 930q-2 17 9 30t28 13l63 -2l350 2q8 0 16.5 -4.5t10.5 -7.5v4q10 -10 10 -29q0 -156 -105.5 -272.5t-260.5 -133.5v-327q0 -59 42.5 -102.5t102.5 -43.5t102.5 43.5t42.5 102.5v90q0 19 11 30t30 11q14 0 25.5 -11.5t11.5 -29.5v-90q0 -93 -64 -158t-159 -65 q-92 0 -157.5 65.5t-65.5 157.5v686q-11 6 -23 12q-12 9 -20 29zM100 606l11 -10v10h-11zM111 606q112 13 191.5 94.5t94.5 194.5h-141q-24 0 -71 -1t-74 -1v-287zM170 1077.5q0 18.5 12 30.5l43 41q10 12 29 12t31 -12q11 -12 10 -30t-12 -27h2l-43 -45v2q-11 -11 -29 -11 q-19 0 -31 9q-12 12 -12 30.5z" />
<glyph unicode="&#xea;" horiz-adv-x="581" d="M-10 930q-2 17 9 30t28 13l63 -2l350 2q8 0 16.5 -4.5t10.5 -7.5v4q10 -10 10 -29q0 -156 -105.5 -272.5t-260.5 -133.5v-327q0 -59 42.5 -102.5t102.5 -43.5t102.5 43.5t42.5 102.5v90q0 19 11 30t30 11q14 0 25.5 -11.5t11.5 -29.5v-90q0 -93 -64 -158t-159 -65 q-92 0 -157.5 65.5t-65.5 157.5v686q-11 6 -23 12q-12 9 -20 29zM100 606l11 -10v10h-11zM111 606q112 13 191.5 94.5t94.5 194.5h-141q-24 0 -71 -1t-74 -1v-287zM121 1077.5q0 18.5 12 30.5l43 39q11 9 27 13.5t22 -1.5q12 -17 14 -38.5t-6 -28.5l-43 -45q-12 -9 -30 -9 q-15 0 -27 9q-12 12 -12 30.5zM231 1123.5q3 20.5 13 35.5q8 7 22.5 3.5t28.5 -15.5l39 -41v2q12 -12 12 -30.5t-12 -30.5q-12 -9 -27 -9q-19 0 -31 9l-40 47q-8 9 -5 29.5z" />
<glyph unicode="&#xeb;" horiz-adv-x="581" d="M-10 930q-2 17 9 30t28 13l63 -2l350 2q8 0 16.5 -4.5t10.5 -7.5v4q10 -10 10 -29q0 -156 -105.5 -272.5t-260.5 -133.5v-327q0 -59 42.5 -102.5t102.5 -43.5t102.5 43.5t42.5 102.5v90q0 19 11 30t30 11q14 0 25.5 -11.5t11.5 -29.5v-90q0 -93 -64 -158t-159 -65 q-92 0 -157.5 65.5t-65.5 157.5v686q-11 6 -23 12q-12 9 -20 29zM100 606l11 -10v10h-11zM111 606q112 13 191.5 94.5t94.5 194.5h-141q-24 0 -71 -1t-74 -1v-287zM145 1118q0 18 10.5 29.5t28.5 11.5t29.5 -11.5t11.5 -29.5t-11.5 -29.5t-29.5 -11.5t-28.5 11.5t-10.5 29.5 zM242 1118q0 17 12 29t31 12q18 0 28.5 -11.5t10.5 -29.5t-10.5 -29.5t-28.5 -11.5q-19 0 -31 12t-12 29z" />
<glyph unicode="&#xec;" horiz-adv-x="241" d="M-14 27q4 10 16 22h-2l8 6l21 8v826q-11 4 -19 8q-24 21 -24 39q0 37 37 37h63q9 0 14.5 -5.5t5.5 -13.5v-891q0 -2 15 -6q33 -21 33 -34q0 -19 -10.5 -31t-28.5 -12h-92q-19 0 -30 14t-7 33zM5.5 1121.5q-0.5 17.5 10.5 27.5q12 12 31 12t29 -12l37 -39 q11 -12 8.5 -34.5t-15.5 -39.5q1 1 -0.5 1.5t-5 0.5h-6h-6.5q-17 0 -29 9l-41 47q-12 10 -12.5 27.5z" />
<glyph unicode="&#xed;" horiz-adv-x="241" d="M-14 27q4 10 16 22h-2l8 6l21 8v826q-11 4 -19 8q-24 21 -24 39q0 37 37 37h63q9 0 14.5 -5.5t5.5 -13.5v-891q0 -2 15 -6q33 -21 33 -34q0 -19 -10.5 -31t-28.5 -12h-92q-19 0 -30 14t-7 33zM4 1077.5q0 18.5 12 30.5l43 41v-2q10 14 27.5 15.5t26.5 -9.5 q10 -15 11.5 -35t-7.5 -26h2l-43 -45q-9 -9 -29 -9q-19 0 -31 9q-12 12 -12 30.5z" />
<glyph unicode="&#xee;" horiz-adv-x="294" d="M-18 1077.5q0 18.5 12 30.5v-2l39 41q12 12 27.5 15.5t23.5 -3.5q12 -17 14 -38.5t-6 -28.5l-41 -45q-12 -9 -31 -9q-14 0 -26 9q-12 12 -12 30.5zM-14 27q4 10 16 22h-2l8 6l21 8v826q-11 4 -19 8q-24 21 -24 39q0 37 37 37h63q9 0 14.5 -5.5t5.5 -13.5v-891q0 -2 15 -6 q33 -21 33 -34q0 -19 -10.5 -31t-28.5 -12h-92q-19 0 -30 14t-7 33zM83 1119q-2 18 9 30q12 12 31.5 11.5t30.5 -11.5l41 -41q12 -12 12 -30.5t-12 -30.5q-12 -9 -31 -9q-15 0 -27 9l-43 45h4q-13 9 -15 27z" />
<glyph unicode="&#xef;" horiz-adv-x="251" d="M-16 1118q0 18 10.5 29.5t28.5 11.5q19 0 31 -12t12 -29t-12 -29t-31 -12q-18 0 -28.5 11.5t-10.5 29.5zM-14 27q4 10 16 22h-2l8 6l21 8v826q-11 4 -19 8q-24 21 -24 39q0 37 37 37h63q9 0 14.5 -5.5t5.5 -13.5v-891q0 -2 15 -6q33 -21 33 -34q0 -19 -10.5 -31 t-28.5 -12h-92q-19 0 -30 14t-7 33zM82 1118q0 18 11.5 29.5t29.5 11.5t28.5 -11.5t10.5 -29.5t-10.5 -29.5t-28.5 -11.5t-29.5 11.5t-11.5 29.5z" />
<glyph unicode="&#xf0;" d="M-14 201v276q0 90 62.5 155t152.5 68l-84 84l-54 -55q-25 -14 -38 -14q-18 0 -33 10q-8 9 -4 31t16 37l53 51l-53 51q-12 18 -15.5 38.5t5.5 31.5q12 11 30.5 11t30.5 -11l62 -64l61 64q12 10 29.5 9.5t28.5 -9.5h-3q12 -11 13.5 -29.5t-10.5 -30.5l-62 -61l182 -182 q46 -46 68 -123q8 -27 8 -62v-276q0 -91 -65.5 -156t-157.5 -65q-93 0 -158 65t-65 156zM66 201q0 -57 42.5 -100.5t100.5 -43.5q59 0 102 43t43 101v178q0 1 -1 3t-1 3v92q0 11 -4 39q-16 44 -54.5 75.5t-84.5 31.5q-59 0 -101 -43t-42 -103v-276z" />
<glyph unicode="&#xf1;" horiz-adv-x="628" d="M-10 25q0 5 1 8.5t2.5 5t5 4t5.5 4.5l8 8l21 8v826q-11 4 -19 8q-24 24 -24 39q0 16 11.5 26.5t25.5 10.5h65q6 0 12.5 -6t6.5 -13v-32q60 51 143 51q95 0 160 -64t65 -159v-687q7 -4 15 -6l4 -2l14 -14q8 -4 10 -8q4 -21 -8 -37t-31 -16h-88q-17 0 -29 12t-12 31 q0 3 1.5 6.5t6 7.5t7 6t9.5 7t9 7l12 6v687q0 60 -42.5 102.5t-102.5 42.5q-49 0 -89 -33.5t-52 -81.5q0 -8 -2 -10v-707q0 -3 14 -6q35 -22 35 -34q0 -19 -11 -31t-30 -12h-92q-14 0 -26 15t-11 30zM125 1077q0 26 17.5 43t41.5 17l129 2q9 20 35 20q13 0 27 -13.5 t14 -25.5q0 -26 -18 -43.5t-43 -17.5l-131 -2q-11 -19 -31 -19q-17 0 -29 11t-12 28z" />
<glyph unicode="&#xf2;" d="M-14 201v549q0 95 64.5 159t158.5 64q93 0 158 -64t65 -159v-549q0 -92 -65.5 -158t-157.5 -66q-93 0 -158 65.5t-65 158.5zM66 201q0 -59 42.5 -101.5t100.5 -42.5q60 0 102.5 42.5t42.5 101.5v549q0 60 -42.5 102.5t-102.5 42.5q-59 0 -101 -42.5t-42 -102.5v-549z M147.5 1121.5q-0.5 17.5 10.5 27.5q12 12 29.5 11t31.5 -13l39 -41v2q12 -12 12 -30.5t-12 -30.5q-12 -9 -31 -9q-14 0 -26 9l-41 47q-12 10 -12.5 27.5z" />
<glyph unicode="&#xf3;" d="M-14 201v549q0 95 64.5 159t158.5 64q93 0 158 -64t65 -159v-549q0 -92 -65.5 -158t-157.5 -66q-93 0 -158 65.5t-65 158.5zM66 201q0 -59 42.5 -101.5t100.5 -42.5q60 0 102.5 42.5t42.5 101.5v549q0 60 -42.5 102.5t-102.5 42.5q-59 0 -101 -42.5t-42 -102.5v-549z M148 1077.5q0 18.5 10 30.5l43 41q12 12 27.5 12t29.5 -12q11 -13 10.5 -29t-10.5 -26l-39 -47q-12 -9 -31 -9q-18 0 -30 9q-10 12 -10 30.5z" />
<glyph unicode="&#xf4;" d="M-14 201v549q0 95 64.5 159t158.5 64q93 0 158 -64t65 -159v-549q0 -92 -65.5 -158t-157.5 -66q-93 0 -158 65.5t-65 158.5zM66 201q0 -59 42.5 -101.5t100.5 -42.5q60 0 102.5 42.5t42.5 101.5v549q0 60 -42.5 102.5t-102.5 42.5q-59 0 -101 -42.5t-42 -102.5v-549z M94 1077.5q0 18.5 12 30.5l41 41q12 12 31 12t31 -12q10 -12 9.5 -30t-11.5 -27h2l-45 -45q-12 -9 -27 -9q-19 0 -31 9q-12 12 -12 30.5zM200.5 1121.5q-0.5 17.5 10.5 27.5v-2q9 12 27 13t30 -11l35 -39q10 -12 9 -34.5t-13 -39.5q0 2 -16 2q-21 0 -33 9l-37 47 q-12 10 -12.5 27.5z" />
<glyph unicode="&#xf5;" d="M-14 201v549q0 95 64.5 159t158.5 64q93 0 158 -64t65 -159v-549q0 -92 -65.5 -158t-157.5 -66q-93 0 -158 65.5t-65 158.5zM66 201q0 -59 42.5 -101.5t100.5 -42.5q60 0 102.5 42.5t42.5 101.5v549q0 60 -42.5 102.5t-102.5 42.5q-59 0 -101 -42.5t-42 -102.5v-549z M76 1077q0 26 18 43t45 17l127 2q9 20 33 20q13 0 27 -13.5t14 -25.5q0 -26 -17.5 -43.5t-41.5 -17.5l-129 -2q-8 -19 -35 -19q-17 0 -29 11t-12 28z" />
<glyph unicode="&#xf6;" d="M-14 201v549q0 95 64.5 159t158.5 64q93 0 158 -64t65 -159v-549q0 -92 -65.5 -158t-157.5 -66q-93 0 -158 65.5t-65 158.5zM66 201q0 -59 42.5 -101.5t100.5 -42.5q60 0 102.5 42.5t42.5 101.5v549q0 60 -42.5 102.5t-102.5 42.5q-59 0 -101 -42.5t-42 -102.5v-549z M119 1118q0 17 12 29t27 12q19 0 31 -12t12 -29t-12 -29t-31 -12q-15 0 -27 12t-12 29zM217 1118q0 18 11.5 29.5t29.5 11.5t29.5 -11.5t11.5 -29.5t-11.5 -29.5t-29.5 -11.5t-29.5 11.5t-11.5 29.5z" />
<glyph unicode="&#xf8;" d="M-14 201v549q0 95 64.5 159t158.5 64q80 0 137 -45q1 1 4 10q10 18 26 28.5t30 4.5q14 -5 20 -21t2 -35l-27 -61q31 -57 31 -104v-549q0 -92 -65.5 -158t-157.5 -66q-74 0 -139 46l-2 -3q-18 -40 -58 -40q-32 11 -20 59l20 57q-24 41 -24 105zM47 182l19 43v-24 q0 -13 2 -21zM66 225l247 625q-42 45 -104 45q-59 0 -101 -42.5t-42 -102.5v-525zM102 102q42 -45 107 -45q60 0 102.5 42.5t42.5 101.5v526zM352 774l21 -2l-19 -45v23q0 16 -2 24z" />
<glyph unicode="&#xf9;" horiz-adv-x="628" d="M-10 930q-4 18 8.5 30.5t28.5 12.5h92q19 0 30 -11t11 -28q0 -8 -9.5 -19t-19.5 -16q-20 -16 -20 -12v-684q0 -59 42.5 -102.5t102.5 -43.5q49 0 90 36t53 87v703l-18 16h2q-10 5 -19.5 16t-9.5 19q0 17 12 28t29 11h88q20 0 32.5 -12.5t8.5 -30.5q-3 -15 -26 -31 l-19 -10v-826q7 -4 15 -8h-2q32 -18 32 -37q0 -16 -13 -27t-28 -11h-63q-21 0 -21 20v31q-61 -51 -143 -51q-92 0 -157.5 65.5t-65.5 157.5v686q-13 4 -19 10q-18 12 -24 31zM196.5 1121.5q-0.5 17.5 10.5 27.5q12 12 28 12t29 -12l43 -41q11 -12 11 -30.5t-11 -30.5 q-12 -9 -31 -9q-18 0 -30 9l-37 47q-12 10 -12.5 27.5z" />
<glyph unicode="&#xfa;" horiz-adv-x="628" d="M-10 930q-4 18 8.5 30.5t28.5 12.5h92q19 0 30 -11t11 -28q0 -8 -9.5 -19t-19.5 -16q-20 -16 -20 -12v-684q0 -59 42.5 -102.5t102.5 -43.5q49 0 90 36t53 87v703l-18 16h2q-10 5 -19.5 16t-9.5 19q0 17 12 28t29 11h88q20 0 32.5 -12.5t8.5 -30.5q-3 -15 -26 -31 l-19 -10v-826q7 -4 15 -8h-2q32 -18 32 -37q0 -16 -13 -27t-28 -11h-63q-21 0 -21 20v31q-61 -51 -143 -51q-92 0 -157.5 65.5t-65.5 157.5v686q-13 4 -19 10q-18 12 -24 31zM195 1077.5q0 18.5 12 30.5v-2l39 41q12 12 30.5 13t30.5 -11q10 -13 9 -30t-11 -27h2l-43 -45 q-12 -9 -26 -9q-19 0 -31 9q-12 12 -12 30.5z" />
<glyph unicode="&#xfb;" horiz-adv-x="628" d="M-10 930q-4 18 8.5 30.5t28.5 12.5h92q19 0 30 -11t11 -28q0 -8 -9.5 -19t-19.5 -16q-20 -16 -20 -12v-684q0 -59 42.5 -102.5t102.5 -43.5q49 0 90 36t53 87v703l-18 16h2q-10 5 -19.5 16t-9.5 19q0 17 12 28t29 11h88q20 0 32.5 -12.5t8.5 -30.5q-3 -15 -26 -31 l-19 -10v-826q7 -4 15 -8h-2q32 -18 32 -37q0 -16 -13 -27t-28 -11h-63q-21 0 -21 20v31q-61 -51 -143 -51q-92 0 -157.5 65.5t-65.5 157.5v686q-13 4 -19 10q-18 12 -24 31zM151.5 1080q0.5 18 10.5 30l35 39q12 12 30 11t27 -13v2q11 -13 10.5 -29t-10.5 -26l-39 -47 q-12 -9 -33 -9q-20 0 -22 9q-9 15 -8.5 33zM246.5 1119q-1.5 18 9.5 30q12 12 30.5 12t30.5 -12l41 -41q12 -12 12 -30.5t-12 -30.5q-12 -9 -30 -9q-15 0 -27 9l-43 45h4q-14 9 -15.5 27z" />
<glyph unicode="&#xfc;" horiz-adv-x="628" d="M-10 930q-4 18 8.5 30.5t28.5 12.5h92q19 0 30 -11t11 -28q0 -8 -9.5 -19t-19.5 -16q-20 -16 -20 -12v-684q0 -59 42.5 -102.5t102.5 -43.5q49 0 90 36t53 87v703l-18 16h2q-10 5 -19.5 16t-9.5 19q0 17 12 28t29 11h88q20 0 32.5 -12.5t8.5 -30.5q-3 -15 -26 -31 l-19 -10v-826q7 -4 15 -8h-2q32 -18 32 -37q0 -16 -13 -27t-28 -11h-63q-21 0 -21 20v31q-61 -51 -143 -51q-92 0 -157.5 65.5t-65.5 157.5v686q-13 4 -19 10q-18 12 -24 31zM164 1118q0 17 12 29t31 12q18 0 29.5 -11.5t11.5 -29.5t-11.5 -29.5t-29.5 -11.5q-19 0 -31 12 t-12 29zM264 1118q0 17 12 29t31 12q15 0 27 -12t12 -29t-12 -29t-27 -12q-19 0 -31 12t-12 29z" />
<glyph unicode="&#xfd;" horiz-adv-x="628" d="M-10 930q-4 18 8.5 30.5t28.5 12.5h92q19 0 30 -11t11 -28q0 -8 -9.5 -19t-19.5 -16q-20 -16 -20 -12v-228q0 -60 42.5 -102.5t102.5 -42.5q52 0 93 33.5t50 83.5v12v240l-18 16h2q-10 5 -19.5 16t-9.5 19q0 17 12 28t29 11h88q20 0 32.5 -12.5t8.5 -30.5q-3 -15 -26 -31 l-19 -10v-686q0 -93 -65 -158t-160 -65q-92 0 -157.5 65.5t-65.5 157.5v90q0 18 11.5 29.5t29.5 11.5q17 0 27 -11t10 -30v-90q0 -59 42.5 -102.5t102.5 -43.5t102.5 43.5t42.5 102.5v284q-54 -51 -143 -51q-92 0 -157.5 65.5t-65.5 157.5v230q-13 4 -19 10q-18 12 -24 31z M195 1077.5q0 18.5 12 30.5v-2l39 41q12 12 30.5 13t30.5 -11q10 -13 9 -30t-11 -27h2l-43 -45q-12 -9 -26 -9q-19 0 -31 9q-12 12 -12 30.5z" />
<glyph unicode="&#xfe;" horiz-adv-x="579" d="M-10 12q13 26 26 35q17 9 17 6v836q-3 -3 -13 4l-6 4h2q-26 22 -26 41q0 15 10 25t27 10h92q18 0 28.5 -10.5t10.5 -28.5q0 -13 -23 -31q-24 -12 -24 -14v-148q67 54 143 54q94 0 158.5 -65.5t64.5 -158.5v-194q0 -93 -64 -158t-159 -65q-76 0 -143 51v-152q6 -2 10 -4 l2 -2q6 0 8 -2q6 -6 8 -6q6 -2 8.5 -3t5.5 -4t4 -8.5t1 -13.5q0 -18 -10.5 -29.5t-28.5 -11.5h-92q-16 0 -26.5 14t-10.5 29zM111 360q6 -55 46.5 -92t96.5 -37q60 0 102.5 43t42.5 103v194q0 59 -42.5 101.5t-102.5 42.5q-55 0 -96 -37.5t-47 -93.5v-224z" />
<glyph unicode="&#xff;" horiz-adv-x="628" d="M-10 930q-4 18 8.5 30.5t28.5 12.5h92q19 0 30 -11t11 -28q0 -8 -9.5 -19t-19.5 -16q-20 -16 -20 -12v-228q0 -60 42.5 -102.5t102.5 -42.5q52 0 93 33.5t50 83.5v12v240l-18 16h2q-10 5 -19.5 16t-9.5 19q0 17 12 28t29 11h88q20 0 32.5 -12.5t8.5 -30.5q-3 -15 -26 -31 l-19 -10v-686q0 -93 -65 -158t-160 -65q-92 0 -157.5 65.5t-65.5 157.5v90q0 18 11.5 29.5t29.5 11.5q17 0 27 -11t10 -30v-90q0 -59 42.5 -102.5t102.5 -43.5t102.5 43.5t42.5 102.5v284q-54 -51 -143 -51q-92 0 -157.5 65.5t-65.5 157.5v230q-13 4 -19 10q-18 12 -24 31z M164 1118q0 17 12 29t31 12q18 0 29.5 -11.5t11.5 -29.5t-11.5 -29.5t-29.5 -11.5q-19 0 -31 12t-12 29zM264 1118q0 17 12 29t31 12q15 0 27 -12t12 -29t-12 -29t-27 -12q-19 0 -31 12t-12 29z" />
<glyph unicode="&#x152;" horiz-adv-x="745" d="M-14 197v743q0 95 66.5 161t160.5 66h391q18 0 29.5 -13t11.5 -28q0 -39 -41 -39h-321l-11 -6v-10q157 -19 266 -137t109 -275q0 -16 -13 -26t-28 -10q-41 0 -41 36q0 132 -83.5 226t-209.5 106v-934q0 -2 2 -3q3 -1 7 -3h323q18 0 29.5 -13t11.5 -28q0 -19 -11 -30 t-30 -11h-391q-94 0 -160.5 66.5t-66.5 161.5zM66 197q0 -58 35.5 -100t91.5 -46v1036q-56 -6 -91.5 -47.5t-35.5 -99.5v-743z" />
<glyph unicode="&#x153;" horiz-adv-x="919" d="M-8 201v549q0 95 63.5 159t157.5 64q139 0 193 -105q36 48 90 76.5t116 28.5h154q22 0 33 -21q4 -4 4 -16q0 -155 -106.5 -270t-260.5 -134v-335q3 -58 45 -99t103 -41q58 0 100.5 44.5t42.5 103.5v88q0 13 10.5 26.5t24.5 14.5q15 3 29 -10t14 -31v-90 q0 -92 -65.5 -157.5t-159.5 -65.5q-50 0 -99.5 28t-83.5 70q-31 -43 -81 -72t-103 -29q-93 0 -157 65.5t-64 158.5zM70 201q0 -59 42.5 -101.5t100.5 -42.5t100.5 41.5t44.5 98.5v553q0 60 -42.5 102.5t-102.5 42.5q-59 0 -101 -42.5t-42 -102.5v-549zM436 606 q114 12 193 93.5t94 195.5h-105q-72 -1 -124.5 -51t-57.5 -119v-119z" />
<glyph unicode="&#x178;" horiz-adv-x="524" d="M-23 1141q-3 9 11 17.5t35 8.5h90q17 0 29.5 -10t15.5 -24q3 -10 -1 -21t-12 -14h2l-6 -4l-16 -15l82 -336l29 113q40 151 53 223q-2 2 -6 6.5t-6.5 7t-4.5 3.5l-4 2h2q-24 12 -10 37l-2 -2q6 34 43 34h92q17 0 31.5 -8.5t11.5 -17.5q-17 -34 -43 -49q-20 -12 -20 -15 l-125 -514v-506l16 -8q13 -9 27 -37q0 -15 -10.5 -29t-26.5 -14h-92q-17 0 -29 12t-12 29q0 11 3 17.5t5.5 8t11.5 5.5q2 0 6 4q4 2 9 6t7.5 5.5t2.5 0.5v506q-15 66 -58.5 243t-64.5 271q-13 9 -23 15h3q-29 14 -46 49zM117 1321q0 18 11.5 29.5t29.5 11.5q15 0 27 -12 t12 -29t-11.5 -28t-27.5 -11q-19 0 -30 11t-11 28zM217 1321q0 17 12 29t31 12q13 0 25 -12.5t12 -28.5t-12 -27.5t-25 -11.5q-19 0 -31 11t-12 28z" />
<glyph unicode="&#x2dc;" horiz-adv-x="1705" d="M76 1282q0 26 18 41.5t45 15.5l131 2q6 21 33 21q15 0 28 -11.5t13 -27.5q0 -25 -18.5 -43t-44.5 -18h-127q-9 -21 -37 -21q-18 0 -29.5 11.5t-11.5 29.5z" />
<glyph unicode="&#x2000;" horiz-adv-x="683" />
<glyph unicode="&#x2001;" horiz-adv-x="1367" />
<glyph unicode="&#x2002;" horiz-adv-x="683" />
<glyph unicode="&#x2003;" horiz-adv-x="1367" />
<glyph unicode="&#x2004;" horiz-adv-x="455" />
<glyph unicode="&#x2005;" horiz-adv-x="341" />
<glyph unicode="&#x2006;" horiz-adv-x="227" />
<glyph unicode="&#x2007;" horiz-adv-x="227" />
<glyph unicode="&#x2008;" horiz-adv-x="170" />
<glyph unicode="&#x2009;" horiz-adv-x="273" />
<glyph unicode="&#x200a;" horiz-adv-x="75" />
<glyph unicode="&#x2010;" d="M-16 485q0 39 41 39h370q41 0 41 -39q0 -18 -11.5 -29.5t-29.5 -11.5h-370q-18 0 -29.5 11.5t-11.5 29.5z" />
<glyph unicode="&#x2011;" d="M-16 485q0 39 41 39h370q41 0 41 -39q0 -18 -11.5 -29.5t-29.5 -11.5h-370q-18 0 -29.5 11.5t-11.5 29.5z" />
<glyph unicode="&#x2012;" d="M-16 485q0 39 41 39h370q41 0 41 -39q0 -18 -11.5 -29.5t-29.5 -11.5h-370q-18 0 -29.5 11.5t-11.5 29.5z" />
<glyph unicode="&#x2013;" horiz-adv-x="1102" d="M-16 485q0 39 93 39h838q93 0 93 -39q0 -18 -26 -29.5t-67 -11.5h-838q-41 0 -67 11.5t-26 29.5z" />
<glyph unicode="&#x2014;" horiz-adv-x="2126" d="M-16 485q0 39 186 39h1676q186 0 186 -39q0 -18 -52 -29.5t-134 -11.5h-1676q-82 0 -134 11.5t-52 29.5z" />
<glyph unicode="&#x202f;" horiz-adv-x="273" />
<glyph unicode="&#x205f;" horiz-adv-x="341" />
<glyph unicode="&#x20ac;" horiz-adv-x="624" d="M-16 465q0 19 11 30t30 11h49v125h-49q-19 0 -30 11t-11 28q0 19 11 30t30 11h49v137q0 95 67 161t160 66q94 0 161.5 -66t67.5 -161q0 -18 -11.5 -29.5t-29.5 -11.5q-17 0 -28.5 12t-11.5 29q0 60 -43.5 102.5t-104.5 42.5q-60 0 -102.5 -42.5t-42.5 -102.5v-137h213 q19 0 30 -11t11 -30q0 -17 -11 -28t-30 -11h-213v-125h213q19 0 30 -11t11 -30q0 -18 -11.5 -29.5t-29.5 -11.5h-213v-135q0 -60 42.5 -103t102.5 -43q61 0 104.5 43t43.5 103q0 17 11.5 28t28.5 11q19 0 30 -11t11 -28q0 -93 -68 -160.5t-161 -67.5q-92 0 -159.5 68 t-67.5 160v135h-49q-18 0 -29.5 11.5t-11.5 29.5z" />
<glyph unicode="&#x25fc;" horiz-adv-x="972" d="M0 0v973h973v-973h-973z" />
</font>
</defs>
</svg>
