<?xml version="1.0" standalone="no"?>
<!DOCTYPE svg PUBLIC "-//W3C//DTD SVG 1.1//EN" "http://www.w3.org/Graphics/SVG/1.1/DTD/svg11.dtd" >
<svg xmlns="http://www.w3.org/2000/svg" xmlns:xlink="http://www.w3.org/1999/xlink" version="1.1">
<metadata></metadata>
<defs>
<font id="valerylight" horiz-adv-x="530" >
<font-face units-per-em="2048" ascent="1536" descent="-512" />
<missing-glyph horiz-adv-x="409" />
<glyph horiz-adv-x="0" />
<glyph horiz-adv-x="682" />
<glyph horiz-adv-x="0" />
<glyph horiz-adv-x="0" />
<glyph unicode="&#xd;" horiz-adv-x="409" />
<glyph unicode=" "  horiz-adv-x="409" />
<glyph unicode="&#x09;" horiz-adv-x="409" />
<glyph unicode="&#xa0;" horiz-adv-x="409" />
<glyph unicode="!" horiz-adv-x="198" d="M0 16q0 21 13.5 35.5t33.5 14.5t34.5 -15t14.5 -35t-14.5 -33.5t-34.5 -13.5t-33.5 13.5t-13.5 33.5zM27 150v997q0 7 6.5 13.5t13.5 6.5q9 0 15 -6t6 -14v-997q0 -8 -6 -14.5t-15 -6.5q-7 0 -13.5 6.5t-6.5 14.5z" />
<glyph unicode="&#x22;" horiz-adv-x="301" d="M2 1147q0 9 6.5 14.5t14.5 5.5h67v-20v-47v-49q0 -21 -20 -21q-8 0 -14.5 6t-6.5 15v47q0 7 -12 17t-24 19t-11 13zM109 1147q3 20 22 20h68v-20v-47v-49q0 -9 -6 -15t-15 -6q-20 0 -20 21v47q0 9 -24.5 27t-24.5 22z" />
<glyph unicode="#" horiz-adv-x="532" d="M2 -8l59 362h-38q-9 0 -15 6.5t-6 14.5q0 20 21 20h47l57 344h-104q-9 0 -15 6.5t-6 14.5q0 20 21 20h110l62 369q3 18 22 18q9 -1 15 -8.5t4 -15.5l-62 -363h152l61 369q3 18 25 18q7 -1 12.5 -9t3.5 -15l-61 -363h41q20 0 20 -20q0 -8 -5.5 -14.5t-14.5 -6.5h-48 l-57 -344h105q20 0 20 -20q0 -8 -5.5 -14.5t-14.5 -6.5h-111l-61 -368q-3 -17 -21 -17h-4q-8 2 -12.5 9t-3.5 14l59 362h-150l-61 -368q-3 -17 -20 -17h-5q-8 2 -12.5 9t-3.5 14zM111 395h151l57 344h-151z" />
<glyph unicode="$" d="M0 279v96q0 8 5.5 14t14.5 6q8 0 14.5 -6.5t6.5 -13.5v-96q0 -66 43.5 -115.5t108.5 -57.5v558q-55 12 -99 36q-94 54 -94 156q0 86 55 146.5t138 66.5v78q0 7 6.5 13.5t13.5 6.5q9 0 14.5 -6t5.5 -14v-78q83 -7 139 -68.5t56 -144.5q0 -8 -5.5 -14t-14.5 -6 q-8 0 -14.5 6.5t-6.5 13.5q0 66 -44.5 115t-109.5 57v-332q71 -12 175 -12q8 0 14 -5.5t6 -14.5v-385q0 -83 -56 -144.5t-139 -68.5v-76q0 -21 -20 -21q-8 0 -14 6t-6 15v76q-82 8 -137.5 69t-55.5 144zM41 856q0 -14 1 -24t9 -30.5t22.5 -35.5t45.5 -32t74 -27v321 q-66 -6 -109 -54t-43 -118zM233 106q65 8 109.5 57.5t44.5 115.5v364q-108 4 -154 12v-549z" />
<glyph unicode="%" d="M2 -4l387 1157q1 7 9 11t16 1q19 -7 12 -24l-385 -1157q-3 -15 -18 -15h-7q-9 3 -13 11t-1 16zM2 954v97q0 48 34 82t83 34q47 0 82 -34.5t35 -81.5v-97q0 -49 -34.5 -83.5t-82.5 -34.5q-49 0 -83 34t-34 84zM43 954q0 -32 22 -54.5t54 -22.5q31 0 53.5 22.5t22.5 54.5 v97q0 31 -22.5 53t-53.5 22q-32 0 -54 -22t-22 -53v-97zM195 86v96q0 48 33.5 82.5t82.5 34.5q47 0 82 -35t35 -82v-96q0 -49 -34.5 -83t-82.5 -34q-49 0 -82.5 33.5t-33.5 83.5zM236 86q0 -32 21.5 -54t53.5 -22q31 0 53.5 22t22.5 54v96q0 31 -22.5 53.5t-53.5 22.5 q-32 0 -53.5 -22.5t-21.5 -53.5v-96z" />
<glyph unicode="&#x26;" horiz-adv-x="813" d="M6 190v385q0 129 125 193q-55 35 -90 87.5t-35 107.5q0 89 63 152t152 63q88 0 151.5 -63t63.5 -152q0 -21 -18 -21q-9 0 -15 6.5t-6 14.5q0 70 -53 121t-123 51q-69 0 -119.5 -51t-50.5 -121q0 -68 44.5 -118t113.5 -57h12q23 0 23 -20q0 -7 -7.5 -13.5t-15.5 -6.5h-10 q-69 -1 -114.5 -52t-45.5 -121v-385q0 -73 50.5 -124.5t119.5 -51.5q70 0 123 52t53 124v367h-121q-32 0 -53.5 -23t-21.5 -51q0 -32 20.5 -52.5t54.5 -20.5q17 0 17 -19q0 -22 -17 -22q-47 0 -79.5 33.5t-32.5 80.5t32.5 80t79.5 33h293q53 0 91 37t38 92q0 54 -38 91.5 t-91 37.5q-57 0 -95 -37.5t-38 -91.5q0 -20 -18 -20q-21 0 -21 20q0 68 51.5 119t120.5 51q67 0 117.5 -51t50.5 -119q0 -70 -50 -119t-118 -49h-133v-367q0 -92 -63.5 -155.5t-151.5 -63.5q-90 0 -152.5 63.5t-62.5 155.5z" />
<glyph unicode="'" horiz-adv-x="192" d="M2 1147q0 9 6.5 14.5t14.5 5.5h67v-20v-47v-49q0 -21 -20 -21q-8 0 -14.5 6t-6.5 15v47q0 7 -12 17t-24 19t-11 13z" />
<glyph unicode="(" horiz-adv-x="335" d="M0 567q0 219 53 402q52 177 144 286q15 15 28 2q7 -4 7.5 -13t-5.5 -15q-86 -101 -136 -279.5t-50 -382.5t50 -382t136 -279q15 -15 -2 -29q-8 -4 -12 -4q-10 0 -16 6q-91 108 -144 289q-53 183 -53 399z" />
<glyph unicode=")" horiz-adv-x="337" d="M1.5 1244q0.5 9 6.5 13q6 6 15 5t14 -7q95 -113 143 -286q56 -183 56 -402q0 -216 -56 -399q-49 -178 -143 -289q-6 -6 -14 -6q-7 0 -15 4q-14 14 -2 29q88 101 138.5 279t50.5 382q0 205 -50.5 383t-138.5 279q-5 6 -4.5 15z" />
<glyph unicode="*" horiz-adv-x="307" d="M4 985q-10 17 6 29l56 37l-56 34q-16 12 -6 29q5 6 14 8t15 -2l49 -33v60q0 7 6 13.5t14 6.5q9 0 15 -6t6 -14v-60l49 33q17 10 29 -6q11 -19 -6 -29l-56 -34l56 -37q17 -10 6 -29q-8 -8 -17 -8q-8 0 -12 4l-49 31v-58q0 -20 -21 -20q-8 0 -14 5.5t-6 14.5v58l-49 -31 q-4 -4 -10 -4q-11 0 -19 8z" />
<glyph unicode="+" d="M0 481q0 21 20 21h173v174q0 8 6.5 14t13.5 6q9 0 14.5 -6t5.5 -14v-174h175q20 0 20 -21q0 -8 -5.5 -14t-14.5 -6h-175v-172q0 -21 -20 -21q-8 0 -14 6t-6 15v172h-173q-9 0 -14.5 6t-5.5 14z" />
<glyph unicode="," horiz-adv-x="192" d="M2 49q0 7 6.5 13t14.5 6h67v-21v-47v-49q0 -8 -5.5 -14.5t-14.5 -6.5q-8 0 -14.5 7t-6.5 14v49q0 8 -24 25.5t-23 23.5z" />
<glyph unicode="-" d="M0 481q0 21 20 21h388q20 0 20 -21q0 -8 -5.5 -14t-14.5 -6h-388q-9 0 -14.5 6t-5.5 14z" />
<glyph unicode="." horiz-adv-x="198" d="M0 16q0 21 13.5 35.5t33.5 14.5t34.5 -15t14.5 -35t-14.5 -33.5t-34.5 -13.5t-33.5 13.5t-13.5 33.5z" />
<glyph unicode="/" d="M2 -4l387 1157q1 7 9 11t16 1q19 -7 12 -24l-385 -1157q-3 -15 -18 -15h-7q-9 3 -13 11t-1 16z" />
<glyph unicode="0" d="M0 193v770q0 89 62.5 152t150.5 63q89 0 152 -63t63 -152v-770q0 -88 -63 -150.5t-152 -62.5q-88 0 -150.5 62.5t-62.5 150.5zM41 193q0 -71 51 -122t121 -51q71 0 122 49t52 119l-346 689v-684zM41 967l346 -688v684q0 72 -51 123t-123 51q-70 0 -120 -49.5t-52 -120.5z " />
<glyph unicode="1" horiz-adv-x="241" d="M2 -10q0 5 22.5 21t24.5 24v1048q-12 -6 -26 -6q-9 0 -15 6t-6 15q0 8 6 14t15 6q11 0 18.5 7.5t7.5 17.5v4q2 8 8 14t13 6h2q8 0 14 -6.5t6 -13.5q0 -4 -2 -8v-1102q0 -7 24 -24t25 -23q0 -8 -5.5 -14.5t-14.5 -6.5h-96q-9 0 -16 6.5t-5 14.5z" />
<glyph unicode="2" d="M0 856v96q0 89 62.5 152t150.5 63q87 0 154 -67q61 -64 61 -148q0 -63 -195 -526q-96 -224 -180 -416h353q9 0 14.5 -6t5.5 -14q0 -21 -20 -21h-386q-11 0 -16 8q-6 9 -2 21q1 1 28.5 62.5t74.5 170.5t90 211q192 451 192 510q0 65 -51 119.5t-123 54.5q-71 0 -121.5 -51 t-50.5 -123v-96q0 -7 -6.5 -13.5t-14.5 -6.5q-9 0 -14.5 6t-5.5 14z" />
<glyph unicode="3" horiz-adv-x="528" d="M0 -10q0 8 5.5 14t14.5 6q151 0 258 107t107 258q0 148 -101 253t-247 111h-17q-9 0 -14.5 6.5t-5.5 14.5v2q0 8 5.5 14t14.5 6q11 0 17 -2q140 8 240.5 107.5t107.5 238.5h-365q-20 0 -20 21q0 8 5.5 14t14.5 6h381h5q9 0 14.5 -6t5.5 -14q0 -133 -77 -239t-199 -148 q122 -40 199 -146t77 -239q0 -168 -119 -287t-287 -119q-20 0 -20 21z" />
<glyph unicode="4" d="M0 760v387q0 8 5.5 14t14.5 6q8 0 14.5 -6.5t6.5 -13.5v-367q145 8 245.5 114t100.5 253q0 7 6.5 13.5t14.5 6.5q9 0 14.5 -6t5.5 -14v-1157q0 -21 -20 -21q-8 0 -14.5 6t-6.5 15v979q-51 -103 -148.5 -166.5t-215.5 -63.5h-3q-9 0 -14.5 6.5t-5.5 14.5z" />
<glyph unicode="5" horiz-adv-x="528" d="M0 -10q0 8 5.5 14t14.5 6q151 0 258 107t107 258q0 152 -107 259t-258 107q-10 0 -14 7q-6 6 -6 14v385q0 8 5.5 14t14.5 6h386q9 0 14.5 -6t5.5 -14q0 -21 -20 -21h-365v-346q160 -8 272.5 -125t112.5 -278v-2q0 -167 -119.5 -286.5t-286.5 -119.5q-20 0 -20 21z" />
<glyph unicode="6" d="M0 184v774q0 86 61.5 147.5t147.5 61.5h4q89 0 152 -63t63 -152v-96q0 -8 -5.5 -14t-14.5 -6q-8 0 -14.5 6.5t-6.5 13.5v96q0 72 -51 123t-123 51h-4q-69 0 -118.5 -49.5t-49.5 -118.5v-774v-16q45 89 121 147q109 80 244 80h2q20 0 20 -20v-193q0 -88 -63 -151 q-64 -64 -152 -64q-62 1 -114.5 35t-78.5 88q-4 4 -4 10q-16 43 -16 84zM59 104q22 -42 63 -68.5t91 -27.5q72 0 123 51t51 123v172q-113 -6 -203 -74t-125 -176z" />
<glyph unicode="7" horiz-adv-x="528" d="M0 567q0 146 92 258t232 142l53 159h-357q-20 0 -20 21q0 8 5.5 14t14.5 6h386h2h2v-2h2h2h2v-2h2l2 -2l2 -2l2 -2v-2l2 -2v-2v-2v-2v-2v-2v-2l-55 -168q5 0 17 1t18 1q9 0 14.5 -6.5t5.5 -14.5q0 -20 -20 -20q-18 0 -50 -4l-315 -946q-6 -15 -21 -15h-6q-8 3 -11.5 11.5 t-0.5 15.5l307 924q-118 -33 -193 -130.5t-75 -222.5q0 -7 -6.5 -13.5t-14.5 -6.5q-9 0 -14.5 6t-5.5 14z" />
<glyph unicode="8" d="M0 182v385q0 62 33 114t88 79q-55 27 -88 78.5t-33 113.5v2q0 89 62.5 151t150.5 62q89 0 152 -62t63 -151v-2q0 -62 -34 -113.5t-89 -78.5q56 -26 89.5 -78.5t33.5 -114.5v-385q0 -88 -63 -150.5t-152 -62.5q-88 0 -150.5 62.5t-62.5 150.5zM41 182q0 -70 50.5 -121 t121.5 -51q72 0 123 50.5t51 121.5v385q0 69 -47 119t-115 53h-12h-10q-68 -3 -115 -53t-47 -119v-385zM41 954q0 -69 47 -119t115 -55h10h12q68 5 115 55t47 119q0 71 -51 121.5t-123 50.5q-71 0 -121.5 -51t-50.5 -121z" />
<glyph unicode="9" d="M0 182v97q0 20 20 20q8 0 14.5 -5.5t6.5 -14.5v-97q0 -72 50.5 -123t121.5 -51h6q69 0 118.5 50t49.5 120v772v17q-45 -88 -121 -146q-111 -82 -243 -82h-3q-9 0 -14.5 6.5t-5.5 14.5v192q0 91 63 154q64 61 152 61q62 0 113 -32.5t78 -87.5q1 -1 6 -11q16 -43 16 -86 v-772q0 -88 -61.5 -149.5t-147.5 -61.5h-6q-88 0 -150.5 63t-62.5 152zM41 780q112 6 201.5 74.5t126.5 175.5q-22 44 -63 70t-91 26h-2q-70 0 -121 -51t-51 -123v-172z" />
<glyph unicode=":" horiz-adv-x="198" d="M0 193q0 20 13.5 34.5t33.5 14.5t34.5 -14.5t14.5 -34.5t-14.5 -34t-34.5 -14t-33.5 14t-13.5 34zM0 772q0 20 13.5 33.5t33.5 13.5t34.5 -13.5t14.5 -33.5t-14.5 -34.5t-34.5 -14.5t-33.5 14.5t-13.5 34.5z" />
<glyph unicode=";" horiz-adv-x="200" d="M2 221q0 9 6.5 15t14.5 6h67v-21v-47v-49q0 -21 -20 -21q-8 0 -14.5 6t-6.5 15v47q0 8 -24 25.5t-23 23.5zM2 772q0 20 13.5 33.5t33.5 13.5t34.5 -13.5t14.5 -33.5t-14.5 -34.5t-34.5 -14.5t-33.5 14.5t-13.5 34.5z" />
<glyph unicode="&#x3c;" horiz-adv-x="528" d="M0 578.5q0 9.5 6 13.5l385 387q6 6 14.5 6t14.5 -6q14 -15 0 -29l-371 -372l371 -371q14 -15 0 -29q-6 -6 -14 -6q-9 0 -15 6l-385 385q-6 6 -6 15.5z" />
<glyph unicode="=" d="M0 383q0 20 20 20h388q20 0 20 -20q0 -21 -20 -21h-388q-20 0 -20 21zM0 578q0 20 20 20h388q20 0 20 -20q0 -8 -5.5 -14.5t-14.5 -6.5h-388q-9 0 -14.5 6.5t-5.5 14.5z" />
<glyph unicode="&#x3e;" horiz-adv-x="528" d="M6 178q-14 14 0 29l371 371l-371 372q-14 14 0 29q6 6 14.5 6t14.5 -6l385 -387q6 -4 6 -13.5t-6 -15.5l-385 -385q-6 -6 -15 -6q-8 0 -14 6z" />
<glyph unicode="?" d="M0 864v88q0 89 62.5 152t150.5 63q89 0 152 -63t63 -152v-471v-4q-3 -82 -59 -141.5t-136 -67.5v-75q0 -8 -5.5 -14.5t-14.5 -6.5q-7 0 -13.5 6.5t-6.5 14.5v96q0 7 6.5 13.5t13.5 6.5q72 0 123 51t51 123v4v465q0 72 -51 123t-123 51q-71 0 -121.5 -51t-50.5 -123v-88 q0 -9 -6.5 -14.5t-14.5 -5.5q-20 0 -20 20zM164 16q0 20 14.5 35t34.5 15t33.5 -14.5t13.5 -35.5q0 -20 -13.5 -33.5t-33.5 -13.5t-34.5 13.5t-14.5 33.5z" />
<glyph unicode="@" d="M0 186v764q0 90 62 153.5t151 63.5q88 0 152 -61q63 -63 63 -152v-542q0 -24 -16.5 -41t-40.5 -17q-23 0 -40.5 17.5t-17.5 40.5v49q-33 -49 -86 -78t-114 -29q-8 0 -14.5 6t-6.5 15v276q0 54 38.5 92.5t92.5 38.5q46 0 82.5 -28t46.5 -72q2 -2 2 -10v-72v-4v-12v-172 q0 -6 5.5 -11.5t11.5 -5.5q7 0 11.5 5.5t4.5 11.5v542q0 72 -51 123q-49 49 -123 49q-72 0 -122 -52t-50 -124v-764q0 -72 50 -124t122 -52q71 0 123 49q51 51 51 125q0 8 6.5 14.5t14.5 6.5q9 0 14.5 -6.5t5.5 -14.5q0 -90 -63 -153q-65 -62 -152 -62q-89 0 -151 63.5 t-62 153.5zM133 395q73 7 124 61.5t56 129.5v82q-6 32 -31.5 52.5t-58.5 20.5q-37 0 -63.5 -26.5t-26.5 -63.5v-256z" />
<glyph unicode="A" horiz-adv-x="638" d="M2 -10q2 6 29.5 23t29.5 24l177 1061q1 6 -6.5 14.5t-17.5 17.5t-13 13v2q-3 9 1 15.5t13 6.5h12h84h11q9 0 14 -6.5t2 -15.5l-2 -2q-2 -3 -19.5 -20t-15.5 -25l174 -1061q2 -7 30.5 -24t29.5 -23q3 -8 -1.5 -14.5t-13.5 -6.5h-96q-9 0 -17 6.5t-10 14.5q-1 6 19 23 t18 24l-90 555q-80 45 -133 113l-109 -668q-2 -7 18 -24t19 -23q-2 -8 -9.5 -14.5t-14.5 -6.5h-97q-9 0 -14 6.5t-2 14.5zM221 762q46 -74 115 -117l-68 416z" />
<glyph unicode="B" horiz-adv-x="579" d="M2 -8q0 5 23.5 21.5t23.5 23.5v721v2v2v2v336q0 7 -24 25t-23 24q0 7 6.5 12.5t14.5 5.5h67h363h4q8 0 14 -5.5t6 -14.5q0 -133 -77.5 -239t-200.5 -146q123 -42 200.5 -147.5t77.5 -237.5v-2q0 -163 -112.5 -280.5t-274.5 -125.5h-2h-18h-4h-43q-9 0 -15.5 7t-5.5 16z M90 10q145 8 245.5 113.5t100.5 251.5t-100.5 251.5t-245.5 114.5v-704v-27zM90 782q139 7 238 105.5t108 238.5h-346v-26v-318z" />
<glyph unicode="C" horiz-adv-x="583" d="M2 1145q-1 9 5.5 15.5t15.5 6.5h45h2h196q89 0 152 -63t63 -152v-96q0 -8 -6.5 -14t-13.5 -6q-9 0 -15 6t-6 14v96q0 72 -51 123t-123 51h-176v-213v-254v-475q0 -72 51 -123t123 -51t123 51t51 123v95q0 20 21 20q8 0 14 -5.5t6 -14.5v-95q0 -89 -63 -152t-152 -63 t-152 63t-63 152v191v299v424q0 9 -23.5 26t-23.5 21z" />
<glyph unicode="D" horiz-adv-x="579" d="M2 -8q0 5 23.5 21.5t23.5 23.5v1063q0 7 -24 25t-23 24q0 7 6.5 12.5t14.5 5.5h43h4h18h2q162 -8 274.5 -125.5t112.5 -281.5v-385q0 -163 -112.5 -280.5t-274.5 -125.5h-2h-18h-4h-43q-9 0 -15.5 7t-5.5 16zM90 10q145 8 245.5 113.5t100.5 251.5v385 q0 147 -100.5 252.5t-245.5 113.5v-26v-1063v-27z" />
<glyph unicode="E" horiz-adv-x="579" d="M2 -10q0 6 23.5 23t23.5 24v1010v4v2v45q0 7 -12 17t-24 19t-11 13q0 9 6.5 14.5t14.5 5.5h96h338q7 0 13.5 -6.5t6.5 -13.5q0 -9 -6 -15t-14 -6h-338q-29 -21 -29 -28v-27q162 -9 274.5 -127t112.5 -280q0 -8 -6.5 -14.5t-13.5 -6.5q-9 0 -15 6.5t-6 14.5 q0 146 -100.5 251.5t-245.5 114.5v-993q0 -10 29 -27h338q7 0 13.5 -6t6.5 -14q0 -9 -6 -15t-14 -6h-338h-96q-9 0 -16 6.5t-5 14.5z" />
<glyph unicode="F" horiz-adv-x="579" d="M2 -10q0 6 23.5 23t23.5 24v1010v4v2v45q0 7 -12 17t-24 19t-11 13q0 9 6.5 14.5t14.5 5.5h96h338q7 0 13.5 -6.5t6.5 -13.5q0 -9 -6 -15t-14 -6h-338q-29 -21 -29 -28v-27q162 -9 274.5 -127t112.5 -280q0 -8 -6.5 -14.5t-13.5 -6.5q-9 0 -15 6.5t-6 14.5 q0 146 -100.5 251.5t-245.5 114.5v-993q0 -7 24 -24t25 -23q0 -8 -5.5 -14.5t-14.5 -6.5h-96q-9 0 -16 6.5t-5 14.5z" />
<glyph unicode="G" horiz-adv-x="583" d="M2 1145q-1 9 5.5 15.5t15.5 6.5h45h4h194q89 0 152 -62.5t63 -150.5v-2v-94v-2q0 -8 -6.5 -14t-13.5 -6q-9 0 -15 6t-6 14v2v94q0 72 -51 123t-123 51h-174v-942q0 -10 2 -16q50 103 148.5 166t216.5 63h2q7 0 13.5 -6.5t6.5 -13.5v-193q0 -89 -63 -152t-152 -63h-2 q-102 0 -166 80q-6 -30 -6 -59q0 -21 -20 -21q-8 0 -14.5 6t-6.5 15q0 47 17 110q-19 40 -19 84v191v299v424q0 9 -23.5 26t-23.5 21zM111 104q22 -42 63 -68t90 -26q72 0 123 51t51 123v95q0 6 2 10v65q-114 -4 -203.5 -73.5t-125.5 -176.5z" />
<glyph unicode="H" horiz-adv-x="626" d="M2 -10q0 6 23.5 23t23.5 24v723v338q0 7 -12 17t-24 19t-11 13q0 9 6.5 14.5t14.5 5.5h96q9 0 14.5 -6.5t5.5 -15.5q-1 -4 -25 -21t-24 -26v-318q133 7 231 100t113 224q-4 7 -25.5 22.5t-21.5 20.5q0 9 6.5 14.5t14.5 5.5h45h4h4h43q9 0 14.5 -6.5t5.5 -15.5 q0 -4 -23.5 -21t-23.5 -26v-1061q0 -7 23.5 -24t23.5 -23q0 -8 -5.5 -14.5t-14.5 -6.5h-96q-9 0 -15 6.5t-6 14.5q0 6 24.5 23t24.5 24v930q-50 -99 -142 -160.5t-204 -67.5v-702q0 -7 24 -24t25 -23q0 -8 -5.5 -14.5t-14.5 -6.5h-96q-9 0 -16 6.5t-5 14.5z" />
<glyph unicode="I" horiz-adv-x="241" d="M2 -10q0 6 23.5 23t23.5 24v1061q0 7 -12 17t-24 19t-11 13q0 9 6.5 14.5t14.5 5.5h96q9 0 14.5 -6.5t5.5 -15.5q-1 -4 -25 -21t-24 -26v-1061q0 -7 24 -24t25 -23q0 -8 -5.5 -14.5t-14.5 -6.5h-96q-9 0 -16 6.5t-5 14.5z" />
<glyph unicode="J" horiz-adv-x="577" d="M0 -10q0 8 5.5 14t14.5 6q151 0 258 107t107 258v725q0 8 -23.5 24t-23.5 21q-1 9 5 15.5t15 6.5h97q9 0 14.5 -6.5t5.5 -15.5q-1 -4 -25 -20.5t-24 -24.5v-721v-4q0 -167 -119.5 -286.5t-286.5 -119.5q-20 0 -20 21z" />
<glyph unicode="K" horiz-adv-x="628" d="M2 -10q0 6 23.5 23t23.5 24v719v4v2v4v332q0 7 -12 17t-24 19t-11 13q0 9 6.5 14.5t14.5 5.5h96q9 0 14.5 -6.5t5.5 -15.5q-1 -4 -25 -21t-24 -26v-318q132 7 228.5 98t113.5 222q0 8 -23.5 24t-23.5 21q-1 9 5.5 15.5t15.5 6.5h47h4h4h41q9 0 14.5 -6.5t5.5 -15.5 q-1 -5 -23 -20.5t-24 -22.5q-13 -119 -88.5 -211t-187.5 -131q123 -40 200.5 -146.5t77.5 -238.5v-338q0 -7 23.5 -24t23.5 -23q2 -8 -4.5 -14.5t-15.5 -6.5h-96q-9 0 -15 6.5t-6 14.5q1 6 25 23t24 24v338q0 146 -100.5 251t-245.5 113v-702q0 -7 24 -24t25 -23 q0 -8 -5.5 -14.5t-14.5 -6.5h-96q-9 0 -16 6.5t-5 14.5z" />
<glyph unicode="L" horiz-adv-x="579" d="M2 -10q0 6 23.5 23t23.5 24v1061q0 7 -12 17t-24 19t-11 13q0 9 6.5 14.5t14.5 5.5h96q9 0 14.5 -6.5t5.5 -15.5q-1 -4 -25 -21t-24 -26v-1061q0 -10 29 -27h338q7 0 13.5 -6t6.5 -14q0 -9 -6 -15t-14 -6h-338h-96q-9 0 -16 6.5t-5 14.5z" />
<glyph unicode="M" horiz-adv-x="626" d="M2 -10q0 6 23.5 23t23.5 24v1061q0 7 -12 17t-24 19t-11 13q0 9 6.5 14.5t14.5 5.5h43h4h4h45q9 0 14.5 -6.5t5.5 -15.5q-1 -6 -22 -20t-25 -19q11 -84 56 -155t116 -115q70 44 114.5 114.5t55.5 153.5q-4 6 -16 14.5t-21.5 16.5t-9.5 12q0 9 6.5 14.5t14.5 5.5h45h4h4 h43q9 0 14.5 -6.5t5.5 -15.5q0 -4 -23.5 -21t-23.5 -26v-1061q0 -7 23.5 -24t23.5 -23q0 -8 -5.5 -14.5t-14.5 -6.5h-96q-9 0 -15 6.5t-6 14.5q0 6 24.5 23t24.5 24v930q-1 -2 -14 -27q-57 -91 -148 -145q-8 -4 -10 -4q-6 0 -10 4h-2q-93 55 -146 145q-3 5 -8 14.5t-8 14.5 v-932q0 -7 24 -24t25 -23q0 -8 -5.5 -14.5t-14.5 -6.5h-96q-9 0 -16 6.5t-5 14.5z" />
<glyph unicode="N" horiz-adv-x="626" d="M2 -10q0 6 23.5 23t23.5 24v1061q0 7 -12 17t-24 19t-11 13q0 9 6.5 14.5t14.5 5.5h43h4h4h45q9 0 14.5 -6.5t5.5 -15.5q-1 -6 -22 -20t-25 -19q15 -132 113 -224.5t231 -99.5v316q0 9 -24.5 27t-24.5 22q0 9 6.5 14.5t14.5 5.5h96q9 0 14.5 -6.5t5.5 -15.5 q0 -4 -23.5 -21t-23.5 -26v-332v-6v-6v-717q0 -7 23.5 -24t23.5 -23q0 -8 -5.5 -14.5t-14.5 -6.5h-96q-9 0 -15 6.5t-6 14.5q0 6 24.5 23t24.5 24v702q-112 6 -205 69t-141 161v-932q0 -7 24 -24t25 -23q0 -8 -5.5 -14.5t-14.5 -6.5h-96q-9 0 -16 6.5t-5 14.5z" />
<glyph unicode="O" d="M0 184v770q0 88 62.5 150.5t150.5 62.5q89 0 152 -62.5t63 -150.5v-770q0 -89 -63 -152t-152 -63q-88 0 -150.5 63t-62.5 152zM41 184q0 -72 50.5 -123t121.5 -51q72 0 123 51t51 123v770q0 71 -51 121.5t-123 50.5q-71 0 -121.5 -51t-50.5 -121v-770z" />
<glyph unicode="P" horiz-adv-x="579" d="M2 -10q0 6 23.5 23t23.5 24v721v2v4v334q0 7 -12 17t-24 19t-11 13q0 9 6.5 14.5t14.5 5.5h96h334h4q7 0 13.5 -6.5t6.5 -13.5q0 -162 -112.5 -280.5t-274.5 -127.5v-702q0 -7 24 -24t25 -23q0 -8 -5.5 -14.5t-14.5 -6.5h-96q-9 0 -16 6.5t-5 14.5zM90 780 q140 9 238.5 107.5t107.5 238.5h-317q-29 -21 -29 -28v-318z" />
<glyph unicode="Q" d="M0 184v770q0 88 62.5 150.5t150.5 62.5q89 0 152 -62.5t63 -150.5v-770q0 -41 -16 -84q16 -56 16 -110q0 -9 -6 -15t-14 -6q-9 0 -15 6t-6 15q0 32 -6 59q-64 -80 -168 -80q-88 0 -150.5 63t-62.5 152zM41 184q0 -72 50.5 -123t121.5 -51q50 0 92 26t64 68 q-36 105 -125.5 174.5t-202.5 75.5v-170zM41 395q112 -4 205 -66.5t141 -160.5v16v770q0 71 -51 121.5t-123 50.5q-71 0 -121.5 -51t-50.5 -121v-559z" />
<glyph unicode="R" horiz-adv-x="579" d="M2 -10q0 6 23.5 23t23.5 24v721v2v4v334q0 7 -12 17t-24 19t-11 13q0 9 6.5 14.5t14.5 5.5h47h49h334h4q7 0 13.5 -6.5t6.5 -13.5q0 -123 -66 -223t-173 -148l178 -739q2 -7 30 -24t29 -23q3 -8 -1 -14.5t-13 -6.5h-96q-9 0 -17 6.5t-10 14.5q-1 6 19 23t18 24l-174 725 q-59 -20 -111 -23v-702q0 -7 24 -24t25 -23q0 -8 -5.5 -14.5t-14.5 -6.5h-96q-9 0 -16 6.5t-5 14.5zM90 780q140 9 238.5 107.5t107.5 238.5h-317q-29 -21 -29 -28v-318z" />
<glyph unicode="S" d="M0 184v191q0 20 20 20q8 0 14.5 -5.5t6.5 -14.5v-191q0 -72 50.5 -123t121.5 -51q72 0 123 51t51 123v557q-193 3 -293 56q-94 54 -94 157q0 91 61 152t152 61q89 0 152 -62.5t63 -150.5q0 -20 -20 -20q-8 0 -14.5 5.5t-6.5 14.5q0 71 -51 121.5t-123 50.5 q-74 0 -123 -48.5t-49 -123.5q0 -14 1 -23.5t8 -29t19.5 -33.5t40 -31.5t65 -28.5t97.5 -18.5t136 -7.5q8 0 14 -6t6 -14v-578q0 -89 -63 -152t-152 -63q-88 0 -150.5 63t-62.5 152z" />
<glyph unicode="T" horiz-adv-x="528" d="M0 1147q0 8 5.5 14t14.5 6h386q9 0 14.5 -6t5.5 -14q0 -21 -20 -21h-146q-27 -22 -27 -28v-1061q0 -7 24 -24t24 -23q1 -8 -5.5 -14.5t-15.5 -6.5h-96q-8 0 -14.5 6.5t-6.5 14.5q1 6 25.5 23t24.5 24v1061q0 6 -27 28h-146q-20 0 -20 21z" />
<glyph unicode="U" horiz-adv-x="630" d="M2 1149q0 7 6.5 12.5t14.5 5.5h96q8 0 14 -6.5t6 -15.5q-1 -4 -25 -20.5t-24 -24.5v-916q0 -72 51 -123t123 -51t123 51t51 123v916q0 7 -24.5 25t-24.5 24q4 18 23 18h94q9 0 15 -6.5t5 -15.5q0 -5 -23.5 -21t-23.5 -24v-916q0 -89 -63 -152t-152 -63t-152 63t-63 152 v916q0 7 -24 25t-23 24z" />
<glyph unicode="V" horiz-adv-x="638" d="M2 1145q-3 9 2 15.5t14 6.5h97q8 0 15.5 -6.5t8.5 -15.5q1 -4 -19 -21t-18 -26l166 -1022l166 1022q2 9 -18 26t-19 21q1 9 9.5 15.5t17.5 6.5h96q9 0 13.5 -6.5t1.5 -15.5q-1 -4 -29.5 -21t-30.5 -26l-174 -1061q-2 -5 5.5 -13t17.5 -16.5t12 -13.5q0 -1 1 -2t1 -2 q3 -8 -2 -14.5t-14 -6.5h-11h-84h-12q-9 0 -13 6.5t-1 14.5v4q3 4 13 13t17.5 17t6.5 13l-177 1061q-2 9 -29.5 26t-29.5 21z" />
<glyph unicode="W" horiz-adv-x="626" d="M2 -8q0 5 23.5 21.5t23.5 23.5v1063q0 8 -23.5 24t-23.5 21q-1 9 5.5 15.5t15.5 6.5h96q9 0 14.5 -6.5t5.5 -15.5q-1 -4 -25 -20.5t-24 -24.5v-930q1 2 6.5 11.5t7.5 15.5q57 91 148 145q10 7 20 0q95 -54 148 -147q3 -4 8 -13.5t8 -13.5v932q0 8 -24.5 24t-24.5 21 q0 9 6 15.5t15 6.5h96q9 0 14.5 -6.5t5.5 -15.5q0 -5 -23.5 -21t-23.5 -24v-1063q0 -7 23.5 -25t23.5 -24q0 -7 -6 -13t-14 -6h-43h-4h-4h-45q-9 0 -15 7t-6 16q0 4 20.5 18t24.5 21q-9 84 -53.5 155t-116.5 115q-71 -44 -116 -115t-54 -153q4 -6 25.5 -22.5t21.5 -22.5 q-4 -19 -22 -19h-43h-4h-4h-43q-9 0 -15.5 7t-5.5 16z" />
<glyph unicode="X" horiz-adv-x="524" d="M2 -10q2 6 29.5 23t29.5 24l129 530l-129 531q-2 9 -29.5 26t-29.5 21q-3 9 2 15.5t14 6.5h95q19 0 26 -20q2 -4 -18.5 -22t-18.5 -27l109 -445l108 445q2 9 -18 27t-18 22q7 20 26 20h94q9 0 14.5 -6.5t2.5 -15.5q-2 -4 -30 -21t-30 -26l-129 -531l129 -530q2 -7 30 -24 t30 -23q3 -7 -2.5 -14t-14.5 -7h-96q-7 0 -14.5 6.5t-9.5 14.5q-1 6 18.5 23t17.5 24l-108 446l-109 -446q-2 -7 18 -24t19 -23q-2 -8 -9.5 -14.5t-14.5 -6.5h-97q-9 0 -14 6.5t-2 14.5z" />
<glyph unicode="Y" horiz-adv-x="524" d="M2 1145q-3 9 2 15.5t14 6.5h95q19 0 26 -20q2 -4 -18.5 -22t-18.5 -27l109 -445l108 445q2 9 -18 27t-18 22q7 20 26 20h94q9 0 14.5 -6.5t2.5 -15.5q-2 -4 -30 -21t-30 -26l-129 -531v-530q0 -7 24 -24t24 -23q1 -8 -5.5 -14.5t-15.5 -6.5h-96q-8 0 -14.5 6.5t-6.5 14.5 q1 6 25 23t24 24v530l-129 531q-2 9 -29.5 26t-29.5 21z" />
<glyph unicode="Z" horiz-adv-x="528" d="M0 567q0 146 92 258t232 142l53 159h-357q-20 0 -20 21q0 8 5.5 14t14.5 6h386h2h2v-2h2h2h2v-2h2l2 -2l2 -2l2 -2v-2l2 -2v-2v-2v-2v-2v-2v-2l-55 -168q5 0 17 1t18 1q9 0 14.5 -6.5t5.5 -14.5q0 -20 -20 -20q-18 0 -50 -4l-307 -920h357q9 0 14.5 -6t5.5 -14 q0 -21 -20 -21h-386q-11 0 -16 8q-6 8 -2 19l307 924q-118 -33 -193 -130.5t-75 -222.5q0 -7 -6.5 -13.5t-14.5 -6.5q-9 0 -14.5 6t-5.5 14z" />
<glyph unicode="[" horiz-adv-x="239" d="M0 -106v1349q0 8 5.5 14.5t14.5 6.5h97q7 0 13.5 -6.5t6.5 -14.5q0 -9 -6 -14.5t-14 -5.5h-76v-1309h76q7 0 13.5 -6t6.5 -14q0 -9 -6 -15t-14 -6h-97q-20 0 -20 21z" />
<glyph unicode="\" d="M2 1141q-7 17 14 24q17 7 25 -12l385 -1157q3 -7 -0.5 -15.5t-11.5 -11.5h-6q-16 0 -19 15z" />
<glyph unicode="]" horiz-adv-x="239" d="M0 -106q0 8 5.5 14t14.5 6h76v1309h-76q-20 0 -20 20q0 8 5.5 14.5t14.5 6.5h97q7 0 13.5 -6.5t6.5 -14.5v-1349q0 -9 -6 -15t-14 -6h-97q-20 0 -20 21z" />
<glyph unicode="^" horiz-adv-x="337" d="M2 864l96 289q7 14 21 14q15 0 18 -14l96 -289q6 -19 -12 -26q-1 0 -3 -1t-3 -1q-13 0 -20 14l-76 231l-78 -231q-8 -19 -25 -12q-20 7 -14 26z" />
<glyph unicode="a" horiz-adv-x="579" d="M0 0q0 4 2 8v473q0 89 63 152t152 63q51 0 96 -23t74 -63v160q0 72 -51 123t-123 51q-71 0 -121.5 -51t-50.5 -123q0 -9 -6.5 -14.5t-14.5 -5.5q-20 0 -20 20q0 89 62.5 152t150.5 63q89 0 152 -63t63 -152v-723q0 -8 24 -24.5t25 -20.5q0 -9 -6 -15.5t-14 -6.5h-97 q-9 0 -15 6.5t-5 15.5q0 4 23.5 21t23.5 24v162q-50 -103 -149 -166t-218 -63q-8 0 -14 5.5t-6 14.5zM43 20q143 9 243.5 115t100.5 250v6v121v4q-12 60 -60.5 99.5t-109.5 39.5q-72 0 -123 -51t-51 -123v-461z" />
<glyph unicode="b" horiz-adv-x="581" d="M2 2q0 4 23.5 21t23.5 24v1063q0 7 -24 25t-23 24q0 7 6.5 13t14.5 6h96q9 0 14.5 -7t5.5 -16q-1 -4 -25 -20.5t-24 -24.5v-211q69 86 172 86q89 0 152 -63t63 -152v-762q0 -2 1 -4.5t1 -3.5q0 -9 -6 -14.5t-14 -5.5q-120 0 -219.5 63.5t-149.5 167.5v-164q0 -8 24 -24.5 t25 -20.5q0 -9 -5.5 -15.5t-14.5 -6.5h-96q-9 0 -15.5 6.5t-5.5 15.5zM90 393q2 -2 2 -8q0 -145 99.5 -250.5t244.5 -114.5v750q0 72 -51 123t-123 51q-61 0 -109.5 -39.5t-60.5 -99.5q0 -4 -2 -6v-406z" />
<glyph unicode="c" horiz-adv-x="583" d="M2 963q-1 9 5.5 15.5t15.5 6.5h45h2h196q89 0 152 -63t63 -152v-96q0 -8 -6.5 -14.5t-13.5 -6.5q-9 0 -15 6.5t-6 14.5v96q0 72 -51 123t-123 51h-176v-213v-184v-352q0 -72 51 -123.5t123 -51.5t123 51.5t51 123.5v94q0 20 21 20q8 0 14 -5.5t6 -14.5v-94 q0 -89 -63 -152t-152 -63t-152 63t-63 152v190v199v331q0 9 -23.5 26.5t-23.5 21.5z" />
<glyph unicode="d" horiz-adv-x="579" d="M0 0v8v764q0 88 63 150.5t152 62.5q52 0 97 -23t75 -63v211q0 8 -23.5 24t-23.5 21q-1 9 5 16t15 7h95q18 0 22 -19q0 -6 -24.5 -24t-24.5 -25v-1063q0 -8 24 -24.5t25 -20.5q0 -9 -6 -15.5t-14 -6.5h-97q-9 0 -15 6.5t-5 15.5q0 4 23.5 21t23.5 24v164 q-50 -104 -148.5 -167.5t-218.5 -63.5q-20 0 -20 20zM41 20q145 9 244.5 114.5t99.5 250.5q0 2 1 4.5t1 3.5v408q0 2 -2 4q-10 61 -58.5 100t-111.5 39q-71 0 -122.5 -51t-51.5 -121v-752z" />
<glyph unicode="e" horiz-adv-x="581" d="M2 963q-1 9 5.5 15.5t15.5 6.5h67v-2l367 2q11 0 14 -6q6 -6 6 -14q0 -163 -113 -281.5t-274 -126.5v-137v-225q0 -72 51 -123.5t123 -51.5t123 51.5t51 123.5v94q0 20 21 20q8 0 14 -5.5t6 -14.5v-94q0 -89 -63 -152t-152 -63t-152 63t-63 152v190v45v488q0 8 -23.5 24 t-23.5 21zM90 598q139 8 238.5 107t107.5 239l-346 -2v-211v-133z" />
<glyph unicode="f" horiz-adv-x="579" d="M2 2q0 4 23.5 21t23.5 24v817v4v2v45q0 8 -24 26t-23 24q0 9 6.5 14.5t14.5 5.5h47h49h338q7 0 13.5 -6.5t6.5 -13.5q0 -9 -6 -15t-14 -6h-338q-29 -21 -29 -29v-28q84 -8 140.5 -69.5t56.5 -145.5q0 -9 -6.5 -15t-14.5 -6q-20 0 -20 21q0 67 -45 116.5t-111 57.5v-799 q0 -8 24 -24.5t25 -20.5q0 -9 -5.5 -15.5t-14.5 -6.5h-96q-9 0 -15.5 6.5t-5.5 15.5z" />
<glyph unicode="g" horiz-adv-x="579" d="M0 193v96q0 20 20 20q8 0 14.5 -5.5t6.5 -14.5v-96q0 -71 51 -122t121 -51q72 0 123 51t51 122v192v346v53q-32 -62 -78 -108q-119 -119 -286 -119q-9 0 -15 6.5t-6 14.5v387q0 8 6 14t15 6h385h2h45q9 0 15 -6.5t5 -15.5q0 -5 -22 -20.5t-25 -22.5v-727 q0 -88 -63 -150.5t-152 -62.5q-88 0 -150.5 62.5t-62.5 150.5zM43 600q138 7 236.5 105t107.5 235v4h-344v-344z" />
<glyph unicode="h" horiz-adv-x="628" d="M2 2q0 4 23.5 21t23.5 24v1063q0 7 -24 25t-23 24q0 7 6.5 13t14.5 6h96q9 0 14.5 -7t5.5 -16q-1 -4 -25 -20.5t-24 -24.5v-211q67 86 172 86q89 0 152 -62.5t63 -150.5v-725q0 -7 23.5 -24t23.5 -21q1 -9 -5 -15.5t-15 -6.5h-47h-49q-8 0 -14.5 6.5t-6.5 15.5 q1 4 25 20.5t24 24.5v725q0 71 -51 121.5t-123 50.5q-62 0 -110 -39t-60 -100q0 -2 -2 -4v-754q0 -8 24 -24.5t25 -20.5q0 -9 -5.5 -15.5t-14.5 -6.5h-96q-9 0 -15.5 6.5t-5.5 15.5z" />
<glyph unicode="i" horiz-adv-x="241" d="M2 2q0 4 23.5 21t23.5 24v868q0 8 -24 26t-23 24q0 9 6.5 14.5t14.5 5.5h67v-67v-3v-868q0 -8 24 -24.5t25 -20.5q0 -9 -5.5 -15.5t-14.5 -6.5h-96q-9 0 -15.5 6.5t-5.5 15.5z" />
<glyph unicode="j" horiz-adv-x="577" d="M0 0q0 8 5.5 14t14.5 6q151 0 258 107.5t107 259.5v528q0 9 -23.5 26.5t-23.5 21.5q-1 9 5 15.5t15 6.5h97q9 0 14.5 -6.5t5.5 -15.5q-1 -4 -25 -21.5t-24 -26.5v-526v-2q0 -111 -54.5 -204.5t-148 -148t-203.5 -54.5q-20 0 -20 20z" />
<glyph unicode="k" horiz-adv-x="628" d="M2 2q0 4 23.5 21t23.5 24v526v5v2v4v526q0 7 -24 25t-23 24q0 7 6.5 13t14.5 6h96q9 0 14.5 -7t5.5 -16q-1 -4 -25 -20.5t-24 -24.5v-512q132 7 228.5 98t113.5 222q0 8 -23.5 24t-23.5 21q-1 9 5.5 15.5t15.5 6.5h47h4h4h41q9 0 14.5 -6.5t5.5 -15.5q-1 -5 -23 -20.5 t-24 -22.5q-13 -119 -89 -212t-187 -130q123 -40 200.5 -146.5t77.5 -238.5v-146q0 -7 23.5 -24t23.5 -21q1 -9 -5 -15.5t-15 -6.5h-47h-49q-9 0 -15 6.5t-6 15.5q1 4 25 20.5t24 24.5v146q0 146 -100.5 251t-245.5 113v-510q0 -8 24 -24.5t25 -20.5q0 -9 -5.5 -15.5 t-14.5 -6.5h-96q-9 0 -15.5 6.5t-5.5 15.5z" />
<glyph unicode="l" horiz-adv-x="241" d="M2 2q0 4 23.5 21t23.5 24v1063q0 7 -24 25t-23 24q0 7 6.5 13t14.5 6h67v-68v-1063q0 -8 24 -24.5t25 -20.5q0 -9 -5.5 -15.5t-14.5 -6.5h-96q-9 0 -15.5 6.5t-5.5 15.5z" />
<glyph unicode="m" horiz-adv-x="626" d="M2 2q0 4 23.5 21t23.5 24v868q0 8 -24 26t-23 24q0 9 6.5 14.5t14.5 5.5h43h2h194q89 0 152 -63t63 -152v-723q0 -7 23.5 -24t23.5 -21v-4q0 -7 -6 -12.5t-14 -5.5h-96q-8 0 -14.5 5.5t-6.5 12.5v4q1 4 25 20.5t24 24.5v723q0 66 -43 115t-108 57v-895q0 -8 24 -24.5 t25 -20.5q0 -9 -6.5 -15.5t-14.5 -6.5h-96q-9 0 -15 6.5t-5 15.5q0 4 23.5 21t23.5 24v897h-154v-26v-3v-868q0 -8 24 -24.5t25 -20.5q0 -9 -5.5 -15.5t-14.5 -6.5h-96q-9 0 -15.5 6.5t-5.5 15.5z" />
<glyph unicode="n" horiz-adv-x="628" d="M2 2q0 4 23.5 21t23.5 24v868q0 8 -24 26t-23 24q0 9 6.5 14.5t14.5 5.5h67v-67v-3v-16q69 86 172 86q89 0 152 -63t63 -152v-723q0 -7 23.5 -24t23.5 -21q1 -9 -5 -15.5t-15 -6.5h-47h-49q-8 0 -14.5 6.5t-6.5 15.5q1 4 25 20.5t24 24.5v723q0 72 -51 123t-123 51 q-61 0 -109.5 -39.5t-60.5 -99.5q0 -4 -2 -6v-752q0 -8 24 -24.5t25 -20.5q0 -9 -5.5 -15.5t-14.5 -6.5h-96q-9 0 -15.5 6.5t-5.5 15.5z" />
<glyph unicode="o" d="M0 193v577q0 89 62.5 152t150.5 63q89 0 152 -63t63 -152v-577q0 -89 -63 -152.5t-152 -63.5q-88 0 -150.5 63.5t-62.5 152.5zM41 193q0 -72 50.5 -123.5t121.5 -51.5q72 0 123 51.5t51 123.5v577q0 72 -51 123t-123 51q-71 0 -121.5 -51t-50.5 -123v-577z" />
<glyph unicode="p" horiz-adv-x="577" d="M2 2q0 4 23.5 21t23.5 24v531v340q-1 7 -24 23.5t-23 21.5q-1 9 5.5 15.5t15.5 6.5h45h2h385q9 0 14.5 -6t5.5 -14q0 -169 -117 -289q-114 -111 -268 -117v-512q0 -8 24 -24.5t25 -20.5q0 -9 -5.5 -15.5t-14.5 -6.5h-96q-9 0 -15.5 6.5t-5.5 15.5zM90 600 q139 8 237.5 106t106.5 238h-344v-213v-131z" />
<glyph unicode="q" horiz-adv-x="577" d="M0 578v387q0 8 5.5 14t14.5 6h386h2h45q9 0 15 -6.5t5 -15.5q0 -4 -23.5 -21.5t-23.5 -26.5v-868q0 -7 23.5 -24t23.5 -21q1 -9 -5 -15.5t-15 -6.5h-97q-9 0 -14.5 6.5t-5.5 15.5q0 4 24.5 21t24.5 24v684v53q-32 -62 -78 -108q-119 -119 -287 -119q-9 0 -14.5 6.5 t-5.5 14.5zM41 600q138 7 236.5 105t107.5 235v4h-344v-344z" />
<glyph unicode="r" horiz-adv-x="579" d="M2 2q0 4 23.5 21t23.5 24v868q0 8 -24 26t-23 24q0 9 6.5 14.5t14.5 5.5h67v-67v-3v-16q69 86 172 86q89 0 152 -63t63 -152v-96q0 -8 -6.5 -14.5t-13.5 -6.5q-9 0 -15 6.5t-6 14.5v96q0 72 -51 123t-123 51q-61 0 -109.5 -39.5t-60.5 -99.5q0 -4 -2 -6v-752 q0 -8 24 -24.5t25 -20.5q0 -9 -5.5 -15.5t-14.5 -6.5h-96q-9 0 -15.5 6.5t-5.5 15.5z" />
<glyph unicode="s" d="M0 195v94q0 20 20 20q8 0 14.5 -5.5t6.5 -14.5v-94q0 -72 50.5 -123.5t121.5 -51.5q72 0 123 51.5t51 123.5v362q-197 3 -293 57q-94 54 -94 158q0 91 61 152t152 61q89 0 152 -63t63 -152q0 -8 -5.5 -14t-14.5 -6q-8 0 -14.5 6.5t-6.5 13.5q0 72 -51 123t-123 51 q-74 0 -123 -48.5t-49 -123.5q0 -14 1 -23.5t8 -29.5t19.5 -34t40 -31.5t65 -28.5t98 -19t135.5 -8q8 0 14 -5.5t6 -14.5v-383q0 -89 -63 -152t-152 -63q-88 0 -150.5 63t-62.5 152z" />
<glyph unicode="t" horiz-adv-x="581" d="M2 1157q0 9 6.5 15t14.5 6h45h2h2h47q8 0 14 -7t6 -16q-1 -4 -24 -20t-25 -25v-129q82 -7 136.5 -67t54.5 -142q0 -20 -21 -20q-8 0 -14 5.5t-6 14.5q0 64 -43.5 112t-106.5 56v-745q0 -72 51 -123.5t123 -51.5t123 51.5t51 123.5v94q0 20 21 20q8 0 14 -5.5t6 -14.5v-94 q0 -89 -63 -152t-152 -63t-151 62.5t-64 150.5v765v5v2v145q0 6 -12 15.5t-24 18.5t-11 13z" />
<glyph unicode="u" horiz-adv-x="628" d="M2 963q-1 9 5.5 15.5t15.5 6.5h47h2h47q9 0 14.5 -6.5t5.5 -15.5q-1 -4 -25 -21.5t-24 -26.5v-720q0 -72 51 -123.5t123 -51.5q61 0 109.5 40t60.5 100l2 4v751q0 9 -24 26.5t-25 21.5q0 9 6.5 15.5t14.5 6.5h96q9 0 15 -6.5t5 -15.5q0 -4 -23.5 -21.5t-23.5 -26.5v-868 q0 -7 24 -25t23 -24q0 -7 -6 -12.5t-14 -5.5h-68v65v2v19q-30 -40 -75 -63t-97 -23q-89 0 -152 63t-63 152v720q0 9 -23.5 26.5t-23.5 21.5z" />
<glyph unicode="v" horiz-adv-x="618" d="M2 963q-3 9 2 15.5t14 6.5h97q8 0 15.5 -6.5t8.5 -15.5q1 -4 -19 -21.5t-18 -26.5l146 -819l166 819q2 9 -18 26.5t-19 21.5q1 9 9 15.5t17 6.5h97q9 0 13 -6.5t1 -15.5q-1 -4 -29 -21.5t-30 -26.5l-174 -868q-2 -5 5 -13t17 -16.5t12 -13.5l2 -2q3 -9 -2 -15.5t-14 -6.5 h-10h-84h-12q-9 0 -13.5 6.5t-1.5 15.5v2q3 4 13 13t17.5 17t6.5 13l-156 868q-2 9 -29.5 26.5t-29.5 21.5z" />
<glyph unicode="w" horiz-adv-x="628" d="M0 963v2q0 9 6 14.5t14 5.5h97q7 0 13.5 -6.5t6.5 -13.5v-2q-1 -6 -25 -23.5t-24 -24.5v-722q0 -66 43.5 -115.5t108.5 -57.5v895q0 7 -23.5 24.5t-23.5 23.5q-1 7 5 13.5t15 6.5h96q8 0 14.5 -6.5t6.5 -13.5q-1 -6 -25 -23.5t-24 -24.5v-895q66 6 110.5 55.5t44.5 117.5 v722q0 9 -24.5 27t-24.5 23q3 20 23 20h94q9 0 15 -6.5t5 -15.5q0 -5 -23.5 -21t-23.5 -24v-725q0 -89 -63 -152.5t-152 -63.5t-152 63.5t-63 152.5v722q0 7 -23.5 24.5t-23.5 23.5z" />
<glyph unicode="x" horiz-adv-x="524" d="M2 2q2 4 29.5 20.5t29.5 24.5l129 434l-129 434q-2 9 -29.5 26.5t-29.5 21.5q-3 9 2 15.5t14 6.5h95q19 0 26 -20q2 -6 -18.5 -24t-18.5 -26l109 -364l108 364q2 8 -18 26t-18 24q7 20 26 20h94q9 0 14.5 -6.5t2.5 -15.5q-2 -4 -30 -21.5t-30 -26.5l-129 -434l129 -434 q2 -8 30 -24.5t30 -20.5q3 -9 -2.5 -15.5t-14.5 -6.5h-96q-8 0 -15.5 6.5t-8.5 15.5q-1 4 18.5 20.5t17.5 24.5l-108 367l-109 -367q-2 -8 18 -24.5t19 -20.5q-1 -9 -8.5 -15.5t-15.5 -6.5h-97q-9 0 -14 6.5t-2 15.5z" />
<glyph unicode="y" horiz-adv-x="628" d="M2 963q-1 9 5.5 15.5t15.5 6.5h47h2h47q9 0 14.5 -6.5t5.5 -15.5q-1 -4 -25 -21.5t-24 -26.5v-239q0 -72 51 -123t123 -51q61 0 109.5 39.5t60.5 99.5q0 1 1 3t1 3v268q0 9 -24 26.5t-25 21.5q0 9 6.5 15.5t14.5 6.5h96q9 0 15 -6.5t5 -15.5q0 -4 -23.5 -21.5 t-23.5 -26.5v-720q0 -89 -63 -152t-152 -63t-152 63t-63 152v94q0 9 6.5 14.5t14.5 5.5q20 0 20 -20v-94q0 -72 51 -123.5t123 -51.5t123 51.5t51 123.5v352q-30 -40 -75 -63t-97 -23q-89 0 -152 63t-63 152v239q0 9 -23.5 26.5t-23.5 21.5z" />
<glyph unicode="z" horiz-adv-x="528" d="M0 385q0 143 88 252.5t223 142.5l64 164h-355q-20 0 -20 21q0 8 5.5 14t14.5 6h386h2h2q0 -2 2 -2h2h2v-2h2l2 -2l2 -2q0 -2 2 -2v-2l2 -2v-2v-2v-2v-2v-2v-3v-2h-2l-66 -168q40 5 48 5q9 0 14.5 -6.5t5.5 -14.5q0 -20 -20 -20q-26 0 -66 -7l-289 -725h355q9 0 14.5 -6 t5.5 -14q0 -20 -20 -20h-386q-8 0 -16 8q-6 9 -2 20l289 725q-110 -37 -180 -132.5t-70 -215.5q0 -7 -6.5 -13.5t-14.5 -6.5q-9 0 -14.5 6t-5.5 14z" />
<glyph unicode="{" horiz-adv-x="335" d="M0 567q0 21 20 21q31 0 53.5 22.5t22.5 53.5v483q0 48 34 82.5t83 34.5q7 0 13.5 -6.5t6.5 -14.5q0 -9 -6 -14.5t-14 -5.5q-32 0 -54 -22.5t-22 -53.5v-483q0 -59 -51 -97q51 -33 51 -96v-481q0 -32 22 -54t54 -22q7 0 13.5 -6t6.5 -14q0 -9 -6 -15t-14 -6 q-49 0 -83 33.5t-34 83.5v481q0 32 -22.5 54t-53.5 22q-9 0 -14.5 6t-5.5 14z" />
<glyph unicode="|" horiz-adv-x="83" d="M-59 -106v1349q0 8 5.5 14.5t14.5 6.5q7 0 14 -7t7 -14v-1349q0 -9 -6.5 -15t-14.5 -6q-20 0 -20 21z" />
<glyph unicode="}" horiz-adv-x="335" d="M0 -106q0 8 5.5 14t14.5 6q31 0 53.5 22t22.5 54v481q0 63 51 96q-51 38 -51 97v483q0 31 -22.5 53.5t-53.5 22.5q-20 0 -20 20q0 8 5.5 14.5t14.5 6.5q47 0 82 -35t35 -82v-483q0 -31 22 -53.5t54 -22.5q8 0 14 -6t6 -15q0 -7 -6.5 -13.5t-13.5 -6.5q-32 0 -54 -22 t-22 -54v-481q0 -49 -34.5 -83t-82.5 -34q-20 0 -20 21z" />
<glyph unicode="~" horiz-adv-x="862" d="M76 670q0 26 18 41.5t45 15.5l566 2q6 21 32 21q15 0 28 -11.5t13 -27.5q0 -25 -18.5 -43.5t-44.5 -18.5h-561q-9 -20 -37 -20q-18 0 -29.5 11.5t-11.5 29.5z" />
<glyph unicode="&#xa2;" d="M0 279v577q0 84 55.5 144.5t137.5 68.5v78q0 7 6.5 13.5t13.5 6.5q9 0 14.5 -6t5.5 -14v-78q84 -8 139.5 -68.5t55.5 -144.5q0 -8 -5.5 -14t-14.5 -6q-8 0 -14.5 6.5t-6.5 13.5q0 66 -44.5 115t-109.5 57v-922q65 8 109.5 57.5t44.5 115.5q0 9 6.5 14.5t14.5 5.5 q20 0 20 -20q0 -83 -56 -144.5t-139 -68.5v-76q0 -21 -20 -21q-8 0 -14 6t-6 15v76q-82 8 -137.5 69t-55.5 144zM41 279q0 -66 43.5 -115.5t108.5 -57.5v922q-65 -8 -108.5 -57t-43.5 -115v-577z" />
<glyph unicode="&#xa3;" horiz-adv-x="624" d="M0 598q0 20 20 20h76v297q0 69 48 117.5t116 48.5q69 0 117.5 -48.5t48.5 -117.5v-47q0 -20 -20 -20q-21 0 -21 20v47q0 53 -36.5 89t-88.5 36q-51 0 -87 -36.5t-36 -88.5v-297h172q8 0 14.5 -5.5t6.5 -14.5q0 -7 -6.5 -13.5t-14.5 -6.5h-172v-404q36 29 76 29h193 q31 0 53 22t22 54q0 7 6.5 13.5t14.5 6.5q9 0 14.5 -6t5.5 -14q0 -49 -34 -83t-82 -34h-193q-32 0 -54 -22.5t-22 -53.5q0 -9 -6 -14.5t-14 -5.5q-21 0 -21 20v492h-76q-9 0 -14.5 6t-5.5 14z" />
<glyph unicode="&#xa5;" horiz-adv-x="524" d="M2 289q0 9 6.5 14.5t14.5 5.5h167v152h-167q-8 0 -14.5 6.5t-6.5 13.5q0 9 6.5 15t14.5 6h165l-127 502q-2 8 -29.5 24.5t-29.5 20.5q-3 9 2 15.5t14 6.5h95q19 0 26 -18q2 -6 -18.5 -24t-18.5 -25l109 -426l108 426q2 7 -18 25t-18 24q7 18 26 18h94q9 0 14.5 -6.5 t2.5 -15.5q-2 -4 -30 -20.5t-30 -24.5l-127 -502h166q8 0 14.5 -6t6.5 -15q0 -7 -6.5 -13.5t-14.5 -6.5h-168v-152h168q8 0 14.5 -5.5t6.5 -14.5q0 -7 -7 -14t-14 -7h-168v-135q0 -7 24 -24t24 -23q1 -9 -5.5 -14.5t-15.5 -5.5h-96q-8 0 -14.5 5.5t-6.5 14.5q1 6 25 23 t24 24v135h-167q-7 0 -14 7t-7 14z" />
<glyph unicode="&#xad;" d="M0 481q0 21 20 21h388q20 0 20 -21q0 -8 -5.5 -14t-14.5 -6h-388q-9 0 -14.5 6t-5.5 14z" />
<glyph unicode="&#xc0;" horiz-adv-x="638" d="M2 -10q2 6 29.5 23t29.5 24l177 1061q1 6 -6.5 14.5t-17.5 17.5t-13 13v2q-3 9 1 15.5t13 6.5h12h84h11q9 0 14 -6.5t2 -15.5l-2 -2q-2 -3 -19.5 -20t-15.5 -25l174 -1061q2 -7 30.5 -24t29.5 -23q3 -8 -1.5 -14.5t-13.5 -6.5h-96q-9 0 -17 6.5t-10 14.5q-1 6 19 23 t18 24l-90 555q-80 45 -133 113l-109 -668q-2 -7 18 -24t19 -23q-2 -8 -9.5 -14.5t-14.5 -6.5h-97q-9 0 -14 6.5t-2 14.5zM221 762q46 -74 115 -117l-68 416zM225 1349.5q0 8.5 6 14.5t15.5 6t15.5 -6l43 -43q6 -6 6 -15.5t-6 -15.5q-4 -4 -14 -4q-11 0 -15 4l-45 45 q-6 6 -6 14.5z" />
<glyph unicode="&#xc1;" horiz-adv-x="638" d="M2 -10q2 6 29.5 23t29.5 24l177 1061q1 6 -6.5 14.5t-17.5 17.5t-13 13v2q-3 9 1 15.5t13 6.5h12h84h11q9 0 14 -6.5t2 -15.5l-2 -2q-2 -3 -19.5 -20t-15.5 -25l174 -1061q2 -7 30.5 -24t29.5 -23q3 -8 -1.5 -14.5t-13.5 -6.5h-96q-9 0 -17 6.5t-10 14.5q-1 6 19 23 t18 24l-90 555q-80 45 -133 113l-109 -668q-2 -7 18 -24t19 -23q-2 -8 -9.5 -14.5t-14.5 -6.5h-97q-9 0 -14 6.5t-2 14.5zM221 762q46 -74 115 -117l-68 416zM225 1305.5q0 9.5 6 15.5l45 43q14 14 29 0q6 -6 6 -14.5t-6 -14.5l-43 -45q-4 -4 -16 -4q-11 0 -15 4 q-6 6 -6 15.5z" />
<glyph unicode="&#xc2;" horiz-adv-x="638" d="M2 -10q2 6 29.5 23t29.5 24l177 1061q1 6 -6.5 14.5t-17.5 17.5t-13 13v2q-3 9 1 15.5t13 6.5h12h84h11q9 0 14 -6.5t2 -15.5l-2 -2q-2 -3 -19.5 -20t-15.5 -25l174 -1061q2 -7 30.5 -24t29.5 -23q3 -8 -1.5 -14.5t-13.5 -6.5h-96q-9 0 -17 6.5t-10 14.5q-1 6 19 23 t18 24l-90 555q-80 45 -133 113l-109 -668q-2 -7 18 -24t19 -23q-2 -8 -9.5 -14.5t-14.5 -6.5h-97q-9 0 -14 6.5t-2 14.5zM172 1305.5q0 9.5 6 15.5l45 43q4 6 13.5 6t15.5 -6q14 -14 0 -29l-45 -45q-4 -4 -14 -4q-11 0 -15 4q-6 6 -6 15.5zM221 762q46 -74 115 -117 l-68 416zM281 1349.5q0 8.5 6 14.5q14 14 28 0l43 -43q6 -6 6 -15.5t-6 -15.5q-4 -4 -14 -4t-14 4l-43 45q-6 6 -6 14.5z" />
<glyph unicode="&#xc3;" horiz-adv-x="638" d="M2 -10q2 6 29.5 23t29.5 24l177 1061q1 6 -6.5 14.5t-17.5 17.5t-13 13v2q-3 9 1 15.5t13 6.5h12h84h11q9 0 14 -6.5t2 -15.5l-2 -2q-2 -3 -19.5 -20t-15.5 -25l174 -1061q2 -7 30.5 -24t29.5 -23q3 -8 -1.5 -14.5t-13.5 -6.5h-96q-9 0 -17 6.5t-10 14.5q-1 6 19 23 t18 24l-90 555q-80 45 -133 113l-109 -668q-2 -7 18 -24t19 -23q-2 -8 -9.5 -14.5t-14.5 -6.5h-97q-9 0 -14 6.5t-2 14.5zM152 1307q0 17 12 29t31 12h149v2q0 9 6.5 14.5t14.5 5.5q20 0 20 -20q0 -17 -12 -30t-29 -13h-149h-2q0 -9 -6 -15t-15 -6q-8 0 -14 6t-6 15z M221 762q46 -74 115 -117l-68 416z" />
<glyph unicode="&#xc4;" horiz-adv-x="638" d="M2 -10q2 6 29.5 23t29.5 24l177 1061q1 6 -6.5 14.5t-17.5 17.5t-13 13v2q-3 9 1 15.5t13 6.5h12h84h11q9 0 14 -6.5t2 -15.5l-2 -2q-2 -3 -19.5 -20t-15.5 -25l174 -1061q2 -7 30.5 -24t29.5 -23q3 -8 -1.5 -14.5t-13.5 -6.5h-96q-9 0 -17 6.5t-10 14.5q-1 6 19 23 t18 24l-90 555q-80 45 -133 113l-109 -668q-2 -7 18 -24t19 -23q-2 -8 -9.5 -14.5t-14.5 -6.5h-97q-9 0 -14 6.5t-2 14.5zM195 1348q0 9 6.5 15.5t15.5 6.5t15 -6.5t6 -15.5t-6 -15t-15 -6t-15.5 6t-6.5 15zM221 762q46 -74 115 -117l-68 416zM299 1348q0 9 7 15.5t16 6.5 t15.5 -6.5t6.5 -15.5t-6.5 -15t-15.5 -6t-16 6t-7 15z" />
<glyph unicode="&#xc5;" horiz-adv-x="638" d="M2 -10q2 6 29.5 23t29.5 24l177 1061q1 6 -6.5 14.5t-17.5 17.5t-13 13v2q-3 9 1 15.5t13 6.5h12h84h11q9 0 14 -6.5t2 -15.5l-2 -2q-2 -3 -19.5 -20t-15.5 -25l174 -1061q2 -7 30.5 -24t29.5 -23q3 -8 -1.5 -14.5t-13.5 -6.5h-96q-9 0 -17 6.5t-10 14.5q-1 6 19 23 t18 24l-90 555q-80 45 -133 113l-109 -668q-2 -7 18 -24t19 -23q-2 -8 -9.5 -14.5t-14.5 -6.5h-97q-9 0 -14 6.5t-2 14.5zM215 1317q0 22 15.5 37.5t37.5 15.5q23 0 38.5 -15.5t15.5 -37.5q0 -23 -15.5 -38t-38.5 -15q-22 0 -37.5 15t-15.5 38zM221 762q46 -74 115 -117 l-68 416zM256 1317q0 -5 4 -8.5t8 -3.5q13 0 13 12t-13 12q-4 0 -8 -3.5t-4 -8.5z" />
<glyph unicode="&#xc6;" horiz-adv-x="798" d="M2 -12q2 5 29.5 21.5t29.5 25.5l177 1061q1 6 -6.5 14t-17.5 16.5t-13 12.5v4q-3 9 1 14.5t13 5.5h12h15h26h70h338q8 0 14 -5.5t6 -14.5q0 -8 -6.5 -14.5t-13.5 -6.5h-338q-29 -17 -29 -26v-29q162 -8 274.5 -125.5t112.5 -279.5q0 -9 -6 -15t-14 -6q-9 0 -15 6t-6 15 q0 146 -100.5 251t-245.5 113v-991q0 -10 29 -27h338q8 0 14 -6t6 -14q0 -9 -6 -15t-14 -6h-338h-96q-9 0 -15.5 6t-5.5 15q0 6 23.5 22t23.5 25v606q-35 32 -57 59l-109 -665q-2 -9 18 -25.5t19 -21.5q-1 -9 -8.5 -15t-15.5 -6h-97q-9 0 -14 6t-2 15zM221 760 q15 -28 47 -64v348q0 1 -12 -70l-24 -142z" />
<glyph unicode="&#xc7;" horiz-adv-x="583" d="M2 1145q-1 9 5.5 15.5t15.5 6.5h45h2h196q89 0 152 -63t63 -152v-96q0 -8 -6.5 -14t-13.5 -6q-9 0 -15 6t-6 14v96q0 72 -51 123t-123 51h-176v-213v-254v-475q0 -72 51 -123t123 -51t123 51t51 123v95q0 20 21 20q8 0 14 -5.5t6 -14.5v-95q0 -84 -56 -145.5t-138 -69.5 v-45h26q29 0 49.5 -20t20.5 -49q0 -28 -20.5 -48t-49.5 -20h-47q-20 0 -20 20q0 8 5.5 14.5t14.5 6.5h47q12 0 20.5 8t8.5 19q0 12 -8.5 20t-20.5 8h-47q-20 0 -20 21v65q-82 8 -138.5 69.5t-56.5 145.5v191v299v424q0 9 -23.5 26t-23.5 21z" />
<glyph unicode="&#xc8;" horiz-adv-x="579" d="M2 -10q0 6 23.5 23t23.5 24v1010v4v2v45q0 7 -12 17t-24 19t-11 13q0 9 6.5 14.5t14.5 5.5h96h338q7 0 13.5 -6.5t6.5 -13.5q0 -9 -6 -15t-14 -6h-338q-29 -21 -29 -28v-27q162 -9 274.5 -127t112.5 -280q0 -8 -6.5 -14.5t-13.5 -6.5q-9 0 -15 6.5t-6 14.5 q0 146 -100.5 251.5t-245.5 114.5v-993q0 -10 29 -27h338q7 0 13.5 -6t6.5 -14q0 -9 -6 -15t-14 -6h-338h-96q-9 0 -16 6.5t-5 14.5zM197 1349.5q0 8.5 6 14.5q14 14 28 0l45 -43q4 -6 4 -15.5t-4 -15.5q-4 -4 -16 -4q-10 0 -14 4l-43 45q-6 6 -6 14.5z" />
<glyph unicode="&#xc9;" horiz-adv-x="579" d="M2 -10q0 6 23.5 23t23.5 24v1010v4v2v45q0 7 -12 17t-24 19t-11 13q0 9 6.5 14.5t14.5 5.5h96h338q7 0 13.5 -6.5t6.5 -13.5q0 -9 -6 -15t-14 -6h-338q-29 -21 -29 -28v-27q162 -9 274.5 -127t112.5 -280q0 -8 -6.5 -14.5t-13.5 -6.5q-9 0 -15 6.5t-6 14.5 q0 146 -100.5 251.5t-245.5 114.5v-993q0 -10 29 -27h338q7 0 13.5 -6t6.5 -14q0 -9 -6 -15t-14 -6h-338h-96q-9 0 -16 6.5t-5 14.5zM197 1305.5q0 9.5 6 15.5l43 43q6 6 15 6t15 -6q11 -14 0 -29l-45 -45q-4 -4 -14 -4t-14 4q-6 6 -6 15.5z" />
<glyph unicode="&#xca;" horiz-adv-x="579" d="M2 -10q0 6 23.5 23t23.5 24v1010v4v2v45q0 7 -12 17t-24 19t-11 13q0 9 6.5 14.5t14.5 5.5h96h338q7 0 13.5 -6.5t6.5 -13.5q0 -9 -6 -15t-14 -6h-338q-29 -21 -29 -28v-27q162 -9 274.5 -127t112.5 -280q0 -8 -6.5 -14.5t-13.5 -6.5q-9 0 -15 6.5t-6 14.5 q0 146 -100.5 251.5t-245.5 114.5v-993q0 -10 29 -27h338q7 0 13.5 -6t6.5 -14q0 -9 -6 -15t-14 -6h-338h-96q-9 0 -16 6.5t-5 14.5zM144 1305.5q0 9.5 6 15.5l43 43q14 14 28 0q6 -6 6 -14.5t-6 -14.5l-43 -45q-4 -4 -14 -4t-14 4q-6 6 -6 15.5zM256 1335q-14 15 0 29 q6 6 15 6t14 -6l45 -43q6 -6 6 -15.5t-6 -15.5q-4 -4 -15 -4q-10 0 -14 4z" />
<glyph unicode="&#xcb;" horiz-adv-x="579" d="M2 -10q0 6 23.5 23t23.5 24v1010v4v2v45q0 7 -12 17t-24 19t-11 13q0 9 6.5 14.5t14.5 5.5h96h338q7 0 13.5 -6.5t6.5 -13.5q0 -9 -6 -15t-14 -6h-338q-29 -21 -29 -28v-27q162 -9 274.5 -127t112.5 -280q0 -8 -6.5 -14.5t-13.5 -6.5q-9 0 -15 6.5t-6 14.5 q0 146 -100.5 251.5t-245.5 114.5v-993q0 -10 29 -27h338q7 0 13.5 -6t6.5 -14q0 -9 -6 -15t-14 -6h-338h-96q-9 0 -16 6.5t-5 14.5zM164 1348q0 9 6.5 15.5t15.5 6.5t16 -6.5t7 -15.5t-7 -15t-16 -6t-15.5 6t-6.5 15zM270 1348q0 9 6 15.5t15 6.5t15.5 -6.5t6.5 -15.5 t-6.5 -15t-15.5 -6t-15 6t-6 15z" />
<glyph unicode="&#xcc;" horiz-adv-x="241" d="M0 -10q1 6 25 23t24 24v1061q0 9 -24.5 27t-24.5 22q3 20 23 20h94q9 0 15 -6.5t5 -15.5q0 -4 -23.5 -21t-23.5 -26v-1061q0 -7 23.5 -24t23.5 -23q2 -8 -4.5 -14.5t-15.5 -6.5h-97q-9 0 -14.5 6.5t-5.5 14.5zM27 1349.5q0 8.5 6 14.5q14 14 28 0l45 -43q4 -6 4 -15.5 t-4 -15.5q-4 -4 -14 -4q-12 0 -16 4l-43 45q-6 6 -6 14.5z" />
<glyph unicode="&#xcd;" horiz-adv-x="241" d="M0 -10q1 6 25 23t24 24v1061q0 9 -24.5 27t-24.5 22q3 20 23 20h94q9 0 15 -6.5t5 -15.5q0 -4 -23.5 -21t-23.5 -26v-1061q0 -7 23.5 -24t23.5 -23q2 -8 -4.5 -14.5t-15.5 -6.5h-97q-9 0 -14.5 6.5t-5.5 14.5zM27 1305.5q0 9.5 6 15.5l43 43q6 6 15 6t15 -6q11 -14 0 -29 l-45 -45q-4 -4 -14 -4t-14 4q-6 6 -6 15.5z" />
<glyph unicode="&#xce;" horiz-adv-x="294" d="M0 1305.5q0 9.5 6 15.5l43 43q15 14 29 0t0 -29l-43 -45q-4 -4 -15 -4q-10 0 -14 4q-6 6 -6 15.5zM27 -10q1 6 25 23t24 24v1061q0 9 -24.5 27t-24.5 22q3 20 22 20h94q9 0 15.5 -6.5t5.5 -15.5q0 -4 -23.5 -21t-23.5 -26v-1061q0 -7 23.5 -24t23.5 -23q2 -8 -5 -14.5 t-16 -6.5h-96q-9 0 -14.5 6.5t-5.5 14.5zM107 1349.5q0 8.5 6 14.5t14.5 6t13.5 -6l45 -43q6 -6 6 -15.5t-6 -15.5q-4 -4 -14 -4t-14 4l-45 45q-6 6 -6 14.5z" />
<glyph unicode="&#xcf;" horiz-adv-x="251" d="M0 1348q0 9 7 15.5t16 6.5t15.5 -6.5t6.5 -15.5t-6.5 -15t-15.5 -6t-16 6t-7 15zM6 -10q1 6 25 23t24 24v1061q0 9 -24.5 27t-24.5 22q3 20 23 20h94q9 0 15 -6.5t5 -15.5q0 -4 -23.5 -21t-23.5 -26v-1061q0 -7 23.5 -24t23.5 -23q2 -8 -4.5 -14.5t-15.5 -6.5h-96 q-9 0 -15 6.5t-6 14.5zM106 1348q0 9 6 15.5t15 6.5t16 -6.5t7 -15.5t-7 -15t-16 -6t-15 6t-6 15z" />
<glyph unicode="&#xd0;" horiz-adv-x="628" d="M0 567q0 9 6 15t14 6h78v512q0 7 -23.5 25t-23.5 24q0 7 6.5 12.5t14.5 5.5h43h4h18h2q162 -8 274.5 -125.5t112.5 -281.5v-385q0 -163 -113 -280.5t-274 -125.5h-2h-18h-4h-43q-9 0 -15 7t-6 16q0 5 23.5 21.5t23.5 23.5v510h-78q-8 0 -14 6.5t-6 13.5zM139 10 q145 8 245.5 113.5t100.5 251.5v385q0 147 -100.5 252.5t-245.5 113.5v-26v-512h74q20 0 20 -21q0 -8 -5.5 -14t-14.5 -6h-74v-510v-27z" />
<glyph unicode="&#xd1;" horiz-adv-x="626" d="M2 -10q0 6 23.5 23t23.5 24v1061q0 7 -12 17t-24 19t-11 13q0 9 6.5 14.5t14.5 5.5h43h4h4h45q9 0 14.5 -6.5t5.5 -15.5q-1 -6 -22 -20t-25 -19q15 -132 113 -224.5t231 -99.5v316q0 9 -24.5 27t-24.5 22q0 9 6.5 14.5t14.5 5.5h96q9 0 14.5 -6.5t5.5 -15.5 q0 -4 -23.5 -21t-23.5 -26v-332v-6v-6v-717q0 -7 23.5 -24t23.5 -23q0 -8 -5.5 -14.5t-14.5 -6.5h-96q-9 0 -15 6.5t-6 14.5q0 6 24.5 23t24.5 24v702q-112 6 -205 69t-141 161v-932q0 -7 24 -24t25 -23q0 -8 -5.5 -14.5t-14.5 -6.5h-96q-9 0 -16 6.5t-5 14.5zM145 1307 q0 17 13 29t30 12h150v2q0 9 6 14.5t14 5.5q21 0 21 -20q0 -17 -12 -30t-29 -13h-150h-2q0 -21 -20 -21q-8 0 -14.5 6t-6.5 15z" />
<glyph unicode="&#xd2;" d="M0 184v770q0 88 62.5 150.5t150.5 62.5q89 0 152 -62.5t63 -150.5v-770q0 -89 -63 -152t-152 -63q-88 0 -150.5 63t-62.5 152zM41 184q0 -72 50.5 -123t121.5 -51q72 0 123 51t51 123v770q0 71 -51 121.5t-123 50.5q-71 0 -121.5 -51t-50.5 -121v-770zM178 1335 q-14 15 0 29t29 0l43 -43q6 -6 6 -15.5t-6 -15.5q-4 -4 -14 -4q-11 0 -15 4z" />
<glyph unicode="&#xd3;" d="M0 184v770q0 88 62.5 150.5t150.5 62.5q89 0 152 -62.5t63 -150.5v-770q0 -89 -63 -152t-152 -63q-88 0 -150.5 63t-62.5 152zM41 184q0 -72 50.5 -123t121.5 -51q72 0 123 51t51 123v770q0 71 -51 121.5t-123 50.5q-71 0 -121.5 -51t-50.5 -121v-770zM172 1305.5 q0 9.5 6 15.5l43 43q15 14 29 0t0 -29l-43 -45q-4 -4 -14 -4q-11 0 -15 4q-6 6 -6 15.5z" />
<glyph unicode="&#xd4;" d="M0 184v770q0 88 62.5 150.5t150.5 62.5q89 0 152 -62.5t63 -150.5v-770q0 -89 -63 -152t-152 -63q-88 0 -150.5 63t-62.5 152zM41 184q0 -72 50.5 -123t121.5 -51q72 0 123 51t51 123v770q0 71 -51 121.5t-123 50.5q-71 0 -121.5 -51t-50.5 -121v-770zM117 1305.5 q0 9.5 6 15.5l45 43q14 14 29 0q6 -6 6 -14.5t-6 -14.5l-45 -45q-4 -4 -15 -4q-10 0 -14 4q-6 6 -6 15.5zM225 1349.5q0 8.5 6 14.5q15 14 29 0l45 -43q5 -6 5 -15.5t-5 -15.5q-4 -4 -14 -4q-13 0 -17 4l-43 45q-6 6 -6 14.5z" />
<glyph unicode="&#xd5;" d="M0 184v770q0 88 62.5 150.5t150.5 62.5q89 0 152 -62.5t63 -150.5v-770q0 -89 -63 -152t-152 -63q-88 0 -150.5 63t-62.5 152zM41 184q0 -72 50.5 -123t121.5 -51q72 0 123 51t51 123v770q0 71 -51 121.5t-123 50.5q-71 0 -121.5 -51t-50.5 -121v-770zM96 1307 q0 17 13 29t30 12h150l2 2q0 20 20 20q8 0 14.5 -5.5t6.5 -14.5q0 -17 -13 -30t-30 -13h-150h-2q0 -21 -20 -21q-8 0 -14.5 6t-6.5 15z" />
<glyph unicode="&#xd6;" d="M0 184v770q0 88 62.5 150.5t150.5 62.5q89 0 152 -62.5t63 -150.5v-770q0 -89 -63 -152t-152 -63q-88 0 -150.5 63t-62.5 152zM41 184q0 -72 50.5 -123t121.5 -51q72 0 123 51t51 123v770q0 71 -51 121.5t-123 50.5q-71 0 -121.5 -51t-50.5 -121v-770zM139 1348 q0 9 7 15.5t16 6.5t15.5 -6.5t6.5 -15.5t-6.5 -15t-15.5 -6t-16 6t-7 15zM244 1348q0 9 6.5 15.5t15.5 6.5t16 -6.5t7 -15.5t-7 -15t-16 -6t-15.5 6t-6.5 15z" />
<glyph unicode="&#xd8;" d="M0 184v770q0 88 62.5 150.5t150.5 62.5q93 0 158 -65l16 51q3 7 11 11.5t16 2.5q19 -8 12 -26l-27 -80q29 -50 29 -107v-770q0 -89 -63 -152t-152 -63q-94 0 -156 68l-16 -53q-7 -15 -21 -15q-4 0 -6 2q-7 1 -11 9t-1 16l27 80q-29 53 -29 108zM41 184q0 -27 6 -51 l307 922q-49 71 -141 71q-71 0 -121.5 -51t-50.5 -121v-770zM74 82q52 -72 139 -72q72 0 123 51t51 123v770q0 26 -6 50z" />
<glyph unicode="&#xd9;" horiz-adv-x="630" d="M2 1149q0 7 6.5 12.5t14.5 5.5h96q8 0 14 -6.5t6 -15.5q-1 -4 -25 -20.5t-24 -24.5v-916q0 -72 51 -123t123 -51t123 51t51 123v916q0 7 -24.5 25t-24.5 24q4 18 23 18h94q9 0 15 -6.5t5 -15.5q0 -5 -23.5 -21t-23.5 -24v-916q0 -89 -63 -152t-152 -63t-152 63t-63 152 v916q0 7 -24 25t-23 24zM221 1349.5q0 8.5 6 14.5q15 14 29 0l45 -43q6 -6 6 -15.5t-6 -15.5q-4 -4 -14 -4q-11 0 -15 4l-45 45q-6 6 -6 14.5z" />
<glyph unicode="&#xda;" horiz-adv-x="630" d="M2 1149q0 7 6.5 12.5t14.5 5.5h96q8 0 14 -6.5t6 -15.5q-1 -4 -25 -20.5t-24 -24.5v-916q0 -72 51 -123t123 -51t123 51t51 123v916q0 7 -24.5 25t-24.5 24q4 18 23 18h94q9 0 15 -6.5t5 -15.5q0 -5 -23.5 -21t-23.5 -24v-916q0 -89 -63 -152t-152 -63t-152 63t-63 152 v916q0 7 -24 25t-23 24zM221 1305.5q0 9.5 6 15.5l45 43q14 14 29 0q6 -6 6 -14.5t-6 -14.5l-45 -45q-4 -4 -14 -4q-11 0 -15 4q-6 6 -6 15.5z" />
<glyph unicode="&#xdb;" horiz-adv-x="630" d="M2 1149q0 7 6.5 12.5t14.5 5.5h96q8 0 14 -6.5t6 -15.5q-1 -4 -25 -20.5t-24 -24.5v-916q0 -72 51 -123t123 -51t123 51t51 123v916q0 7 -24.5 25t-24.5 24q4 18 23 18h94q9 0 15 -6.5t5 -15.5q0 -5 -23.5 -21t-23.5 -24v-916q0 -89 -63 -152t-152 -63t-152 63t-63 152 v916q0 7 -24 25t-23 24zM168 1305.5q0 9.5 6 15.5l43 43q6 6 15.5 6t13.5 -6q14 -14 0 -29l-43 -45q-4 -4 -15 -4q-10 0 -14 4q-6 6 -6 15.5zM277 1349.5q0 8.5 6 14.5q4 6 13 6t15 -6l43 -43q6 -6 6 -15.5t-6 -15.5q-4 -4 -14 -4t-14 4l-43 45q-6 6 -6 14.5z" />
<glyph unicode="&#xdc;" horiz-adv-x="630" d="M2 1149q0 7 6.5 12.5t14.5 5.5h96q8 0 14 -6.5t6 -15.5q-1 -4 -25 -20.5t-24 -24.5v-916q0 -72 51 -123t123 -51t123 51t51 123v916q0 7 -24.5 25t-24.5 24q4 18 23 18h94q9 0 15 -6.5t5 -15.5q0 -5 -23.5 -21t-23.5 -24v-916q0 -89 -63 -152t-152 -63t-152 63t-63 152 v916q0 7 -24 25t-23 24zM190 1348q0 9 6 15.5t15 6.5t15.5 -6.5t6.5 -15.5t-6.5 -15t-15.5 -6t-15 6t-6 15zM295 1348q0 9 6.5 15.5t15.5 6.5t15 -6.5t6 -15.5t-6 -15t-15 -6t-15.5 6t-6.5 15z" />
<glyph unicode="&#xdd;" horiz-adv-x="524" d="M2 1145q-3 9 2 15.5t14 6.5h95q19 0 26 -20q2 -4 -18.5 -22t-18.5 -27l109 -445l108 445q2 9 -18 27t-18 22q7 20 26 20h94q9 0 14.5 -6.5t2.5 -15.5q-2 -4 -30 -21t-30 -26l-129 -531v-530q0 -7 24 -24t24 -23q1 -8 -5.5 -14.5t-15.5 -6.5h-96q-8 0 -14.5 6.5t-6.5 14.5 q1 6 25 23t24 24v530l-129 531q-2 9 -29.5 26t-29.5 21zM168 1305.5q0 9.5 6 15.5l45 43q15 14 29 0t0 -29l-45 -45q-4 -4 -15 -4q-10 0 -14 4q-6 6 -6 15.5z" />
<glyph unicode="&#xde;" horiz-adv-x="579" d="M2 -10q0 6 23.5 23t23.5 24v317q-2 10 -2 33v383q0 23 2 33v295q0 7 -12 17t-24 19t-11 13q0 9 6.5 14.5t14.5 5.5h96q9 0 14.5 -6.5t5.5 -15.5q-1 -4 -25 -21t-24 -26v-199q30 40 75 63t97 23q89 0 152 -63t63 -152v-383q0 -89 -63 -152t-152 -63q-52 0 -97 22.5 t-75 61.5v-219q0 -7 24 -24t25 -23q0 -8 -5.5 -14.5t-14.5 -6.5h-96q-9 0 -16 6.5t-5 14.5zM90 356q11 -62 59.5 -102.5t112.5 -40.5q72 0 123 51t51 123v383q0 72 -51 123t-123 51q-64 0 -112.5 -41.5t-59.5 -103.5v-443z" />
<glyph unicode="&#xdf;" horiz-adv-x="579" d="M2 -8q0 5 23.5 21.5t23.5 23.5v928v4q6 85 70 143t151 55q83 -3 142.5 -62t62.5 -142q3 -65 -30.5 -119.5t-90.5 -81.5q55 -27 89 -79.5t34 -115.5v-383q0 -83 -55 -144t-135 -69q-9 -1 -17 5.5t-8 15.5q0 16 19 20q66 6 110.5 55.5t44.5 116.5v383q0 69 -47 119t-115 55 h-12q-8 0 -14 6t-6 15t6 14.5t14 5.5h12q69 5 116 57t44 124q-1 66 -48.5 113t-113.5 50q-74 3 -128 -48t-54 -124v-917q0 -8 24 -24.5t25 -20.5q0 -9 -5.5 -16t-14.5 -7h-96q-9 0 -15.5 7t-5.5 16z" />
<glyph unicode="&#xe0;" horiz-adv-x="579" d="M0 0q0 4 2 8v473q0 89 63 152t152 63q51 0 96 -23t74 -63v160q0 72 -51 123t-123 51q-71 0 -121.5 -51t-50.5 -123q0 -9 -6.5 -14.5t-14.5 -5.5q-20 0 -20 20q0 89 62.5 152t150.5 63q89 0 152 -63t63 -152v-723q0 -8 24 -24.5t25 -20.5q0 -9 -6 -15.5t-14 -6.5h-97 q-9 0 -15 6.5t-5 15.5q0 4 23.5 21t23.5 24v162q-50 -103 -149 -166t-218 -63q-8 0 -14 5.5t-6 14.5zM43 20q143 9 243.5 115t100.5 250v6v121v4q-12 60 -60.5 99.5t-109.5 39.5q-72 0 -123 -51t-51 -123v-461zM195 1159q0 9 6 15t15 6t15 -6l43 -46q14 -14 0 -28 q-6 -6 -14 -6t-14 6l-45 45q-6 5 -6 14z" />
<glyph unicode="&#xe1;" horiz-adv-x="579" d="M0 0q0 4 2 8v473q0 89 63 152t152 63q51 0 96 -23t74 -63v160q0 72 -51 123t-123 51q-71 0 -121.5 -51t-50.5 -123q0 -9 -6.5 -14.5t-14.5 -5.5q-20 0 -20 20q0 89 62.5 152t150.5 63q89 0 152 -63t63 -152v-723q0 -8 24 -24.5t25 -20.5q0 -9 -6 -15.5t-14 -6.5h-97 q-9 0 -15 6.5t-5 15.5q0 4 23.5 21t23.5 24v162q-50 -103 -149 -166t-218 -63q-8 0 -14 5.5t-6 14.5zM43 20q143 9 243.5 115t100.5 250v6v121v4q-12 60 -60.5 99.5t-109.5 39.5q-72 0 -123 -51t-51 -123v-461zM201 1100q-14 14 0 28l45 46q14 14 28 0q6 -6 6 -15t-6 -14 l-43 -45q-6 -6 -16 -6q-8 0 -14 6z" />
<glyph unicode="&#xe2;" horiz-adv-x="579" d="M0 0q0 4 2 8v473q0 89 63 152t152 63q51 0 96 -23t74 -63v160q0 72 -51 123t-123 51q-71 0 -121.5 -51t-50.5 -123q0 -9 -6.5 -14.5t-14.5 -5.5q-20 0 -20 20q0 89 62.5 152t150.5 63q89 0 152 -63t63 -152v-723q0 -8 24 -24.5t25 -20.5q0 -9 -6 -15.5t-14 -6.5h-97 q-9 0 -15 6.5t-5 15.5q0 4 23.5 21t23.5 24v162q-50 -103 -149 -166t-218 -63q-8 0 -14 5.5t-6 14.5zM43 20q143 9 243.5 115t100.5 250v6v121v4q-12 60 -60.5 99.5t-109.5 39.5q-72 0 -123 -51t-51 -123v-461zM147 1100q-14 14 0 28l46 46q4 6 13 6t15 -6t6 -15t-6 -14 l-45 -45q-6 -6 -14 -6q-9 0 -15 6zM250 1159q0 9 6 15q14 14 29 0l43 -46q14 -14 0 -28q-6 -6 -15 -6q-8 0 -14 6l-43 45q-6 5 -6 14z" />
<glyph unicode="&#xe3;" horiz-adv-x="579" d="M0 0q0 4 2 8v473q0 89 63 152t152 63q51 0 96 -23t74 -63v160q0 72 -51 123t-123 51q-71 0 -121.5 -51t-50.5 -123q0 -9 -6.5 -14.5t-14.5 -5.5q-20 0 -20 20q0 89 62.5 152t150.5 63q89 0 152 -63t63 -152v-723q0 -8 24 -24.5t25 -20.5q0 -9 -6 -15.5t-14 -6.5h-97 q-9 0 -15 6.5t-5 15.5q0 4 23.5 21t23.5 24v162q-50 -103 -149 -166t-218 -63q-8 0 -14 5.5t-6 14.5zM43 20q143 9 243.5 115t100.5 250v6v121v4q-12 60 -60.5 99.5t-109.5 39.5q-72 0 -123 -51t-51 -123v-461zM121 1114q0 19 12 31t31 12h149v2q0 7 6.5 14t14.5 7 q9 0 14.5 -6.5t5.5 -14.5q0 -19 -12 -31t-29 -12h-149q-2 0 -2 -2q0 -8 -6 -14t-15 -6q-7 0 -13.5 6t-6.5 14z" />
<glyph unicode="&#xe4;" horiz-adv-x="579" d="M0 0q0 4 2 8v473q0 89 63 152t152 63q51 0 96 -23t74 -63v160q0 72 -51 123t-123 51q-71 0 -121.5 -51t-50.5 -123q0 -9 -6.5 -14.5t-14.5 -5.5q-20 0 -20 20q0 89 62.5 152t150.5 63q89 0 152 -63t63 -152v-723q0 -8 24 -24.5t25 -20.5q0 -9 -6 -15.5t-14 -6.5h-97 q-9 0 -15 6.5t-5 15.5q0 4 23.5 21t23.5 24v162q-50 -103 -149 -166t-218 -63q-8 0 -14 5.5t-6 14.5zM43 20q143 9 243.5 115t100.5 250v6v121v4q-12 60 -60.5 99.5t-109.5 39.5q-72 0 -123 -51t-51 -123v-461zM164 1157q0 9 6.5 16t15.5 7t15 -7t6 -16t-6 -15.5t-15 -6.5 t-15.5 6.5t-6.5 15.5zM268 1157q0 9 7 16t16 7t15.5 -7t6.5 -16t-6.5 -15.5t-15.5 -6.5t-16 6.5t-7 15.5z" />
<glyph unicode="&#xe5;" horiz-adv-x="579" d="M0 0q0 4 2 8v473q0 89 63 152t152 63q51 0 96 -23t74 -63v160q0 72 -51 123t-123 51q-71 0 -121.5 -51t-50.5 -123q0 -9 -6.5 -14.5t-14.5 -5.5q-20 0 -20 20q0 89 62.5 152t150.5 63q89 0 152 -63t63 -152v-723q0 -8 24 -24.5t25 -20.5q0 -9 -6 -15.5t-14 -6.5h-97 q-9 0 -15 6.5t-5 15.5q0 4 23.5 21t23.5 24v162q-50 -103 -149 -166t-218 -63q-8 0 -14 5.5t-6 14.5zM43 20q143 9 243.5 115t100.5 250v6v121v4q-12 60 -60.5 99.5t-109.5 39.5q-72 0 -123 -51t-51 -123v-461zM184 1124q0 23 16 39.5t38 16.5q23 0 38 -16t15 -40 q0 -22 -15 -37.5t-38 -15.5q-22 0 -38 15.5t-16 37.5zM225 1124q0 -4 4 -8t9 -4q12 0 12 12q0 15 -12 15q-5 0 -9 -4.5t-4 -10.5z" />
<glyph unicode="&#xe6;" horiz-adv-x="919" d="M0 0q0 4 2 8v473q0 89 63 152t152 63q51 0 96 -23t74 -63v64v78v18q0 72 -51 123t-123 51q-71 0 -121.5 -51t-50.5 -123q0 -9 -6.5 -14.5t-14.5 -5.5q-20 0 -20 20q0 89 62.5 152t150.5 63q67 0 120.5 -36t78.5 -95q28 59 83.5 95t122.5 36h177q15 0 18 -12q2 -2 2 -8 q0 -164 -112.5 -282t-274.5 -126v-342v-20q0 -72 52 -124t124 -51q70 0 121 52.5t51 124.5v92q0 8 6 14t13 6q9 1 15.5 -5t6.5 -15v-94q0 -89 -64 -152t-153 -63t-151 63.5t-62 153.5v12q-50 -103 -149 -166t-218 -63q-8 0 -14 5.5t-6 14.5zM43 20q143 9 243.5 115 t100.5 250v6v39v82v4q-12 60 -60.5 99.5t-109.5 39.5q-72 0 -123 -51t-51 -123v-461zM428 598q140 8 239 107t107 239h-135q-86 -2 -147 -61.5t-64 -145.5v-139z" />
<glyph unicode="&#xe7;" horiz-adv-x="583" d="M2 963q-1 9 5.5 15.5t15.5 6.5h45h2h196q89 0 152 -63t63 -152v-96q0 -8 -6.5 -14.5t-13.5 -6.5q-9 0 -15 6.5t-6 14.5v96q0 72 -51 123t-123 51h-176v-213v-184v-352q0 -72 51 -123.5t123 -51.5t123 51.5t51 123.5v94q0 20 21 20q8 0 14 -5.5t6 -14.5v-94 q0 -85 -56.5 -146t-139.5 -69v-56h28q28 0 48 -20t20 -49q0 -28 -20 -48t-48 -20h-49q-8 0 -14 5.5t-6 14.5q0 8 6.5 14.5t13.5 6.5h49q11 0 19 8t8 19q0 12 -8 20t-19 8h-49q-8 0 -14 6t-6 15v76q-81 9 -137 70t-56 145v190v199v331q0 9 -23.5 26.5t-23.5 21.5z" />
<glyph unicode="&#xe8;" horiz-adv-x="581" d="M2 963q-1 9 5.5 15.5t15.5 6.5h67v-2l367 2q11 0 14 -6q6 -6 6 -14q0 -163 -113 -281.5t-274 -126.5v-137v-225q0 -72 51 -123.5t123 -51.5t123 51.5t51 123.5v94q0 20 21 20q8 0 14 -5.5t6 -14.5v-94q0 -89 -63 -152t-152 -63t-152 63t-63 152v190v45v488q0 8 -23.5 24 t-23.5 21zM90 598q139 8 238.5 107t107.5 239l-346 -2v-211v-133zM197 1159q0 9 6 15t15 6t15 -6l43 -46q14 -14 0 -28q-6 -6 -14 -6t-14 6l-45 45q-6 5 -6 14z" />
<glyph unicode="&#xe9;" horiz-adv-x="581" d="M2 963q-1 9 5.5 15.5t15.5 6.5h67v-2l367 2q11 0 14 -6q6 -6 6 -14q0 -163 -113 -281.5t-274 -126.5v-137v-225q0 -72 51 -123.5t123 -51.5t123 51.5t51 123.5v94q0 20 21 20q8 0 14 -5.5t6 -14.5v-94q0 -89 -63 -152t-152 -63t-152 63t-63 152v190v45v488q0 8 -23.5 24 t-23.5 21zM90 598q139 8 238.5 107t107.5 239l-346 -2v-211v-133zM203 1100q-14 14 0 28l45 46q14 14 28 0q6 -6 6 -15t-6 -14l-43 -45q-6 -6 -16 -6q-8 0 -14 6z" />
<glyph unicode="&#xea;" horiz-adv-x="581" d="M2 963q-1 9 5.5 15.5t15.5 6.5h67v-2l367 2q11 0 14 -6q6 -6 6 -14q0 -163 -113 -281.5t-274 -126.5v-137v-225q0 -72 51 -123.5t123 -51.5t123 51.5t51 123.5v94q0 20 21 20q8 0 14 -5.5t6 -14.5v-94q0 -89 -63 -152t-152 -63t-152 63t-63 152v190v45v488q0 8 -23.5 24 t-23.5 21zM90 598q139 8 238.5 107t107.5 239l-346 -2v-211v-133zM150 1100q-14 14 0 28l45 46q5 6 13.5 6t14.5 -6t6 -15t-6 -14l-45 -45q-6 -6 -14 -6t-14 6zM252 1159q0 9 6 15q14 14 29 0l43 -46q14 -14 0 -28q-6 -6 -15 -6q-8 0 -14 6l-43 45q-6 5 -6 14z" />
<glyph unicode="&#xeb;" horiz-adv-x="581" d="M2 963q-1 9 5.5 15.5t15.5 6.5h67v-2l367 2q11 0 14 -6q6 -6 6 -14q0 -163 -113 -281.5t-274 -126.5v-137v-225q0 -72 51 -123.5t123 -51.5t123 51.5t51 123.5v94q0 20 21 20q8 0 14 -5.5t6 -14.5v-94q0 -89 -63 -152t-152 -63t-152 63t-63 152v190v45v488q0 8 -23.5 24 t-23.5 21zM90 598q139 8 238.5 107t107.5 239l-346 -2v-211v-133zM166 1157q0 9 6.5 16t15.5 7t15 -7t6 -16t-6 -15.5t-15 -6.5t-15.5 6.5t-6.5 15.5zM270 1157q0 9 7 16t16 7t15.5 -7t6.5 -16t-6.5 -15.5t-15.5 -6.5t-16 6.5t-7 15.5z" />
<glyph unicode="&#xec;" horiz-adv-x="241" d="M0 2q1 4 25 20.5t24 24.5v868q0 9 -24.5 27t-24.5 23q3 20 23 20h67v-67v-3v-868q0 -7 23.5 -24t23.5 -21q1 -9 -5 -15.5t-15 -6.5h-97q-9 0 -14.5 6.5t-5.5 15.5zM27 1159q0 9 6 15q14 14 28 0l45 -46q10 -14 0 -28q-6 -6 -14 -6q-10 0 -16 6l-43 45q-6 5 -6 14z" />
<glyph unicode="&#xed;" horiz-adv-x="241" d="M0 2q1 4 25 20.5t24 24.5v868q0 9 -24.5 27t-24.5 23q3 20 23 20h67v-67v-3v-868q0 -7 23.5 -24t23.5 -21q1 -9 -5 -15.5t-15 -6.5h-97q-9 0 -14.5 6.5t-5.5 15.5zM33 1100q-14 14 0 28l43 46q6 6 15 6t15 -6q4 -6 4 -15t-4 -14l-45 -45q-6 -6 -14 -6t-14 6z" />
<glyph unicode="&#xee;" horiz-adv-x="294" d="M6 1100q-14 14 0 28l43 46q15 14 29 0q6 -6 6 -15t-6 -14l-43 -45q-6 -6 -15 -6q-8 0 -14 6zM27 2q1 4 25 20.5t24 24.5v868q0 9 -24.5 27t-24.5 23q3 20 22 20h68v-67v-3v-868q0 -7 23.5 -24t23.5 -21q1 -9 -5.5 -15.5t-15.5 -6.5h-96q-9 0 -14.5 6.5t-5.5 15.5z M107 1159q0 9 6 15t14.5 6t13.5 -6l45 -46q14 -14 0 -28q-6 -6 -14 -6t-14 6l-45 45q-6 5 -6 14z" />
<glyph unicode="&#xef;" horiz-adv-x="251" d="M0 1157q0 9 7 16t16 7t15.5 -7t6.5 -16t-6.5 -15.5t-15.5 -6.5t-16 6.5t-7 15.5zM6 2q1 4 25 20.5t24 24.5v868q0 9 -24.5 27t-24.5 23q3 20 23 20h67v-67v-3v-868q0 -7 23.5 -24t23.5 -21q1 -9 -5 -15.5t-15 -6.5h-96q-9 0 -15 6.5t-6 15.5zM106 1157q0 9 6 16t15 7 t16 -7t7 -16t-7 -15.5t-16 -6.5t-15 6.5t-6 15.5z" />
<glyph unicode="&#xf0;" d="M0 193v288q0 89 62.5 152t150.5 63q29 0 53 -6l-149 148l-82 -82q-8 -4 -15 -4q-6 0 -14 4q-6 6 -6 15t6 15l82 82l-82 82q-14 14 0 29q6 6 14.5 6t14.5 -6l82 -82l82 82q6 6 14.5 6t13.5 -6q6 -6 6 -14.5t-6 -14.5l-82 -82l207 -206q53 -53 68 -119q8 -27 8 -62v-288 q0 -88 -63 -150.5t-152 -62.5q-88 0 -150.5 62.5t-62.5 150.5zM41 193q0 -71 51 -122t121 -51q72 0 123 51t51 122v184q0 2 -1 4.5t-1 3.5v96q0 19 -4 51q-18 54 -63.5 88.5t-104.5 34.5q-71 0 -121.5 -51t-50.5 -123v-288z" />
<glyph unicode="&#xf1;" horiz-adv-x="628" d="M2 2q0 4 23.5 21t23.5 24v868q0 8 -24 26t-23 24q0 9 6.5 14.5t14.5 5.5h67v-67v-3v-16q69 86 172 86q89 0 152 -63t63 -152v-723q0 -7 23.5 -24t23.5 -21q1 -9 -5 -15.5t-15 -6.5h-47h-49q-8 0 -14.5 6.5t-6.5 15.5q1 4 25 20.5t24 24.5v723q0 72 -51 123t-123 51 q-61 0 -109.5 -39.5t-60.5 -99.5q0 -4 -2 -6v-752q0 -8 24 -24.5t25 -20.5q0 -9 -5.5 -15.5t-14.5 -6.5h-96q-9 0 -15.5 6.5t-5.5 15.5zM145 1114q0 18 12.5 30.5t30.5 12.5h150q2 0 2 2q0 8 5.5 14.5t14.5 6.5q8 0 14.5 -7t6.5 -14q0 -18 -12.5 -30.5t-30.5 -12.5h-150 q-2 0 -2 -2q0 -8 -5.5 -14t-14.5 -6q-8 0 -14.5 6.5t-6.5 13.5z" />
<glyph unicode="&#xf2;" d="M0 193v577q0 89 62.5 152t150.5 63q89 0 152 -63t63 -152v-577q0 -89 -63 -152.5t-152 -63.5q-88 0 -150.5 63.5t-62.5 152.5zM41 193q0 -72 50.5 -123.5t121.5 -51.5q72 0 123 51.5t51 123.5v577q0 72 -51 123t-123 51q-71 0 -121.5 -51t-50.5 -123v-577zM172 1159 q0 9 6 15q14 14 29 0l43 -46q14 -14 0 -28q-6 -6 -14 -6q-9 0 -15 6l-43 45q-6 5 -6 14z" />
<glyph unicode="&#xf3;" d="M0 193v577q0 89 62.5 152t150.5 63q89 0 152 -63t63 -152v-577q0 -89 -63 -152.5t-152 -63.5q-88 0 -150.5 63.5t-62.5 152.5zM41 193q0 -72 50.5 -123.5t121.5 -51.5q72 0 123 51.5t51 123.5v577q0 72 -51 123t-123 51q-71 0 -121.5 -51t-50.5 -123v-577zM178 1100 q-14 14 0 28l43 46q15 14 29 0q6 -6 6 -15t-6 -14l-43 -45q-6 -6 -14 -6q-9 0 -15 6z" />
<glyph unicode="&#xf4;" d="M0 193v577q0 89 62.5 152t150.5 63q89 0 152 -63t63 -152v-577q0 -89 -63 -152.5t-152 -63.5q-88 0 -150.5 63.5t-62.5 152.5zM41 193q0 -72 50.5 -123.5t121.5 -51.5q72 0 123 51.5t51 123.5v577q0 72 -51 123t-123 51q-71 0 -121.5 -51t-50.5 -123v-577zM123 1100 q-14 14 0 28l45 46q14 14 29 0q6 -6 6 -15t-6 -14l-45 -45q-6 -6 -15 -6q-8 0 -14 6zM225 1159q0 9 6 15q15 14 29 0l45 -46q10 -14 0 -28q-6 -6 -14 -6q-11 0 -17 6l-43 45q-6 5 -6 14z" />
<glyph unicode="&#xf5;" d="M0 193v577q0 89 62.5 152t150.5 63q89 0 152 -63t63 -152v-577q0 -89 -63 -152.5t-152 -63.5q-88 0 -150.5 63.5t-62.5 152.5zM41 193q0 -72 50.5 -123.5t121.5 -51.5q72 0 123 51.5t51 123.5v577q0 72 -51 123t-123 51q-71 0 -121.5 -51t-50.5 -123v-577zM96 1114 q0 18 12.5 30.5t30.5 12.5h150q2 0 2 2q0 8 5.5 14.5t14.5 6.5q7 0 14 -7t7 -14q0 -18 -12.5 -30.5t-30.5 -12.5h-150q-2 0 -2 -2q0 -8 -5.5 -14t-14.5 -6q-8 0 -14.5 6.5t-6.5 13.5z" />
<glyph unicode="&#xf6;" d="M0 193v577q0 89 62.5 152t150.5 63q89 0 152 -63t63 -152v-577q0 -89 -63 -152.5t-152 -63.5q-88 0 -150.5 63.5t-62.5 152.5zM41 193q0 -72 50.5 -123.5t121.5 -51.5q72 0 123 51.5t51 123.5v577q0 72 -51 123t-123 51q-71 0 -121.5 -51t-50.5 -123v-577zM139 1157 q0 9 7 16t16 7t15.5 -7t6.5 -16t-6.5 -15.5t-15.5 -6.5t-16 6.5t-7 15.5zM244 1157q0 9 6.5 16t15.5 7t16 -7t7 -16t-7 -15.5t-16 -6.5t-15.5 6.5t-6.5 15.5z" />
<glyph unicode="&#xf8;" d="M0 193v577q0 89 62.5 152t150.5 63q92 0 154 -65l20 51q3 8 11.5 11.5t15.5 0.5q8 -3 11.5 -11.5t0.5 -15.5l-29 -73q31 -57 31 -113v-577q0 -89 -63 -152.5t-152 -63.5q-86 0 -152 66l-20 -51q-6 -12 -21 -12h-6q-20 7 -12 26l29 74q-31 51 -31 113zM41 193 q0 -32 10 -62l299 746q-54 67 -137 67q-71 0 -121.5 -51t-50.5 -123v-577zM78 86q51 -68 135 -68q72 0 123 51.5t51 123.5v577q0 31 -10 61z" />
<glyph unicode="&#xf9;" horiz-adv-x="628" d="M2 963q-1 9 5.5 15.5t15.5 6.5h47h2h47q9 0 14.5 -6.5t5.5 -15.5q-1 -4 -25 -21.5t-24 -26.5v-720q0 -72 51 -123.5t123 -51.5q61 0 109.5 40t60.5 100l2 4v751q0 9 -24 26.5t-25 21.5q0 9 6.5 15.5t14.5 6.5h96q9 0 15 -6.5t5 -15.5q0 -4 -23.5 -21.5t-23.5 -26.5v-868 q0 -7 24 -25t23 -24q0 -7 -6 -12.5t-14 -5.5h-68v65v2v19q-30 -40 -75 -63t-97 -23q-89 0 -152 63t-63 152v720q0 9 -23.5 26.5t-23.5 21.5zM221 1159q0 9 6 15q15 14 29 0l43 -46q14 -14 0 -28q-6 -6 -14 -6q-9 0 -15 6l-43 45q-6 5 -6 14z" />
<glyph unicode="&#xfa;" horiz-adv-x="628" d="M2 963q-1 9 5.5 15.5t15.5 6.5h47h2h47q9 0 14.5 -6.5t5.5 -15.5q-1 -4 -25 -21.5t-24 -26.5v-720q0 -72 51 -123.5t123 -51.5q61 0 109.5 40t60.5 100l2 4v751q0 9 -24 26.5t-25 21.5q0 9 6.5 15.5t14.5 6.5h96q9 0 15 -6.5t5 -15.5q0 -4 -23.5 -21.5t-23.5 -26.5v-868 q0 -7 24 -25t23 -24q0 -7 -6 -12.5t-14 -5.5h-68v65v2v19q-30 -40 -75 -63t-97 -23q-89 0 -152 63t-63 152v720q0 9 -23.5 26.5t-23.5 21.5zM227 1100q-14 14 0 28l43 46q14 14 29 0q6 -6 6 -15t-6 -14l-43 -45q-6 -6 -14 -6q-9 0 -15 6z" />
<glyph unicode="&#xfb;" horiz-adv-x="628" d="M2 963q-1 9 5.5 15.5t15.5 6.5h47h2h47q9 0 14.5 -6.5t5.5 -15.5q-1 -4 -25 -21.5t-24 -26.5v-720q0 -72 51 -123.5t123 -51.5q61 0 109.5 40t60.5 100l2 4v751q0 9 -24 26.5t-25 21.5q0 9 6.5 15.5t14.5 6.5h96q9 0 15 -6.5t5 -15.5q0 -4 -23.5 -21.5t-23.5 -26.5v-868 q0 -7 24 -25t23 -24q0 -7 -6 -12.5t-14 -5.5h-68v65v2v19q-30 -40 -75 -63t-97 -23q-89 0 -152 63t-63 152v720q0 9 -23.5 26.5t-23.5 21.5zM172 1100q-11 14 0 28l45 46q15 14 29 0q6 -6 6 -15t-6 -14l-43 -45q-6 -6 -17 -6q-8 0 -14 6zM275 1159q0 9 6 15q14 14 28 0 l45 -46q14 -14 0 -28q-6 -6 -14 -6t-14 6l-45 45q-6 5 -6 14z" />
<glyph unicode="&#xfc;" horiz-adv-x="628" d="M2 963q-1 9 5.5 15.5t15.5 6.5h47h2h47q9 0 14.5 -6.5t5.5 -15.5q-1 -4 -25 -21.5t-24 -26.5v-720q0 -72 51 -123.5t123 -51.5q61 0 109.5 40t60.5 100l2 4v751q0 9 -24 26.5t-25 21.5q0 9 6.5 15.5t14.5 6.5h96q9 0 15 -6.5t5 -15.5q0 -4 -23.5 -21.5t-23.5 -26.5v-868 q0 -7 24 -25t23 -24q0 -7 -6 -12.5t-14 -5.5h-68v65v2v19q-30 -40 -75 -63t-97 -23q-89 0 -152 63t-63 152v720q0 9 -23.5 26.5t-23.5 21.5zM188 1157q0 9 7 16t16 7t15.5 -7t6.5 -16t-6.5 -15.5t-15.5 -6.5t-16 6.5t-7 15.5zM293 1157q0 9 6.5 16t15.5 7t16 -7t7 -16 t-7 -15.5t-16 -6.5t-15.5 6.5t-6.5 15.5z" />
<glyph unicode="&#xfd;" horiz-adv-x="628" d="M2 963q-1 9 5.5 15.5t15.5 6.5h47h2h47q9 0 14.5 -6.5t5.5 -15.5q-1 -4 -25 -21.5t-24 -26.5v-239q0 -72 51 -123t123 -51q61 0 109.5 39.5t60.5 99.5q0 1 1 3t1 3v268q0 9 -24 26.5t-25 21.5q0 9 6.5 15.5t14.5 6.5h96q9 0 15 -6.5t5 -15.5q0 -4 -23.5 -21.5 t-23.5 -26.5v-720q0 -89 -63 -152t-152 -63t-152 63t-63 152v94q0 9 6.5 14.5t14.5 5.5q20 0 20 -20v-94q0 -72 51 -123.5t123 -51.5t123 51.5t51 123.5v352q-30 -40 -75 -63t-97 -23q-89 0 -152 63t-63 152v239q0 9 -23.5 26.5t-23.5 21.5zM227 1100q-14 14 0 28l43 46 q14 14 29 0q6 -6 6 -15t-6 -14l-43 -45q-6 -6 -14 -6q-9 0 -15 6z" />
<glyph unicode="&#xfe;" horiz-adv-x="579" d="M2 -10q0 6 23.5 23t23.5 24v317v23v203v22v316q0 7 -24 25t-23 24q0 7 6.5 12.5t14.5 5.5h96q9 0 14.5 -6.5t5.5 -15.5q-1 -4 -25 -20.5t-24 -24.5v-211q30 41 75 64.5t97 23.5q89 0 152 -63t63 -152v-203q0 -89 -63 -152t-152 -63q-52 0 -97 23.5t-75 64.5v-213 q0 -7 24 -24t25 -23q0 -8 -5.5 -14.5t-14.5 -6.5h-96q-9 0 -16 6.5t-5 14.5zM90 356q8 -65 57 -109t115 -44q72 0 123 51t51 123v203q0 72 -51 123t-123 51q-66 0 -115 -44.5t-57 -109.5v-244z" />
<glyph unicode="&#xff;" horiz-adv-x="628" d="M2 963q-1 9 5.5 15.5t15.5 6.5h47h2h47q9 0 14.5 -6.5t5.5 -15.5q-1 -4 -25 -21.5t-24 -26.5v-239q0 -72 51 -123t123 -51q61 0 109.5 39.5t60.5 99.5q0 1 1 3t1 3v268q0 9 -24 26.5t-25 21.5q0 9 6.5 15.5t14.5 6.5h96q9 0 15 -6.5t5 -15.5q0 -4 -23.5 -21.5 t-23.5 -26.5v-720q0 -89 -63 -152t-152 -63t-152 63t-63 152v94q0 9 6.5 14.5t14.5 5.5q20 0 20 -20v-94q0 -72 51 -123.5t123 -51.5t123 51.5t51 123.5v352q-30 -40 -75 -63t-97 -23q-89 0 -152 63t-63 152v239q0 9 -23.5 26.5t-23.5 21.5zM188 1157q0 9 7 16t16 7t15.5 -7 t6.5 -16t-6.5 -15.5t-15.5 -6.5t-16 6.5t-7 15.5zM293 1157q0 9 6.5 16t15.5 7t16 -7t7 -16t-7 -15.5t-16 -6.5t-15.5 6.5t-6.5 15.5z" />
<glyph unicode="&#x152;" horiz-adv-x="745" d="M0 184v768q0 89 62.5 152t150.5 63h72h336q9 0 14.5 -6t5.5 -14q0 -21 -20 -21h-338q-27 -22 -27 -28v-27q162 -9 274.5 -127t112.5 -280q0 -8 -6.5 -14.5t-13.5 -6.5q-9 0 -15 6.5t-6 14.5q0 146 -100.5 251.5t-245.5 114.5v-993q0 -9 27 -27h338q9 0 14.5 -6t5.5 -14 q0 -21 -20 -21h-336h-72q-88 0 -150.5 63t-62.5 152zM41 184q0 -72 50.5 -123t121.5 -51v1116q-71 0 -121.5 -51t-50.5 -123v-768z" />
<glyph unicode="&#x153;" horiz-adv-x="919" d="M0 193v577q0 89 62.5 152t150.5 63q68 0 122 -38t79 -99q31 62 89.5 99.5t129.5 37.5h162q15 0 18 -12q2 -2 2 -8q0 -162 -112.5 -280.5t-274.5 -127.5v-364v-7q3 -69 54.5 -117.5t121.5 -48.5t121 52.5t51 124.5v92q0 8 6 14t13 6q9 1 15.5 -5t6.5 -15v-94 q0 -89 -64 -152t-153 -63q-62 0 -113.5 33.5t-78.5 88.5q-25 -56 -78 -90.5t-117 -34.5q-88 0 -150.5 63.5t-62.5 152.5zM41 193q0 -72 50.5 -123.5t121.5 -51.5t122 50t52 120v9v188v45v209v100v31q0 72 -51 123t-123 51q-71 0 -121.5 -51t-50.5 -123v-577zM428 598 q140 8 239 107t107 239h-135q-85 -1 -145.5 -59.5t-65.5 -141.5v-145z" />
<glyph unicode="&#x178;" horiz-adv-x="524" d="M2 1145q-3 9 2 15.5t14 6.5h95q19 0 26 -20q2 -4 -18.5 -22t-18.5 -27l109 -445l108 445q2 9 -18 27t-18 22q7 20 26 20h94q9 0 14.5 -6.5t2.5 -15.5q-2 -4 -30 -21t-30 -26l-129 -531v-530q0 -7 24 -24t24 -23q1 -8 -5.5 -14.5t-15.5 -6.5h-96q-8 0 -14.5 6.5t-6.5 14.5 q1 6 25 23t24 24v530l-129 531q-2 9 -29.5 26t-29.5 21zM137 1348q0 9 6 15.5t15 6.5t15.5 -6.5t6.5 -15.5t-6.5 -15t-15.5 -6t-15 6t-6 15zM242 1348q0 9 6.5 15.5t15.5 6.5q8 0 14.5 -6.5t6.5 -15.5t-6.5 -15t-14.5 -6q-9 0 -15.5 6t-6.5 15z" />
<glyph unicode="&#x2dc;" horiz-adv-x="423" d="M96 1307q0 17 13 29t30 12h150l2 2q0 20 20 20q8 0 14.5 -5.5t6.5 -14.5q0 -17 -13 -30t-30 -13h-150h-2q0 -21 -20 -21q-8 0 -14.5 6t-6.5 15z" />
<glyph unicode="&#x2000;" horiz-adv-x="685" />
<glyph unicode="&#x2001;" horiz-adv-x="1371" />
<glyph unicode="&#x2002;" horiz-adv-x="685" />
<glyph unicode="&#x2003;" horiz-adv-x="1371" />
<glyph unicode="&#x2004;" horiz-adv-x="457" />
<glyph unicode="&#x2005;" horiz-adv-x="342" />
<glyph unicode="&#x2006;" horiz-adv-x="228" />
<glyph unicode="&#x2007;" horiz-adv-x="228" />
<glyph unicode="&#x2008;" horiz-adv-x="171" />
<glyph unicode="&#x2009;" horiz-adv-x="274" />
<glyph unicode="&#x200a;" horiz-adv-x="76" />
<glyph unicode="&#x2010;" d="M0 481q0 21 20 21h388q20 0 20 -21q0 -8 -5.5 -14t-14.5 -6h-388q-9 0 -14.5 6t-5.5 14z" />
<glyph unicode="&#x2011;" d="M0 481q0 21 20 21h388q20 0 20 -21q0 -8 -5.5 -14t-14.5 -6h-388q-9 0 -14.5 6t-5.5 14z" />
<glyph unicode="&#x2012;" d="M0 481q0 21 20 21h388q20 0 20 -21q0 -8 -5.5 -14t-14.5 -6h-388q-9 0 -14.5 6t-5.5 14z" />
<glyph unicode="&#x2013;" horiz-adv-x="1126" d="M0 481q0 21 48 21h928q48 0 48 -21q0 -8 -13 -14t-35 -6h-928q-22 0 -35 6t-13 14z" />
<glyph unicode="&#x2014;" horiz-adv-x="2150" d="M0 481q0 21 96 21h1856q96 0 96 -21q0 -8 -26.5 -14t-69.5 -6h-1856q-43 0 -69.5 6t-26.5 14z" />
<glyph unicode="&#x202f;" horiz-adv-x="274" />
<glyph unicode="&#x205f;" horiz-adv-x="342" />
<glyph unicode="&#x20ac;" horiz-adv-x="624" d="M0 461q0 20 20 20h74v172h-74q-9 0 -14.5 6.5t-5.5 14.5q0 20 20 20h74v162q0 89 62.5 152t150.5 63q89 0 152 -63t63 -152q0 -8 -5.5 -14t-14.5 -6q-8 0 -14.5 6.5t-6.5 13.5q0 72 -51 123t-123 51q-71 0 -121.5 -51t-50.5 -123v-162h242q20 0 20 -20q0 -8 -5.5 -14.5 t-14.5 -6.5h-242v-172h242q20 0 20 -20q0 -8 -5.5 -14.5t-14.5 -6.5h-242v-161q0 -71 51 -122t121 -51q72 0 123 51t51 122q0 9 6.5 14.5t14.5 5.5q20 0 20 -20q0 -88 -63 -150.5t-152 -62.5q-88 0 -150.5 62.5t-62.5 150.5v161h-74q-9 0 -14.5 6.5t-5.5 14.5z" />
<glyph unicode="&#x25fc;" horiz-adv-x="983" d="M0 0v983h983v-983h-983z" />
</font>
</defs>
</svg>
