<?xml version="1.0" standalone="no"?>
<!DOCTYPE svg PUBLIC "-//W3C//DTD SVG 1.1//EN" "http://www.w3.org/Graphics/SVG/1.1/DTD/svg11.dtd" >
<svg xmlns="http://www.w3.org/2000/svg" xmlns:xlink="http://www.w3.org/1999/xlink" version="1.1">
<metadata></metadata>
<defs>
<font id="summer_joy_regular" horiz-adv-x="1511" >
<font-face units-per-em="2048" ascent="1536" descent="-512" />
<missing-glyph horiz-adv-x="534" />
<glyph horiz-adv-x="0" />
<glyph horiz-adv-x="682" />
<glyph horiz-adv-x="0" />
<glyph horiz-adv-x="0" />
<glyph unicode="&#xd;" horiz-adv-x="534" />
<glyph unicode=" "  horiz-adv-x="534" />
<glyph unicode="&#x09;" horiz-adv-x="534" />
<glyph unicode="&#xa0;" horiz-adv-x="534" />
<glyph unicode="!" horiz-adv-x="966" d="M295 20v361h307v-361h-307zM297 557q-22 782 4 1501l307 -10q-26 -710 -4 -1483z" />
<glyph unicode="&#x22;" horiz-adv-x="917" d="M55 1939l246 185q86 -115 90 -264t-74 -269l-256 168q25 38 23.5 90.5t-29.5 89.5zM473 1939l246 185q86 -115 90 -264t-74 -269l-256 168q25 38 23.5 90.5t-29.5 89.5z" />
<glyph unicode="#" horiz-adv-x="1796" d="M0 735q28 9 303 31q10 37 32 110.5t32 110.5l-150 -16l-41 305q33 11 293 29q59 172 104 286l287 -110q-10 -26 -29.5 -79t-29.5 -79q164 5 348 2q76 215 96 266l287 -110q-11 -30 -32.5 -88t-33.5 -88q132 -13 222 -29l-52 -303q-123 21 -270 33q-40 -129 -72 -242 q129 -14 219 -29l-53 -303q-129 20 -246 31q-29 -115 -61 -273l-301 62q24 114 51 225q-151 3 -358 -4q-29 -119 -64 -283l-301 62q8 38 23 105.5t20 93.5q-182 -16 -182 -21zM627 782q166 5 354 2q11 41 68 236q-188 0 -349 -8h-4q-11 -35 -69 -230z" />
<glyph unicode="$" horiz-adv-x="1269" d="M0 383q-6 131 59 256l273 -143q-47 -90 0 -158q53 -75 166 -98q-4 378 0 530q-7 4 -22.5 12.5t-22.5 12.5q-109 64 -181 161q-75 101 -102 218q-51 218 70 399q126 194 335 203q4 2 17 2q2 17 9.5 63t10.5 72l203 -33q-4 -22 -11 -70t-11 -73q43 -16 98 -49 q130 -77 227 -195l-235 -199q-49 62 -133 121q-28 -240 -39 -411q127 -65 211 -138q118 -103 163 -260q45 -162 -4 -311q-44 -138 -141.5 -230t-232.5 -124q0 -15 1 -47.5t1 -49.5l-205 -2q0 15 -1 43t-1 41q-80 9 -162 41q-164 62 -258 191q-73 106 -82 225zM469 1243 q12 -53 47 -100q11 133 33 315q-29 -16 -53 -55q-49 -71 -27 -160zM700 651q-2 -110 2 -383q63 41 86 121q21 63 1.5 133.5t-70.5 114.5q-3 2 -9.5 7t-9.5 7z" />
<glyph unicode="%" horiz-adv-x="2281" d="M1 1442q0 146 75 268q68 112 182 172q121 62 266 53q206 -12 340 -168q61 -73 92 -170q28 -100 17 -200q-15 -168 -125 -293q-124 -143 -309 -170q-46 -4 -70 -4q-110 0 -201 49q-119 58 -192 186q-75 131 -75 277zM306.5 1437.5q1.5 -61.5 35.5 -118.5q55 -95 152 -80 q80 11 123.5 67t50.5 124q9 81 -39 139q-47 56 -123 59h-17q-103 0 -153 -80q-31 -49 -29.5 -110.5zM772 -51q-9 504 164 1058t471 978l252 -177q-272 -387 -429.5 -891.5t-150.5 -961.5zM1193 497.5q0 146.5 75 268.5q70 111 184 170q114 61 266 55q100 -6 187.5 -49.5 t150.5 -118.5q63 -72 92 -170q31 -101 19 -200q-19 -171 -125 -295q-122 -141 -309 -168q-25 -4 -70 -4q-107 0 -203 47q-121 63 -192 188q-75 130 -75 276.5zM1500.5 493q1.5 -61 33.5 -118q59 -94 154 -82q79 12 123 68.5t51 123.5q9 82 -39 140q-47 53 -125 59h-15 q-104 0 -153 -80q-31 -50 -29.5 -111z" />
<glyph unicode="&#x26;" horiz-adv-x="1544" d="M104 233q5 73 48 183q42 103 151 286q20 30 29 48q54 94 123 200q-18 30 -39 60q-45 64 -69.5 102.5t-53.5 106t-37 131.5q-21 166 66 331q44 81 109.5 141.5t143.5 92.5q139 55 279 14q158 -45 233 -176q47 -87 50 -186q0 -77 -31 -168q-41 -120 -143 -258 q-64 -87 -146 -203q13 -22 29 -45.5t28.5 -41.5t33 -45t31 -40t36 -43.5t32.5 -39.5t36 -43.5t34 -39.5l74 -86q13 5 34.5 14.5t28.5 12.5q99 41 138 57l114 -285q-15 -5 -50.5 -21t-53.5 -24l106 -123l-233 -200l-170 198q-168 -68 -322 -120q-174 -60 -288 -78 q-47 -8 -95 -8q-26 0 -38 2q-99 9 -158 77q-72 85 -60 217zM420 250q107 21 291 86q117 45 141 55l-8 8q-137 160 -209 258q-24 -36 -37 -61q-16 -28 -31 -53q-76 -119 -114 -207q-19 -39 -33 -86zM561 1389q7 -62 82 -166q11 16 35 48.5t35 49.5q149 206 106 281 q-19 36 -84 36q-26 0 -45 -8q-60 -25 -99 -97t-30 -144z" />
<glyph unicode="'" horiz-adv-x="710" d="M154 1939l245 185q86 -115 90.5 -264t-73.5 -269l-256 168q25 38 23.5 90.5t-29.5 89.5z" />
<glyph unicode="(" horiz-adv-x="1273" d="M442 1057q9 95 20.5 177.5t37.5 193t60.5 205.5t92 199.5t129.5 190.5l236 -198q-112 -132 -178 -326.5t-92 -470.5q-58 -638 206 -911l-221 -213q-207 213 -272 555q-49 258 -19 598z" />
<glyph unicode=")" horiz-adv-x="1470" d="M369 129q113 134 178 328.5t90 470.5q61 634 -205 909l221 213q209 -215 273 -555q48 -254 18 -596q-10 -97 -21.5 -178t-37.5 -193t-60.5 -207t-92 -199.5t-130.5 -189.5z" />
<glyph unicode="*" horiz-adv-x="1288" d="M266 1614v164h174l-123 123l115 116l125 -123v174h164v-174l123 123l114 -116l-122 -123h174v-164h-174l122 -123l-114 -117l-123 125v-174h-164v174l-125 -125l-115 117l123 123h-174z" />
<glyph unicode="+" horiz-adv-x="1705" d="M205 1157q229 25 487 35q6 244 33 487l305 -32q-25 -238 -31 -455q229 -3 519 -33l-31 -305q-253 28 -488 31q6 -243 33 -486l-305 -32q-30 283 -35 518q-225 -9 -454 -33z" />
<glyph unicode="," horiz-adv-x="706" d="M133 -63q62 80 79 155.5t-3 179.5l301 58q33 -169 0.5 -309.5t-135.5 -272.5z" />
<glyph unicode="-" horiz-adv-x="1507" d="M184 1016q327 37 572.5 37.5t572.5 -33.5l-33 -307q-313 33 -539.5 32.5t-539.5 -34.5z" />
<glyph unicode="." horiz-adv-x="1437" d="M512 307l299 70q40 -179 31 -365l-307 21q9 132 -23 274z" />
<glyph unicode="/" horiz-adv-x="1605" d="M451 -51q-3 307 34 573q37 280 119 565q77 270 203 541q127 269 289 498l252 -176q-290 -413 -444.5 -935t-145.5 -1060z" />
<glyph unicode="0" horiz-adv-x="1705" d="M1 971q6 223 75 418q86 235 246 380q96 83 200 127q115 50 244 56q258 12 463 -115q203 -125 307 -358q88 -195 100 -443q9 -250 -75 -489q-92 -259 -277 -418q-200 -176 -467 -176q-70 0 -155 16q-218 42 -386 213q-154 157 -223 377q-58 189 -52 412zM307.5 963 q-5.5 -173 38.5 -314q46 -147 148.5 -251.5t224.5 -127.5q55 -10 96 -10q153 0 268 100q118 101 186 284.5t60 379.5q-9 183 -72 328q-67 149 -191 225.5t-284 67.5q-86 -4 -158 -38t-121 -89t-81 -111.5t-55 -122.5q-54 -148 -59.5 -321z" />
<glyph unicode="1" horiz-adv-x="1007" d="M18 1509q191 126 373 232q93 52 115 67l229 140l4 -269q5 -346 -2 -843q-5 -657 -2 -836l-307 -6q-3 184 2 844q4 380 4 571q-205 -128 -248 -156z" />
<glyph unicode="2" horiz-adv-x="1503" d="M0 324q64 39 99.5 61t120.5 78t142.5 98t139 106.5t138.5 119.5t112 121.5t86 127.5q125 242 82 398q-26 91 -114 150t-183 50q-94 -11 -168 -87t-80 -171l-307 23q15 205 166.5 361.5t357.5 178.5q205 22 385 -100.5t237 -320.5q45 -161 5 -336q-25 -126 -109 -287 q-120 -234 -436 -483q-3 -3 -10.5 -8.5t-10.5 -8.5h2h95q439 -6 690 -28l-25 -306q-293 21 -670 27q-221 2 -372 -7.5t-185 -16.5t-49 -13z" />
<glyph unicode="3" horiz-adv-x="1628" d="M0 98l154 267q43 -24 131 -29q258 -19 499.5 70t389.5 256q79 92 88 159q1 11 2.5 27t-8 40t-29.5 42q-43 38 -131.5 50t-204.5 -7q-196 -29 -385 -119l-152 266q296 197 467 359q94 86 113 141q-3 1 -13.5 3.5t-17.5 4.5q-122 23 -248 -5t-209 -97l-196 233 q140 118 332 162q189 47 381 8q140 -28 208 -102q63 -66 72 -156q9 -61 -14 -137q-39 -123 -160 -244q11 -1 34 -3t34 -3q183 -24 295 -127q82 -72 117 -174t16 -211q-23 -153 -160 -311q-197 -225 -508 -340q-256 -96 -528 -96q-33 0 -107 4q-165 13 -262 69z" />
<glyph unicode="4" horiz-adv-x="1579" d="M0 543l113 270q58 135 219 557q183 474 219 559l285 -117q-93 -223 -218 -552q-5 -13 -47.5 -124t-64.5 -167q136 33 401 100q52 14 66 16q2 63 5 189t5 190l307 -8q-1 -49 -4 -146.5t-4 -146.5q26 6 70 17.5t81 20.5t70 16l68 -302q-115 -23 -299 -69q-15 -431 -33 -869 l-307 15q5 121 15.5 380.5t15.5 393.5q-418 -108 -676 -164z" />
<glyph unicode="5" horiz-adv-x="1349" d="M0 346l283 121q50 -117 153 -178.5t221 -42.5q140 20 245.5 134.5t105.5 246.5q0 65 -10.5 119t-22.5 84t-32.5 55.5t-29.5 33t-24 17.5q-111 69 -324 43q-171 -22 -305 -84q-83 -37 -158 12q-34 23 -53.5 59.5t-19.5 77.5v381v320v149l149 4q122 5 522.5 9t499.5 4 l2 -307q-414 0 -866 -9v-170v-180q85 23 190 39q138 18 262 2q150 -18 267 -92q127 -83 192 -225q68 -142 68 -342q0 -122 -48 -239t-137 -214q-89 -95 -192 -154q-112 -61 -238 -79q-54 -7 -94 -7q-58 0 -125 13q-110 21 -200 76q-97 59 -164 137q-72 81 -117 186z" />
<glyph unicode="6" horiz-adv-x="1470" d="M1 701q-1 99 6 174t22 161q38 215 154.5 418t279.5 336q118 98 287 133q173 38 327 -10q115 -37 193 -117.5t110 -196.5l-297 -79q-24 76 -100 100q-72 22 -169 2.5t-155 -68.5q-121 -99 -209.5 -254.5t-117.5 -316.5q-15 -83 -21 -156q3 4 8.5 12.5t8.5 12.5 q94 129 229 213q142 86 301 104q157 22 299 -43q77 -34 135 -90q65 -65 94 -145q55 -140 52 -283q-6 -129 -66 -252q-54 -106 -145 -190.5t-209 -138.5q-159 -72 -326 -72q-93 0 -172 20q-132 34 -241 117q-115 89 -183 221q-46 89 -70 189t-25 199zM467 334 q59 -45 135 -61.5t149.5 -6.5t141.5 41q63 28 112.5 70.5t85.5 103t39 133.5t-28 164q-18 47 -72 70q-60 25 -133 18q-195 -25 -324 -198q-47 -66 -76 -155.5t-30 -178.5z" />
<glyph unicode="7" horiz-adv-x="1376" d="M0 1849q755 8 1069 0l262 -6l-133 -225q-266 -454 -383 -836t-117 -802h-307q0 491 148 948q102 307 268 618q-324 3 -803 -4z" />
<glyph unicode="8" horiz-adv-x="1323" d="M6 571q15 102 65.5 195t129.5 164q59 52 149 110q-49 52 -88 119q-72 120 -78 262q-9 192 105 344q118 155 313 191q114 20 224.5 -18t185.5 -123q69 -78 94 -181q26 -112 -8 -217q-39 -132 -123 -256q-34 -48 -80 -100q86 -43 152 -93.5t114 -123.5q71 -111 86 -234 q19 -134 -28 -252q-51 -132 -160 -225q-102 -88 -230 -133q-121 -46 -258 -49q-8 -2 -26 -2q-124 0 -228 37q-179 64 -264 250q-72 157 -47 335zM309 528q-11 -78 19.5 -154.5t89.5 -97.5q56 -20 129 -20q124 0 236 58t149 155q19 47 11.5 103.5t-38.5 103.5q-20 29 -60 58 t-71.5 45t-95.5 46q-2 1 -22 10t-29 15q-27 -18 -37 -23q-127 -76 -184 -127q-82 -73 -97 -172zM492 1434q5 -122 120 -220q142 124 191 291q20 60 -21 105q-42 45 -102 45q-17 0 -25 -2q-75 -12 -120.5 -73t-42.5 -146z" />
<glyph unicode="9" horiz-adv-x="1355" d="M0 371l305 37q6 -49 42 -82.5t79.5 -46.5t87.5 -13h2q115 1 225 72t150 168q38 95 35 248q-90 -60 -197 -78q-189 -31 -358 65q-171 97 -238 273q-52 134 -33 288t107 302q76 131 182 217q125 104 270 131q171 31 322 -47q83 -43 140.5 -109.5t82.5 -148.5l-295 -88 q-14 46 -73 74t-119 16q-67 -12 -131.5 -65t-114.5 -136q-50 -87 -63.5 -172.5t12.5 -151.5q28 -72 104 -115t152 -30q77 12 135 78.5t59 144.5l306 21q2 -8 5 -26t5 -26q16 -95 24.5 -151.5t17.5 -152.5t7 -166t-16 -155t-43 -157q-79 -187 -271 -309q-185 -118 -385 -121 h-8q-177 0 -319 96q-82 57 -132.5 139t-60.5 177z" />
<glyph unicode=":" horiz-adv-x="1392" d="M557 776l305 -33q-12 -122 29 -235l-289 -105q-64 177 -45 373zM557 1423l305 -32q-12 -120 29 -236l-289 -102q-64 176 -45 370z" />
<glyph unicode=";" horiz-adv-x="1449" d="M430 -63q62 80 79 155.5t-3 179.5l301 58q33 -169 0.5 -309.5t-135.5 -272.5zM506 770l289 102q64 -176 45 -370l-305 33q12 119 -29 235z" />
<glyph unicode="&#x3c;" horiz-adv-x="1239" d="M102 885l117 116q76 74 195 193q308 305 424 410l206 -228q-94 -85 -413 -399q-8 -8 -23.5 -24t-28.5 -29t-26 -25q160 -134 334 -268q87 -64 211 -164l-191 -240q-31 25 -102 80t-105 82q-263 201 -475 387z" />
<glyph unicode="=" horiz-adv-x="1558" d="M225 774q542 81 1069 17l-37 -306q-490 58 -987 -16zM231 1262q536 80 1069 18l-36 -305q-495 56 -985 -17z" />
<glyph unicode="&#x3e;" horiz-adv-x="1495" d="M244 467q73 59 211 164q189 146 333 268q-14 14 -39.5 40t-37.5 38q-312 307 -412 399l205 228q131 -117 424 -410q29 -27 194 -193l117 -116l-123 -109q-200 -175 -473 -387q-150 -117 -209 -162z" />
<glyph unicode="?" horiz-adv-x="1560" d="M184 1794q105 163 303 246q184 72 379 47q107 -13 185 -51q104 -48 168 -129q89 -116 92 -273q3 -127 -56 -258q-24 -53 -60 -108.5t-61 -87t-73 -88.5q-43 -55 -53 -66q-270 -347 -228 -639l-303 -45q-34 226 60 475q80 208 229 397q30 38 57 72q43 52 62 76t47 65 t43 76q28 60 28 120t-26 93q-40 52 -150 68q-116 14 -224 -30t-163 -128zM467 172l305 45q18 -141 6 -280l-307 30q12 99 -4 205z" />
<glyph unicode="@" horiz-adv-x="2246" d="M8 791q24 163 92 329q65 158 172 295q223 292 547 408q211 76 460.5 45.5t455.5 -158.5q170 -104 271.5 -254.5t121.5 -325.5q21 -164 -33 -333q-55 -167 -168 -289q-77 -83 -172 -141q-133 -80 -254 -80q-149 0 -248 108q-4 4 -11 12.5t-11 12.5q-34 -27 -68 -49 q-107 -70 -243 -70h-2q-163 0 -263 100q-65 66 -95 163.5t-17 195.5q22 154 117 290.5t233 209.5q96 52 210 62t212 -24q165 -61 231 -215l-282 -120q-14 32 -52 45q-37 13 -85.5 8t-88.5 -27q-73 -38 -126.5 -114t-65.5 -158q-3 -27 5 -56.5t23 -42.5q10 -10 50 -10 q43 3 71 19q138 92 215 235l271 -145q-17 -29 -17 -64t15 -49q8 -10 22 -10q36 0 95 35.5t106 85.5q68 75 100.5 177t20.5 202q-24 216 -250 356q-146 91 -325.5 114t-323.5 -30q-238 -86 -407 -302.5t-204 -481.5q-17 -126 10 -245.5t93 -211.5q83 -114 224 -180t302 -68 q183 -2 395 45.5t334 130.5l174 -252q-173 -118 -446 -180q-227 -51 -447 -51h-12q-222 0 -428 96q-218 102 -344 281q-103 139 -145 325q-37 168 -15 351z" />
<glyph unicode="A" horiz-adv-x="1527" d="M12 657q51 208 238 363q113 93 268 137q116 31 235 30q28 0 56 -1q78 -6 160 -39q2 16 2 43q1 29 1 55q0 139 -18 207q-28 109 -98 150q-52 28 -130 28h-6q-82 -1 -159 -33q-67 -28 -112.5 -69.5t-59.5 -87.5l-295 88q35 115 126.5 207.5t223.5 146.5q134 55 281 55 q162 0 281 -67q97 -54 161 -152q56 -79 84 -188q14 -56 21 -120t7 -116.5t-1 -109.5q0 -42 -8 -160q-5 -79 -6.5 -113t-3.5 -117q-1 -32 -1 -59q0 -43 2 -73q4 -48 12 -112.5t25.5 -109t42.5 -73.5q36 -40 103 -45l-21 -308q-93 6 -176 45q-75 37 -137 105q-25 28 -45 61 q-57 -40 -184 -100q-150 -72 -320 -72q-55 0 -147 15q-175 36 -273 131q-91 85 -127 219q-15 64 -15 126q0 58 13 113zM312 495q11 -47 40 -73q39 -36 119 -51q50 -10 98 -10q96 0 179 40q96 46 141.5 77.5t73.5 76.5q0 1 -3 22t-4 33q-6 71 -6 148q-1 51 -54 84.5 t-110 36.5q-19 1 -39 1q-73 0 -147 -20q-94 -26 -156 -78q-109 -89 -131 -194q-6 -24 -6 -48q0 -23 5 -45z" />
<glyph unicode="B" horiz-adv-x="1425" d="M0 35q50 729 50 1247q0 350 -23 604l305 27q1 -8 2 -18t2 -22.5t2 -19.5q84 29 131 37q81 15 153 15q105 0 193 -31q104 -35 176 -109t103 -178q18 -62 18 -121q0 -105 -57 -200q-31 -44 -45 -60q33 -10 73 -28q154 -69 224 -189q49 -88 49 -192q-3 -106 -53 -209 q-77 -151 -250 -262q-257 -164 -559 -164q-22 0 -72 4q-61 3 -105 14q-8 -109 -10 -166zM334 494q41 -17 110 -23q27 -2 53 -2q211 0 390 115q101 64 139 141q6 12 10.5 22.5t6.5 19.5t4 16.5t1.5 14t-0.5 11.5t-1.5 10t-2.5 7t-2 6l-2 4q-22 37 -90.5 65.5t-152.5 32.5 q-62 4 -124 4q-164 0 -323 -29q-3 -173 -16 -415zM354 1520q2 -92 2 -295q131 28 219 63q175 64 218 137q11 21 11 44q0 16 -5 32q-17 61 -82 82q-48 14 -101 14q-44 1 -90 -9q-104 -20 -172 -68z" />
<glyph unicode="C" horiz-adv-x="1646" d="M6 1006q24 255 148 479q90 158 237 278q154 127 336 166q69 15 136 15q61 0 121 -12q126 -26 233 -107q133 -100 184 -287q21 -80 21 -161q0 -77 -19 -156l-299 73q9 40 9 80q0 44 -11 88q-18 78 -70 117q-79 58 -173 58q-33 0 -68 -7q-105 -23 -206 -104t-161 -191 q-97 -170 -114 -365q-3 -39 -4 -75q0 -149 56 -268q44 -98 122.5 -172.5t172.5 -108.5q73 -24 154 -24q169 0 291 98q92 73 139 186q37 90 37 183q0 24 -2 47l305 34q4 -41 4 -82q0 -152 -61 -301q-75 -184 -232 -307q-156 -125 -354 -155q-59 -11 -129 -11q-134 0 -256 43 q-153 56 -276 171t-193 270q-84 176 -84 391q0 57 6 117z" />
<glyph unicode="D" horiz-adv-x="1593" d="M0 119q67 108 84 280l-6 9l8 6q4 51 4 139q0 59 -2 135q-2 52 -2 104t2 103q3 85 6 168q8 227 10 319q1 37 1 87q0 75 -2 183q-3 180 -17 318l307 31q16 -181 19 -330q125 118 266 186q130 62 260 62h23q140 -6 266.5 -88t204.5 -217q108 -190 108 -465v-29 q-6 -200 -59 -364q-55 -188 -168 -338q-123 -166 -301 -265t-369 -106q-8 -2 -27 -2q-149 0 -276 80q-28 -88 -80 -170zM395 694q2 -66 2 -198q64 -83 114 -115q46 -29 108 -29h12q120 6 237 72.5t199 175.5q76 102 118.5 238t47.5 288v17q0 197 -68 319q-39 67 -97.5 108 t-119.5 42h-10q-132 0 -295 -146q-76 -68 -140 -153t-97 -164h-3q0 -17 -1 -49t-1 -47q-1 -27 -3 -83.5t-3 -84.5q-2 -44 -2 -92t2 -99z" />
<glyph unicode="E" horiz-adv-x="1392" d="M27 428q-27 89 -27 190q0 112 33 238q26 93 59 166q-30 99 -30 202q0 60 10 123q28 169 127 306q87 122 215 200q134 84 278 99q28 3 56 3q81 0 165 -24q112 -34 203 -119l-207 -225q-66 61 -159 61q-12 0 -25 -1q-76 -7 -151 -54t-125 -118q-48 -67 -66 -142l2 2 q76 26 155 26q15 0 31 -1q94 -7 171 -51.5t124 -118.5q53 -79 53 -171q0 -91 -51 -173q-61 -97 -159 -146q-86 -45 -179 -45q-20 0 -41 2q-90 9 -172 60q-11 -57 -10 -105q0 -52 12 -92q32 -105 135.5 -161t223.5 -56h2q106 0 198 78t144 188l278 -131q-87 -185 -241 -305 q-175 -137 -379 -137h-4q-213 0 -385 102q-197 117 -264 330zM440 1010q38 -41 84 -47h8q29 0 60 26q20 20 20 29q-1 0 -4 6q-18 29 -61 29q-28 3 -54.5 -5.5t-39.5 -25.5q-2 -2 -6.5 -6t-6.5 -6z" />
<glyph unicode="F" horiz-adv-x="1460" d="M0 358l307 -10v-14q0 -65 25 -105q2 0 4 -2q3 19 6 47q6 68 6 142q0 16 1 45t1 41q6 85 10 256q-20 -9 -55.5 -29.5t-48.5 -26.5l-156 265q121 72 256 129q-2 112 -10 307q0 33 -2 47q-18 -5 -51.5 -14.5t-38.5 -10.5l-88 295q92 26 170 45q-2 57 -2 170l307 2v-106 q331 59 700 65l5 -307q-363 -6 -697 -69q4 -70 4 -105q1 -35 4.5 -108t4.5 -111q40 12 81 18q214 46 430 46q130 0 261 -17l-39 -305q-115 15 -229 15q-252 0 -498 -72q0 -216 -11 -396q-2 -20 -2 -75q-1 -80 -3.5 -124t-14.5 -113.5t-35 -115.5q-32 -62 -87 -100t-124 -45 q-10 -2 -31 -2q-76 0 -148.5 34.5t-119.5 94.5q-92 121 -92 297v22z" />
<glyph unicode="G" horiz-adv-x="1579" d="M6 883q39 312 260 606q102 136 227 241.5t255 165.5q105 46 215 46q112 0 215 -41q91 -37 156.5 -101t97.5 -147l-287 -113q-20 50 -82 76q-44 19 -96 19t-90 -19q-91 -41 -185 -121t-174 -181.5t-136.5 -225.5t-70.5 -242q-4 -35 -4 -68q0 -215 168 -348 q104 -83 229 -90q12 -1 24 -1q111 0 202 64q233 161 233 344v15q-96 -3 -346 -25l-31 305q249 25 478 31q97 0 153 -45q73 -57 80 -158q22 -180 22 -359q0 -284 -55 -568l-301 59q27 159 33 219q-19 -16 -90 -69q-172 -119 -379 -119q-29 0 -43 2q-220 12 -399 153 q-169 131 -240 324q-46 125 -46 264q0 52 7 107z" />
<glyph unicode="H" horiz-adv-x="1681" d="M0 739l53 303q62 -11 135 -18q-3 452 -61 909l305 39q61 -491 64 -962q239 3 415 47q-6 104 -6 205.5t6 199.5q12 228 109 357q73 98 201 135q50 14 96 14q89 0 166 -53q77 -54 115 -147q32 -78 31 -175q0 -18 -1 -37q-15 -265 -192 -495q-87 -113 -197 -189 q4 -29 29 -182q3 -17 8 -48t8 -46q21 -124 35 -192.5t47 -164.5t76 -153l-244 -184q-94 122 -149 321q-36 127 -68 322q-2 18 -7 48l-7 42q-13 64 -21 115q-211 -47 -454 -50q-11 -337 -60 -727l-305 39q46 371 57 703q-97 9 -184 24zM1212 1274q103 149 109 299q1 16 1 30 q0 41 -11 56q-9 0 -23 -7.5t-22 -19.5q-39 -48 -47 -190q-7 -96 -7 -168z" />
<glyph unicode="I" horiz-adv-x="1026" d="M0 1235l133 276q31 -14 88 -14q8 53 29 129q39 129 102 211q88 112 223 154q62 20 121 20q90 0 172 -47q113 -64 138 -176q9 -32 9 -67t-9 -72q-35 -158 -175 -273q-101 -81 -251 -129q-37 -11 -82 -22q-18 -191 -22 -413q-2 -97 -1 -177q1 -101 3 -175q4 -130 16 -431 l-308 -15q-12 276 -16 412q-3 87 -3 210q1 68 1 146q2 220 18 410q-108 6 -186 43zM553 1565q37 16 86 51q48 39 63 86h-8q-23 0 -50.5 -14.5t-47.5 -38.5q-29 -40 -43 -84z" />
<glyph unicode="J" horiz-adv-x="1402" d="M0 436h307q0 -153 152 -184q36 -8 80 -8q160 0 274 102q129 114 174 342q35 184 39 419v98q0 179 -10 337q0 35 -2 53h-867v308h1166l4 -150q1 -33 3 -99.5t3 -99.5q8 -200 10 -314v-42q0 -103 -7 -248q-10 -175 -38 -319q-62 -328 -270 -514q-128 -113 -291 -156 q-91 -24 -190 -24q-74 0 -140 14q-172 34 -280 158q-117 132 -117 327z" />
<glyph unicode="K" horiz-adv-x="1374" d="M0 -10q52 458 54 956v40q0 476 -46 917l305 30q39 -376 45 -741q83 41 105 59q363 288 588 703l270 -146q-124 -233 -293 -432q-44 -52 -90 -102q351 -540 401 -1266l-307 -20q-40 609 -319 1071q-29 -23 -58 -49q-78 -59 -200 -113q-80 -35 -95 -41q-6 -470 -55 -901z " />
<glyph unicode="L" horiz-adv-x="1249" d="M0 1923l307 4l19 -1597q186 2 524 18q41 1 114.5 4t134 5t113.5 3l11 -307q-70 -1 -205.5 -6t-153.5 -6q-468 -21 -690 -21h-151z" />
<glyph unicode="M" horiz-adv-x="2306" d="M0 1837l260 166q125 -198 195 -555q13 40 20 55q44 107 127 209q117 138 240 178q55 18 107 18q87 0 167 -50q146 -88 203 -304q1 -3 2 -10t2 -10q1 1 2 4t2 4q117 191 272 270q91 47 185 52q11 1 22 1q81 0 152 -34q105 -52 174 -176q93 -162 123 -430q12 -102 15 -218 q1 -35 1 -72q0 -87 -5 -189q-7 -144 -13 -231t-19 -253q-8 -109 -18 -235l-305 20q4 66 16 240q12 147 18.5 239.5t12.5 223.5q5 95 5 178q-1 32 -1 62q-2 109 -12 200q-24 207 -84 313q-25 42 -43 51q-9 4 -21 4q-26 0 -63 -20q-80 -40 -148 -155t-100 -240 q-27 -111 -44 -262t-22 -250t-10 -275q0 -8 -1 -24.5t-1 -24.5l-307 -4q-7 133 -12 248q-14 348 -37 575q-3 50 -6 105q-4 56 -6 84.5t-9 83.5t-16 87t-25.5 64t-38.5 45q-9 7 -20 2q-41 -13 -95 -80t-83 -135q-54 -128 -101 -396t-71 -536q-23 -257 -23 -435v-15l-307 -10 q-5 123 -12 321q-21 574 -58 856q-59 469 -186 670z" />
<glyph unicode="N" horiz-adv-x="1433" d="M0 1872l297 80q59 -218 88 -490q63 162 145 264q65 79 151 124.5t173 45.5h7q142 0 247 -116q54 -64 87.5 -145.5t42.5 -156.5q10 -76 14 -156q2 -36 2 -67q0 -40 -3 -75q0 -39 -4 -133q-4 -170 -4 -292q0 -149 6 -227l2 -12q12 -143 33 -189.5t90 -70.5l-94 -291 q-199 64 -276 238q-42 91 -58 284l-2 13q-4 42 -6 92t-3 88q-1 25 -1 62v38q0 62 1 89.5t3 99.5t2 88q4 90 4 129q1 73 1 141.5t-18 138.5t-55 113q-8 10 -16 10q-16 0 -41 -15.5t-47 -41.5q-29 -36 -55.5 -88t-41.5 -91.5t-40 -111.5q-3 -8 -9.5 -25.5t-9.5 -25.5 q-63 -174 -125 -522.5t-90 -612.5q-1 -8 -2 -23t-2 -22l-305 31q0 15 4 43q24 274 26 590q0 15 1 30q-1 302 -29 614q-30 328 -90 554z" />
<glyph unicode="O" horiz-adv-x="1869" d="M35 1221q76 275 291 469q123 111 266 163q133 52 277 52h16q144 -3 289 -66q135 -57 256 -172q104 -99 180 -219q78 -130 110 -254q32 -113 32 -234q0 -20 -1 -40q-6 -144 -55 -283q-49 -134 -137 -240q-79 -102 -205 -188q-218 -143 -459 -143q-26 0 -84 4q-6 1 -19.5 3 t-19.5 3q-131 20 -262 80q-114 53 -215 141q-188 173 -256 410q-40 130 -40 262q0 125 36 252zM332 795q51 -169 178.5 -278t308.5 -138q5 -1 14.5 -2t14.5 -2q14 -2 45 -2q158 0 308 106.5t204 259.5q40 110 40 218q0 78 -21 155q-49 183 -207 334q-160 151 -353 151 q-182 0 -332 -135q-146 -130 -200 -309q-27 -90 -27 -180q1 -89 27 -178z" />
<glyph unicode="P" horiz-adv-x="1622" d="M0 682l143 272q19 -11 76 -36q1 119 1 233q0 416 -17 752l127 6q198 114 418 129q25 2 50 2q177 0 353 -94q198 -106 311 -279q93 -137 111 -287q4 -36 5 -71q0 -131 -62 -256q-79 -160 -234 -283q-133 -106 -315 -166q-183 -59 -387 -59q-10 0 -31 1t-31 1 q-8 -274 -26 -549l-308 20q23 380 29 578q-118 36 -213 86zM520 1661q8 -259 8 -532q0 -136 -2 -275q27 -1 54 -1q153 0 292 44q262 85 369 293q30 62 30 124q0 91 -63 183q-74 109 -199 176q-110 59 -212 59q-14 0 -27 -1q-131 -9 -250 -70z" />
<glyph unicode="Q" horiz-adv-x="1886" d="M35 1229q78 280 301 481q124 112 272 168q131 53 283 53h16q158 -6 297 -67q143 -61 264 -176q117 -114 187 -228q79 -130 112 -260q34 -116 34 -243q0 -19 -1 -39q-6 -142 -57 -291q-48 -133 -141 -248q-87 -109 -211 -191q-1 -1 -4.5 -3t-4.5 -3q61 -49 156 -67 l-53 -303q-253 44 -408 243q-82 -16 -157 -16q-44 0 -84 6q-7 1 -21.5 3t-21.5 3q-139 21 -271 82q-122 60 -219 146q-189 171 -264 419q-40 133 -40 269q0 130 36 262zM334 786q53 -175 185.5 -288t322.5 -144q20 -4 28 -4q31 -3 51 -3q10 0 17 1q-29 106 -35 238l305 14 q3 -64 21 -151q166 114 223 280q41 115 41 227q0 81 -21 161q-51 190 -215 347q-163 155 -357 160h-13q-187 0 -346 -143q-151 -135 -207 -322q-27 -94 -27 -188q0 -92 27 -185z" />
<glyph unicode="R" horiz-adv-x="1591" d="M-82 635l133 276q9 -4 29 -12t29 -12q-9 493 -43 901l106 8q187 121 403 146q32 3 65 3l323 -79q188 -93 301 -252q94 -129 112 -271q7 -43 7 -85q0 -117 -52 -226q-77 -163 -211 -274q-68 -59 -166 -111q6 -45 29 -180q1 -2 4.5 -19.5t5.5 -26.5t7 -27.5t9 -30.5 t10.5 -28t13.5 -27t15.5 -21t18.5 -15q16 -8 39.5 -8t54.5 8q51 16 158 84l164 -260q-138 -86 -232 -116q-81 -23 -143 -23q-102 0 -188 47q-113 61 -179 199q-38 85 -59 209q-20 112 -23 135q-125 -23 -233 -23h-6q0 -297 -8 -526l-308 10q9 273 9 557q-95 22 -195 70z M389 1567q24 -392 29 -736q104 0 203 21q-9 81 -15 166l307 20q0 -8 1 -25.5t1 -25.5q88 69 138 174q24 53 24 105q0 85 -63 170q-69 96 -185 154q-97 48 -186 48q-17 0 -33 -2q-112 -12 -221 -69z" />
<glyph unicode="S" horiz-adv-x="1292" d="M0 471v22q0 123 61 240l273 -143q-27 -49 -26 -95q0 -48 28 -94q40 -61 119.5 -100t165.5 -39h18q71 5 135 45t105 107q40 66 48 136q2 17 2 32q0 52 -20 100q-15 35 -41.5 66.5t-70 62t-76 50t-92.5 52.5q-173 99 -244 158q-117 102 -170 244q-37 103 -37 203q0 40 6 79 q20 135 101.5 241t208.5 161q97 43 205 43h9q114 -2 212 -51q108 -53 221 -179l-228 -206q-71 78 -129 108q-38 20 -83 21h-5q-42 0 -78 -17q-111 -50 -129 -166q-3 -19 -3 -38q0 -48 18 -96q26 -66 82 -113q50 -42 192 -123q62 -34 96.5 -54.5t91 -59.5t92 -73.5t73 -85.5 t61.5 -108q45 -103 45 -221q0 -33 -4 -68q-19 -145 -94 -262q-82 -131 -210 -209.5t-274 -85.5h-34q-164 0 -313 76.5t-232 204.5q-70 116 -76 235z" />
<glyph unicode="T" horiz-adv-x="1681" d="M0 1706l201 233q179 -154 471 -280q10 -3 20 -10q10 -3 27.5 -11t23.5 -10q91 125 234 223q177 121 323 121h9q73 0 135 -30q66 -32 108 -91q44 -59 56 -133q4 -23 4 -46q0 -49 -17 -99q-38 -123 -141 -209q-94 -81 -211 -111q-83 -23 -173 -23q-81 0 -167 19 q-58 -243 -74 -585q-5 -116 -5 -229q0 -217 20 -419l-305 -32q-23 216 -23 444q0 117 6 238q15 368 82 655q1 5 4 14.5t4 14.5q-35 15 -41 18q-4 1 -11 4t-11 4q-340 150 -549 330zM1073 1538q43 0 90 12q51 14 89.5 45.5t50.5 69.5q-54 0 -152 -68q-19 -12 -78 -59z" />
<glyph unicode="U" horiz-adv-x="1345" d="M2 961q-2 54 -2 107q0 401 119 800l293 -88q-105 -352 -105 -716q0 -46 2 -93q9 -291 107 -449q40 -67 95.5 -108.5t111.5 -46.5q7 -1 15 -1q40 0 84 19q52 22 95 64q101 100 151 259q43 137 43 303q0 27 -1 54q-8 183 -64 364t-145 308l252 174q115 -162 185 -384 t79 -450q1 -34 1 -68q0 -223 -63 -413q-73 -218 -221 -365q-94 -91 -194 -131q-100 -41 -201 -41q-29 0 -43 2q-141 12 -264 103q-103 75 -180 198q-136 224 -150 599z" />
<glyph unicode="V" horiz-adv-x="1683" d="M0 1729l262 159q368 -604 559 -1159q8 28 27 84l2 6q92 290 250 582q155 284 346 506l231 -201q-162 -189 -305.5 -452t-228.5 -527l-2 -8q-46 -141 -67 -210.5t-44 -177.5t-31 -206q-6 -65 -53 -109q-44 -38 -100 -41q-2 -2 -10 -2q-50 0 -93 29q-55 39 -67 100 q-92 421 -252.5 806.5t-423.5 820.5z" />
<glyph unicode="W" horiz-adv-x="2574" d="M0 1749l262 160q368 -604 559 -1159q8 29 27 84l2 6q56 177 139 360q13 28 49.5 115t61.5 131q6 11 20.5 38.5t25.5 46.5t27 41.5t35 36.5t39 17q31 5 61 -12.5t52 -45.5t43.5 -69t34 -72t25.5 -65q5 -13 7 -19q22 -55 66 -155.5t59 -136.5q49 -120 60 -150q1 -3 20 -42 t29 -67.5t6 -41.5q8 29 27 84l2 6q93 293 252 581q151 281 344 506l233 -201q-164 -188 -307.5 -450.5t-228.5 -527.5l-2 -9q-46 -141 -67 -210.5t-44 -177.5t-31 -206q-6 -64 -53 -108q-44 -38 -100 -41q-2 -2 -11 -2q-48 0 -92 29q-55 39 -67 100q-103 481 -305 930 q-76 -171 -117 -305l-4 -9q-47 -149 -66 -212.5t-42.5 -173.5t-31.5 -208q-6 -64 -53 -108q-44 -38 -100 -41q-2 -2 -10 -2q-50 0 -93 29q-55 39 -67 100q-92 421 -252.5 806t-423.5 820z" />
<glyph unicode="X" horiz-adv-x="1613" d="M0 1679l184 246q302 -230 422 -332q102 -87 185 -168q88 86 207 186t182 148.5t217 165.5l184 -246q-6 -5 -64.5 -49.5t-70.5 -53.5t-63.5 -49t-69.5 -54.5t-62 -50t-68.5 -56.5t-60.5 -52.5t-66 -59t-59 -56.5q191 -235 334 -528q139 -285 232 -607l-293 -86 q-177 597 -479 988q-305 -395 -478 -988l-295 86q93 322 232 607q138 284 334 528q-29 29 -59 56.5t-66 59t-60.5 52.5t-68.5 56.5t-62 50t-69.5 54.5t-63.5 49t-70.5 53.5t-64.5 49.5z" />
<glyph unicode="Y" horiz-adv-x="1314" d="M0 449l307 -11q0 -55 51 -96q41 -35 100 -50q35 -10 66 -10q22 0 43 5q86 19 159.5 80.5t117 132t69.5 147.5q40 121 40 269q0 69 -9 143q-48 -79 -90 -121q-71 -74 -166 -113q-75 -30 -155 -30q-31 0 -62 4q-174 31 -281 194q-75 114 -106 279q-25 134 -25 266 q0 215 66 426l293 -90q-51 -170 -51 -337q0 -106 20 -210q10 -53 28 -100.5t46.5 -83t60.5 -41.5q25 -3 56 10t55 39q54 54 94 178q34 103 53 278q16 139 16 246q0 27 -1 52l307 14q4 -101 33.5 -268t60.5 -281q64 -242 64 -452q0 -197 -56 -367q-65 -199 -205 -348 q-153 -166 -362 -215q-60 -13 -113 -13q-98 0 -193 33.5t-169 95.5q-162 134 -162 331v14z" />
<glyph unicode="Z" horiz-adv-x="1468" d="M29 125q-27 46 -27 106q0 76 43 177q35 75 100 180q18 29 23 41q43 75 336 461q265 342 409 509l19 19q-16 2 -62 2q-367 -3 -706 -72l-62 299q362 77 766 80q103 0 162 -16q118 -27 187 -115q43 -56 53 -122q2 -17 3 -34q0 -49 -20 -96q-27 -60 -92 -129q-2 -3 -7 -9 t-7 -9q-142 -162 -406.5 -504.5t-302.5 -413.5l-28 -49q-28 -43 -70 -121q-1 -3 -4 -8t-4 -8q38 6 112 33q283 112 473.5 198.5t397.5 202.5l149 -268q-222 -124 -422.5 -215.5t-484.5 -202.5q-133 -55 -246 -55q-70 0 -131 20q-104 35 -151 119z" />
<glyph unicode="[" horiz-adv-x="1705" d="M431 652q0 155 5.5 280t21.5 297t28 276t34 287q11 99 55 158q45 57 125 92q252 109 529 100l-10 -307q-210 6 -394 -76v-6q-22 -182 -33 -277.5t-27 -264t-21.5 -286t-5.5 -265.5t10 -279q8 -99 26 -139q17 -31 29 -31q14 0 55 22q173 94 293 250l244 -188 q-156 -203 -389 -330q-100 -61 -203 -61h-23q-87 6 -162 59.5t-118 140.5q-50 100 -58 254q-11 139 -11 294z" />
<glyph unicode="\" horiz-adv-x="1159" d="M0 1962l252 176q162 -229 289 -498q124 -267 202 -540q82 -285 119 -565q38 -273 35 -574l-307 6q9 538 -145.5 1060t-444.5 935z" />
<glyph unicode="]" horiz-adv-x="1564" d="M164 295l242 188q126 -160 292 -250q43 -22 58 -22q4 0 12.5 9.5t13.5 21.5q21 42 29 139q10 131 9.5 278.5t-6 266.5t-21.5 285t-27 265.5t-33 276.5q0 1 -1 3t-1 3q-184 82 -391 76l-10 307q277 9 526 -100q83 -37 127 -92q9 -12 16 -24t12.5 -26t9 -23.5t7 -25 t4.5 -21t3.5 -21.5t2.5 -17q24 -208 33.5 -290t27.5 -269.5t22.5 -303t5 -274t-10.5 -297.5q-12 -160 -57 -254q-43 -86 -119 -140t-162 -60h-22q-101 0 -205 61q-229 125 -387 330z" />
<glyph unicode="^" horiz-adv-x="1409" d="M246 1876q39 48 149 166q60 60 99 104q82 94 190 97q84 0 154 -56q37 -26 75 -69l17 -17q45 -47 139 -141l70 -70l-219 -217q-23 25 -70 72q-22 22 -68.5 69.5t-70.5 71.5l-19 19q0 2 -2 2q-38 -41 -72 -78q-86 -90 -137 -150z" />
<glyph unicode="_" horiz-adv-x="1351" d="M78 201q260 41 584 47q290 6 581 -23l-33 -305q-268 27 -557 21t-526 -43z" />
<glyph unicode="`" horiz-adv-x="1165" d="M338 1978l100 246q119 -48 206 -86.5t124 -57t106 -55.5l-126 -235q-77 43 -155.5 79.5t-254.5 108.5z" />
<glyph unicode="a" horiz-adv-x="1380" d="M6 544q23 132 96.5 242t180.5 185q156 111 342 112q41 0 84 -6q73 -11 159 -41q-1 5 -3 16.5t-3 16.5q-21 129 -78 193q-53 53 -143 55h-9q-62 -1 -120 -25q-62 -26 -107.5 -71t-73.5 -81.5t-50 -74.5l-267 154q100 172 248 282q86 62 178 92q93 31 192 31h17 q115 -3 205 -43q91 -43 156 -111q117 -126 155 -348q19 -106 19 -242q0 -47 -2 -98q-1 -25 -15 -133q-7 -57 -11 -95q-2 -38 -4 -93q0 -7 -1 -13q-1 -46 9 -78q10 -36 32 -48q29 -17 70 -17q20 0 43 4l61 -301q-58 -10 -104 -10q-125 0 -228 59q-73 43 -121 119 q-25 -15 -155 -84q-145 -74 -293 -74q-35 0 -82 7q-117 19 -209 87.5t-135 168.5q-40 94 -40 187q0 38 7 76zM322 403q10 -27 40.5 -48t67.5 -27q17 -2 34 -2q73 0 157 41q143 71 223 131q2 31 18 190q2 6 2 14q-138 68 -230 72q-5 0 -10 1q-87 0 -165 -56 q-83 -57 -127 -149q-25 -52 -25 -99q0 -36 15 -68z" />
<glyph unicode="b" horiz-adv-x="1366" d="M0 412q3 34 6 69q18 185 20 443q1 108 1 193q-1 121 -3 199q-4 134 -14 453q-8 183 -10 263l307 10q1 -40 4 -126.5t4 -133.5q14 -366 17 -467q80 83 172 133q120 64 237 64q73 0 144 -25q112 -37 207 -135q82 -85 135 -203q59 -130 71 -270q5 -45 5 -90q0 -94 -23 -181 q-34 -132 -109 -252q-77 -117 -194 -206q-159 -118 -399 -164q-104 -17 -177 -17q-9 0 -26 1t-25 1q-128 9 -223 56l133 276q51 -26 134 -26q57 0 128 12q169 30 271 106q144 108 187 284q16 64 16 127q0 110 -48 216q-31 67 -74 113t-88 61q-22 7 -46 7q-44 0 -91 -25 q-112 -62 -205 -232q-96 -175 -131 -497q-1 -12 -3 -33t-3 -33z" />
<glyph unicode="c" horiz-adv-x="1341" d="M12 840q36 227 156 407q80 123 178 215q124 112 270 150q57 15 118 16q38 0 76 -6q100 -16 183 -68q72 -46 118.5 -112t59.5 -142l-301 -57q-5 28 -41 51q-27 18 -65 24q-14 2 -28 3q-22 0 -42 -6q-138 -37 -268 -236q-51 -78 -82 -176q-32 -97 -36 -201q0 -11 -1 -22 q0 -91 35 -166q44 -98 147 -158q87 -50 177 -51q17 0 34 2q109 12 198 90.5t112 184.5l299 -68q-45 -203 -207 -346q-162 -144 -371 -166q-20 -2 -61 -2q-175 0 -332 88q-187 107 -277 297q-62 137 -62 301q0 74 13 154z" />
<glyph unicode="d" horiz-adv-x="1533" d="M4 741q22 244 124.5 441.5t268.5 314.5q93 63 217 100q101 26 199 26q19 0 37 -1q128 -9 237 -59q45 161 136 409l286 -106q-139 -376 -191 -668q-36 -202 -35 -403q0 -91 7 -179q23 -290 125 -657l-297 -82q-64 228 -100 445q-55 -71 -103 -117q-107 -102 -215 -146 q-101 -43 -196 -43q-23 0 -88 9q-126 25 -221 114q-89 82 -138 193q-57 135 -57 310q0 48 4 99zM311 715q-4 -41 -4 -78q0 -108 33 -184q22 -49 58.5 -83t76.5 -42q15 -3 30 -3q41 -1 85 21q62 30 110 78q101 98 166 238.5t115 324.5q12 127 33 260q-88 69 -207 69h-11 q-126 -4 -223 -71q-110 -76 -178.5 -215.5t-83.5 -314.5z" />
<glyph unicode="e" horiz-adv-x="1333" d="M0 805q9 244 133 448q82 139 201 226q135 103 299 118q23 2 45 2q107 0 201 -40q121 -48 202 -144q85 -97 115 -221q16 -64 16 -129q0 -60 -14 -121q-24 -101 -84 -164q-58 -62 -176 -98q-146 -45 -304 -45q-57 0 -116 6q-100 12 -203 43q16 -99 66 -174 q38 -60 96.5 -105t124.5 -67q63 -22 130 -22h6q70 1 130 28q58 26 98 73.5t48 98.5l303 -41q-17 -131 -103.5 -241t-218.5 -170q-121 -56 -260 -56q-119 0 -229 39q-116 39 -217 117q-104 78 -168 182q-121 192 -121 434v23zM348 999q120 -47 250 -53q18 -1 36 -1 q111 0 216 32q23 5 41 14q0 1 1 4l3 9l4 12q6 24 6 49q1 27 -7 55q-14 54 -48 94t-86 60q-41 16 -84 17q-10 0 -21 -1q-72 -6 -141.5 -58t-122.5 -138q-33 -57 -47 -95z" />
<glyph unicode="f" horiz-adv-x="1282" d="M0 967l8 2q41 6 146 20.5t163 22.5q4 176 17 331q30 312 115 478q111 217 358 258q56 10 116 10q135 0 291 -49l-88 -293q-119 35 -209 35q-31 0 -59 -4q-95 -17 -137 -97q-57 -108 -82 -366q-10 -121 -14 -268q156 12 305 12v-307q-150 0 -309 -15q-6 -378 -11 -594 q-1 -83 -4.5 -315.5t-5.5 -423.5l-307 4q4 374 12 742q4 317 8 550q-72 -8 -260 -34l-10 -2z" />
<glyph unicode="g" horiz-adv-x="1482" d="M-238 -819l293 94q22 -69 113 -109q84 -36 174 -36h14q153 5 301.5 83.5t263 213.5t171.5 301q60 179 60 377q0 184 -52 384l-25 -36q-38 -62 -63 -99.5t-67.5 -93.5t-90.5 -100.5t-102 -79.5q-136 -84 -289 -84h-2q-180 0 -299 113q-111 108 -146 321q-13 86 -13 172 q0 152 40 305q62 236 211 430q91 116 201 191q141 93 284 102q17 1 34 1q77 0 153 -25q94 -32 166 -95q129 -116 135 -280l-307 -8q-2 28 -33 59q-50 44 -110 44q-7 0 -15 -1q-137 -12 -264 -176q-109 -141 -156 -320q-29 -115 -29 -228q0 -63 9 -126q14 -103 53 -145 q29 -27 86 -27q70 0 125 37q44 27 89 78t70.5 89t69.5 109l166 265q28 43 73 65q39 19 83 19h12q50 -5 90 -34.5t59 -76.5q127 -301 154 -600q6 -75 6 -148q0 -255 -76 -477q-56 -161 -155 -305t-230 -252q-134 -110 -290 -176q-168 -68 -340 -74h-25q-173 0 -324 74 q-197 98 -256 285z" />
<glyph unicode="h" horiz-adv-x="1531" d="M0 2040l307 14q4 -73 12.5 -222t10.5 -183q12 -191 16 -301q52 52 117 98q107 68 209 82q30 4 59 4q81 0 154 -31q100 -41 167.5 -131t92.5 -213q21 -103 25 -229q1 -47 1 -89q0 -73 -4 -134q-1 -45 -1 -86q0 -193 16 -285q0 -1 3 -12.5t6.5 -21t9 -20.5t13.5 -18t17 -8 q17 -3 29 12l245 -184q-53 -71 -137 -109q-67 -28 -135 -28q-6 0 -18.5 1t-18.5 1q-140 16 -227 129q-66 82 -88 200q-17 99 -21 222q-2 57 -2 108q0 58 2 107q4 66 4 139q0 29 -1 59q-2 106 -19 185q-19 97 -78 123q-16 7 -35 7q-43 0 -98 -36q-84 -57 -146 -164t-77 -221 q-22 -180 -35 -397q-23 -298 -35 -400l-305 37q25 209 27 507q0 39 1 77q0 249 -9 439q-10 218 -31 562q-2 36 -10.5 186t-12.5 224z" />
<glyph unicode="i" horiz-adv-x="526" d="M82 1632l29 295l305 -29l-29 -294zM84 6q14 343 14 809q0 311 -6 678l307 4q7 -396 6 -718q0 -474 -14 -787z" />
<glyph unicode="j" horiz-adv-x="815" d="M-776 -743q-2 21 -2 41q0 85 30 163l287 -106q-9 -27 -9 -52q0 -32 15 -61q31 -45 97 -80q76 -37 151 -43q7 0 20 -1t19 -1q73 0 137.5 26t109 65t82 92.5t59 99t38.5 94.5q26 77 40.5 168.5t17.5 167.5q2 31 2 68q0 52 -3 114q-5 106 -11.5 169.5t-18.5 172.5l-109 965 l305 35l109 -965q1 -10 8.5 -84t10 -103.5t7.5 -90.5t7 -110.5t2 -98.5q0 -284 -76 -508q-92 -270 -279 -424q-192 -160 -436 -160q-21 0 -67 4q-144 13 -265 76q-144 74 -215 188q-54 85 -63 179zM88 1790l307 25q8 -127 39 -289l-301 -62q-35 191 -45 326z" />
<glyph unicode="k" horiz-adv-x="1312" d="M0 2030l301 59q101 -504 113 -1038q314 251 596 522l213 -221q-131 -125 -265 -244q141 -203 222.5 -511.5t89.5 -582.5l-307 -8q-6 221 -71.5 479.5t-168.5 421.5q-171 -141 -313 -248q-15 -334 -68 -673l-303 49q61 383 67 776l-2 4l2 2q1 56 1 112q0 551 -107 1101z " />
<glyph unicode="l" horiz-adv-x="665" d="M183 1300q4 316 22 754l307 -14q-18 -430 -22 -744q-2 -148 -3 -281q0 -148 3 -276q5 -244 22 -729l-305 -10q-18 484 -23 734q-3 139 -3 298q0 128 2 268z" />
<glyph unicode="m" horiz-adv-x="2498" d="M0 1597l258 168q160 -248 246 -469q55 101 110 158q146 153 341 153q19 0 38 -1q127 -12 219 -101q69 -66 113 -176q7 -17 25 -72q43 101 88 170q59 88 145.5 136.5t185.5 48.5h3q107 0 202 -56q95 -54 154 -147q44 -69 74.5 -146t47.5 -165t25 -149t17 -158 q18 -172 24 -211q8 -47 15 -111q16 -147 39 -199q13 -32 28 -45t39 -20l-80 -297q-102 26 -174 98q-59 56 -98 148q-40 98 -60 282q-10 84 -12 92q-16 103 -26 232q-9 90 -15 138t-19 119t-33.5 125t-49.5 101q-40 62 -101 62q-42 0 -75 -48q-35 -55 -64 -124t-51.5 -155.5 t-34 -140.5t-28.5 -145q-38 -205 -58 -610q-2 -12 -2 -39v-2l-307 16q3 61 3 128q0 85 -5 183q-9 172 -20.5 285t-34.5 312h-2q-18 168 -52 252q-32 81 -71 81h-11q-65 0 -118 -57q-64 -67 -105 -186q-75 -237 -96 -606q-2 -158 -25 -467l-305 22q8 125 15 275q4 110 8 165 v45q0 315 -65 553q-70 254 -265 555z" />
<glyph unicode="n" horiz-adv-x="1572" d="M0 1579l293 88q61 -202 90 -307q31 51 74 94q145 154 334 154q20 0 40 -2q132 -13 220 -101q65 -62 110 -174q47 -116 70 -323q5 -39 8 -150q9 -259 31 -414q25 -166 67 -235q18 9 41 27l189 -242q-119 -96 -240 -96q-62 0 -115 24q-112 53 -174 201q-43 98 -67 244 q-29 183 -39 481q-4 115 -6 123q-18 170 -49 248q-14 36 -29.5 55t-23.5 21.5t-17 2.5q-8 1 -17 1q-59 0 -110 -56q-63 -66 -102 -182q-65 -202 -89 -492q-2 -185 -30 -569l-307 23q6 84 14 270q4 103 16 289v22q0 212 -37 414q-39 214 -145 561z" />
<glyph unicode="o" d="M29 1012q62 227 243 393q136 123 302 163q77 19 153 18q89 0 178 -25q165 -47 299 -175q189 -180 247 -406q24 -94 24 -189q0 -134 -48 -269q-76 -220 -288 -360q-183 -123 -385 -123q-22 0 -72 4q-5 1 -16.5 3t-16.5 3q-236 38 -401 187q-155 140 -215 344 q-34 108 -34 219q0 105 30 213zM326 668q38 -129 135 -211.5t235 -104.5q4 -1 11.5 -2t11.5 -2q5 0 16.5 -1t16.5 -1q119 0 232.5 81t154.5 196q25 71 29 141q1 15 0 29q0 53 -10 97q-13 56 -40 108.5t-57 90.5t-68 74q-121 115 -266 115q-137 0 -248 -102 q-109 -100 -151 -236q-21 -70 -22 -139q0 -67 20 -133z" />
<glyph unicode="p" horiz-adv-x="1757" d="M0 1511l305 35q35 -299 62 -680q89 299 235 461q140 149 291 197q79 26 170 26q25 0 51 -2q109 -9 207 -55q106 -50 191 -137t137 -201q68 -151 68 -307q0 -77 -17 -156q-54 -228 -227 -395q-170 -162 -392 -219q-102 -26 -202 -26q-33 0 -65 2q-132 12 -239 69l142 272 q70 -37 158 -37q60 0 129 17q147 37 256.5 143.5t138.5 241.5q10 45 10 90q0 88 -40 176q-61 134 -177 188q-65 30 -126 30q-40 0 -79 -13q-77 -24 -158 -111q-42 -47 -78.5 -116t-60.5 -133t-48 -159t-36 -153.5t-31 -157.5q-9 -49 -18 -96q-38 -189 -67.5 -618.5 t-40.5 -800.5l-308 8q1 68 1 143q0 460 -38 1134q-43 783 -104 1340z" />
<glyph unicode="q" horiz-adv-x="1787" d="M12 575q-12 76 -12 154q0 88 15 179q29 172 108 325q86 167 217 281.5t291 164.5h2l2 2q70 21 143 21q45 0 90 -8q107 -18 203 -84q135 -89 228 -248t108 -326l-305 -28q-9 96 -66.5 195.5t-134.5 152.5q-58 39 -119 39q-29 0 -59 -9h-2q-108 -34 -195.5 -118t-138 -190 t-70.5 -225q-11 -63 -11 -122q0 -53 9 -104q28 -163 121 -246q82 -74 189 -75h1q106 0 175 73q199 208 264 483l299 -71v-3q-68 -277 -68 -634q0 -187 19 -396q8 -107 10 -166q6 -116 12 -183t24 -157.5t48 -158.5q15 29 25 74t13 74.5t7 86.5l307 -20q-6 -83 -11.5 -131.5 t-29.5 -130.5t-65 -142q-53 -80 -137 -123q-57 -28 -123 -28q-59 0 -107 22q-82 40 -133 140q-76 144 -106 335q-19 118 -31 324q-2 57 -10 158q-19 226 -19 401q-152 -133 -362 -133q-111 0 -209 39q-111 43 -189 115q-89 80 -145 198q-50 97 -72 223z" />
<glyph unicode="r" horiz-adv-x="1165" d="M0 1550l307 2q0 -124 2 -192l8 8q93 108 209 157q83 35 165 35q34 0 67 -6q140 -28 235 -149q85 -111 97 -246q1 -16 1 -31q0 -106 -36 -206q-44 -110 -103 -193l-252 176q83 119 83 215q0 8 -1 15q-3 41 -28 76t-54 40q-7 1 -13 1q-27 0 -59 -18q-40 -22 -77 -65 q-126 -149 -143 -393q-5 -72 -5 -185q0 -75 2 -169q6 -234 21 -359l-303 -51q-61 299 -91 727.5t-32 810.5z" />
<glyph unicode="s" horiz-adv-x="1277" d="M0 354l299 70q9 -41 37 -71t64.5 -45.5t80.5 -24.5q38 -8 74 -8q6 1 12 1q42 2 80 5q42 7 85 22.5t85.5 41.5t66.5 67q21 35 22 76q0 7 -1 14q-3 29 -32.5 61.5t-75.5 57.5q-43 24 -138 59q-110 42 -147 61q-136 68 -195 166q-56 91 -56 219q0 28 3 58q6 117 47 213 q52 121 144 198q63 49 141 71q56 16 110 16q22 0 44 -3q148 -16 229 -123q30 -37 49 -80.5t25.5 -93t8 -75.5t1.5 -72l-307 2q0 105 -17 129q-8 8 -22 8h-10q-36 0 -58 -18q-71 -55 -80 -197q-1 -15 -1 -28q0 -42 12 -66q13 -21 67 -49q66 -28 121 -49q108 -38 176 -76 q103 -54 168 -135q86 -102 98 -226q2 -24 3 -47q0 -85 -32 -165q-40 -101 -126 -177q-144 -128 -359 -164q-75 -10 -131 -10q-152 0 -282 56q-110 50 -183.5 135.5t-99.5 195.5z" />
<glyph unicode="t" horiz-adv-x="1120" d="M0 1487q170 30 287 43q9 87 32 238t31 210l8 50l304 -43l-7 -50q-7 -48 -28 -178.5t-29 -206.5q30 1 64 1q79 0 176 -5l-15 -307q-104 5 -187 5q-36 0 -67 -1q-5 -97 -5 -200q0 -246 30 -527q11 -88 37 -154q17 -37 37 -43q21 -3 49 21q41 25 100 111l252 -177 q-76 -111 -172 -184q-111 -78 -225 -78q-30 0 -76 8q-162 39 -242 211q-46 95 -65 252q-32 281 -32 535q0 102 5 199q-71 -9 -209 -31z" />
<glyph unicode="u" horiz-adv-x="1644" d="M10 647q-10 78 -10 161q0 98 14 202q14 109 45.5 241t52 201t60.5 197l293 -93q-2 -7 -15 -49t-16.5 -54.5t-16 -53.5t-17.5 -59.5t-16 -57.5t-16.5 -63t-14 -60.5t-14 -64.5t-11 -61t-9.5 -64q-12 -90 -12 -167q0 -204 84 -325q20 -28 42.5 -53t57.5 -50.5t73 -38.5 q34 -12 78 -11h10q50 2 102 24q190 86 260 443q38 187 38 564q0 74 -1 154v17l307 6v-16q13 -579 80 -1000q33 -203 90 -272q35 -47 96 -47h2v-308h-2q-97 0 -185 41.5t-149 116.5q-81 97 -127 275q-113 -179 -286 -254q-122 -53 -240 -53q-92 0 -182 32q-190 70 -316 254 q-102 143 -129 346z" />
<glyph unicode="v" horiz-adv-x="1581" d="M0 1479l270 145q235 -431 418 -952q62 152 143 286q173 295 510 648l222 -213q-152 -159 -261 -295t-204.5 -291.5t-154 -323t-81.5 -350.5q-6 -59 -53 -100q-38 -38 -94 -41h-13q-48 0 -88 24q-51 31 -67 93q-121 410 -251 735t-296 635z" />
<glyph unicode="w" horiz-adv-x="2115" d="M0 1470l281 125q51 -113 106 -271.5t88 -268.5t90 -310q84 -277 84 -278q15 22 55 108t87 183.5t99 194.5t104 160q51 61 89 61h2q24 -1 85.5 -88t107 -165t70.5 -126q47 -86 137 -258q80 289 182 612t152 442l282 -116q-66 -159 -217 -662t-186 -684q-19 -87 -84 -125 q-41 -26 -86 -26q-22 0 -45 6q-75 23 -111 94q-5 10 -15.5 31.5t-15.5 31.5q-199 388 -264 506q-64 -109 -162 -338q-85 -198 -135 -293h-2v-2q-38 -71 -106 -88q-21 -6 -43 -6q-71 0 -123 55q-24 27 -39 64q-68 183 -197 620q-59 202 -88.5 301t-82 252.5t-99.5 257.5z" />
<glyph unicode="x" horiz-adv-x="1708" d="M0 106q263 255 545 644q-156 271 -381 733l276 135q162 -335 299 -588q154 234 389 619l261 -160q-302 -497 -476 -750q63 -101 177 -254q31 -40 53 -65.5t52 -57t60 -54.5t62 -38q54 -28 111 -29h4q54 0 88 25l184 -246q-116 -86 -268 -86h-4q-133 0 -254 62 q-165 84 -330 301q-51 64 -127 174q-257 -342 -508 -584z" />
<glyph unicode="y" horiz-adv-x="1630" d="M-459 -666q15 120 97 205l219 -215q-10 -11 -12 -35t8 -51q24 -64 116 -129q175 -121 411 -125h14q229 0 419 113q189 113 316.5 316t156.5 440q9 75 9 152q0 124 -23 251q-38 206 -125 438q-27 -89 -72 -194q-53 -120 -121 -207q-94 -119 -221 -166q-75 -28 -152 -28 q-106 0 -216 53q-167 81 -256 239q-40 71 -64 150.5t-31 160.5q-7 76 -7 137q0 4 1 9q0 64 6 141q21 279 99 555l295 -82q-68 -245 -89 -497q-5 -62 -5 -118q0 -196 61 -304q44 -75 123 -115q44 -21 84 -21q23 0 45 7q91 34 166 209q119 275 131 567q1 58 38.5 101.5 t94.5 54.5q18 4 35 4q38 0 73 -18q51 -26 76 -79q195 -425 272 -684q88 -302 88 -573q0 -92 -10 -180q-39 -306 -198 -561q-169 -273 -424 -422q-136 -79 -285 -119q-142 -37 -293 -37h-12q-333 3 -584 180q-166 114 -229 269q-29 76 -29 152q0 28 4 56z" />
<glyph unicode="z" horiz-adv-x="1316" d="M2 242q6 68 67.5 169.5t239.5 344.5q209 288 295 424q69 108 109 194h-15q-252 0 -479 -96l-119 285q287 118 596 118q42 0 84 -2q91 0 156 -43q83 -52 98 -147q4 -23 4 -48q0 -78 -41 -181q-50 -113 -116 -220q-113 -180 -324 -465q-32 -46 -88.5 -124t-65.5 -91 q83 47 336 197q274 165 398 234l149 -271q-165 -90 -389 -227q-276 -163 -399 -232q-45 -24 -72 -37t-79.5 -28.5t-100.5 -15.5q-17 0 -49 4q-115 19 -168 108q-28 47 -28 122q0 14 1 28z" />
<glyph unicode="{" horiz-adv-x="1675" d="M383 1130q6 51 39.5 92t83.5 58q63 21 84 42.5t28 55.5q5 34 -10 140q-10 56 -14 84.5t-4.5 81t10.5 96.5q16 82 57 151q64 122 203 166q150 42 301 -41l-149 -268q-38 21 -68 12q-7 0 -18 -16q-23 -48 -27 -70q-8 -39 10 -143q7 -36 10.5 -59t7 -58t1.5 -68.5t-8 -66.5 q-27 -138 -127 -227q4 -4 12 -12.5t12 -12.5q64 -77 102 -150.5t39 -160.5q2 -96 -45 -248q-3 -10 -9 -29.5t-9 -29.5q-14 -63 -12 -106.5t16 -63.5q6 -18 45 -25q7 4 29 20q16 16 61 66l234 -201q-74 -83 -125 -121q-95 -71 -197 -71q-29 0 -43 2q-170 27 -262 160 q-33 51 -49.5 112t-16.5 118.5t6.5 102.5t18.5 86q3 12 18 70q33 101 33 154q0 7 -2.5 15.5t-8 18.5t-10 18t-13 19t-13 16.5t-13 16t-9.5 12.5q-35 40 -113 88q-44 28 -67.5 74.5t-18.5 99.5z" />
<glyph unicode="|" horiz-adv-x="1497" d="M597 308.5q-2 409.5 5 821.5t11.5 635.5t7.5 327.5l307 -8q0 -1 -1.5 -63.5t-4 -167.5t-5 -246.5t-5 -307t-4.5 -341.5t-2.5 -357.5t0.5 -347.5t4.5 -320t9.5 -266l-308 -14q-13 245 -15 654.5z" />
<glyph unicode="}" horiz-adv-x="1622" d="M289 109l231 200q39 -43 64 -65q20 -17 28 -21q32 6 45 25q14 21 16 63.5t-14 106.5q-3 17 -16 59q-47 151 -47 248q5 151 143 309q16 20 23 27q-101 91 -125 227q-9 43 -8.5 94t4 76t12.5 82q19 110 12 143q-10 37 -28 70q-8 16 -19 16q-27 9 -65 -12l-150 268 q71 40 150 50.5t151 -11.5q135 -39 203 -163q42 -77 57 -152q21 -101 -8 -262q-18 -101 -10 -139q5 -34 26.5 -56t86.5 -43q49 -17 81.5 -57.5t38.5 -93.5q6 -51 -17.5 -98.5t-68.5 -73.5q-80 -52 -112 -90q-68 -78 -70 -117q0 -39 33 -152q3 -10 10 -32.5t10 -36.5 q67 -253 -43 -420q-84 -132 -260 -160q-14 -2 -43 -2q-101 0 -198 72q-49 38 -123 121z" />
<glyph unicode="~" d="M266 1217q7 99 55.5 181.5t124.5 129.5t162 45q68 -2 174 -49q5 -2 11.5 -4.5t7.5 -3.5q69 -30 100 -25q25 5 35 33l287 -111q-34 -89 -107.5 -149.5t-165.5 -75.5q-30 -6 -59 -6q-103 0 -215 53q-6 1 -23 10q-4 2 -22 10.5t-25 10.5q-11 -7 -21.5 -27t-11.5 -45z" />
<glyph unicode="&#xa1;" horiz-adv-x="897" d="M295 1657v360h307v-360h-307zM297 1481l307 -8q-22 -773 4 -1483l-307 -10q-26 719 -4 1501z" />
<glyph unicode="&#xa2;" horiz-adv-x="1316" d="M12 840q36 227 156 407q80 123 178 215q124 112 270 150q11 4 37 8q25 99 39 149q22 83 39 142l238 -64q-23 -82 -39 -143q-3 -12 -13.5 -49t-15.5 -56q47 -17 92 -45q72 -46 118.5 -112t59.5 -142l-301 -57q-5 28 -41 51l-8 4q-70 -283 -98 -503.5t-18 -485.5 q107 10 194.5 89t110.5 184l299 -68q-45 -203 -207 -346q-162 -144 -371 -166h-6q13 -130 20 -186l-245 -29q-18 158 -25 242q-73 22 -137 59q-187 107 -277 297q-90 200 -49 455zM307.5 701.5q-4.5 -103.5 34.5 -187.5q37 -81 115 -137q-5 217 20 438q22 188 78 420 q-59 -48 -129 -156q-51 -78 -82.5 -176t-36 -201.5z" />
<glyph unicode="&#xa3;" horiz-adv-x="1452" d="M0 836v307h131q17 224 64 395q46 165 110 274q83 144 197 236q173 144 409 172q235 27 439 -74l-138 -276q-122 61 -266 44.5t-250 -102.5q-64 -53 -111 -127t-76 -164.5t-45 -179t-26 -198.5h267v-307h-285q-2 -44 -9 -167t-10 -190q0 -35 -2 -51q149 67 314 76 q256 13 461 -92q226 -120 339 -344l-274 -138q-68 135 -203.5 206t-306.5 61q-139 -6 -248 -72q-102 -58 -102 -133v-2l-307 8v4v6q5 87 24 484q3 80 17 344h-113z" />
<glyph unicode="&#xa4;" horiz-adv-x="1705" d="M102 481l201 201q-49 101 -55 223q-6 152 49 295q3 7 9 20.5t9 20.5l-213 215l217 217l191 -190q70 52 152 80q98 33 212 24q172 -16 312 -114l200 200l218 -217l-211 -213q29 -56 41 -98q48 -156 8 -309q-20 -80 -53 -140l215 -215l-218 -217l-204 205q-97 -63 -211 -90 q-72 -14 -123 -14q-168 0 -334 94l-195 -195zM555 922q4 -118 84 -177q58 -44 129.5 -62.5t130.5 -4.5q93 22 158.5 83.5t87.5 147.5q38 165 -101 285q-100 86 -215 86q-90 0 -157 -61q-57 -53 -89 -134t-28 -163z" />
<glyph unicode="&#xa5;" horiz-adv-x="1669" d="M0 1786l240 190q110 -136 268 -364q211 -294 276 -375q191 252 323.5 412.5t285.5 314.5l219 -215q-152 -154 -285 -317.5t-369 -475.5q38 -2 205 -20q58 -5 70 -6l-31 -307q-24 4 -72 8q-183 19 -202 20v-141q66 -4 241 -23q13 -1 36.5 -3t35.5 -3l-33 -307q-29 5 -71 8 q-28 3 -72.5 8t-77 8t-59.5 5v-205h-307v195q-94 -13 -250 -56l-80 297q196 53 330 70v139q-114 -16 -259 -57l-77 297q174 49 336 69v2q-132 152 -363 480q-174 247 -258 352z" />
<glyph unicode="&#xa6;" horiz-adv-x="1599" d="M634.5 423.5q-1.5 190.5 3.5 273t12 149.5t7 76l308 -9q0 -2 -2.5 -18t-6 -47.5t-7 -78.5t-5.5 -120.5t-2.5 -162t3 -215t11.5 -269.5l-307 -14q-13 245 -14.5 435.5zM634.5 1570q-1.5 190 3.5 272.5t12 149.5t7 76l308 -8q0 -2 -2.5 -18t-6 -47.5t-7 -78.5t-5.5 -120.5 t-2.5 -162t3 -215t11.5 -269.5l-307 -14q-13 245 -14.5 435z" />
<glyph unicode="&#xa8;" horiz-adv-x="1564" d="M362 1966l306 39q12 -99 20 -276l-307 -11q-4 133 -19 248zM815 1966l305 39q18 -152 21 -276l-307 -11q-4 133 -19 248z" />
<glyph unicode="&#xa9;" horiz-adv-x="3336" d="M2 705q-9 209 31 407q50 247 176 465q130 218 315 377q186 165 422 268q242 106 506 133q272 31 539 -37q265 -63 491 -217q216 -147 365 -360q145 -211 211 -455q68 -247 52.5 -500.5t-112.5 -482.5q-91 -211 -241 -389q-144 -172 -342 -307q-194 -132 -418 -207 q-233 -78 -465 -84h-37q-226 0 -448.5 67.5t-415.5 194.5q-205 135 -350 321t-211 400q-59 192 -68 406zM310 714.5q8 -171.5 55 -325.5q66 -214 237 -389.5t407.5 -276t485.5 -100.5h29q250 6 488 109.5t423 284t281 407.5q63 148 82 311t-6.5 321t-87 305t-163 272.5 t-231.5 213.5q-177 120 -392.5 173t-432.5 30q-289 -30 -533 -165t-405.5 -351t-212.5 -481q-32 -167 -24 -338.5zM913 840q35 221 156 407q89 133 180 215q125 112 269 150q94 25 193.5 9.5t182.5 -67.5q72 -46 119 -112t62 -142l-303 -57q-5 28 -41 51q-27 19 -65.5 24.5 t-68.5 -3.5q-140 -36 -270 -236q-51 -78 -82.5 -176t-35.5 -201t34 -188q46 -99 148.5 -158.5t210.5 -48.5q109 12 197.5 90.5t113.5 184.5l299 -68q-48 -204 -209 -346q-159 -144 -369 -166q-20 -2 -63 -2q-175 0 -332 88q-91 53 -162 129.5t-112 167.5q-92 205 -52 455z " />
<glyph unicode="&#xaa;" horiz-adv-x="1085" d="M12 1749q91 157 221 239.5t279 79.5q175 -6 285 -122q93 -104 123 -275q21 -114 12 -262q-1 -22 -10 -102q-17 -126 -11 -177q3 -48 21 -57q28 -17 76 -8l51 -260q-36 -8 -82 -8q-102 0 -182 47q-51 29 -88 82q-62 -35 -107 -56q-111 -57 -229 -57q-46 0 -66 4 q-92 15 -166 70.5t-108 134.5q-66 151 6 319q57 135 184 226q153 108 336 84q40 -7 100 -25q-17 97 -57 137q-32 37 -96 39q-147 4 -260 -184zM274 1126q16 -37 72 -47q62 -10 135 29q106 54 162 94q2 57 14 137q-96 47 -160 49t-122 -38q-65 -46 -94 -115q-25 -60 -7 -109z " />
<glyph unicode="&#xab;" horiz-adv-x="1976" d="M102 885q110 108 274 272t265.5 263t196.5 184l206 -228q-94 -85 -413 -399q-8 -8 -23.5 -24t-28.5 -29t-26 -25q160 -134 334 -268q87 -64 211 -164l-191 -240q-31 25 -102 80t-105 82q-263 201 -475 387zM840 885q113 111 274.5 272.5t264 261.5t196.5 185l207 -228 q-106 -96 -414 -399q-8 -8 -23.5 -24t-28.5 -29t-26 -25q160 -134 334 -268q87 -64 211 -164l-190 -240q-31 25 -102 80t-105 82q-263 201 -475 387z" />
<glyph unicode="&#xac;" horiz-adv-x="2117" d="M0 1290q300 43 491.5 64.5t372.5 25.5q347 8 883 -67l90 -13l31 -83q36 -92 47 -195t-2 -207t-32 -188t-50 -181l-293 91q97 308 66 485q-195 27 -352.5 39t-283.5 14.5t-283.5 -10.5t-285 -29t-356.5 -49z" />
<glyph unicode="&#xad;" horiz-adv-x="1507" d="M184 1016q327 37 572.5 37.5t572.5 -33.5l-33 -307q-313 33 -539.5 32.5t-539.5 -34.5z" />
<glyph unicode="&#xae;" horiz-adv-x="3241" d="M2 705q-9 209 31 407q50 247 176 465q130 218 315 377q186 165 422 268q242 106 506 133q272 31 539 -37q265 -63 491 -217q216 -147 365 -360q145 -211 211 -455q68 -247 52.5 -500.5t-112.5 -482.5q-91 -211 -241 -389q-144 -172 -342 -307q-194 -132 -418 -207 q-233 -78 -465 -84h-37q-226 0 -448.5 67.5t-415.5 194.5q-205 135 -350 321t-211 400q-59 192 -68 406zM310 714.5q8 -171.5 55 -325.5q66 -214 237 -389.5t407.5 -276t485.5 -100.5h29q250 6 488 109.5t423 284t281 407.5q63 148 82 311t-6.5 321t-87 305t-163 272.5 t-231.5 213.5q-177 120 -392.5 173t-432.5 30q-289 -30 -533 -165t-405.5 -351t-212.5 -481q-32 -167 -24 -338.5zM881 561l133 277q5 -2 15 -6.5t15 -6.5q-8 388 -38 791l79 6q183 126 396 147q179 19 356 -69q168 -80 279 -232q91 -126 107 -267t-46 -273 q-66 -143 -195 -254q-66 -57 -143 -96q13 -85 27 -152q24 -145 65 -166q27 -14 76 2q43 12 137 74l166 -260q-125 -80 -213 -109q-75 -20 -135 -20q-97 0 -176 43q-110 59 -168 188q-33 73 -55 193q-3 18 -9.5 53.5t-9.5 52.5q-98 -16 -188 -16q0 -260 -8 -463l-308 10 q9 240 9 492q-97 26 -168 61zM1327 1409q19 -330 25 -641q84 0 153 14q-2 23 -6 69.5t-6 68.5l307 20q0 -10 2 -16q62 59 96 133q53 115 -32 231q-59 85 -161 135t-192 41q-92 -9 -186 -55z" />
<glyph unicode="&#xb0;" horiz-adv-x="1423" d="M414 2005q-16 98 28 172q38 71 115 107q79 36 164 20q90 -15 151 -86q53 -66 62 -150q12 -114 -66 -196q-63 -69 -163 -82q-6 0 -18.5 -1t-18.5 -1q-82 0 -144 41q-95 61 -110 176zM616 2034q3 -27 22 -35t40 -4q58 6 51 53q0 21 -12 37q-18 18 -45 18q-17 0 -29 -6 q-36 -15 -27 -63z" />
<glyph unicode="&#xb1;" horiz-adv-x="1705" d="M205 1157q229 25 487 35q6 244 33 487l305 -32q-25 -238 -31 -455q229 -3 519 -33l-31 -305q-253 28 -488 31q6 -243 33 -486l-305 -32q-30 283 -35 518q-225 -9 -454 -33zM328 201l49 -303q237 37 526 43t557 -21l33 305q-292 29 -582 23q-323 -6 -583 -47z" />
<glyph unicode="&#xb2;" horiz-adv-x="1007" d="M0 1886q47 125 197 217q134 83 278 92q117 9 207.5 -35.5t140.5 -134.5q106 -190 -55 -446q-71 -110 -162 -215q196 -3 355 -39l-62 -299q-284 57 -682 8q-6 -2 -20 -2q-50 0 -91.5 29t-60.5 78q-20 52 -3 105.5t64 84.5q247 169 402 414q24 38 37 70t12.5 44t-2.5 19 q-11 19 -57 14q-78 -7 -140 -49q-62 -37 -71 -65z" />
<glyph unicode="&#xb3;" horiz-adv-x="1019" d="M0 1161l182 246q81 -60 218.5 -73t209.5 32q18 11 35 37t21 53q2 23 -7 37q-20 10 -79 10q-63 -3 -113 -20l-115 284q120 49 205 131q2 1 8 7q-35 12 -78 6q-64 -14 -81 -43l-261 162q68 111 203 159q103 40 227 27q105 -13 175 -57q99 -56 131 -156q44 -129 -47 -256 q36 -25 53 -47q106 -118 84 -287q-13 -92 -66.5 -174.5t-130.5 -132.5q-133 -82 -321 -82q-24 0 -78 4q-223 19 -375 133z" />
<glyph unicode="&#xb4;" horiz-adv-x="1376" d="M410 1974q69 37 106 55.5t124 57t206 86.5l100 -246q-274 -112 -409 -188z" />
<glyph unicode="&#xb5;" horiz-adv-x="1933" d="M2 207q24 823 469 1392q37 49 96 62t111 -16q54 -28 76.5 -84t3.5 -113q-49 -147 -79 -268.5t-50 -264.5t-6 -278t63 -252q49 -114 102 -129q26 -7 61.5 7.5t63.5 43.5q58 62 115 221q123 333 297 979q15 61 67 96t115 27q62 -9 102.5 -57t39.5 -111q-4 -291 6.5 -508.5 t50.5 -423.5q26 -139 70 -206q22 -34 51 -55.5t55 -22.5l-20 -307q-112 10 -205 73q-83 58 -139 144q-74 114 -115 315q-20 113 -23 135q-43 -130 -63 -184q-39 -106 -78.5 -183t-101.5 -143q-84 -88 -189 -125q-125 -46 -248 -10q-192 59 -297 305q-47 109 -69 230 q-106 -708 180 -1620l-293 -93q-113 359 -168 693q-63 392 -51 731z" />
<glyph unicode="&#xb8;" horiz-adv-x="1468" d="M430 88v182h307v-114q69 6 131.5 -18t106.5 -75q57 -65 68 -153t-27 -176q-59 -136 -191 -230q-89 -63 -233 -114l-98 293q182 61 233 159q-109 -22 -197 45q-100 78 -100 201z" />
<glyph unicode="&#xb9;" horiz-adv-x="1007" d="M0 1280q147 40 307 55l23 467q-42 -24 -94 -61l-179 252q15 11 54 40t66.5 49.5t72 48.5t79 44.5t77 29.5t77 11.5t69 -18t60.5 -50.5q37 -46 37 -125l-35 -684q175 -13 330 -51l-74 -299q-395 101 -792 -6z" />
<glyph unicode="&#xba;" d="M188 1591q36 228 189 363q71 59 162 98q92 32 178 35q207 9 375 -111q179 -129 233 -354q38 -157 -6 -324q-42 -161 -141 -272q-83 -96 -197 -147.5t-242 -51.5q-35 0 -53 2q-151 12 -266 97q-139 105 -201 299q-58 184 -31 366zM492 1544q-16 -119 18 -225 q36 -104 92 -145q43 -34 111 -37q54 -6 118 12.5t117 79.5q53 60 75 151t3 170q-26 112 -108.5 172t-176.5 60q-8 0 -10 -2q-23 -1 -46 -5.5t-55.5 -19.5t-58 -39t-48 -68.5t-31.5 -103.5z" />
<glyph unicode="&#xbb;" horiz-adv-x="1896" d="M80 467q73 59 211 164q200 154 334 268l-78 78q-312 307 -412 399l205 228q131 -117 424 -410q29 -27 194 -193l117 -116l-123 -109q-200 -175 -473 -387q-150 -117 -209 -162zM797 467q73 59 211 164q189 146 333 268q-14 14 -39.5 40t-37.5 38q-312 307 -412 399 l205 228q131 -117 424 -410q29 -27 194 -193l117 -116l-123 -109q-200 -175 -473 -387q-150 -117 -209 -162z" />
<glyph unicode="&#xbc;" horiz-adv-x="2412" d="M0 1280q147 40 307 55l23 467q-42 -24 -94 -61l-179 252q15 11 54 40t66.5 49.5t72 48.5t79 44.5t77 29.5t77 11.5t69 -18t60.5 -50.5q37 -46 37 -125l-35 -684q175 -13 330 -51l-74 -299q-395 101 -792 -6zM831 -51l308 6q-9 538 144.5 1060t442.5 935l-249 176 q-162 -229 -289 -498q-126 -271 -203 -541q-80 -279 -121 -565q-39 -300 -33 -573zM1229 299l319 926l291 -101l-170 -493q105 8 158 10q2 29 5 88t5 88l307 -16q-4 -46 -8 -142q57 6 115 9l16 -308q-26 -1 -74 -4t-69 -4q-6 -125 -10 -381l-308 4q3 176 9 359 q-98 -7 -359 -23z" />
<glyph unicode="&#xbd;" horiz-adv-x="2377" d="M0 1280q147 40 307 55l23 467q-42 -24 -94 -61l-179 252q15 11 54 40t66.5 49.5t72 48.5t79 44.5t77 29.5t77 11.5t69 -18t60.5 -50.5q37 -46 37 -125l-35 -684q175 -13 330 -51l-74 -299q-395 101 -792 -6zM848 -51l307 6q-10 537 144 1059t444 936l-252 176 q-174 -253 -287 -498q-119 -249 -205 -541q-80 -279 -118 -565q-39 -280 -33 -573zM1321 872l287 -110q15 30 71 65q64 43 140 50q48 4 59 -15q1 -8 1 -19.5t-12.5 -43.5t-35.5 -70q-161 -251 -404 -412q-46 -32 -62.5 -85.5t3.5 -106.5q17 -49 59 -78t93 -29q3 0 10 1t10 1 q397 49 680 -8l61 301q-164 34 -354 37q101 117 162 215q164 256 57 447q-51 90 -142 134.5t-208 37.5q-142 -12 -278 -94q-145 -88 -197 -218z" />
<glyph unicode="&#xbe;" horiz-adv-x="2267" d="M0 1161l182 246q81 -60 218.5 -73t209.5 32q18 11 35 37t21 53q2 23 -7 37q-20 10 -79 10q-63 -3 -113 -20l-115 284q120 49 205 131q2 1 8 7q-35 12 -78 6q-64 -14 -81 -43l-261 162q68 111 203 159q103 40 227 27q105 -13 175 -57q99 -56 131 -156q44 -129 -47 -256 q36 -25 53 -47q106 -118 84 -287q-13 -92 -66.5 -174.5t-130.5 -132.5q-133 -82 -321 -82q-24 0 -78 4q-223 19 -375 133zM801 -51q-6 293 33 573q38 286 118 565q86 292 205 541q113 245 287 498l252 -176q-290 -414 -444 -936t-144 -1059zM1178 299l317 926l291 -101 l-170 -493q111 8 160 10q1 30 4 89t4 87l307 -16q-1 -24 -3 -71.5t-3 -70.5q56 6 113 9l16 -308q-25 -1 -72.5 -4t-70.5 -4q-10 -316 -11 -381l-307 4q2 115 10 359q-91 -6 -358 -23z" />
<glyph unicode="&#xbf;" horiz-adv-x="1171" d="M0 416q-3 129 55 258q24 52 61 108.5t60.5 86t73.5 89.5q43 55 53 66q269 346 227 639l304 45q34 -226 -60 -475q-80 -208 -229 -397l-58 -72q-40 -49 -61 -75t-48 -66.5t-42 -75.5q-28 -60 -28 -120t26 -93q40 -52 149 -68q116 -14 224 30t163 128l256 -168 q-105 -163 -303 -246q-184 -72 -379 -47q-105 12 -184 51q-104 48 -168 129q-89 116 -92 273zM532 2114l308 -31q-12 -99 4 -205l-305 -45q-19 146 -7 281z" />
<glyph unicode="&#xc0;" horiz-adv-x="1527" d="M12 657q51 208 238 363q113 93 268 137q144 38 291 29q78 -6 160 -39q2 16 2 43q4 181 -17 262q-28 109 -98 150q-54 29 -135.5 28t-159.5 -33q-67 -28 -112.5 -69.5t-59.5 -87.5l-295 88q35 115 126.5 207.5t223.5 146.5q134 55 281 55q162 0 281 -67q97 -54 161 -152 q56 -79 84 -188q14 -56 21 -120t7 -116.5t-1 -109.5q0 -42 -8 -160q-5 -79 -6.5 -113t-4 -117t1.5 -131.5t12 -113t25.5 -109t42.5 -73.5q36 -40 103 -45l-21 -308q-93 6 -176 45q-75 37 -137 105q-25 28 -45 61q-57 -40 -184 -100q-150 -72 -320 -72q-55 0 -147 15 q-175 36 -273 131q-91 85 -127 219q-29 124 -2 239zM312 495q11 -47 40 -73q39 -36 119 -51q153 -29 277 30q96 46 141.5 77.5t73.5 76.5q0 1 -3 22t-4 33q-6 71 -6 148q-1 51 -54 84.5t-110 36.5q-93 7 -186.5 -19.5t-155.5 -77.5q-109 -89 -131 -194q-12 -46 -1 -93z M406 2224l100 246q119 -48 206 -86.5t124 -57t106 -55.5l-127 -235q-135 76 -409 188z" />
<glyph unicode="&#xc1;" horiz-adv-x="1527" d="M12 657q51 208 238 363q113 93 268 137q144 38 291 29q78 -6 160 -39q2 16 2 43q4 181 -17 262q-28 109 -98 150q-54 29 -135.5 28t-159.5 -33q-67 -28 -112.5 -69.5t-59.5 -87.5l-295 88q35 115 126.5 207.5t223.5 146.5q134 55 281 55q162 0 281 -67q97 -54 161 -152 q56 -79 84 -188q14 -56 21 -120t7 -116.5t-1 -109.5q0 -42 -8 -160q-5 -79 -6.5 -113t-4 -117t1.5 -131.5t12 -113t25.5 -109t42.5 -73.5q36 -40 103 -45l-21 -308q-93 6 -176 45q-75 37 -137 105q-25 28 -45 61q-57 -40 -184 -100q-150 -72 -320 -72q-55 0 -147 15 q-175 36 -273 131q-91 85 -127 219q-29 124 -2 239zM312 495q11 -47 40 -73q39 -36 119 -51q153 -29 277 30q96 46 141.5 77.5t73.5 76.5q0 1 -3 22t-4 33q-6 71 -6 148q-1 51 -54 84.5t-110 36.5q-93 7 -186.5 -19.5t-155.5 -77.5q-109 -89 -131 -194q-12 -46 -1 -93z M483 2273q185 98 437 199l100 -246q-176 -72 -254.5 -108.5t-155.5 -79.5z" />
<glyph unicode="&#xc2;" horiz-adv-x="1527" d="M12 657q51 208 238 363q113 93 268 137q144 38 291 29q78 -6 160 -39q2 16 2 43q4 181 -17 262q-28 109 -98 150q-54 29 -135.5 28t-159.5 -33q-67 -28 -112.5 -69.5t-59.5 -87.5l-295 88q35 115 126.5 207.5t223.5 146.5q134 55 281 55q162 0 281 -67q97 -54 161 -152 q56 -79 84 -188q14 -56 21 -120t7 -116.5t-1 -109.5q0 -42 -8 -160q-5 -79 -6.5 -113t-4 -117t1.5 -131.5t12 -113t25.5 -109t42.5 -73.5q36 -40 103 -45l-21 -308q-93 6 -176 45q-75 37 -137 105q-25 28 -45 61q-57 -40 -184 -100q-150 -72 -320 -72q-55 0 -147 15 q-175 36 -273 131q-91 85 -127 219q-29 124 -2 239zM256 2165q31 37 150 166q52 51 98 104q81 93 190 96q85 0 154 -55q38 -26 76 -70l16 -16q45 -47 139 -141l70 -70l-219 -217q-23 25 -70 72q-22 22 -68.5 69.5t-70.5 71.5q-3 3 -9.5 9t-9.5 9q0 2 -2 2q-25 -27 -71 -77 q-86 -89 -137 -150zM312 495q11 -47 40 -73q39 -36 119 -51q153 -29 277 30q96 46 141.5 77.5t73.5 76.5q0 1 -3 22t-4 33q-6 71 -6 148q-1 51 -54 84.5t-110 36.5q-93 7 -186.5 -19.5t-155.5 -77.5q-109 -89 -131 -194q-12 -46 -1 -93z" />
<glyph unicode="&#xc3;" horiz-adv-x="1527" d="M12 657q51 208 238 363q113 93 268 137q144 38 291 29q78 -6 160 -39q2 16 2 43q4 181 -17 262q-28 109 -98 150q-54 29 -135.5 28t-159.5 -33q-67 -28 -112.5 -69.5t-59.5 -87.5l-295 88q35 115 126.5 207.5t223.5 146.5q134 55 281 55q162 0 281 -67q97 -54 161 -152 q56 -79 84 -188q14 -56 21 -120t7 -116.5t-1 -109.5q0 -42 -8 -160q-5 -79 -6.5 -113t-4 -117t1.5 -131.5t12 -113t25.5 -109t42.5 -73.5q36 -40 103 -45l-21 -308q-93 6 -176 45q-75 37 -137 105q-25 28 -45 61q-57 -40 -184 -100q-150 -72 -320 -72q-55 0 -147 15 q-175 36 -273 131q-91 85 -127 219q-29 124 -2 239zM248 2073q7 99 55.5 181.5t124.5 129.5t162 45q68 -2 174 -49q4 -2 10 -4.5t8 -3.5q69 -31 101 -25q25 5 35 33l286 -111q-34 -89 -107 -149.5t-165 -75.5q-30 -6 -60 -6q-103 0 -215 53q-4 1 -22 10q-4 2 -22 10.5 t-25 10.5q-11 -7 -21.5 -27t-11.5 -45zM312 495q11 -47 40 -73q39 -36 119 -51q153 -29 277 30q96 46 141.5 77.5t73.5 76.5q0 1 -3 22t-4 33q-6 71 -6 148q-1 51 -54 84.5t-110 36.5q-93 7 -186.5 -19.5t-155.5 -77.5q-109 -89 -131 -194q-12 -46 -1 -93z" />
<glyph unicode="&#xc4;" horiz-adv-x="1527" d="M12 657q51 208 238 363q113 93 268 137q144 38 291 29q78 -6 160 -39q2 16 2 43q4 181 -17 262q-28 109 -98 150q-54 29 -135.5 28t-159.5 -33q-67 -28 -112.5 -69.5t-59.5 -87.5l-295 88q35 115 126.5 207.5t223.5 146.5q134 55 281 55q162 0 281 -67q97 -54 161 -152 q56 -79 84 -188q14 -56 21 -120t7 -116.5t-1 -109.5q0 -42 -8 -160q-5 -79 -6.5 -113t-4 -117t1.5 -131.5t12 -113t25.5 -109t42.5 -73.5q36 -40 103 -45l-21 -308q-93 6 -176 45q-75 37 -137 105q-25 28 -45 61q-57 -40 -184 -100q-150 -72 -320 -72q-55 0 -147 15 q-175 36 -273 131q-91 85 -127 219q-29 124 -2 239zM307 2253l305 39q15 -125 21 -256l-307 -11q-3 109 -19 228zM312 495q11 -47 40 -73q39 -36 119 -51q153 -29 277 30q96 46 141.5 77.5t73.5 76.5q0 1 -3 22t-4 33q-6 71 -6 148q-1 51 -54 84.5t-110 36.5 q-93 7 -186.5 -19.5t-155.5 -77.5q-109 -89 -131 -194q-12 -46 -1 -93zM760 2253l305 39q17 -147 20 -256l-307 -11q-3 118 -18 228z" />
<glyph unicode="&#xc5;" horiz-adv-x="1527" d="M12 657q51 208 238 363q113 93 268 137q144 38 291 29q78 -6 160 -39q2 16 2 43q4 181 -17 262q-28 109 -98 150q-54 29 -135.5 28t-159.5 -33q-67 -28 -112.5 -69.5t-59.5 -87.5l-295 88q35 115 126.5 207.5t223.5 146.5q134 55 281 55q162 0 281 -67q97 -54 161 -152 q56 -79 84 -188q14 -56 21 -120t7 -116.5t-1 -109.5q0 -42 -8 -160q-5 -79 -6.5 -113t-4 -117t1.5 -131.5t12 -113t25.5 -109t42.5 -73.5q36 -40 103 -45l-21 -308q-93 6 -176 45q-75 37 -137 105q-25 28 -45 61q-57 -40 -184 -100q-150 -72 -320 -72q-55 0 -147 15 q-175 36 -273 131q-91 85 -127 219q-29 124 -2 239zM312 495q11 -47 40 -73q39 -36 119 -51q153 -29 277 30q96 46 141.5 77.5t73.5 76.5q0 1 -3 22t-4 33q-6 71 -6 148q-1 51 -54 84.5t-110 36.5q-93 7 -186.5 -19.5t-155.5 -77.5q-109 -89 -131 -194q-12 -46 -1 -93z M436 2257q-15 97 29 172q37 69 115 106q80 36 163 21q91 -15 152 -86q52 -65 61 -150q12 -115 -65 -196q-63 -69 -164 -82q-6 0 -18.5 -1t-18.5 -1q-81 0 -143 41q-96 61 -111 176zM639 2286q3 -27 22 -35t39 -4q58 6 52 53q0 20 -13 37q-18 18 -45 18q-16 0 -28 -6 q-36 -15 -27 -63z" />
<glyph unicode="&#xc6;" horiz-adv-x="2643" d="M12 657q51 208 238 363q113 93 268 137q144 38 291 29q78 -6 160 -39q2 16 2 43q4 181 -17 262q-28 109 -98 150q-54 29 -135.5 28t-159.5 -33q-67 -28 -112.5 -69.5t-59.5 -87.5l-295 88q35 115 126.5 207.5t223.5 146.5q134 55 281 55q162 0 281 -67q97 -54 161 -152 q56 -79 84 -188q14 -56 21 -120t7 -116.5t-1 -109.5q0 -42 -8 -160q-5 -79 -6.5 -113t-4 -117t1.5 -131.5t12 -113t25.5 -109t42.5 -73.5q34 -38 93 -45q72 787 -23 1597l303 37q14 -109 17 -137l657 145l68 -299l-693 -156l-10 43q16 -226 19 -417q176 0 383 20.5t337 52.5 l74 -299q-147 -35 -367 -58.5t-411 -23.5h-19q-3 -164 -16 -372l8 41q125 -28 340.5 -20.5t358.5 52.5l92 -292q-186 -59 -447 -68q-13 0 -36.5 -1t-34.5 -1q-176 0 -305 24q-7 -82 -25 -208l-281 36v-4q-93 6 -176 45q-75 37 -137 105q-25 28 -45 61q-57 -40 -184 -100 q-150 -72 -320 -72q-55 0 -147 15q-175 36 -273 131q-91 85 -127 219q-29 124 -2 239zM312 495q11 -47 40 -73q39 -36 119 -51q153 -29 277 30q96 46 141.5 77.5t73.5 76.5q0 1 -3 22t-4 33q-6 71 -6 148q-1 51 -54 84.5t-110 36.5q-93 7 -186.5 -19.5t-155.5 -77.5 q-109 -89 -131 -194q-12 -46 -1 -93z" />
<glyph unicode="&#xc7;" horiz-adv-x="1646" d="M6 1006q24 255 148 479q90 158 237 278q154 127 336 166q132 29 257.5 2.5t232.5 -106.5q133 -100 184 -287q41 -156 2 -317l-299 73q19 85 -2 168q-18 78 -70 117q-106 78 -241 51q-105 -23 -206 -104t-161 -191q-97 -170 -114 -365t52 -343q44 -98 122.5 -172.5 t172.5 -108.5q73 -24 154 -24q169 0 291 98q92 73 139 186t35 230l305 34q21 -194 -57 -383q-75 -184 -232 -307q-156 -125 -354 -155q-59 -11 -129 -11q-134 0 -256 43q-153 56 -276 171t-193 270q-106 222 -78 508zM504 -63v182h307v-115q70 6 132 -17.5t106 -74.5 q57 -65 68 -153.5t-27 -176.5q-59 -135 -191 -229q-91 -65 -233 -115l-99 293q183 61 234 160q-109 -22 -197 45q-100 78 -100 201z" />
<glyph unicode="&#xc8;" horiz-adv-x="1392" d="M27 428q-57 187 6 428q26 93 59 166q-48 156 -20 325t127 306q87 122 215 200q134 84 278 99q108 11 221 -21q112 -34 203 -119l-207 -225q-75 69 -184 60q-76 -7 -151 -54t-125 -118q-48 -67 -66 -142l2 2q91 31 186 25q94 -7 171 -51.5t124 -118.5q52 -78 52.5 -169.5 t-50.5 -174.5q-61 -97 -159 -146q-105 -55 -220 -43q-90 9 -172 60q-22 -120 2 -197q32 -105 135.5 -161t223.5 -56h2q106 0 198 78t144 188l278 -131q-87 -185 -241 -305q-175 -137 -379 -137h-4q-213 0 -385 102q-197 117 -264 330zM440 1010q38 -41 84 -47q33 -4 68 26 q20 20 20 29q-1 0 -4 6q-18 29 -61 29q-28 3 -54.5 -5.5t-39.5 -25.5q-2 -2 -6.5 -6t-6.5 -6zM453 2222l100 246q119 -48 206 -86.5t124 -57t106 -55.5l-127 -235q-135 76 -409 188z" />
<glyph unicode="&#xc9;" horiz-adv-x="1392" d="M27 428q-57 187 6 428q26 93 59 166q-48 156 -20 325t127 306q87 122 215 200q134 84 278 99q108 11 221 -21q112 -34 203 -119l-207 -225q-75 69 -184 60q-76 -7 -151 -54t-125 -118q-48 -67 -66 -142l2 2q91 31 186 25q94 -7 171 -51.5t124 -118.5q52 -78 52.5 -169.5 t-50.5 -174.5q-61 -97 -159 -146q-105 -55 -220 -43q-90 9 -172 60q-22 -120 2 -197q32 -105 135.5 -161t223.5 -56h2q106 0 198 78t144 188l278 -131q-87 -185 -241 -305q-175 -137 -379 -137h-4q-213 0 -385 102q-197 117 -264 330zM440 1010q38 -41 84 -47q33 -4 68 26 q20 20 20 29q-1 0 -4 6q-18 29 -61 29q-28 3 -54.5 -5.5t-39.5 -25.5q-2 -2 -6.5 -6t-6.5 -6zM449 2263q69 37 106 55.5t124 57t206 86.5l100 -246q-176 -72 -254.5 -108.5t-155.5 -79.5z" />
<glyph unicode="&#xca;" horiz-adv-x="1392" d="M27 428q-57 187 6 428q26 93 59 166q-48 156 -20 325t127 306q87 122 215 200q134 84 278 99q108 11 221 -21q112 -34 203 -119l-207 -225q-75 69 -184 60q-76 -7 -151 -54t-125 -118q-48 -67 -66 -142l2 2q91 31 186 25q94 -7 171 -51.5t124 -118.5q52 -78 52.5 -169.5 t-50.5 -174.5q-61 -97 -159 -146q-105 -55 -220 -43q-90 9 -172 60q-22 -120 2 -197q32 -105 135.5 -161t223.5 -56h2q106 0 198 78t144 188l278 -131q-87 -185 -241 -305q-175 -137 -379 -137h-4q-213 0 -385 102q-197 117 -264 330zM227 2247q31 37 150 166q52 51 98 104 q81 93 191 96q84 0 153 -55q38 -26 76 -70l16 -16q23 -23 140 -141q12 -12 35 -35.5t34 -34.5l-219 -217q-23 25 -70 72q-22 22 -68.5 69.5t-70.5 71.5l-18 18q0 2 -2 2q-12 -13 -36 -38.5t-36 -38.5q-86 -89 -137 -150zM440 1010q38 -41 84 -47q33 -4 68 26q20 20 20 29 q-1 0 -4 6q-18 29 -61 29q-28 3 -54.5 -5.5t-39.5 -25.5q-2 -2 -6.5 -6t-6.5 -6z" />
<glyph unicode="&#xcb;" horiz-adv-x="1400" d="M27 428q-57 187 6 428q26 93 59 166q-48 156 -20 325t127 306q87 122 215 200q134 84 278 99q108 11 221 -21q112 -34 203 -119l-207 -225q-75 69 -184 60q-76 -7 -151 -54t-125 -118q-48 -67 -66 -142l2 2q91 31 186 25q94 -7 171 -51.5t124 -118.5q52 -78 52.5 -169.5 t-50.5 -174.5q-61 -97 -159 -146q-105 -55 -220 -43q-90 9 -172 60q-22 -120 2 -197q32 -105 135.5 -161t223.5 -56h2q106 0 198 78t144 188l278 -131q-87 -185 -241 -305q-175 -137 -379 -137h-4q-213 0 -385 102q-197 117 -264 330zM295 2324l305 39q13 -113 21 -276 l-308 -10q-4 141 -18 247zM440 1010q38 -41 84 -47q33 -4 68 26q20 20 20 29q-1 0 -4 6q-18 29 -61 29q-28 3 -54.5 -5.5t-39.5 -25.5q-2 -2 -6.5 -6t-6.5 -6zM748 2324l305 39q17 -142 20 -276l-307 -10q-4 141 -18 247z" />
<glyph unicode="&#xcc;" horiz-adv-x="1026" d="M0 1235l133 276q31 -14 88 -14q8 53 29 129q39 129 102 211q88 112 223 154q157 51 293 -27q113 -64 138 -176q18 -64 0 -139q-35 -158 -175 -273q-101 -81 -251 -129q-37 -11 -82 -22q-18 -191 -21.5 -413t1 -352.5t16.5 -430.5l-308 -15q-12 277 -16.5 412.5t-2 355.5 t18.5 410q-108 6 -186 43zM322 2226l100 246q119 -48 206 -86.5t124 -57t106 -55.5l-127 -235q-135 76 -409 188zM553 1565q37 16 86 51q48 39 63 86h-8q-23 0 -50.5 -14.5t-47.5 -38.5q-29 -40 -43 -84z" />
<glyph unicode="&#xcd;" horiz-adv-x="1169" d="M0 1235l133 276q31 -14 88 -14q8 53 29 129q39 129 102 211q88 112 223 154q157 51 293 -27q113 -64 138 -176q18 -64 0 -139q-35 -158 -175 -273q-101 -81 -251 -129q-37 -11 -82 -22q-18 -191 -21.5 -413t1 -352.5t16.5 -430.5l-308 -15q-12 277 -16.5 412.5t-2 355.5 t18.5 410q-108 6 -186 43zM330 2271q69 37 106 55.5t124 57t206 86.5l100 -246q-274 -112 -409 -188zM553 1565q37 16 86 51q48 39 63 86h-8q-23 0 -50.5 -14.5t-47.5 -38.5q-29 -40 -43 -84z" />
<glyph unicode="&#xce;" horiz-adv-x="1236" d="M0 1235l133 276q31 -14 88 -14q8 53 29 129q39 129 102 211q88 112 223 154q157 51 293 -27q113 -64 138 -176q18 -64 0 -139q-35 -158 -175 -273q-101 -81 -251 -129q-37 -11 -82 -22q-18 -191 -21.5 -413t1 -352.5t16.5 -430.5l-308 -15q-12 277 -16.5 412.5t-2 355.5 t18.5 410q-108 6 -186 43zM211 2247q39 48 149 166q60 60 99 104q81 93 190 96q85 0 154 -55q38 -26 76 -70l16 -16q45 -47 139 -141l70 -70l-219 -217q-23 25 -70 72q-22 22 -68.5 69.5t-70.5 71.5q-3 3 -9.5 9t-9.5 9q0 2 -2 2q-25 -27 -71 -77q-94 -98 -138 -150z M553 1565q37 16 86 51q48 39 63 86h-8q-23 0 -50.5 -14.5t-47.5 -38.5q-29 -40 -43 -84z" />
<glyph unicode="&#xcf;" horiz-adv-x="1132" d="M0 1235l133 276q31 -14 88 -14q8 53 29 129q39 129 102 211q88 112 223 154q157 51 293 -27q113 -64 138 -176q18 -64 0 -139q-35 -158 -175 -273q-101 -81 -251 -129q-37 -11 -82 -22q-18 -191 -21.5 -413t1 -352.5t16.5 -430.5l-308 -15q-12 277 -16.5 412.5t-2 355.5 t18.5 410q-108 6 -186 43zM248 2341l305 39q12 -98 20 -277l-307 -10q-4 143 -18 248zM553 1565q37 16 86 51q48 39 63 86h-8q-23 0 -50.5 -14.5t-47.5 -38.5q-29 -40 -43 -84zM700 2341l306 39q17 -142 20 -277l-307 -10q-4 133 -19 248z" />
<glyph unicode="&#xd0;" horiz-adv-x="1912" d="M2 1098q268 30 426 35q10 187 9.5 421t-19.5 416l307 31q15 -167 18 -330q125 118 266 186t283 62q140 -6 266.5 -88t204.5 -217q115 -201 109 -494q-6 -197 -60 -364q-55 -190 -167 -338q-123 -166 -301 -265t-369 -106q-8 -2 -27 -2q-149 0 -276 80q-28 -88 -80 -170 l-260 164q67 108 84 280l-6 9l8 6q6 85 2 274q-2 45 -2 137q-179 -9 -383 -32zM725 825q0 -84 2 -131q2 -66 2 -198q64 -83 114 -115t120 -29q120 6 237 72.5t199 175.5q76 102 118.5 238t47.5 288q3 209 -68 336q-39 67 -97.5 108t-119.5 42q-136 6 -305 -146 q-76 -69 -140.5 -154t-97.5 -163h-2v-16q164 -5 412 -31l-33 -307q-221 24 -389 30z" />
<glyph unicode="&#xd1;" horiz-adv-x="1433" d="M0 1872l297 80q59 -218 88 -490q63 162 145 264q65 79 151 124.5t173 45.5q147 3 254 -116q54 -64 87.5 -145.5t43 -156.5t13.5 -155.5t-1 -142.5q0 -39 -4 -133q-9 -378 2 -519l2 -12q12 -143 33 -189.5t90 -70.5l-94 -291q-199 64 -276 238q-42 91 -58 284l-2 13 q-4 42 -6 92.5t-3 88t-0.5 100t1 89.5t2.5 99t2 88q4 90 4 129q1 73 1 141.5t-18 138.5t-55 113q-8 10 -16 10q-16 0 -41 -15.5t-47 -41.5q-29 -36 -55.5 -88t-41.5 -91.5t-40 -111.5q-3 -8 -9.5 -25.5t-9.5 -25.5q-63 -174 -125 -522.5t-90 -612.5q-1 -8 -2 -23t-2 -22 l-305 31q0 15 4 43q25 273 26.5 589.5t-28 644.5t-90.5 554zM272 2075q7 99 55.5 181.5t124.5 129.5t162 45q68 -2 174 -49q4 -2 11 -4.5t8 -3.5q69 -30 100 -25q25 5 35 33l287 -111q-34 -89 -107.5 -149.5t-165.5 -75.5q-30 -6 -59 -6q-103 0 -215 53q-6 1 -23 10 q-4 2 -22 10.5t-25 10.5q-11 -7 -21 -27t-11 -45z" />
<glyph unicode="&#xd2;" horiz-adv-x="1869" d="M35 1221q76 275 291 469q123 111 266 163q140 55 293 52q144 -3 289 -66q135 -57 256 -172q104 -99 180 -219q78 -130 110 -254q37 -131 31 -274q-6 -144 -55 -283q-49 -134 -137 -240q-79 -102 -205 -188q-218 -143 -459 -143q-26 0 -84 4q-6 1 -19.5 3t-19.5 3 q-131 20 -262 80q-114 53 -215 141q-188 173 -256 410q-77 253 -4 514zM332 795q51 -169 178.5 -278t308.5 -138q5 -1 14.5 -2t14.5 -2q14 -2 45 -2q158 0 308 106.5t204 259.5q68 190 19 373t-207 334q-160 151 -353 151q-182 0 -332 -135q-146 -130 -199.5 -309t-0.5 -358 zM625 2216l100 246q119 -48 206 -86.5t124 -57t106 -55.5l-127 -235q-135 76 -409 188z" />
<glyph unicode="&#xd3;" horiz-adv-x="1869" d="M35 1221q76 275 291 469q123 111 266 163q140 55 293 52q144 -3 289 -66q135 -57 256 -172q104 -99 180 -219q78 -130 110 -254q37 -131 31 -274q-6 -144 -55 -283q-49 -134 -137 -240q-79 -102 -205 -188q-218 -143 -459 -143q-26 0 -84 4q-6 1 -19.5 3t-19.5 3 q-131 20 -262 80q-114 53 -215 141q-188 173 -256 410q-77 253 -4 514zM332 795q51 -169 178.5 -278t308.5 -138q5 -1 14.5 -2t14.5 -2q14 -2 45 -2q158 0 308 106.5t204 259.5q68 190 19 373t-207 334q-160 151 -353 151q-182 0 -332 -135q-146 -130 -199.5 -309t-0.5 -358 zM711 2275q69 37 106 55.5t124 57t206 86.5l100 -246q-274 -112 -409 -188z" />
<glyph unicode="&#xd4;" horiz-adv-x="1869" d="M35 1221q76 275 291 469q123 111 266 163q140 55 293 52q144 -3 289 -66q135 -57 256 -172q104 -99 180 -219q78 -130 110 -254q37 -131 31 -274q-6 -144 -55 -283q-49 -134 -137 -240q-79 -102 -205 -188q-218 -143 -459 -143q-26 0 -84 4q-6 1 -19.5 3t-19.5 3 q-131 20 -262 80q-114 53 -215 141q-188 173 -256 410q-77 253 -4 514zM332 795q51 -169 178.5 -278t308.5 -138q5 -1 14.5 -2t14.5 -2q14 -2 45 -2q158 0 308 106.5t204 259.5q68 190 19 373t-207 334q-160 151 -353 151q-182 0 -332 -135q-146 -130 -199.5 -309t-0.5 -358 zM471 2171q31 37 150 166q52 51 98 104q81 93 190 96q85 0 154 -55q40 -28 76 -69q3 -3 8 -8.5t8 -8.5q45 -47 139 -141l70 -70l-219 -217q-23 25 -70 72q-22 22 -68.5 69.5t-70.5 71.5q-3 3 -9 9.5t-9 9.5q-1 2 -3 2q-14 -15 -37.5 -41t-33.5 -37q-86 -89 -137 -150z" />
<glyph unicode="&#xd5;" horiz-adv-x="1869" d="M35 1221q76 275 291 469q123 111 266 163q140 55 293 52q144 -3 289 -66q135 -57 256 -172q104 -99 180 -219q78 -130 110 -254q37 -131 31 -274q-6 -144 -55 -283q-49 -134 -137 -240q-79 -102 -205 -188q-218 -143 -459 -143q-26 0 -84 4q-6 1 -19.5 3t-19.5 3 q-131 20 -262 80q-114 53 -215 141q-188 173 -256 410q-77 253 -4 514zM332 795q51 -169 178.5 -278t308.5 -138q5 -1 14.5 -2t14.5 -2q14 -2 45 -2q158 0 308 106.5t204 259.5q68 190 19 373t-207 334q-160 151 -353 151q-182 0 -332 -135q-146 -130 -199.5 -309t-0.5 -358 zM420 1991q7 99 55.5 181.5t124.5 129.5t162 45q68 -2 174 -49q5 -2 11 -4.5t7 -3.5q69 -31 101 -25q25 5 35 33l286 -111q-34 -89 -107 -149.5t-165 -75.5q-30 -6 -60 -6q-103 0 -215 53q-4 1 -22 10q-4 2 -22 10.5t-25 10.5q-11 -7 -21.5 -27t-11.5 -45z" />
<glyph unicode="&#xd6;" horiz-adv-x="1869" d="M35 1221q76 275 291 469q123 111 266 163q140 55 293 52q144 -3 289 -66q135 -57 256 -172q104 -99 180 -219q78 -130 110 -254q37 -131 31 -274q-6 -144 -55 -283q-49 -134 -137 -240q-79 -102 -205 -188q-218 -143 -459 -143q-26 0 -84 4q-6 1 -19.5 3t-19.5 3 q-131 20 -262 80q-114 53 -215 141q-188 173 -256 410q-77 253 -4 514zM332 795q51 -169 178.5 -278t308.5 -138q5 -1 14.5 -2t14.5 -2q14 -2 45 -2q158 0 308 106.5t204 259.5q68 190 19 373t-207 334q-160 151 -353 151q-182 0 -332 -135q-146 -130 -199.5 -309t-0.5 -358 zM516 2234l305 39q13 -113 21 -276l-307 -10q-3 132 -19 247zM969 2234l305 39q17 -142 20 -276l-307 -10q-4 141 -18 247z" />
<glyph unicode="&#xd7;" horiz-adv-x="1347" d="M0 451q184 367 453 677q-207 204 -453 363l145 223q273 -181 490 -393q230 223 491 393l144 -223q-243 -159 -453 -363q276 -318 453 -677l-238 -119q-168 335 -397 602q-229 -267 -397 -602z" />
<glyph unicode="&#xd8;" horiz-adv-x="1798" d="M35 1257q76 275 291 469q125 112 266 164q140 55 293 52q82 0 182 -27q60 99 129 196l252 -176q-51 -70 -105 -157q50 -37 87 -74q104 -99 180 -219q78 -130 110 -254q37 -131 31 -275q-6 -143 -55 -282q-49 -134 -137 -240q-79 -102 -205 -188q-219 -144 -459 -144 q-6 0 -18 1t-17 1q-2 -55 -2 -163l-307 -7q0 160 4 240q-7 3 -22.5 9.5t-22.5 9.5q-114 53 -215 141q-189 173 -256 409q-77 253 -4 514zM332 831q66 -218 252 -329q2 2 2 6q37 280 119 565q78 275 202 541q1 3 4 9t4 9q-16 2 -51 2q-182 0 -332 -135 q-146 -130 -199.5 -309.5t-0.5 -358.5zM883 410h10q158 0 308 106.5t204 259.5q68 190 19 373t-207 334q-4 5 -12 12t-9 8q-244 -506 -313 -1093z" />
<glyph unicode="&#xd9;" horiz-adv-x="1345" d="M2 961q-18 455 117 907l293 -88q-118 -397 -103 -809q9 -291 107 -449q40 -67 95.5 -108.5t111.5 -46.5q47 -4 99.5 18t94.5 64q101 100 151 259t42 357q-8 183 -64 364t-145 308l252 174q115 -162 185 -384t79 -450q11 -263 -62 -481.5t-221 -364.5q-94 -91 -194 -131 q-100 -41 -201 -41q-29 0 -43 2q-141 12 -264 103q-103 75 -180 198q-136 224 -150 599zM354 2128l101 246q119 -48 206 -86.5t124 -57t106 -55.5l-127 -236q-138 78 -410 189z" />
<glyph unicode="&#xda;" horiz-adv-x="1345" d="M2 961q-18 455 117 907l293 -88q-118 -397 -103 -809q9 -291 107 -449q40 -67 95.5 -108.5t111.5 -46.5q47 -4 99.5 18t94.5 64q101 100 151 259t42 357q-8 183 -64 364t-145 308l252 174q115 -162 185 -384t79 -450q11 -263 -62 -481.5t-221 -364.5q-94 -91 -194 -131 q-100 -41 -201 -41q-29 0 -43 2q-141 12 -264 103q-103 75 -180 198q-136 224 -150 599zM328 2154q69 37 106 55.5t124 57t206 86.5l100 -246q-274 -112 -409 -188z" />
<glyph unicode="&#xdb;" horiz-adv-x="1345" d="M2 961q-18 455 117 907l293 -88q-118 -397 -103 -809q9 -291 107 -449q40 -67 95.5 -108.5t111.5 -46.5q47 -4 99.5 18t94.5 64q101 100 151 259t42 357q-8 183 -64 364t-145 308l252 174q115 -162 185 -384t79 -450q11 -263 -62 -481.5t-221 -364.5q-94 -91 -194 -131 q-100 -41 -201 -41q-29 0 -43 2q-141 12 -264 103q-103 75 -180 198q-136 224 -150 599zM184 2114q23 27 150 165q44 44 98 105q81 93 191 96q84 0 153 -55q38 -26 76 -70l16 -16q22 -24 140 -141q12 -11 35 -34.5t34 -35.5l-219 -217q-11 13 -70 71q-22 22 -68.5 70 t-70.5 72l-18 18q0 2 -2 2q-37 -40 -72 -78q-93 -97 -137 -149z" />
<glyph unicode="&#xdc;" horiz-adv-x="1345" d="M2 961q-18 455 117 907l293 -88q-118 -397 -103 -809q9 -291 107 -449q40 -67 95.5 -108.5t111.5 -46.5q47 -4 99.5 18t94.5 64q101 100 151 259t42 357q-8 183 -64 364t-145 308l252 174q115 -162 185 -384t79 -450q11 -263 -62 -481.5t-221 -364.5q-94 -91 -194 -131 q-100 -41 -201 -41q-29 0 -43 2q-141 12 -264 103q-103 75 -180 198q-136 224 -150 599zM225 2216l305 39q13 -112 21 -277l-307 -10q-4 133 -19 248zM678 2216l305 39q18 -152 21 -277l-308 -10q-4 143 -18 248z" />
<glyph unicode="&#xdd;" horiz-adv-x="1314" d="M0 449l307 -11q0 -55 51 -96q41 -35 100 -50.5t109 -4.5q86 19 159.5 80.5t117 132t69.5 147.5q58 178 31 412q-48 -79 -90 -121q-71 -74 -166 -113q-104 -42 -217 -26q-174 31 -281 194q-75 114 -106 279q-66 351 41 692l293 -90q-83 -276 -31 -547q10 -53 28 -100.5 t46.5 -83t60.5 -41.5q25 -3 56 10t55 39q54 54 94 178q34 103 53.5 278t14.5 298l307 14q4 -101 33.5 -268t60.5 -281q124 -468 8 -819q-65 -199 -205 -348q-153 -166 -362 -215q-60 -13 -113 -13q-98 0 -193 33.5t-169 95.5q-168 139 -162 345zM348 2181q69 37 106 55.5 t124 57t206 86.5l101 -246q-176 -72 -254.5 -108.5t-155.5 -79.5z" />
<glyph unicode="&#xde;" horiz-adv-x="1245" d="M2 975q12 569 86 1120l264 -35q-35 -254 -53 -506q86 28 178 31q237 9 424 -127q154 -111 217 -270q73 -191 -6 -397q-73 -190 -240 -304q-153 -101 -350 -116q-23 -2 -69 -2q-85 0 -179 16q7 -200 33 -512l-264 -27q-53 562 -41 1129zM266 705q120 -37 236 -27t200 65 q85 57 122.5 153.5t6.5 178.5q-27 74 -110 135q-101 72 -231.5 68t-206.5 -82l-7 8q-10 -207 -10 -499z" />
<glyph unicode="&#xdf;" horiz-adv-x="1497" d="M-0.5 564.5q0.5 110.5 6.5 211.5q27 420 164 694q78 163 203 279q137 122 311 174q105 33 217 16q121 -22 197 -98q69 -72 90 -170q19 -100 -14 -201q-29 -107 -103 -227q5 0 15.5 -1t15.5 -1q165 -21 262 -147q101 -128 76 -312q-19 -152 -129 -323q-95 -148 -203 -230 q-143 -110 -334 -163q-168 -50 -356 -50v308q308 0 504 149q65 49 133.5 154.5t79.5 195.5q7 51 -13 82q-22 27 -57 31q-83 10 -216 -50t-243 -145l-188 242q178 138 300.5 291t160.5 285q16 48 2 65q-12 10 -38 12.5t-71 -8.5q-645 -191 -393 -1934q10 -71 29 -190 q4 -20 14 -90l-303 -47q-2 13 -7.5 42.5t-7.5 47.5q-14 87 -23 146.5t-23 164.5t-23 187t-18.5 194t-13.5 208.5t-3.5 207z" />
<glyph unicode="&#xe0;" horiz-adv-x="1380" d="M6 544.5q23 131.5 96.5 241.5t180.5 185q191 136 426 106q73 -11 159 -41q-1 5 -3 16.5t-3 16.5q-21 129 -78 193q-53 53 -143 55q-67 2 -128.5 -24.5t-107.5 -71.5t-74 -81.5t-50 -74.5l-267 154q100 172 248 282q86 62 178 92q101 34 209 31q115 -3 205 -43 q91 -43 156 -111q117 -126 155 -348q26 -143 17 -340q-1 -25 -15 -133q-7 -57 -10.5 -95t-5 -93t9 -90.5t31.5 -48.5q44 -26 113 -13l61 -301q-58 -10 -104 -10q-125 0 -228 59q-73 43 -121 119q-25 -15 -155 -84q-145 -74 -293 -74q-35 0 -82 7q-117 19 -209 87.5 t-135 168.5q-56 132 -33 263.5zM322 403q10 -27 40.5 -48t67.5 -27q87 -12 191 39q143 71 223 131q2 31 18 190q2 6 2 14q-137 69 -229.5 72.5t-175.5 -55.5q-83 -57 -127 -149.5t-10 -166.5zM322 1864l100 245q256 -103 436 -198l-127 -236q-81 45 -159 82t-250 107z" />
<glyph unicode="&#xe1;" horiz-adv-x="1380" d="M6 544.5q23 131.5 96.5 241.5t180.5 185q191 136 426 106q73 -11 159 -41q-1 5 -3 16.5t-3 16.5q-21 129 -78 193q-53 53 -143 55q-67 2 -128.5 -24.5t-107.5 -71.5t-74 -81.5t-50 -74.5l-267 154q100 172 248 282q86 62 178 92q101 34 209 31q115 -3 205 -43 q91 -43 156 -111q117 -126 155 -348q26 -143 17 -340q-1 -25 -15 -133q-7 -57 -10.5 -95t-5 -93t9 -90.5t31.5 -48.5q44 -26 113 -13l61 -301q-58 -10 -104 -10q-125 0 -228 59q-73 43 -121 119q-25 -15 -155 -84q-145 -74 -293 -74q-35 0 -82 7q-117 19 -209 87.5 t-135 168.5q-56 132 -33 263.5zM322 403q10 -27 40.5 -48t67.5 -27q87 -12 191 39q143 71 223 131q2 31 18 190q2 6 2 14q-137 69 -229.5 72.5t-175.5 -55.5q-83 -57 -127 -149.5t-10 -166.5zM422 1903q180 95 436 198l100 -246q-274 -112 -409 -188z" />
<glyph unicode="&#xe2;" horiz-adv-x="1380" d="M6 544.5q23 131.5 96.5 241.5t180.5 185q191 136 426 106q73 -11 159 -41q-1 5 -3 16.5t-3 16.5q-21 129 -78 193q-53 53 -143 55q-67 2 -128.5 -24.5t-107.5 -71.5t-74 -81.5t-50 -74.5l-267 154q100 172 248 282q86 62 178 92q101 34 209 31q115 -3 205 -43 q91 -43 156 -111q117 -126 155 -348q26 -143 17 -340q-1 -25 -15 -133q-7 -57 -10.5 -95t-5 -93t9 -90.5t31.5 -48.5q44 -26 113 -13l61 -301q-58 -10 -104 -10q-125 0 -228 59q-73 43 -121 119q-25 -15 -155 -84q-145 -74 -293 -74q-35 0 -82 7q-117 19 -209 87.5 t-135 168.5q-56 132 -33 263.5zM166 1831q40 48 149 166q60 60 99 104q82 94 190 97q84 0 154 -56q40 -28 76 -69q3 -3 8 -8.5t8 -8.5q45 -47 139 -141l70 -70l-219 -217q-23 25 -70 72q-22 22 -68.5 69.5t-70.5 71.5l-19 19q0 2 -2 2q-14 -15 -37.5 -41t-33.5 -37 q-94 -98 -138 -150zM322 403q10 -27 40.5 -48t67.5 -27q87 -12 191 39q143 71 223 131q2 31 18 190q2 6 2 14q-137 69 -229.5 72.5t-175.5 -55.5q-83 -57 -127 -149.5t-10 -166.5z" />
<glyph unicode="&#xe3;" horiz-adv-x="1380" d="M6 544.5q23 131.5 96.5 241.5t180.5 185q191 136 426 106q73 -11 159 -41q-1 5 -3 16.5t-3 16.5q-21 129 -78 193q-53 53 -143 55q-67 2 -128.5 -24.5t-107.5 -71.5t-74 -81.5t-50 -74.5l-267 154q100 172 248 282q86 62 178 92q101 34 209 31q115 -3 205 -43 q91 -43 156 -111q117 -126 155 -348q26 -143 17 -340q-1 -25 -15 -133q-7 -57 -10.5 -95t-5 -93t9 -90.5t31.5 -48.5q44 -26 113 -13l61 -301q-58 -10 -104 -10q-125 0 -228 59q-73 43 -121 119q-25 -15 -155 -84q-145 -74 -293 -74q-35 0 -82 7q-117 19 -209 87.5 t-135 168.5q-56 132 -33 263.5zM166 1755q7 99 55.5 181.5t124.5 129.5t162 45q68 -2 174 -49q4 -2 10 -4.5t8 -3.5q67 -30 101 -24q26 5 35 32l286 -110q-34 -89 -107 -150t-165 -76q-30 -6 -59 -6q-102 0 -216 54q-4 1 -22 10q-45 20 -47 20q-30 -20 -33 -71zM322 403 q10 -27 40.5 -48t67.5 -27q87 -12 191 39q143 71 223 131q2 31 18 190q2 6 2 14q-137 69 -229.5 72.5t-175.5 -55.5q-83 -57 -127 -149.5t-10 -166.5z" />
<glyph unicode="&#xe4;" horiz-adv-x="1380" d="M6 544.5q23 131.5 96.5 241.5t180.5 185q191 136 426 106q73 -11 159 -41q-1 5 -3 16.5t-3 16.5q-21 129 -78 193q-53 53 -143 55q-67 2 -128.5 -24.5t-107.5 -71.5t-74 -81.5t-50 -74.5l-267 154q100 172 248 282q86 62 178 92q101 34 209 31q115 -3 205 -43 q91 -43 156 -111q117 -126 155 -348q26 -143 17 -340q-1 -25 -15 -133q-7 -57 -10.5 -95t-5 -93t9 -90.5t31.5 -48.5q44 -26 113 -13l61 -301q-58 -10 -104 -10q-125 0 -228 59q-73 43 -121 119q-25 -15 -155 -84q-145 -74 -293 -74q-35 0 -82 7q-117 19 -209 87.5 t-135 168.5q-56 132 -33 263.5zM221 1966l305 39q13 -113 21 -276l-307 -11q-4 133 -19 248zM322 403q10 -27 40.5 -48t67.5 -27q87 -12 191 39q143 71 223 131q2 31 18 190q2 6 2 14q-137 69 -229.5 72.5t-175.5 -55.5q-83 -57 -127 -149.5t-10 -166.5zM674 1966l305 39 q17 -142 20 -276l-307 -11q-4 143 -18 248z" />
<glyph unicode="&#xe5;" horiz-adv-x="1380" d="M6 544.5q23 131.5 96.5 241.5t180.5 185q191 136 426 106q73 -11 159 -41q-1 5 -3 16.5t-3 16.5q-21 129 -78 193q-53 53 -143 55q-67 2 -128.5 -24.5t-107.5 -71.5t-74 -81.5t-50 -74.5l-267 154q100 172 248 282q86 62 178 92q101 34 209 31q115 -3 205 -43 q91 -43 156 -111q117 -126 155 -348q26 -143 17 -340q-1 -25 -15 -133q-7 -57 -10.5 -95t-5 -93t9 -90.5t31.5 -48.5q44 -26 113 -13l61 -301q-58 -10 -104 -10q-125 0 -228 59q-73 43 -121 119q-25 -15 -155 -84q-145 -74 -293 -74q-35 0 -82 7q-117 19 -209 87.5 t-135 168.5q-56 132 -33 263.5zM322 403q10 -27 40.5 -48t67.5 -27q87 -12 191 39q143 71 223 131q2 31 18 190q2 6 2 14q-137 69 -229.5 72.5t-175.5 -55.5q-83 -57 -127 -149.5t-10 -166.5zM350 1923q-15 97 29 172q38 71 115 107q78 35 163 20q91 -15 152 -86 q52 -65 61 -149q13 -116 -65 -197q-63 -69 -164 -82q-6 0 -18.5 -1t-18.5 -1q-81 0 -143 41q-96 61 -111 176zM553 1952q3 -27 22 -35t39 -4q58 6 52 53q0 20 -13 37q-18 18 -45 18q-16 0 -28 -6q-36 -15 -27 -63z" />
<glyph unicode="&#xe6;" horiz-adv-x="2271" d="M6 544.5q23 131.5 96.5 241.5t180.5 185q191 136 426 106q73 -11 159 -41q-1 5 -3 16.5t-3 16.5q-21 129 -78 193q-53 53 -143 55q-67 2 -128.5 -24.5t-107.5 -71.5t-74 -81.5t-50 -74.5l-267 154q100 172 248 282q86 62 178 92q101 34 209 31q115 -3 205 -43 q91 -43 156 -111q43 -45 80 -112q56 68 127 121q135 102 296 118q133 9 248 -38q118 -47 203 -144q83 -99 113 -221q32 -131 2 -250q-23 -99 -82 -164q-61 -63 -176 -98q-198 -61 -420 -39q-96 11 -205 43q15 -92 66 -174q78 -123 222.5 -172t266.5 6q58 26 97.5 73.5 t45.5 98.5l306 -41q-17 -131 -103.5 -241t-218.5 -170q-124 -56 -262 -56q-120 0 -230 39q-123 43 -215 117l-24 18l-113 -188q-96 56 -143 166q-46 -25 -133 -70q-145 -74 -293 -74q-35 0 -82 7q-117 19 -209 87.5t-135 168.5q-56 132 -33 263.5zM322 403q10 -27 40.5 -48 t67.5 -27q87 -12 191 39q143 71 225 133q2 40 18 188q0 10 2 14q-139 69 -231.5 72.5t-175.5 -55.5q-83 -57 -127 -149.5t-10 -166.5zM1231 999q119 -47 249.5 -53t252.5 31q32 7 39 14q5 5 8 25q12 51 -1 105t-48 93q-34 40 -85 60.5t-104 15.5q-72 -6 -141.5 -58 t-122.5 -138q-33 -57 -47 -95z" />
<glyph unicode="&#xe7;" horiz-adv-x="1341" d="M12 840q36 227 156 407q80 123 178 215q124 112 270 150q93 25 193.5 9.5t183.5 -67.5q72 -46 118.5 -112t59.5 -142l-301 -57q-5 28 -41 51q-28 19 -65.5 24.5t-69.5 -3.5q-138 -37 -268 -236q-51 -78 -82.5 -176t-36 -201.5t34.5 -187.5q44 -99 147 -158.5t211 -48.5 q109 12 198 90.5t112 184.5l299 -68q-45 -203 -207 -346q-162 -144 -371 -166q-20 -2 -61 -2q-175 0 -332 88q-187 107 -277 297q-90 200 -49 455zM352 -2v182h307v-114q69 6 131.5 -18t106.5 -75q57 -65 68 -153t-27 -176q-60 -137 -190 -230q-88 -63 -234 -114l-98 292 q182 61 233 160q-108 -22 -196 45q-101 79 -101 201z" />
<glyph unicode="&#xe8;" horiz-adv-x="1333" d="M0 805q9 244 133 448q82 139 201 226q135 103 299 118q133 10 246 -38q121 -48 202 -144q85 -97 115 -221t2 -250q-24 -101 -84 -164q-58 -62 -176 -98q-198 -61 -420 -39q-100 12 -203 43q16 -99 66 -174q38 -60 96.5 -105t124.5 -67.5t136 -21.5t130 28q58 26 98 73.5 t48 98.5l303 -41q-17 -131 -103.5 -241t-218.5 -170q-121 -56 -260 -56q-119 0 -229 39q-116 39 -217 117q-104 78 -168 182q-127 201 -121 457zM348 999q119 -47 249.5 -53t252.5 31q23 5 41 14q0 1 1 4l3 9l4 12q12 51 -1.5 104.5t-47.5 93.5q-35 40 -86.5 60.5 t-104.5 15.5q-72 -6 -141.5 -58t-122.5 -138q-33 -57 -47 -95zM397 1860l101 245q256 -103 436 -198l-127 -236q-138 78 -410 189z" />
<glyph unicode="&#xe9;" horiz-adv-x="1333" d="M0 805q9 244 133 448q82 139 201 226q135 103 299 118q133 10 246 -38q121 -48 202 -144q85 -97 115 -221t2 -250q-24 -101 -84 -164q-58 -62 -176 -98q-198 -61 -420 -39q-100 12 -203 43q16 -99 66 -174q38 -60 96.5 -105t124.5 -67.5t136 -21.5t130 28q58 26 98 73.5 t48 98.5l303 -41q-17 -131 -103.5 -241t-218.5 -170q-121 -56 -260 -56q-119 0 -229 39q-116 39 -217 117q-104 78 -168 182q-127 201 -121 457zM348 999q119 -47 249.5 -53t252.5 31q23 5 41 14q0 1 1 4l3 9l4 12q12 51 -1.5 104.5t-47.5 93.5q-35 40 -86.5 60.5 t-104.5 15.5q-72 -6 -141.5 -58t-122.5 -138q-33 -57 -47 -95zM453 1886q69 37 106 55.5t124 57t206 86.5l100 -246q-274 -112 -409 -188z" />
<glyph unicode="&#xea;" horiz-adv-x="1333" d="M0 805q9 244 133 448q82 139 201 226q135 103 299 118q133 10 246 -38q121 -48 202 -144q85 -97 115 -221t2 -250q-24 -101 -84 -164q-58 -62 -176 -98q-198 -61 -420 -39q-100 12 -203 43q16 -99 66 -174q38 -60 96.5 -105t124.5 -67.5t136 -21.5t130 28q58 26 98 73.5 t48 98.5l303 -41q-17 -131 -103.5 -241t-218.5 -170q-121 -56 -260 -56q-119 0 -229 39q-116 39 -217 117q-104 78 -168 182q-127 201 -121 457zM242 1847q40 48 149 166q44 44 98 105q81 93 191 96q85 0 154 -55q35 -24 75 -70q3 -3 8.5 -8t8.5 -8q67 -71 139 -142 q11 -11 34.5 -34t35.5 -35l-220 -217q-23 25 -69 71q-22 22 -68.5 70t-70.5 72q-3 3 -9.5 9t-9.5 9q0 2 -2 2q-38 -40 -72 -78q-93 -97 -137 -149zM348 999q119 -47 249.5 -53t252.5 31q23 5 41 14q0 1 1 4l3 9l4 12q12 51 -1.5 104.5t-47.5 93.5q-35 40 -86.5 60.5 t-104.5 15.5q-72 -6 -141.5 -58t-122.5 -138q-33 -57 -47 -95z" />
<glyph unicode="&#xeb;" horiz-adv-x="1333" d="M0 805q9 244 133 448q82 139 201 226q135 103 299 118q133 10 246 -38q121 -48 202 -144q85 -97 115 -221t2 -250q-24 -101 -84 -164q-58 -62 -176 -98q-198 -61 -420 -39q-100 12 -203 43q16 -99 66 -174q38 -60 96.5 -105t124.5 -67.5t136 -21.5t130 28q58 26 98 73.5 t48 98.5l303 -41q-17 -131 -103.5 -241t-218.5 -170q-121 -56 -260 -56q-119 0 -229 39q-116 39 -217 117q-104 78 -168 182q-127 201 -121 457zM313 1966l305 39q13 -113 21 -276l-307 -11q-4 133 -19 248zM348 999q119 -47 249.5 -53t252.5 31q23 5 41 14q0 1 1 4l3 9 l4 12q12 51 -1.5 104.5t-47.5 93.5q-35 40 -86.5 60.5t-104.5 15.5q-72 -6 -141.5 -58t-122.5 -138q-33 -57 -47 -95zM766 1966l305 39q18 -152 21 -276l-308 -11q-4 143 -18 248z" />
<glyph unicode="&#xec;" horiz-adv-x="526" d="M-4 1790l100 246q119 -48 206 -86.5t124 -57t106 -55.5l-126 -235q-77 43 -155.5 79.5t-254.5 108.5zM84 6q24 571 8 1487l307 4q17 -979 -8 -1505z" />
<glyph unicode="&#xed;" horiz-adv-x="526" d="M-2 1839q69 37 106 55.5t124 57t206 86.5l101 -246q-176 -72 -254.5 -108.5t-155.5 -79.5zM84 6q24 571 8 1487l307 4q17 -979 -8 -1505z" />
<glyph unicode="&#xee;" horiz-adv-x="526" d="M-182 1812q40 48 149 166q53 52 99 105q81 93 190 96q85 0 154 -55q35 -24 75 -70q3 -3 8.5 -8t8.5 -8q67 -70 139 -142q11 -12 34.5 -35t35.5 -34l-219 -217q-12 13 -70 71q-22 22 -68.5 70t-70.5 72q-3 3 -9.5 9t-9.5 9q0 2 -2 2q-38 -41 -72 -78q-93 -97 -137 -149z M84 6q24 571 8 1487l307 4q17 -979 -8 -1505z" />
<glyph unicode="&#xef;" horiz-adv-x="882" d="M39 1896l305 39q13 -113 21 -276l-308 -10q-4 141 -18 247zM248 6q24 571 8 1487l307 4q17 -979 -8 -1505zM492 1896l305 39q17 -142 20 -276l-307 -10q-4 141 -18 247z" />
<glyph unicode="&#xf0;" horiz-adv-x="1527" d="M27 895q61 219 227 365q124 114 276.5 152t300.5 -3q-123 132 -282 227l-103 -143l-165 119l86 119q-98 40 -156 59l100 291q150 -53 236 -96l112 157l166 -119l-96 -137q39 -23 82 -55q210 -146 352 -348q134 -192 187 -422q40 -171 24 -359q0 -134 -45 -262 q-34 -99 -103 -186t-165 -150q-168 -112 -361 -112q-42 0 -65 4q-11 0 -31 4q-221 36 -373 172q-145 130 -202 322q-57 203 -2 401zM324 582q34 -114 119 -186.5t208 -92.5q6 -2 19 -2q10 -2 30 -2q105 0 205 70.5t135 171.5q19 60 25 106l-8 2q2 11 5 32.5t5 31.5 q-10 169 -156 307q-108 102 -233 102q-115 0 -219 -90q-97 -90 -133.5 -210.5t-1.5 -239.5z" />
<glyph unicode="&#xf1;" horiz-adv-x="1572" d="M0 1579l293 88q61 -202 90 -307q31 51 74 94q160 170 374 152q132 -13 220 -101q65 -62 110 -174q47 -116 70 -323q5 -39 8 -150q9 -259 31 -414q25 -166 67 -235q18 9 41 27l189 -242q-119 -96 -240 -96q-62 0 -115 24q-112 53 -174 201q-43 98 -67 244q-29 183 -39 481 q-4 115 -6 123q-18 170 -49 248q-14 36 -29.5 55t-23.5 21.5t-17 2.5q-68 9 -127 -55q-63 -66 -102 -182q-65 -202 -89 -492q-2 -185 -30 -569l-307 23q6 84 14 270q4 103 16 289q2 223 -37 436.5t-145 560.5zM227 1819q7 99 55.5 181.5t124.5 129.5t162 45q68 -2 174 -49 q5 -2 11.5 -4.5t7.5 -3.5q69 -30 100 -25q25 5 35 33l287 -111q-34 -89 -107.5 -149.5t-165.5 -75.5q-30 -6 -59 -6q-103 0 -215 53q-6 1 -23 10q-4 2 -22 10.5t-25 10.5q-11 -7 -21 -27t-11 -45z" />
<glyph unicode="&#xf2;" d="M29 1012q62 227 243 393q136 122 302 162.5t331 -6.5t299 -175q189 -180 247 -406.5t-24 -457.5q-76 -220 -288 -360q-183 -123 -385 -123q-22 0 -72 4q-5 1 -16.5 3t-16.5 3q-236 38 -401 187q-155 140 -215 344q-65 209 -4 432zM326 668q38 -129 135 -211.5t235 -104.5 q4 -1 11.5 -2t11.5 -2q5 0 16.5 -1t16.5 -1q119 0 232.5 81t154.5 196q25 72 28.5 141.5t-9.5 125t-40 108.5t-57 91t-68 74q-121 115 -266 115q-137 0 -248 -102q-110 -100 -151.5 -236.5t-1.5 -271.5zM487 1853l101 246q256 -103 436 -198l-127 -236q-77 43 -155.5 79.5 t-254.5 108.5z" />
<glyph unicode="&#xf3;" d="M29 1012q62 227 243 393q136 122 302 162.5t331 -6.5t299 -175q189 -180 247 -406.5t-24 -457.5q-76 -220 -288 -360q-183 -123 -385 -123q-22 0 -72 4q-5 1 -16.5 3t-16.5 3q-236 38 -401 187q-155 140 -215 344q-65 209 -4 432zM326 668q38 -129 135 -211.5t235 -104.5 q4 -1 11.5 -2t11.5 -2q5 0 16.5 -1t16.5 -1q119 0 232.5 81t154.5 196q25 72 28.5 141.5t-9.5 125t-40 108.5t-57 91t-68 74q-121 115 -266 115q-137 0 -248 -102q-110 -100 -151.5 -236.5t-1.5 -271.5zM487 1886q185 98 437 199l100 -246q-176 -72 -254.5 -108.5 t-155.5 -79.5z" />
<glyph unicode="&#xf4;" d="M29 1012q62 227 243 393q136 122 302 162.5t331 -6.5t299 -175q189 -180 247 -406.5t-24 -457.5q-76 -220 -288 -360q-183 -123 -385 -123q-22 0 -72 4q-5 1 -16.5 3t-16.5 3q-236 38 -401 187q-155 140 -215 344q-65 209 -4 432zM268 1843q31 37 150 166q44 44 98 105 q81 93 191 96q83 0 153 -56q40 -28 76 -69q3 -3 8 -8.5t8 -8.5q22 -23 140 -141l69 -69l-219 -218q-23 25 -70 72q-22 22 -68.5 69.5t-70.5 71.5q-3 3 -9 9.5t-9 9.5q0 2 -2 2q-37 -40 -72 -78q-93 -97 -137 -149zM326 668q38 -129 135 -211.5t235 -104.5q4 -1 11.5 -2 t11.5 -2q5 0 16.5 -1t16.5 -1q119 0 232.5 81t154.5 196q25 72 28.5 141.5t-9.5 125t-40 108.5t-57 91t-68 74q-121 115 -266 115q-137 0 -248 -102q-110 -100 -151.5 -236.5t-1.5 -271.5z" />
<glyph unicode="&#xf5;" d="M29 1012q62 227 243 393q136 122 302 162.5t331 -6.5t299 -175q189 -180 247 -406.5t-24 -457.5q-76 -220 -288 -360q-183 -123 -385 -123q-22 0 -72 4q-5 1 -16.5 3t-16.5 3q-236 38 -401 187q-155 140 -215 344q-65 209 -4 432zM279 1708q7 99 55.5 181.5t124.5 129.5 t162 45q68 -2 174 -49q5 -2 11 -4.5t7 -3.5q69 -30 100 -25q25 5 35 33l287 -110q-34 -89 -107 -150t-165 -76q-30 -6 -60 -6q-103 0 -215 53l-22 11q-42 18 -48 20q-11 -7 -21 -26.5t-11 -44.5zM326 668q38 -129 135 -211.5t235 -104.5q4 -1 11.5 -2t11.5 -2q5 0 16.5 -1 t16.5 -1q119 0 232.5 81t154.5 196q25 72 28.5 141.5t-9.5 125t-40 108.5t-57 91t-68 74q-121 115 -266 115q-137 0 -248 -102q-110 -100 -151.5 -236.5t-1.5 -271.5z" />
<glyph unicode="&#xf6;" d="M29 1012q62 227 243 393q136 122 302 162.5t331 -6.5t299 -175q189 -180 247 -406.5t-24 -457.5q-76 -220 -288 -360q-183 -123 -385 -123q-22 0 -72 4q-5 1 -16.5 3t-16.5 3q-236 38 -401 187q-155 140 -215 344q-65 209 -4 432zM326 668q38 -129 135 -211.5t235 -104.5 q4 -1 11.5 -2t11.5 -2q5 0 16.5 -1t16.5 -1q119 0 232.5 81t154.5 196q25 72 28.5 141.5t-9.5 125t-40 108.5t-57 91t-68 74q-121 115 -266 115q-137 0 -248 -102q-110 -100 -151.5 -236.5t-1.5 -271.5zM367 1966l305 39q12 -99 20 -276l-307 -11q-4 143 -18 248zM819 1966 l305 39q18 -152 21 -276l-307 -11q-4 133 -19 248z" />
<glyph unicode="&#xf7;" horiz-adv-x="1392" d="M125 1139q327 37 572.5 37.5t572.5 -33.5l-33 -307q-313 33 -539.5 32.5t-539.5 -34.5zM557 776l305 -33q-12 -122 29 -235l-289 -105q-64 177 -45 373zM557 1649l305 -33q-12 -120 29 -236l-289 -102q-64 176 -45 371z" />
<glyph unicode="&#xf8;" d="M29 1012q62 227 243 393q136 122 302 162.5t331 -6.5t299 -175q189 -180 247 -406.5t-24 -457.5q-76 -220 -288 -360q-183 -123 -385 -123q-22 0 -72 4q-5 1 -16.5 3t-16.5 3q-236 38 -401 187q-155 140 -215 344q-65 209 -4 432zM326 668q-40 135 1.5 271.5t151.5 236.5 q111 102 248 102q145 0 266 -115q38 -36 68 -74t57 -91t40 -108.5t9.5 -125t-28.5 -141.5q-41 -115 -154.5 -196t-232.5 -81q-5 0 -16.5 1t-16.5 1q-4 1 -11.5 2t-11.5 2q-138 22 -235 104.5t-135 211.5zM406 -287q-3 308 34 574q37 280 119 565q77 270 203 541 q126 266 289 497l252 -176q-290 -413 -444.5 -935t-145.5 -1060z" />
<glyph unicode="&#xf9;" horiz-adv-x="1644" d="M10 647q-22 170 4 363q14 109 45.5 241t52 201t60.5 197l293 -93q-2 -7 -15 -49t-16.5 -54.5t-16 -53.5t-17.5 -59.5t-16 -57.5t-16.5 -63t-14 -60.5t-14 -64.5t-11 -61t-9.5 -64q-44 -326 72 -492q20 -28 42.5 -53t57.5 -50.5t73 -38.5t88 -11.5t102 24.5 q190 86 260 443q46 224 37 718v17l307 6v-16q13 -579 80 -1000q33 -203 90 -272q35 -47 96 -47h2v-308h-2q-97 0 -185 41.5t-149 116.5q-81 97 -127 275q-113 -179 -286 -254q-217 -95 -422 -21q-190 70 -316 254q-102 143 -129 346zM492 1837l100 246q119 -48 206 -86.5 t124 -57t106 -55.5l-127 -235q-135 76 -409 188z" />
<glyph unicode="&#xfa;" horiz-adv-x="1644" d="M10 647q-22 170 4 363q14 109 45.5 241t52 201t60.5 197l293 -93q-2 -7 -15 -49t-16.5 -54.5t-16 -53.5t-17.5 -59.5t-16 -57.5t-16.5 -63t-14 -60.5t-14 -64.5t-11 -61t-9.5 -64q-44 -326 72 -492q20 -28 42.5 -53t57.5 -50.5t73 -38.5t88 -11.5t102 24.5 q190 86 260 443q46 224 37 718v17l307 6v-16q13 -579 80 -1000q33 -203 90 -272q35 -47 96 -47h2v-308h-2q-97 0 -185 41.5t-149 116.5q-81 97 -127 275q-113 -179 -286 -254q-217 -95 -422 -21q-190 70 -316 254q-102 143 -129 346zM553 1907q180 95 436 198l101 -245 q-272 -111 -410 -189z" />
<glyph unicode="&#xfb;" horiz-adv-x="1644" d="M10 647q-22 170 4 363q14 109 45.5 241t52 201t60.5 197l293 -93q-2 -7 -15 -49t-16.5 -54.5t-16 -53.5t-17.5 -59.5t-16 -57.5t-16.5 -63t-14 -60.5t-14 -64.5t-11 -61t-9.5 -64q-44 -326 72 -492q20 -28 42.5 -53t57.5 -50.5t73 -38.5t88 -11.5t102 24.5 q190 86 260 443q46 224 37 718v17l307 6v-16q13 -579 80 -1000q33 -203 90 -272q35 -47 96 -47h2v-308h-2q-97 0 -185 41.5t-149 116.5q-81 97 -127 275q-113 -179 -286 -254q-217 -95 -422 -21q-190 70 -316 254q-102 143 -129 346zM330 1819q39 48 149 166q60 60 99 104 q81 93 190 96q85 0 154 -55q35 -24 75 -70q3 -3 8.5 -8t8.5 -8q45 -47 139 -141l70 -70l-219 -217q-23 25 -70 72q-22 22 -68.5 69.5t-70.5 71.5q-3 3 -9.5 9t-9.5 9q0 2 -2 2q-12 -13 -36 -38.5t-36 -38.5q-86 -90 -137 -150z" />
<glyph unicode="&#xfc;" horiz-adv-x="1644" d="M10 647q-22 170 4 363q14 109 45.5 241t52 201t60.5 197l293 -93q-2 -7 -15 -49t-16.5 -54.5t-16 -53.5t-17.5 -59.5t-16 -57.5t-16.5 -63t-14 -60.5t-14 -64.5t-11 -61t-9.5 -64q-44 -326 72 -492q20 -28 42.5 -53t57.5 -50.5t73 -38.5t88 -11.5t102 24.5 q190 86 260 443q46 224 37 718v17l307 6v-16q13 -579 80 -1000q33 -203 90 -272q35 -47 96 -47h2v-308h-2q-97 0 -185 41.5t-149 116.5q-81 97 -127 275q-113 -179 -286 -254q-217 -95 -422 -21q-190 70 -316 254q-102 143 -129 346zM399 1966l306 39q12 -99 20 -276 l-307 -11q-4 133 -19 248zM852 1966l305 39q18 -152 21 -276l-308 -11q-4 143 -18 248z" />
<glyph unicode="&#xfd;" horiz-adv-x="1630" d="M-459 -666q15 120 97 205l219 -215q-10 -11 -12 -35t8 -51q24 -64 116 -129q175 -121 411.5 -124.5t432.5 112.5q189 113 316.5 316t156.5 440q23 198 -14.5 403.5t-124.5 437.5q-27 -89 -72 -194q-53 -120 -121 -207q-94 -119 -221 -166q-178 -66 -368 25 q-167 81 -256 239q-40 71 -64 150.5t-31 160.5t-6.5 145.5t6.5 141.5q21 279 99 555l295 -82q-68 -245 -89 -497q-22 -283 56 -422q44 -75 123 -115q70 -34 129 -14q91 34 166 209q119 275 131 567q1 58 38.5 101.5t94.5 54.5q57 12 108 -14t76 -79q195 -425 272 -684 q118 -405 78 -753q-39 -306 -198 -561q-169 -273 -424 -422q-136 -79 -285 -119q-142 -37 -293 -37h-12q-333 3 -584 180q-166 114 -229 269q-40 105 -25 208zM547 1755q69 37 106 55.5t124 57t206 86.5l100 -246q-274 -112 -409 -188z" />
<glyph unicode="&#xfe;" horiz-adv-x="1198" d="M2 975q12 569 86 1120l264 -35q-35 -254 -53 -506q86 28 178 31q237 9 424 -127q154 -111 217 -270q73 -191 -6 -397q-73 -190 -240 -304q-153 -101 -350 -116q-23 -2 -69 -2q-85 0 -179 16q7 -200 33 -512l-264 -27q-53 562 -41 1129zM266 705q120 -37 236 -27t200 65 q85 57 122.5 153.5t6.5 178.5q-27 74 -110 135q-101 72 -231.5 68t-206.5 -82l-7 8q-10 -207 -10 -499z" />
<glyph unicode="&#xff;" horiz-adv-x="1630" d="M-459 -666q15 120 97 205l219 -215q-10 -11 -12 -35t8 -51q24 -64 116 -129q175 -121 411.5 -124.5t432.5 112.5q189 113 316.5 316t156.5 440q23 198 -14.5 403.5t-124.5 437.5q-27 -89 -72 -194q-53 -120 -121 -207q-94 -119 -221 -166q-178 -66 -368 25 q-167 81 -256 239q-40 71 -64 150.5t-31 160.5t-6.5 145.5t6.5 141.5q21 279 99 555l295 -82q-68 -245 -89 -497q-22 -283 56 -422q44 -75 123 -115q70 -34 129 -14q91 34 166 209q119 275 131 567q1 58 38.5 101.5t94.5 54.5q57 12 108 -14t76 -79q195 -425 272 -684 q118 -405 78 -753q-39 -306 -198 -561q-169 -273 -424 -422q-136 -79 -285 -119q-142 -37 -293 -37h-12q-333 3 -584 180q-166 114 -229 269q-40 105 -25 208zM324 1851l305 39q12 -99 20 -276l-307 -10q-4 141 -18 247zM776 1851l305 39q18 -152 21 -276l-307 -10 q-3 132 -19 247z" />
<glyph unicode="&#x152;" horiz-adv-x="2643" d="M35 1221q76 275 291 469q123 111 266 163q140 55 293 52q144 -3 289 -66q129 -54 243 -162q-9 121 -24 242l305 37q2 -23 7 -68.5t7 -68.5l660 145l65 -299l-692 -156l-10 43q15 -208 18 -417q176 0 383.5 20.5t337.5 52.5l74 -299q-147 -35 -366.5 -58.5t-409.5 -23.5 h-19q-6 -185 -18 -372l8 41q125 -28 340 -20.5t358 52.5l94 -292q-189 -59 -448 -68q-11 0 -35 -1t-37 -1q-173 0 -305 24q-9 -100 -24 -208l-304 38q16 122 27 230q-9 -7 -27.5 -20.5t-27.5 -20.5q-218 -143 -459 -143q-26 0 -84 4q-6 1 -19.5 3t-19.5 3q-131 20 -262 80 q-114 53 -215 141q-188 173 -256 410q-77 253 -4 514zM332 795q51 -169 178.5 -278t308.5 -138q5 -1 14.5 -2t14.5 -2q14 -2 45 -2q158 0 308 106.5t204 259.5q68 190 19 373t-207 334q-160 151 -353 151q-182 0 -332 -135q-146 -130 -199.5 -309t-0.5 -358z" />
<glyph unicode="&#x153;" horiz-adv-x="2562" d="M29 1012q62 227 243 393q136 122 302 162.5t331 -6.5t299 -175q63 -60 115 -131q86 138 201 224q138 102 299 118q132 10 245 -38q121 -47 203 -144q85 -97 115 -221t2 -250q-24 -101 -84 -164q-57 -61 -174 -98q-200 -61 -420 -39q-101 12 -205 43q15 -92 66 -174 q37 -60 96.5 -105t125 -67.5t136 -21.5t129.5 28q59 26 99.5 73.5t46.5 98.5l305 -41q-17 -130 -104.5 -240.5t-219.5 -170.5q-121 -56 -260 -56q-119 0 -229 39q-119 41 -217 117q-89 66 -154 162q-86 -106 -182 -166q-183 -123 -385 -123q-22 0 -72 4q-5 1 -16.5 3 t-16.5 3q-236 38 -401 187q-155 140 -215 344q-65 209 -4 432zM326 668q38 -129 135 -211.5t235 -104.5q4 -1 11.5 -2t11.5 -2q5 0 16.5 -1t16.5 -1q119 0 232.5 81t154.5 196q25 72 28.5 141.5t-9.5 125t-40 108.5t-57 91t-68 74q-121 115 -266 115q-137 0 -248 -102 q-110 -100 -151.5 -236.5t-1.5 -271.5zM1534 999q250 -98 502 -22q22 5 41 14q1 1 8 25q12 51 -1.5 104.5t-47.5 93.5q-33 39 -85.5 60t-105.5 16q-71 -6 -141.5 -58t-122.5 -138q-25 -43 -47 -95z" />
<glyph unicode="&#x178;" horiz-adv-x="1314" d="M0 449l307 -11q0 -55 51 -96q41 -35 100 -50.5t109 -4.5q86 19 159.5 80.5t117 132t69.5 147.5q58 178 31 412q-48 -79 -90 -121q-71 -74 -166 -113q-104 -42 -217 -26q-174 31 -281 194q-75 114 -106 279q-66 351 41 692l293 -90q-83 -276 -31 -547q10 -53 28 -100.5 t46.5 -83t60.5 -41.5q25 -3 56 10t55 39q54 54 94 178q34 103 53.5 278t14.5 298l307 14q4 -101 33.5 -268t60.5 -281q124 -468 8 -819q-65 -199 -205 -348q-153 -166 -362 -215q-60 -13 -113 -13q-98 0 -193 33.5t-169 95.5q-168 139 -162 345zM227 2275l305 39 q13 -113 21 -276l-307 -10q-3 132 -19 247zM680 2275l305 39q18 -152 21 -276l-308 -10q-4 141 -18 247z" />
<glyph unicode="&#x2c6;" horiz-adv-x="1705" d="M246 1876q39 48 149 166q60 60 99 104q82 94 190 97q84 0 154 -56q37 -26 75 -69l17 -17q45 -47 139 -141l70 -70l-219 -217q-23 25 -70 72q-22 22 -68.5 69.5t-70.5 71.5l-19 19q0 2 -2 2q-38 -41 -72 -78q-86 -90 -137 -150z" />
<glyph unicode="&#x2dc;" horiz-adv-x="1705" d="M348 1006q7 99 55.5 181.5t124.5 129.5t162 45q68 -2 174 -49q5 -2 11.5 -4.5t7.5 -3.5q69 -30 100 -25q25 5 35 33l287 -111q-34 -89 -107.5 -149.5t-165.5 -75.5q-30 -6 -59 -6q-103 0 -215 53q-6 2 -23 10q-4 2 -22 10.5t-25 10.5q-11 -7 -21.5 -27t-11.5 -45z" />
<glyph unicode="&#x2000;" horiz-adv-x="1306" />
<glyph unicode="&#x2001;" horiz-adv-x="2613" />
<glyph unicode="&#x2002;" horiz-adv-x="1306" />
<glyph unicode="&#x2003;" horiz-adv-x="2613" />
<glyph unicode="&#x2004;" horiz-adv-x="871" />
<glyph unicode="&#x2005;" horiz-adv-x="653" />
<glyph unicode="&#x2006;" horiz-adv-x="435" />
<glyph unicode="&#x2007;" horiz-adv-x="435" />
<glyph unicode="&#x2008;" horiz-adv-x="326" />
<glyph unicode="&#x2009;" horiz-adv-x="522" />
<glyph unicode="&#x200a;" horiz-adv-x="145" />
<glyph unicode="&#x2010;" horiz-adv-x="1507" d="M184 1016q327 37 572.5 37.5t572.5 -33.5l-33 -307q-313 33 -539.5 32.5t-539.5 -34.5z" />
<glyph unicode="&#x2011;" horiz-adv-x="1507" d="M184 1016q327 37 572.5 37.5t572.5 -33.5l-33 -307q-313 33 -539.5 32.5t-539.5 -34.5z" />
<glyph unicode="&#x2012;" horiz-adv-x="1507" d="M184 1016q327 37 572.5 37.5t572.5 -33.5l-33 -307q-313 33 -539.5 32.5t-539.5 -34.5z" />
<glyph unicode="&#x2013;" horiz-adv-x="1628" d="M184 1016q327 37 572.5 37.5t572.5 -33.5l-33 -307q-313 33 -539.5 32.5t-539.5 -34.5z" />
<glyph unicode="&#x2014;" horiz-adv-x="2033" d="M184 1016q326 36 779.5 37t779.5 -33l-33 -307q-312 34 -746.5 33t-746.5 -35z" />
<glyph unicode="&#x2018;" horiz-adv-x="1388" d="M532 1833q0 127 50 242l243 -105q-57 -132 0 -272l-243 -105q-50 112 -50 240z" />
<glyph unicode="&#x2019;" horiz-adv-x="1366" d="M532 1698q28 63 28 135t-28 137l244 105q49 -113 49 -242q0 -130 -49 -240z" />
<glyph unicode="&#x2026;" horiz-adv-x="3364" d="M512 307l299 70q40 -179 31 -365l-307 21q9 132 -23 274zM1520 307l299 70q39 -176 30 -365l-307 21q9 135 -22 274zM2527 307l299 70q40 -179 31 -365l-307 21q9 132 -23 274z" />
<glyph unicode="&#x202f;" horiz-adv-x="522" />
<glyph unicode="&#x2039;" horiz-adv-x="1406" d="M102 885l117 116q76 74 195 193q308 305 424 410l206 -228q-94 -85 -413 -399q-8 -8 -23.5 -24t-28.5 -29t-26 -25q160 -134 334 -268q87 -64 211 -164l-191 -240q-31 25 -102 80t-105 82q-263 201 -475 387z" />
<glyph unicode="&#x203a;" horiz-adv-x="1548" d="M244 467q73 59 211 164q189 146 333 268q-14 14 -39.5 40t-37.5 38q-312 307 -412 399l205 228q131 -117 424 -410q29 -27 194 -193l117 -116l-123 -109q-200 -175 -473 -387q-150 -117 -209 -162z" />
<glyph unicode="&#x205f;" horiz-adv-x="653" />
<glyph unicode="&#x20ac;" horiz-adv-x="1675" d="M205 813q112 56 235 86q3 59 9 117q-51 -17 -109 -43l-135 276q158 76 311 101q1 4 31 84l2 2q75 192 201 327q143 163 321 199q122 22 232 -20q113 -41 208 -144l-221 -211q-86 88 -160 72q-72 -13 -148 -95t-132 -204q197 -21 379 -105l-133 -278q-158 76 -332 82 q-6 -41 -14 -127q259 -6 479 -111l-133 -278q-154 73 -334 82q15 -95 45 -162q40 -83 110 -130.5t142 -39.5q74 8 146 70t116 157l278 -129q-77 -165 -206 -270q-143 -118 -303 -133q-16 -2 -50 -2q-159 0 -297 93.5t-213 252.5q-52 107 -73 252q-61 -18 -117 -45z" />
<glyph unicode="&#x2122;" horiz-adv-x="4149" d="M-70 1663l138 274q306 -151 653 -172q45 87 82 136q82 110 201 184q131 78 272 84q118 3 221 -55q131 -80 150 -220q10 -79 -22 -151.5t-103 -128.5q-97 -74 -224 -105q-181 -44 -366 -53q-4 -15 -11 -41t-8 -31q-49 -210 -79 -446t-30.5 -484.5t40.5 -418.5l-299 -72 q-73 309 -39 758q25 374 108 735q2 2 2 8q-4 2 -14 2q-359 41 -672 197zM1112 1786q31 5 115 22q64 16 102 45q-23 9 -39 9h-4q-85 -3 -174 -76zM1681 1694l261 166q126 -202 198 -543q3 10 17 43q44 107 127 209q117 139 239 178q146 48 275 -33q145 -88 202 -303 q1 -3 2 -10t2 -10q1 1 2.5 4t2.5 4q117 191 272 270q92 47 185 52t173 -33q104 -52 174 -177q93 -162 123 -430q14 -126 13.5 -276.5t-7 -244t-22.5 -265.5q-19 -212 -23 -268l-305 20q1 32 23 275q15 158 21.5 252.5t7 227t-12.5 245.5q-24 207 -84 313q-25 42 -43 51 q-30 13 -84 -16q-80 -40 -148 -155.5t-100 -240.5q-40 -164 -54.5 -341.5t-20.5 -417.5l-2 -35l-308 -4q-2 35 -5 106t-5 107q-22 405 -39 569q-4 58 -6 104q-5 73 -8 108.5t-13 100t-28 102.5t-45 54q-9 7 -21 2q-41 -13 -95 -80t-83 -135q-86 -203 -141 -589.5t-53 -649.5 l-308 -10q-5 118 -12 297q-22 537 -55 780q-58 423 -189 627z" />
<glyph unicode="&#x25fc;" horiz-adv-x="1648" d="M0 0v1649h1649v-1649h-1649z" />
</font>
</defs>
</svg>
